<?xml version="1.0" encoding="UTF-8"?>
<svg xmlns="http://www.w3.org/2000/svg" xmlns:xlink="http://www.w3.org/1999/xlink" viewBox="0 0 55.78 67.05">
  <defs>
    <style>
      .cls-1 {
        fill: url(#linear-gradient-51);
      }

      .cls-2 {
        fill: #4e4e4e;
      }

      .cls-2, .cls-3, .cls-4, .cls-5, .cls-6, .cls-7, .cls-8, .cls-9, .cls-10, .cls-11, .cls-12, .cls-13, .cls-14, .cls-15, .cls-16, .cls-17, .cls-18, .cls-19, .cls-20, .cls-21, .cls-22, .cls-23, .cls-24 {
        mix-blend-mode: multiply;
      }

      .cls-3 {
        fill: url(#linear-gradient-2);
        opacity: .5;
      }

      .cls-25 {
        fill: url(#linear-gradient-15);
      }

      .cls-26 {
        fill: url(#linear-gradient-45);
      }

      .cls-26, .cls-27, .cls-28, .cls-29, .cls-30, .cls-31, .cls-32, .cls-33, .cls-34, .cls-35, .cls-36, .cls-37, .cls-38, .cls-39 {
        mix-blend-mode: screen;
      }

      .cls-40 {
        fill: url(#linear-gradient-40);
      }

      .cls-27 {
        fill: url(#linear-gradient-19);
      }

      .cls-28 {
        fill: url(#linear-gradient-75);
      }

      .cls-41 {
        fill: url(#linear-gradient-52);
      }

      .cls-42 {
        fill: url(#linear-gradient-28);
      }

      .cls-29 {
        fill: url(#linear-gradient-26);
      }

      .cls-29, .cls-32, .cls-10, .cls-34, .cls-14, .cls-16, .cls-19, .cls-37, .cls-38 {
        opacity: .4;
      }

      .cls-43 {
        fill: url(#linear-gradient-36);
      }

      .cls-44 {
        fill: url(#linear-gradient-6);
      }

      .cls-4 {
        fill: url(#linear-gradient-14);
      }

      .cls-4, .cls-12, .cls-15, .cls-20, .cls-22, .cls-24 {
        opacity: .6;
      }

      .cls-45 {
        fill: url(#linear-gradient-53);
      }

      .cls-46 {
        isolation: isolate;
      }

      .cls-30 {
        fill: #806661;
      }

      .cls-47 {
        fill: #361f17;
      }

      .cls-48 {
        fill: url(#linear-gradient-35);
      }

      .cls-49 {
        fill: url(#linear-gradient-48);
      }

      .cls-50 {
        fill: url(#linear-gradient-32);
      }

      .cls-31 {
        fill: url(#linear-gradient-10);
      }

      .cls-5 {
        fill: url(#linear-gradient-42);
      }

      .cls-32 {
        fill: url(#linear-gradient-25);
      }

      .cls-51 {
        fill: url(#linear-gradient-11);
      }

      .cls-52 {
        fill: url(#linear-gradient-50);
      }

      .cls-6 {
        fill: url(#linear-gradient-73);
      }

      .cls-7 {
        fill: url(#linear-gradient-43);
      }

      .cls-8, .cls-53 {
        fill: #545d5b;
      }

      .cls-54 {
        fill: url(#linear-gradient-63);
      }

      .cls-55 {
        fill: url(#linear-gradient-67);
      }

      .cls-56 {
        fill: url(#linear-gradient-39);
      }

      .cls-9 {
        fill: url(#linear-gradient-74);
      }

      .cls-33 {
        fill: url(#linear-gradient-18);
      }

      .cls-10 {
        fill: url(#linear-gradient-78);
      }

      .cls-57 {
        fill: url(#linear-gradient-59);
      }

      .cls-11 {
        fill: #3c2f2c;
        opacity: .3;
      }

      .cls-12 {
        fill: url(#linear-gradient-17);
      }

      .cls-58 {
        fill: url(#linear-gradient-49);
      }

      .cls-59 {
        fill: url(#linear-gradient-37);
      }

      .cls-60 {
        fill: url(#linear-gradient-31);
      }

      .cls-61 {
        fill: url(#linear-gradient-61);
      }

      .cls-62 {
        fill: url(#linear-gradient-68);
      }

      .cls-63 {
        fill: url(#linear-gradient-62);
      }

      .cls-64 {
        fill: url(#linear-gradient-41);
      }

      .cls-65 {
        fill: #624f4b;
      }

      .cls-13 {
        fill: url(#linear-gradient-55);
      }

      .cls-34 {
        fill: url(#linear-gradient-4);
      }

      .cls-66 {
        fill: url(#linear-gradient-21);
      }

      .cls-67 {
        fill: url(#linear-gradient-72);
      }

      .cls-14 {
        fill: url(#linear-gradient-69);
      }

      .cls-68 {
        fill: url(#linear-gradient-5);
      }

      .cls-69 {
        fill: url(#linear-gradient-64);
      }

      .cls-70 {
        fill: url(#linear-gradient-54);
      }

      .cls-15 {
        fill: url(#linear-gradient-56);
      }

      .cls-16 {
        fill: url(#linear-gradient-3);
      }

      .cls-71 {
        fill: url(#linear-gradient-34);
      }

      .cls-72 {
        fill: url(#linear-gradient-65);
      }

      .cls-73 {
        fill: url(#linear-gradient-70);
      }

      .cls-17 {
        fill: url(#linear-gradient-22);
      }

      .cls-17, .cls-18 {
        opacity: .9;
      }

      .cls-74 {
        fill: #171311;
      }

      .cls-35 {
        fill: url(#linear-gradient-60);
      }

      .cls-75 {
        fill: #bcbcbc;
      }

      .cls-76 {
        fill: url(#linear-gradient-7);
      }

      .cls-18 {
        fill: url(#linear-gradient-8);
      }

      .cls-77 {
        fill: url(#linear-gradient-66);
      }

      .cls-36 {
        fill: url(#linear-gradient-76);
      }

      .cls-19 {
        fill: url(#linear-gradient-9);
      }

      .cls-37 {
        fill: url(#linear-gradient-27);
      }

      .cls-38 {
        fill: url(#linear-gradient-24);
      }

      .cls-78 {
        fill: url(#linear-gradient);
      }

      .cls-79 {
        fill: url(#linear-gradient-33);
      }

      .cls-20 {
        fill: url(#linear-gradient-16);
      }

      .cls-80 {
        fill: url(#linear-gradient-38);
      }

      .cls-81 {
        fill: url(#linear-gradient-29);
      }

      .cls-82 {
        fill: #302313;
      }

      .cls-21 {
        fill: url(#linear-gradient-57);
      }

      .cls-83 {
        fill: url(#linear-gradient-30);
      }

      .cls-22 {
        fill: url(#linear-gradient-58);
      }

      .cls-84 {
        fill: url(#linear-gradient-23);
      }

      .cls-85 {
        fill: url(#linear-gradient-71);
      }

      .cls-24 {
        fill: url(#linear-gradient-77);
      }

      .cls-86 {
        fill: url(#linear-gradient-44);
      }

      .cls-39 {
        fill: url(#linear-gradient-20);
      }

      .cls-87 {
        fill: url(#linear-gradient-47);
      }

      .cls-88 {
        fill: url(#linear-gradient-46);
      }

      .cls-89 {
        fill: url(#linear-gradient-12);
      }

      .cls-90 {
        fill: url(#linear-gradient-13);
      }
    </style>
    <linearGradient id="linear-gradient" x1="7675.82" y1="1455.47" x2="7643.74" y2="1461.89" gradientTransform="translate(7596.83 1990.41) rotate(-154.84) scale(1 -1)" gradientUnits="userSpaceOnUse">
      <stop offset="0" stop-color="#ffead9"/>
      <stop offset=".14" stop-color="#f7d7b2"/>
      <stop offset=".31" stop-color="#efc38a"/>
      <stop offset=".39" stop-color="#edbc7b"/>
      <stop offset=".56" stop-color="#dda45a"/>
      <stop offset=".73" stop-color="#d1913f"/>
      <stop offset=".88" stop-color="#c9862f"/>
      <stop offset="1" stop-color="#c7822a"/>
    </linearGradient>
    <linearGradient id="linear-gradient-2" x1="7436.04" y1="35.53" x2="7442.38" y2="34.67" gradientTransform="translate(7477.55 -16.19) rotate(179.78) scale(1 -1)" xlink:href="#linear-gradient"/>
    <linearGradient id="linear-gradient-3" x1="7670.32" y1="1462.67" x2="7673.51" y2="1450.58" gradientTransform="translate(7596.83 1990.41) rotate(-154.84) scale(1 -1)" gradientUnits="userSpaceOnUse">
      <stop offset="0" stop-color="#ffead9"/>
      <stop offset=".24" stop-color="#f7d7b2"/>
      <stop offset=".52" stop-color="#efc38a"/>
      <stop offset=".67" stop-color="#edbc7b"/>
      <stop offset=".76" stop-color="#dda45a"/>
      <stop offset=".85" stop-color="#d1913f"/>
      <stop offset=".94" stop-color="#c9862f"/>
      <stop offset="1" stop-color="#c7822a"/>
    </linearGradient>
    <linearGradient id="linear-gradient-4" x1="7137.05" y1="2991.82" x2="7137.56" y2="2992.95" gradientTransform="translate(6628.15 4101.88) rotate(-125.62) scale(1 -1)" gradientUnits="userSpaceOnUse">
      <stop offset=".09" stop-color="#fff"/>
      <stop offset=".15" stop-color="#f9f1e8"/>
      <stop offset=".31" stop-color="#ead0af"/>
      <stop offset=".48" stop-color="#ddb47f"/>
      <stop offset=".63" stop-color="#d39e5a"/>
      <stop offset=".78" stop-color="#cc8e3f"/>
      <stop offset=".9" stop-color="#c8852f"/>
      <stop offset="1" stop-color="#c7822a"/>
    </linearGradient>
    <linearGradient id="linear-gradient-5" x1="7550.38" y1="-819.15" x2="7553.62" y2="-821.91" gradientTransform="translate(7579.55 -604.47) rotate(168.97) scale(1 -1)" xlink:href="#linear-gradient"/>
    <linearGradient id="linear-gradient-6" x1="7471.55" y1="32.34" x2="7469.32" y2="35.19" gradientTransform="translate(7481.38) rotate(-180) scale(1 -1)" gradientUnits="userSpaceOnUse">
      <stop offset=".06" stop-color="#221a17"/>
      <stop offset=".97" stop-color="#d9c5bd"/>
    </linearGradient>
    <linearGradient id="linear-gradient-7" x1="4610.87" y1="-1782.95" x2="4620.05" y2="-1799.08" gradientTransform="translate(4720.03 -1501.21) rotate(140.57) scale(1 -1)" xlink:href="#linear-gradient"/>
    <linearGradient id="linear-gradient-8" x1="4610.87" y1="-1782.95" x2="4620.05" y2="-1799.08" gradientTransform="translate(4720.03 -1501.21) rotate(140.57) scale(1 -1)" xlink:href="#linear-gradient-3"/>
    <linearGradient id="linear-gradient-9" x1="7457.44" y1="40.28" x2="7459.98" y2="29.07" gradientTransform="translate(6560.04 3632.18) rotate(-151.01) scale(1 -1)" xlink:href="#linear-gradient-3"/>
    <linearGradient id="linear-gradient-10" x1="4615.36" y1="-1780.77" x2="4624.22" y2="-1796.36" gradientTransform="translate(4720.03 -1501.21) rotate(140.57) scale(1 -1)" xlink:href="#linear-gradient"/>
    <linearGradient id="linear-gradient-11" x1="7442.96" y1="33.26" x2="7450.46" y2="10.87" gradientTransform="translate(7477.55 -16.19) rotate(179.78) scale(1 -1)" xlink:href="#linear-gradient"/>
    <linearGradient id="linear-gradient-12" x1="7442.96" y1="33.26" x2="7450.46" y2="10.87" gradientTransform="translate(7477.55 -16.19) rotate(179.78) scale(1 -1)" xlink:href="#linear-gradient"/>
    <linearGradient id="linear-gradient-13" x1="7450.56" y1="32.74" x2="7445.93" y2="46.74" gradientTransform="translate(7481.38) rotate(-180) scale(1 -1)" gradientUnits="userSpaceOnUse">
      <stop offset=".04" stop-color="#cec2a0"/>
      <stop offset=".15" stop-color="#d4caad"/>
      <stop offset=".53" stop-color="#ebe6d9"/>
      <stop offset=".83" stop-color="#f9f8f4"/>
      <stop offset="1" stop-color="#fff"/>
    </linearGradient>
    <linearGradient id="linear-gradient-14" x1="7442.96" y1="33.26" x2="7450.46" y2="10.87" gradientTransform="translate(7477.55 -16.19) rotate(179.78) scale(1 -1)" xlink:href="#linear-gradient"/>
    <linearGradient id="linear-gradient-15" x1="7453.16" y1="25.25" x2="7436.17" y2="66.88" gradientTransform="translate(7125.97 -2222.43) rotate(162.61) scale(1 -1)" xlink:href="#linear-gradient"/>
    <linearGradient id="linear-gradient-16" x1="7453.16" y1="25.25" x2="7436.17" y2="66.88" gradientTransform="translate(7125.97 -2222.43) rotate(162.61) scale(1 -1)" xlink:href="#linear-gradient"/>
    <linearGradient id="linear-gradient-17" x1="7451" y1="24.34" x2="7433.98" y2="66.04" gradientTransform="translate(7125.97 -2222.43) rotate(162.61) scale(1 -1)" xlink:href="#linear-gradient"/>
    <linearGradient id="linear-gradient-18" x1="7436.39" y1="30.61" x2="7439.22" y2="30.61" gradientTransform="translate(7117.47 -2236.73) rotate(162.39) scale(1 -1)" xlink:href="#linear-gradient"/>
    <linearGradient id="linear-gradient-19" x1="7439.33" y1="39.36" x2="7439.78" y2="39.36" gradientTransform="translate(7117.47 -2236.73) rotate(162.39) scale(1 -1)" xlink:href="#linear-gradient"/>
    <linearGradient id="linear-gradient-20" x1="7439.81" y1="44.4" x2="7440.56" y2="44.4" gradientTransform="translate(7117.47 -2236.73) rotate(162.39) scale(1 -1)" xlink:href="#linear-gradient"/>
    <linearGradient id="linear-gradient-21" x1="6411.27" y1="-1257.04" x2="6421.44" y2="-1269.96" gradientTransform="translate(6376.9 -1439.29) rotate(155.69) scale(1 -1)" xlink:href="#linear-gradient"/>
    <linearGradient id="linear-gradient-22" x1="7469.3" y1="51.19" x2="7479.95" y2="48.36" gradientTransform="translate(7373.3 1314.68) rotate(-169.87) scale(1 -1)" xlink:href="#linear-gradient-3"/>
    <linearGradient id="linear-gradient-23" x1="7478.08" y1="36.39" x2="7466.93" y2="42.42" gradientTransform="translate(7373.3 1314.68) rotate(-169.87) scale(1 -1)" xlink:href="#linear-gradient-6"/>
    <linearGradient id="linear-gradient-24" x1="-.19" y1="44.82" x2="9.94" y2="43.64" gradientTransform="translate(8.62 -1.62) rotate(10.13)" xlink:href="#linear-gradient"/>
    <linearGradient id="linear-gradient-25" x1="7458.67" y1="30.86" x2="7466.31" y2="29.97" gradientTransform="translate(7372.38 1298.07) rotate(-170.08) scale(1 -1)" xlink:href="#linear-gradient"/>
    <linearGradient id="linear-gradient-26" x1="7447.97" y1="30.39" x2="7463.03" y2="30.39" gradientTransform="translate(7481.38) rotate(-180) scale(1 -1)" xlink:href="#linear-gradient"/>
    <linearGradient id="linear-gradient-27" x1="7436.55" y1="32.06" x2="7442.7" y2="32.06" gradientTransform="translate(7481.38) rotate(-180) scale(1 -1)" xlink:href="#linear-gradient"/>
    <linearGradient id="linear-gradient-28" x1="7429.77" y1="12.3" x2="7426.02" y2="19.27" xlink:href="#linear-gradient-13"/>
    <linearGradient id="linear-gradient-29" x1="7428.92" y1="11.9" x2="7425.27" y2="18.7" xlink:href="#linear-gradient-6"/>
    <linearGradient id="linear-gradient-30" x1="7427.67" y1="18.77" x2="7429.61" y2="9.66" xlink:href="#linear-gradient-6"/>
    <linearGradient id="linear-gradient-31" x1="7427.36" y1="15.82" x2="7428.71" y2="14.6" gradientTransform="translate(7481.38) rotate(-180) scale(1 -1)" xlink:href="#linear-gradient"/>
    <linearGradient id="linear-gradient-32" x1="7426.54" y1="21.62" x2="7437.61" y2="21.62" gradientTransform="translate(7481.38) rotate(-180) scale(1 -1)" xlink:href="#linear-gradient"/>
    <linearGradient id="linear-gradient-33" x1="7426.54" y1="21.62" x2="7437.61" y2="21.62" gradientTransform="translate(7481.38) rotate(-180) scale(1 -1)" xlink:href="#linear-gradient"/>
    <linearGradient id="linear-gradient-34" x1="7426.54" y1="19.82" x2="7437.61" y2="19.82" xlink:href="#linear-gradient-13"/>
    <linearGradient id="linear-gradient-35" x1="7428.57" y1="36.19" x2="7427.72" y2="33.36" gradientTransform="translate(7480.06 5.2) rotate(-179.9) scale(1 -1)" xlink:href="#linear-gradient-13"/>
    <linearGradient id="linear-gradient-36" x1="7426.54" y1="22.04" x2="7437.61" y2="22.04" xlink:href="#linear-gradient-6"/>
    <linearGradient id="linear-gradient-37" x1="7433.47" y1="17.09" x2="7432.55" y2="23.05" xlink:href="#linear-gradient-6"/>
    <linearGradient id="linear-gradient-38" x1="7438.96" y1="14.32" x2="7434.47" y2="19.51" xlink:href="#linear-gradient-6"/>
    <linearGradient id="linear-gradient-39" x1="7433.39" y1="19.84" x2="7433.79" y2="21.29" gradientTransform="translate(7481.38) rotate(-180) scale(1 -1)" gradientUnits="userSpaceOnUse">
      <stop offset=".08" stop-color="#261e1c"/>
      <stop offset=".25" stop-color="#3f3734"/>
      <stop offset=".62" stop-color="#827971"/>
      <stop offset="1" stop-color="#cec5b8"/>
    </linearGradient>
    <linearGradient id="linear-gradient-40" x1="7433.44" y1="19.94" x2="7432.97" y2="18.34" xlink:href="#linear-gradient-39"/>
    <linearGradient id="linear-gradient-41" x1="7428.09" y1="27.46" x2="7428.17" y2="28.56" xlink:href="#linear-gradient-6"/>
    <linearGradient id="linear-gradient-42" x1="7429.77" y1="12.29" x2="7426" y2="19.3" xlink:href="#linear-gradient-13"/>
    <linearGradient id="linear-gradient-43" x1="7429.99" y1="12.38" x2="7426.17" y2="19.47" xlink:href="#linear-gradient-13"/>
    <linearGradient id="linear-gradient-44" x1="7434.28" y1="8.71" x2="7428.03" y2="3.42" xlink:href="#linear-gradient-6"/>
    <linearGradient id="linear-gradient-45" x1="7434.29" y1="8.72" x2="7428.01" y2="3.41" xlink:href="#linear-gradient-6"/>
    <linearGradient id="linear-gradient-46" x1="7428.51" y1="13.12" x2="7437.53" y2="21.54" xlink:href="#linear-gradient-6"/>
    <linearGradient id="linear-gradient-47" x1="7428.68" y1="12.79" x2="7437.9" y2="21.4" xlink:href="#linear-gradient-6"/>
    <linearGradient id="linear-gradient-48" x1="7429.03" y1="12.46" x2="7438.02" y2="20.86" xlink:href="#linear-gradient-6"/>
    <linearGradient id="linear-gradient-49" x1="7429.59" y1="11.75" x2="7438.66" y2="20.22" xlink:href="#linear-gradient-6"/>
    <linearGradient id="linear-gradient-50" x1="7430.3" y1="10.91" x2="7439.39" y2="19.39" xlink:href="#linear-gradient-6"/>
    <linearGradient id="linear-gradient-51" x1="7431.52" y1="9.55" x2="7440.71" y2="18.13" xlink:href="#linear-gradient-6"/>
    <linearGradient id="linear-gradient-52" x1="7433" y1="7.9" x2="7442.17" y2="16.46" xlink:href="#linear-gradient-6"/>
    <linearGradient id="linear-gradient-53" x1="7434.21" y1="6.55" x2="7443.38" y2="15.12" xlink:href="#linear-gradient-6"/>
    <linearGradient id="linear-gradient-54" x1="7432.63" y1="20.73" x2="7430.99" y2="24.38" xlink:href="#linear-gradient-6"/>
    <linearGradient id="linear-gradient-55" x1="7426.54" y1="26.8" x2="7437.62" y2="26.8" xlink:href="#linear-gradient-13"/>
    <linearGradient id="linear-gradient-56" x1="7426.54" y1="21.63" x2="7437.61" y2="21.63" gradientTransform="translate(7481.38) rotate(-180) scale(1 -1)" xlink:href="#linear-gradient"/>
    <linearGradient id="linear-gradient-57" x1="7426.54" y1="16.31" x2="7437.61" y2="16.31" xlink:href="#linear-gradient-13"/>
    <linearGradient id="linear-gradient-58" x1="7426.54" y1="20.07" x2="7437.61" y2="20.07" gradientTransform="translate(7481.38) rotate(-180) scale(1 -1)" xlink:href="#linear-gradient"/>
    <linearGradient id="linear-gradient-59" x1="7434.17" y1="7.04" x2="7457.68" y2="13.2" xlink:href="#linear-gradient-6"/>
    <linearGradient id="linear-gradient-60" x1="7433.46" y1="9.76" x2="7456.96" y2="15.92" xlink:href="#linear-gradient-6"/>
    <linearGradient id="linear-gradient-61" x1="7435.55" y1="15.99" x2="7441.17" y2="22.01" xlink:href="#linear-gradient-6"/>
    <linearGradient id="linear-gradient-62" x1="7437.05" y1="14.5" x2="7442.67" y2="20.53" xlink:href="#linear-gradient-6"/>
    <linearGradient id="linear-gradient-63" x1="7438.56" y1="12.99" x2="7444.16" y2="19" xlink:href="#linear-gradient-6"/>
    <linearGradient id="linear-gradient-64" x1="7439.97" y1="11.63" x2="7445.61" y2="17.67" xlink:href="#linear-gradient-6"/>
    <linearGradient id="linear-gradient-65" x1="7441.43" y1="10.22" x2="7447.09" y2="16.29" xlink:href="#linear-gradient-6"/>
    <linearGradient id="linear-gradient-66" x1="7442.77" y1="8.94" x2="7448.45" y2="15.02" xlink:href="#linear-gradient-6"/>
    <linearGradient id="linear-gradient-67" x1="7444" y1="7.75" x2="7449.69" y2="13.84" xlink:href="#linear-gradient-6"/>
    <linearGradient id="linear-gradient-68" x1="7444.96" y1="6.82" x2="7450.67" y2="12.94" xlink:href="#linear-gradient-6"/>
    <linearGradient id="linear-gradient-69" x1="7445.25" y1="13.65" x2="7489.18" y2="60.74" xlink:href="#linear-gradient-6"/>
    <linearGradient id="linear-gradient-70" x1="7440.56" y1="15.77" x2="7436.11" y2="20.91" xlink:href="#linear-gradient-6"/>
    <linearGradient id="linear-gradient-71" x1="7437.74" y1="13.22" x2="7442.04" y2="19.94" xlink:href="#linear-gradient-13"/>
    <linearGradient id="linear-gradient-72" x1="7440.79" y1="14.28" x2="7443.02" y2="12.25" xlink:href="#linear-gradient-6"/>
    <linearGradient id="linear-gradient-73" x1="7437.74" y1="13.22" x2="7442.04" y2="19.94" xlink:href="#linear-gradient-13"/>
    <linearGradient id="linear-gradient-74" x1="7436.3" y1="14.31" x2="7440.49" y2="20.85" xlink:href="#linear-gradient-13"/>
    <linearGradient id="linear-gradient-75" x1="7426.54" y1="21.64" x2="7437.62" y2="21.64" gradientTransform="translate(7481.38) rotate(-180) scale(1 -1)" xlink:href="#linear-gradient"/>
    <linearGradient id="linear-gradient-76" x1="7426.54" y1="18.9" x2="7437.61" y2="18.9" gradientTransform="translate(7481.38) rotate(-180) scale(1 -1)" xlink:href="#linear-gradient"/>
    <linearGradient id="linear-gradient-77" x1="7426.54" y1="22.86" x2="7437.61" y2="22.86" gradientTransform="translate(7481.38) rotate(-180) scale(1 -1)" xlink:href="#linear-gradient"/>
    <linearGradient id="linear-gradient-78" x1="7440.26" y1="14.31" x2="7511.07" y2="80.43" xlink:href="#linear-gradient-6"/>
  </defs>
  <g class="cls-46">
    <g id="Layer_2" data-name="Layer 2">
      <g id="Layer_1-2" data-name="Layer 1">
        <g>
          <g>
            <g>
              <g>
                <path class="cls-53" d="M32.91,57.31s-.84-.04-1.47-.02c0,0-.39,1.93,.48,2.74l1.52-.95-.52-1.77Z"/>
                <path class="cls-8" d="M32.66,58.97c-.39-.37-.95-.84-1.27-1.35,.02-.2,.05-.33,.05-.33,.63-.02,1.47,.02,1.47,.02l.52,1.77-.5,.32c0-.16-.14-.3-.27-.43Z"/>
                <path class="cls-78" d="M33.06,57.12c.05,0,.06-.06,.04-.09-.05-.06-.1-.11-.15-.16,.42-.05,.86-.14,1.24-.3,.14-.06,.25-.14,.35-.24,0,0,.02,.02,.02,.03,.02-.04,.03-.08,.05-.11,.12-.14,.21-.31,.29-.49,.65-1.35,1.26-2.73,1.89-4.09,.16-.36,.33-.71,.5-1.07,.14-.31,.35-.63,.44-.97,.07-.29,.03-.6,.16-.87,.09-.19,.13-.33,.1-.54-.06-.48-.33-.94-.58-1.34-.15-.24-.31-.48-.48-.72-.34-.68-.68-1.29-.79-1.47-.78-1.27-5.45-7.11-2.84-9.03,1.76-1.3,3.44,.09,3.99,2.24,.26,1.03,1.37,6.62,1.82,7.81,.22,.58,.36,1.23,.62,1.78,.25,.53,.41,.86,.22,1.47-.15,.48-.44,.89-.77,1.21-.02,.02-.03,.03-.05,.05-.95,.84-1.4,2.3-2.05,3.5-.27,.68-.54,1.36-.85,2.02-.31,.66-.65,1.26-1.05,1.8-.11,.07-.3,.6-.42,.64-.42,.16-1.56,1.27-1.83,1.23-.26-.29-.63-1.58-.52-2.35,.22,.04,.44,.06,.66,.07Z"/>
                <path class="cls-47" d="M33.15,56.84c.36-.05,.72-.14,1.04-.27,.14-.06,.25-.14,.35-.24,0,0,.02,.02,.02,.03,.02-.04,.03-.08,.05-.11,.12-.14,.21-.31,.29-.49,.09-.18,.17-.37,.26-.55,0,.55-.1,1.14-.36,1.56-.39,.63-1.29,.67-1.65,.07Z"/>
                <path class="cls-3" d="M36.36,37.95c-.29,.3-.59,.58-.83,.93-.25,.37-.43,.77-.55,1.21-.02,.06,.06,.09,.1,.04,.07-.1,.15-.2,.23-.3-.08,.19-.14,.39-.15,.6,0,.05,.06,.07,.09,.04,.11-.1,.22-.2,.33-.31-.45,1.17,.12,2.35,.69,3.39,.7,1.27,1.3,2.6,1.81,3.97,.02,.04,.06,.05,.09,.02,.15-.12,.31-.23,.48-.32-.45,.97-.31,2.04-.34,3.1-.07-.12-.13-.26-.19-.39-.02-.05-.09-.06-.1,0-.16,.75-.62,1.36-.93,2.05-.34,.74-.66,1.48-1.02,2.21-.31,.63-.48,1.36-.86,1.95-.39,.6-1.05,.57-1.61,.87-.04,.02-.03,.07,0,.1,.12,.09,.26,.15,.41,.19-.39,.16-.82,.19-1.22,.36-.14,.06-.25,.16-.35,.28-.05-.32-.07-.63-.03-.89,.22,.04,.44,.06,.66,.07,.05,0,.06-.06,.04-.09-.05-.06-.1-.11-.15-.16,.42-.05,.86-.14,1.24-.3,.14-.06,.25-.14,.35-.24,0,0,.02,.02,.02,.03,.02-.04,.03-.08,.05-.11,.12-.14,.21-.31,.29-.49,.65-1.35,1.26-2.73,1.89-4.09,.16-.36,.33-.71,.5-1.07,.14-.31,.35-.63,.44-.97,.07-.29,.03-.6,.16-.87,.09-.19,.13-.33,.1-.54-.06-.48-.33-.94-.58-1.34-.15-.24-.31-.48-.48-.72-.34-.68-.68-1.29-.79-1.47-.78-1.27-5.45-7.11-2.84-9.03,1.55-1.15,3.04-.2,3.74,1.5-.02,.02-.03,.04-.05,.06-.21,.24-.41,.5-.63,.73Z"/>
                <path class="cls-16" d="M33.3,35.66c1.76-1.3,3.44,.09,3.99,2.24,.12,.47,.42,1.92,.76,3.46-.23,.19-.48,.34-.74,.47-.35,.17-.74,.29-1.03,.6-.38,.4-.46,1.03-.56,1.64-1.36-1.97-4.72-6.71-2.42-8.41Z"/>
              </g>
              <path class="cls-34" d="M37.19,40.95c-.06-.58-.37-2.95-.48-3.54-.08-.41-.17-.81-.32-1.19,0,0,0,0,0,0,.57,.49,1.21,3.98,1.38,4.74,.29,1.31,.52,2.65,.91,3.93,.2,.66,.43,1.33,.67,1.98,.17,.45,.47,.81,.56,1.3,.12,.71-.32,1.45-.81,1.81,.33-.45,.56-.99,.61-1.57,.06-.65-.26-.37-.41-.88-.14-.49-.57-1.23-.73-1.71-.15-.46-.32-.9-.47-1.36-.16-.48-.3-.96-.45-1.45-.08-.3-.15-.61-.23-.91-.09-.38-.17-.77-.25-1.15Z"/>
            </g>
            <path class="cls-68" d="M7.79,37.1c-.05,.13-.09,.25-.13,.38-.02,.07-.16-.02-.14-.08,.12-.51,.25-1.02,.42-1.52,.04-.59,.12-1.18,.31-1.75,.25-.77,.68-1.49,1.15-2.16,.34-.49,.66-.99,1.14-1.37,.48-.39,1.06-.62,1.61-.91,0,.08-.01,.15-.03,.23-.08,.33-.18,.65-.32,.96-.29,.63-.68,1.22-1,1.84-.19,.37-.37,.75-.54,1.14-.29,.63-.55,1.21-.52,1.91,.01,.31,.03,.64,.19,.91,.04,.07,0,.13-.09,.1-.16-.05-.3-.17-.42-.32,0,0,0,0,0,0,0,.51,.08,1.01,.11,1.52,0,.07-.11,0-.12-.03,0,0,0-.01,0-.02,0,0-.01,0-.02-.01-.12-.2-.19-.41-.26-.63,0,.13,.01,.25,.03,.38,.12,.36,.29,.71,.41,1.08,.04,.11-.12,.06-.16,.02-.23-.22-.42-.47-.58-.75,.01,.27,.05,.54,.11,.81,.02,.16,.05,.32,.07,.48-.05,.01-.15-.03-.17-.07-.11-.19-.2-.39-.27-.6,.04,.34,.11,.68,.21,1.03,0,.13,0,.25,0,.38-.06,0-.13-.05-.16-.09-.16-.25-.28-.52-.36-.8,0,.04-.02,.09-.03,.13-.04,.13-.12,.42-.09,.59-.12-.29-.2-.6-.25-.93,0-.23-.01-.46-.02-.69-.04,.19-.07,.38-.1,.58,0,.06-.12,0-.12-.05,.03-.56,.06-1.12,.17-1.68Z"/>
            <path class="cls-44" d="M9.41,36.45s0,0,0,0c0,.33,.04,.66,.07,.99-.04-.3-.1-.6-.17-.9-.12-.53-.25-1.06-.25-1.61,0-.55,.06-1.71,.03-1.66-.44,.56-.75,1.13-1.05,1.77,.05-.31,.12-.61,.22-.91,.25-.77,.68-1.49,1.15-2.16,.34-.49,.66-.99,1.14-1.37,.48-.39,1.06-.62,1.61-.91,0,.08-.01,.15-.03,.23-.08,.33-.18,.65-.32,.96-.29,.63-.68,1.22-1,1.84-.19,.37-.37,.75-.54,1.14-.29,.63-.55,1.21-.52,1.91,.01,.31,.03,.64,.19,.91,.04,.07,0,.13-.09,.1-.16-.05-.3-.17-.42-.32Z"/>
            <g>
              <path id="rear-left-foot-1" class="cls-53" d="M15.34,64.82s.31,1.14,.12,2.23c0,0-1.45-.27-1.97-1.47l.61-1.1,1.24,.34Z"/>
              <path id="rear-left-foot-2" class="cls-8" d="M15.34,64.82s.1,.38,.15,.9c-.36,.05-.72-.3-1.08-.08-.23,.14-.34,.38-.43,.64-.19-.19-.37-.42-.49-.7l.61-1.1,1.24,.34Z"/>
              <path id="rear-left-foot-3" class="cls-76" d="M17.66,32.76c.48-1.28,1.39-2.52,2.52-3.28,.62-.41,1.3-.65,1.98-.7,1.32,.35,2.56,1.06,3.37,1.88,3.77,3.79,2.26,16.04-8.64,22.72-.36,.22-.64,7.4-.65,8.44,0,.39-.19,1.6-.19,2.54-.08,.26-.18,.51-.3,.76-.07,.13-.14,.26-.21,.39-.61,.08-1.23-.49-1.6-1l.78-1.61c.26-.26-.18-1.15-.06-1.48,.16-.47,.11-.57,.08-.97-.04-.49-.01-.16-.08-.65-.43-3.33-.67-3.95-.74-7.32-.03-1.3,2.36-2.46,3.25-2.86,1.33-.59,1.51-5.02,1.59-6.31,.14-2.47-.74-5.08-1.47-7.44-.05-1.05-.01-2.11,.37-3.11Z"/>
              <path id="rear-left-foot-4" class="cls-18" d="M20.18,29.48c.62-.41,1.3-.65,1.98-.7,1.32,.35,2.56,1.06,3.37,1.88,2.74,2.75,2.69,9.97-1.72,16.28,.07-.52-.02-1.07-.19-1.54-.02-.06-.1-.05-.11,.02-.02,.22-.06,.43-.1,.65-.09-.61-.48-1.21-.97-1.51-.04-.03-.09,.02-.08,.07,.04,.2,.08,.39,.11,.59-.24-.39-.61-.63-1.04-.82-.28-.13-.49-.15-.69,.14-.9,1.31-1.32,2.81-2,4.23-.02,.04,.01,.09,.06,.08,.19-.05,.76,.38,.95,.39-.75,.26-4.88,1.71-5.14,4.87-.1,1.19,.28,2.34,.41,3.51,.07,.67,.1,1.36,.22,2.02,.03,.19,.08,.38,.07,.57,0,.19-.09,.32-.19,.48-.11,.16-.23,.37-.17,.58,.07,.23,.24,.35,.38,.52,.08,.1-.13,.3-.17,.39-.07,.13-.13,.26-.17,.4-.13,.38-.26,.74-.43,1.1-.12,.26-.24,.51-.3,.79,0,.04,.04,.09,.08,.06,.2-.16,.36-.34,.52-.54-.1,.29-.11,.58,.11,.87,.16,.21,.36,.43,.59,.61,0,.01-.02,.03-.02,.04-.61,.08-1.23-.49-1.6-1l.78-1.61c.26-.26-.18-1.15-.06-1.48,.16-.47,.11-.57,.08-.97-.04-.49-.01-.16-.08-.65-.43-3.33-.67-3.95-.74-7.32-.03-1.3,2.36-2.46,3.25-2.86,1.33-.59,1.51-5.02,1.59-6.31,.14-2.47-.74-5.08-1.47-7.44-.05-1.05-.01-2.11,.37-3.11,.48-1.28,1.39-2.52,2.52-3.28Z"/>
              <path id="rear-left-foot-5" class="cls-47" d="M14.99,59.57c.42,.44,.65,1.12,.73,1.72,.05,.38,.05,.77-.21,1.08-.23,.27-.51,.48-.83,.62l.04-.09c.26-.26-.18-1.15-.06-1.48,.09-.25,.11-.4,.11-.54,.12-.43,.18-.87,.21-1.32Z"/>
              <path id="rear-left-foot-6" class="cls-19" d="M20.18,29.48c.62-.41,1.3-.65,1.98-.7,1.32,.35,2.56,1.06,3.37,1.88,2.61,2.63,2.69,9.34-1.15,15.43-.95,.02-1.83-.42-2.78-.34-.7,.06-1.31,.43-1.83,.91-.59,.53-1.14,1.23-1.75,1.81,.58-1.57,.7-4.21,.75-5.15,.14-2.47-.74-5.08-1.47-7.44-.05-1.05-.01-2.11,.37-3.11,.48-1.28,1.39-2.52,2.52-3.28Z"/>
              <path id="rear-left-foot-7" class="cls-31" d="M16.16,53.16c.41-.39,.67-.64,1.13-.95,1.16-.79,2.29-1.63,3.32-2.6,.49-.41,.96-.83,1.42-1.26,.57-.53,1.13-1.07,1.61-1.69,.21-.27,.41-.55,.63-.81-1.7,2.73-4.17,5.35-7.56,7.43-.27,.17-.5,4.48-.6,6.92-.02-.79-.05-1.57-.1-2.35-.08-1.21-.13-4.39,.16-4.68Z"/>
            </g>
            <path id="rear-left-foot-8" class="cls-51" d="M9.85,30.86c.88-1.33,2.31-2.24,3.87-2.45,3.04-.13,4.09,.42,6.36,.49,2.58,.07,5.14-.24,7.73-.08,1.54,.1,3.07,.26,4.6,.43,1.17,.14,2.79-.45,4-.53,2.28-1.11,6.14-6.89,6.58-7.82,.31-.66,.39-1.49,.94-2,.58-.53,1.42-.2,1.96,.2,.53,.39,1.12,.7,1.59,1.16,0,0,.02,0,.03,0,.04-.01,.09,.07,.06,.09,.04,.04,.08,.08,.12,.13,.04,.03,.08,.06,.12,.1,.67,.67,.4,.7,.78,1.59,.04,.09-2.18,5.26-3.05,6.56-.88,1.3-2.42,2.88-2.96,4.38-.52,1.47-.79,3.04-1.36,4.49-.11,.27-.23,.54-.37,.8-.4,.5-.83,.97-1.32,1.39-.87,.75-1.76,1.16-2.87,1.31-2.65,.34-5.18,1.32-7.84,1.62-2.5,.27-5.01,.11-7.5-.07-3.18-.23-7.39-.24-9.43-3.31-.92-1.37-1.88-2.78-2.41-4.35-.36-1.06-.37-2.09,.03-3.14,.12-.32,.24-.65,.37-.98Z"/>
            <path id="rear-left-foot-9" class="cls-89" d="M9.85,30.86c.88-1.33,2.31-2.24,3.87-2.45,3.04-.13,4.09,.42,6.36,.49,2.58,.07,5.14-.24,7.73-.08,1.54,.1,3.07,.26,4.6,.43,1.17,.14,2.79-.45,4-.53,2.28-1.11,6.14-6.89,6.58-7.82,.31-.66,.39-1.49,.94-2,.58-.53,1.42-.2,1.96,.2,.53,.39,1.12,.7,1.59,1.16,0,0,.02,0,.03,0,.04-.01,.09,.07,.06,.09,.04,.04,.08,.08,.12,.13,.04,.03,.08,.06,.12,.1,.67,.67,.4,.7,.78,1.59,.04,.09-2.18,5.26-3.05,6.56-.88,1.3-2.42,2.88-2.96,4.38-.52,1.47-.79,3.04-1.36,4.49-.11,.27-.23,.54-.37,.8-.4,.5-.83,.97-1.32,1.39-.87,.75-1.76,1.16-2.87,1.31-2.65,.34-5.18,1.32-7.84,1.62-2.5,.27-5.01,.11-7.5-.07-3.18-.23-7.39-.24-9.43-3.31-.92-1.37-1.88-2.78-2.41-4.35-.36-1.06-.37-2.09,.03-3.14,.12-.32,.24-.65,.37-.98Z"/>
            <path id="rear-left-foot-10" class="cls-90" d="M15.4,39.17c2.26,.68,4.59,1.1,6.94,1.26,3.42,.24,6.91,.18,10.25-.68,1.22-.31,2.45-.7,3.62-1.21,.51-.22,1.27-.56,1.64-1.1,.84-.6,1.48-1.5,2.02-2.4,1.39-2.3,1.89-5.18,3.72-7.18,.04-.04,.08-.08,.12-.13,.04-.05-.03-.13-.07-.08-.03,.04-.07,.07-.1,.11-.16,.16-.34,.27-.56,.31,.19-.36,.42-.69,.7-.98,.05-.04,.09-.09,.14-.14,.05-.05-.03-.12-.08-.08-.05,.05-.1,.09-.14,.14-.17,.16-.36,.3-.58,.37,.18-.47,.47-.92,.83-1.26,.14-.11,.28-.23,.42-.33,.06-.04,0-.13-.05-.1-.17,.1-.32,.22-.47,.36-.19,.15-.38,.28-.62,.3,.38-.58,.84-1.12,1.2-1.72,.37-.61,.56-1.28,.77-1.97,.34-1.11,.7-2.25,1.25-3.27,.39,.26,.78,.51,1.12,.83,0,0,.02,0,.03,0,.04-.01,.09,.07,.06,.09,.04,.04,.08,.08,.12,.13,.04,.03,.08,.06,.12,.1,.67,.67,.4,.7,.78,1.59,.04,.09-2.18,5.26-3.05,6.56-.88,1.3-2.42,2.88-2.96,4.38-.52,1.47-.79,3.04-1.36,4.49-.11,.27-.23,.54-.37,.8-.4,.5-.83,.97-1.32,1.39-.87,.75-1.76,1.16-2.87,1.31-2.65,.34-5.18,1.32-7.84,1.62-2.5,.27-5.01,.11-7.5-.07-3.18-.23-7.39-.24-9.43-3.31-.07-.11-.15-.22-.23-.34,.72-.06,1.44-.2,2.14-.38,.54,.21,1.08,.39,1.62,.55Z"/>
            <path id="rear-left-foot-11" class="cls-4" d="M9.45,34.98c.53,1.56,1.49,2.97,2.41,4.35,2.05,3.07,6.25,3.08,9.43,3.31,2.5,.18,5.01,.35,7.5,.07,2.66-.29,5.19-1.27,7.84-1.62,1.11-.14,2.01-.55,2.87-1.31,.49-.43,.93-.89,1.32-1.39,.14-.26,.26-.53,.37-.8,.57-1.46,.84-3.02,1.36-4.49,.53-1.5,2.08-3.08,2.96-4.38,.88-1.3,3.09-6.47,3.05-6.56-.38-.89-.11-.92-.78-1.59-.04-.04-.08-.07-.12-.1-.04-.04-.08-.09-.12-.13,.04-.03-.02-.11-.06-.09,0,0-.02,0-.03,0-.47-.46-1.06-.77-1.59-1.16-.55-.4-1.38-.73-1.96-.2-.55,.5-.63,1.34-.94,2-.44,.93-4.3,6.71-6.58,7.82-1.21,.09-2.83,.67-4,.53-1.53-.18-3.06-.33-4.6-.43-2.59-.16-5.15,.15-7.73,.08-2.27-.07-3.31-.61-6.36-.49-1.55,.21-2.98,1.12-3.87,2.45-.12,.33-.24,.66-.37,.98-.4,1.05-.39,2.08-.03,3.14Zm6.92-5.83c.71,.03,1.42,.16,2.13,.2,1.47,.09,2.91,.04,4.37-.19,.64-.1,8.26,1.04,8.62,1.16,1.3,.42,2.77,.71,3.99-.08,.05-.03,.11,.05,.07,.09-.39,.39-.91,.64-1.25,1.08,1.36-.25,2.67-1.19,3.53-2.28,.03-.04,.11,0,.09,.06-.21,.64-.49,1.33-.34,2.01,.17-.39,.18-.85,.33-1.25,.19-.51,.45-.97,.68-1.46,.03-.06,.11-.02,.1,.04-.11,.48-.17,.95-.17,1.43,.22-1.3,.78-2.44,1.62-3.46,.55-.68,1.19-1.27,1.78-1.91,.33-.37,.66-.76,.91-1.2,.23-.42,.37-.88,.61-1.3,.03-.05,.08-.03,.1,.01,.08,.21,.13,.44,.16,.67,.1,.32,.16,.64,.18,.98,.03,.43-.04,.86,.03,1.28,.17-.43,.17-.93,.18-1.39,0-.07,.09-.08,.11-.02,.21,.66,.28,1.33,.33,2.02,.11-.43,.13-.87,.15-1.31,0-.06,.07-.08,.1-.03,.3,.58,.4,1.26,.5,1.91,.1,.65,.13,1.28-.17,1.88-.29,.59-.73,1.05-1.19,1.49-.11,.12-.22,.23-.33,.35-.97,1.02-1.37,2.45-1.77,3.79-.02,.06-.11,.05-.11-.02-.01-.43,.01-.86,.03-1.29-.22,1.13-.34,2.28-.62,3.39-.32,1.26-.87,2.54-1.99,3.23-.05,.03-.1-.03-.08-.08,.03-.05,.05-.11,.08-.16-.3,.31-.63,.58-.96,.81-.04,.03-.09-.02-.08-.07,.32-1.57,.05-3.91-1.58-4.58-.98-.4-2.27-.1-3.1,.52-.99,.73-1.23,2-1.29,3.19,0,.05-.06,.08-.09,.04-.39-.5-.42-1.28-.36-1.95-.19,.65-.2,1.36-.11,2.03,.08,.63,.12,1.27-.41,1.7-.45,.36-1.02,.48-1.56,.62-.84,.22-1.67,.44-2.52,.57-.67,.11-1.35,.15-2.03,.18-.57,.03-1.15,.03-1.72-.04-.89-.11-2.3-.57-2.14-1.78,.12-.91,.46-1.79,.68-2.68,.07-.29,.13-.58,.17-.87-.14,.37-.66,1.03-.66,.98-.01-.42,.1-.84,.15-1.25,.04-.34,.02-.68-.03-1.02-.03,.39-.36,1.15-.36,1.1-.07-1.27-.3-2.55-1-3.6,.18,.48,.19,1.58,.18,1.52-.34-1.2-1.23-2.17-2.15-2.93-.95-.78-2.31-2.15-1.77-2.12Z"/>
            <g>
              <g>
                <path class="cls-53" d="M40.87,64.28c.38-.23,.85-.46,1.32-.53l1.36,1.53c-.8,1.06-3.16,.82-3.16,.82-.09-.4-.16-.87-.21-1.21,.21-.23,.42-.46,.68-.62Z"/>
                <path class="cls-8" d="M40.87,64.28c.38-.23,.85-.46,1.32-.53l.29,.33s-.05,0-.08,.02c-.25,.11-1.18,1.16-1.47,1.47-.15,.16-.24,.36-.33,.55-.13,0-.21-.01-.21-.01-.09-.4-.16-.87-.21-1.21,.21-.23,.42-.46,.68-.62Z"/>
                <path class="cls-25" d="M33.68,35.89c2.22-1.56,3.3-.71,4.18,1.68,.42,1.14,.12,11.07,.32,12.41,.1,.68,.86,1.69,.65,2.38-.13,.44,1.91,9.28,2.07,9.77,.35,1.07,1.3,1.38,1.4,1.67-.65,.14-1.66,1.1-2.23,1.43-.41-.62,.6-1.2-.11-1.38-1.13,.76-.69,.48-.62-1.63-.05-.22-.73-4.77-1.77-8.57-.56-2.05-.62-3.08-.73-3.59-.68-2.71-6.44-11.87-3.15-14.17Z"/>
                <path class="cls-20" d="M39.33,62.22c-.05-.22-.73-4.77-1.77-8.57-.56-2.05-.62-3.08-.73-3.59-.68-2.71-6.44-11.87-3.15-14.17,1.53-1.07,2.52-1,3.27-.08-.58-.45-1.26-.67-1.83-.12-.91,.88,1.48,11.33,1.88,13.16,.01,.06,.1,.05,.11,0,.06-.3,.2-.54,.36-.78-.2,.78-.18,1.59,.02,2.4,.16,.64,.39,1.25,.61,1.86-.19-.21-.38-.42-.59-.62-.04-.04-.1,0-.09,.06,.51,2.07,1.02,4.13,1.48,6.21,.12,.52,.23,1.04,.38,1.55,.15,.49,.31,.98,.35,1.49,.04,.46,0,.9-.1,1.34-.08,.37-.15,.74-.12,1.12,0,.05,.06,.08,.1,.04,.18-.23,.34-.48,.49-.74-.04,.15-.07,.3-.09,.46,0,.04,.05,.07,.09,.05,.23-.17,.47-.34,.74-.46-.28,.5-.28,.98-.15,1.58,0,.04,.07,.05,.09,.02,.36-.39,.92-.6,1.46-.59-.64,.24-1.54,1.07-2.07,1.38-.41-.62,.6-1.2-.11-1.38-1.13,.76-.69,.48-.62-1.63Z"/>
                <path class="cls-12" d="M33.52,36.39c-.22,.68-.19,1.43-.13,2.14,.15,1.69,.67,3.33,1.26,4.91,.31,.84,.64,1.68,.96,2.52,.32,.82,.61,1.67,.98,2.46,.16,.35,.39,.74,.37,1.13-.01,.23-.06,.46-.1,.69-.01-.07-.02-.13-.03-.18-.68-2.71-6.44-11.87-3.15-14.17,.05-.03,.09-.06,.14-.09-.12,.18-.23,.37-.3,.59Z"/>
                <path class="cls-47" d="M39.97,62.06c.06,.52-.13,1.01-.38,1.44-.12,.2-.25,.41-.4,.59-.02-.25,.11-.84,.14-1.88-.02-.08-.13-.81-.32-1.89,.07,.09,.14,.17,.21,.26,.32,.42,.69,.92,.76,1.47Z"/>
              </g>
              <path class="cls-33" d="M37.66,47.22c-.06-.51-.18-1.03-.21-1.53-.07-1.04-.05-2.09-.1-3.13-.05-.99-.11-1.97-.13-2.95-.01-.59-.07-1.17-.22-1.75-.1-.41-.11-.85-.25-1.25,0-.02,0-.03,.01-.04h.04s.1,.05,.06,.06c.06-.02,.44,.95,.48,1.07,.15,.48,.26,.96,.31,1.47,.11,1.03,.1,2.1,.13,3.14,.04,1.06,.02,2.1,.04,3.16,0,.53,0,1.07,.02,1.6,.03,.55,.12,1.09,.16,1.64,0,.09-.13,.02-.14-.04-.07-.48-.13-.97-.19-1.45Z"/>
              <path class="cls-27" d="M38.24,51.44c-.08-.25-.16-.54-.17-.81,0-.04,.07,0,.08,.02,.13,.34,.39,.62,.51,.96,.1,.28-.01,.54-.1,.8-.02,.07-.12,0-.13-.05-.09-.31-.09-.63-.19-.93Z"/>
              <path class="cls-39" d="M39.57,58.1c-.13-.51-.34-.99-.47-1.5-.27-1.06-.38-2.14-.5-3.23,0-.05,.07-.01,.08,.01,.45,.96,.53,2.06,.7,3.1,.17,1.06,.4,2.1,.62,3.15,.01,.05-.08,.01-.09-.02-.14-.5-.22-1.01-.35-1.51Z"/>
            </g>
            <g>
              <g>
                <path class="cls-53" d="M1.89,64.63s.77,1.15,.77,2.27c0,0-1.95,.35-2.61-.76l.47-1.16,1.37-.34Z"/>
                <path class="cls-8" d="M1.8,65.69c-.16,0-1.13-.11-1.28-.16-.02,0-.12-.05-.2-.08l.19-.48,1.37-.34s.77,1.15,.77,2.27c0,0-.03,0-.07,.01-.07-.47-.44-1.2-.78-1.22Z"/>
                <path class="cls-66" d="M2.39,65.65c-.21-.16-2.93-.24-2.29-.72,.65-.5,1.27-2.53,1.22-2.61-.16-.29-.13-1.13-.03-1.23,1.15-1.89,.6-11.41,1.55-11.47,1.42-.1,4.24-1.85,4.52-3.12,.65-2.95,.29-10.14,.36-10.65,.24-1.97,1.55-3.99,3.74-4.08,2.34-.1,4.81,2.11,5.75,4.14,2.32,4.98-.71,9.79-4.54,12.8-2.39,1.88-5.43,1.91-7.97,3.84-1.15,.87-1.64,10.75-1.98,11.74-.07,.2-.12,.89-.33,1.37Z"/>
                <path class="cls-17" d="M1.31,62.31c-.16-.29-.13-1.13-.03-1.23,1.15-1.89,.6-11.41,1.55-11.47,1.42-.1,4.24-1.85,4.52-3.12,.65-2.95,.29-10.14,.36-10.65,.24-1.97,1.55-3.99,3.74-4.08,.62-.03,1.26,.11,1.87,.37-.97-.13-1.96,.12-2.76,.94-.04,.04,.01,.11,.06,.09,.1-.04,.2-.07,.31-.08-.22,.14-.4,.31-.51,.57-.02,.04,.01,.09,.05,.08,.16-.03,.32-.08,.48-.12-.57,.37-.88,1.08-1.05,1.76-.35,1.39-.4,2.86-.45,4.28-.06,1.79-.08,3.62-.53,5.36-.4,1.52-1.24,3.13-2.67,3.83-.38,.19-.79,.32-1.18,.5-.18,.09-.38,.17-.54,.3-.08,.06-.14,.18-.18,.2-.05,.03-.02,.11,.04,.1,.42-.03,.82,.05,1.22,.15-.77,.22-1.72,.12-2.22,.87-.36,.54-.4,1.24-.42,1.87-.02,.84-.05,1.66-.15,2.5-.11,.91-.24,1.82-.36,2.72-.06,.43-.11,.87-.16,1.3-.05,.44-.1,.9-.29,1.31-.12,.27-.34,.51-.4,.81-.06,.31,0,.6,.08,.9,.18,.8-.55,1.58-.89,2.26-.02,.04,.02,.1,.07,.08,.28-.14,.48-.37,.69-.61-.09,.23-.17,.47-.2,.72,0,.05,.06,.1,.1,.05,.14-.21,.28-.42,.46-.59,0,.47,.16,1.02,.5,1.31,0,.02-.02,.05-.03,.07-.21-.16-2.93-.24-2.29-.72,.65-.5,1.27-2.53,1.22-2.61Z"/>
                <path class="cls-84" d="M9.47,32.49c-.28,.34-.52,.73-.68,1.16-.31,.8-.41,1.66-.34,2.51,.09,1.07,.25,2.11,.25,3.19,0,1.07-.11,2.14-.43,3.16-.05-.65-.15-1.29-.32-1.92-.02-.06-.09-.04-.11,.01-.03,.15-.06,.31-.09,.47,.02-2.56-.07-4.94-.03-5.22,.15-1.27,.76-2.57,1.75-3.35Z"/>
                <path class="cls-47" d="M2.25,61.16c.06,.41,.15,.96-.05,1.34-.24,.46-.73,.64-1.19,.84,.2-.53,.33-.99,.3-1.03-.16-.29-.13-1.13-.03-1.23,.07-.11,.13-.24,.18-.4,.23-.21,.43-.46,.61-.73,.02,.41,.11,.81,.17,1.21Z"/>
              </g>
              <path class="cls-38" d="M4.28,52.45c.78-.88,1.69-1.45,2.81-1.73,1-.25,1.96-.54,2.91-.94,.97-.41,1.88-.92,2.72-1.57,.79-.6,1.61-1.23,2.25-2.02,1.34-1.66,2.26-3.98,2.4-6.14,.11-1.64-.25-3.15-.92-4.56-.12-.33-.28-.63-.47-.91-.05-.09-.1-.17-.15-.26-.02-.03-.04-.04-.06-.04-.18-.23-.37-.45-.58-.66-.14-.14-.2,.07-.13,.19,.49,.9,.52,1.89,.56,2.91,.04,1.06,.03,2.15-.23,3.19-.48,1.91-1.56,3.64-2.85,5.07-1.35,1.5-3.07,2.57-4.7,3.7-1.45,1.01-2.78,2.01-3.67,3.62-.03,.06,.05,.21,.11,.14Z"/>
              <path class="cls-32" d="M11.55,48.58c2.25-1.91,4.38-4.36,4.93-7.41,.42-2.29,.16-4.71-.66-6.87,0,0,.02,.01,.03,.03,.05,.08,.1,.17,.15,.26,.19,.28,.35,.58,.47,.91,.66,1.41,1.03,2.92,.92,4.56-.15,2.15-1.07,4.48-2.4,6.14-.64,.79-1.46,1.42-2.25,2.02-.84,.64-1.75,1.15-2.71,1.56,.53-.38,1.04-.77,1.54-1.19Z"/>
            </g>
            <path class="cls-29" d="M32.37,31.12c-.75-.1-1.49-.23-2.23-.35-.73-.12-1.46-.23-2.2-.24-.74-.01-1.47,.07-2.2,.15-1.47,.17-2.96,.26-4.44,.12-.71-.06-1.47-.13-2.14-.4-.28-.12-.55-.26-.8-.43,1.16-.04,2.3-.25,3.45-.31,1.37-.06,2.77,0,4.14,.13,.67,.06,1.33,.13,1.99,.27,.65,.14,1.28,.35,1.93,.47,1.18,.21,2.36,.42,3.55,.54-.33,.07-.67,.1-1.04,.05Z"/>
            <path class="cls-37" d="M40.02,35.85c.47-1.28,.59-2.65,.76-3.99,.05-.38,.18-.65,.46-.9,.21-.19,.43-.36,.63-.56,.47-.44,.97-.85,1.4-1.33,.38-.42,.7-.86,.86-1.42,.1-.34,.15-.69,.19-1.04,0,0,0,0,0,0,.15,.21,.12,.45,.12,.68,.11-.37,.11-.78,.18-1.15,0,0,0-.01,0-.02,.1,.2,.16,.42,.19,.65,0,.56-.07,1.17-.31,1.61-.05,.08-.15-.03-.17-.09-.04-.12-.05-.24-.06-.37-.05,.19-.11,.38-.2,.58-.22,.49-.55,.89-.85,1.32-.61,.86-1.2,1.64-1.61,2.63-.41,.99-.29,2.06-.59,3.07-.05,.15-.1,.32-.15,.49-.15,.22-.31,.43-.46,.65-.23,.32-.46,.65-.72,.95,0-.03-.01-.06,0-.08,.16-.4,.34-.81,.47-1.22-.35,.64-.78,1.22-1.38,1.66-.03,.03-.08,.01-.12-.02,.55-.63,1.04-1.31,1.33-2.11Z"/>
          </g>
          <g>
            <path class="cls-42" d="M49.93,16.57c.22,.51,.44,.91,1.01,1,.81,.13,1.5,.69,2.32,.28,.62-.31,1.11-1.04,1.44-1.65,.39-.72,.71-1.5,.87-2.31,.04-.22,.43-1.35,.07-1.48-.17-.07-.82,.82-1.87,1.15-.8,.25-1.53,.53-2.15,1.14-.31,.31-.59,.65-.87,.99-.24,.28-.51,.53-.76,.8h-.01s-.06,.05-.05,.09Z"/>
            <path class="cls-81" d="M55.2,14.38c-.18-.57-.75-.27-1.12-.12-.75,.31-2.02,1.26-2.85,.85,.12-.14,.25-.28,.39-.42,.62-.61,1.35-.89,2.15-1.14,1.05-.33,1.69-1.21,1.87-1.15,.36,.13-.03,1.26-.07,1.48-.06,.33-.16,.66-.27,.98-.01-.17-.04-.33-.09-.49Z"/>
            <path class="cls-83" d="M49.97,16.48h.01c.25-.27,.52-.52,.76-.8,.29-.34,.56-.68,.87-.99,.62-.61,1.35-.89,2.15-1.14,1.05-.33,1.69-1.21,1.87-1.15,.02,0,.04,.02,.05,.03-.06,.37-.21,.72-.42,1.02-.24,.33-.56,.48-.88,.7-.29,.19-.47,.44-.59,.77-.15,.41-1.14,1.83-1.63,1.86-.33,.02-.67,0-.98,.14-.25,.11-.48,.28-.64,.5-.29-.18-.45-.49-.61-.85-.02-.04,0-.09,.05-.09Z"/>
            <path class="cls-60" d="M54.79,13.28c-.29,.29-.64,.48-.95,.75-.31,.27-.48,.59-.68,.94-.18,.31-.37,.65-.69,.82-.32,.17-.68,.17-1.03,.23-.31,.05-.63,.11-.93,.22-.21,.08-.41,.18-.59,.31-.01-.04,0-.09,.05-.08h.01c.25-.27,.52-.52,.76-.8,.29-.34,.56-.68,.87-.99,.62-.61,1.35-.89,2.15-1.14,.72-.23,1.25-.72,1.57-.98-.15,.26-.33,.5-.54,.71Z"/>
            <path class="cls-50" d="M45.12,16.33c1.04-.87,2.73-1.13,4-.83,.8,.19,1.38,.65,1.83,1.27,.36,.32,.7,.69,.87,1.14,.28,.74,.23,1.65,.17,2.43-.04,.54,2.77,5.28,2.85,5.93,.06,.53-.66,1.37-1.08,1.51-.56,.19-1.14,.06-1.63-.26-.49-.32-.87-.83-1.31-1.22-.62-.54-1.37-.53-2.11-.74-1.27-.35-2.47-1.19-3.41-2.13-1.75-1.76-2.24-5.38-.18-7.1Z"/>
            <path class="cls-79" d="M45.12,16.33c1.04-.87,2.73-1.13,4-.83,.8,.19,1.38,.65,1.83,1.27,.36,.32,.7,.69,.87,1.14,.28,.74,.23,1.65,.17,2.43-.04,.54,2.77,5.28,2.85,5.93,.06,.53-.66,1.37-1.08,1.51-.56,.19-1.14,.06-1.63-.26-.49-.32-.87-.83-1.31-1.22-.62-.54-1.37-.53-2.11-.74-1.27-.35-2.47-1.19-3.41-2.13-1.75-1.76-2.24-5.38-.18-7.1Z"/>
            <path class="cls-71" d="M47.33,18.6c.06,.02,.09-.07,.04-.1-.13-.09-.27-.18-.41-.25,.93,.09,1.77,.58,2.16,1.52,.17,.4,.3,.9,.53,1.32-.13-.07-.27-.13-.42-.15-.45-.07-.72,.26-1.13,.38-.9,.26-1.57-.33-2.03-1.06,.05,.02,.1,.04,.14,.06,.05,.02,.12-.04,.07-.09-.22-.2-.46-.41-.62-.67-.23-.37-.12-.64,.26-.82,.04-.02,.03-.1-.01-.1-.08-.02-.16-.03-.24-.05,.55-.13,1.11-.17,1.66,.02Z"/>
            <path class="cls-48" d="M49.47,24.83s0-.01,0-.02c.17,.26,.37,.55,.65,.66,.22,.09,.45,.1,.67,.15,.25,.06,.44,.17,.63,.35,.48,.45,.9,.97,1.61,.69,.03-.01,.05-.05,.03-.08-.17-.27-.4-.48-.61-.71,.54,.07,.93,.6,1.5,.52,.22-.03,.41-.14,.6-.23,.09-.04,.17-.05,.24-.04,.02,.07,.04,.13,.04,.17,.06,.53-.67,1.37-1.08,1.5-.57,.19-1.14,.06-1.63-.27-.49-.32-.86-.83-1.3-1.22-.24-.21-.5-.34-.78-.43-.26-.3-.44-.64-.58-1.04Z"/>
            <path class="cls-43" d="M51.22,20.66c-.35-.81-.73-1.61-.98-2.46,.3,.33,.52,.72,.74,1.12,.25,.46,.51,.9,.79,1.33,.32,.48,.65,.95,.97,1.43,.47,.92,1.08,2.03,1.51,2.88-.21,.25-.32,.59-.4,.91-.4-.38-.99-.45-1.47-.69-.32-.16-.62-.4-.62-.81,0-.41,.12-.8,.15-1.21,.03-.45-.09-.87-.23-1.29-.14-.41-.3-.82-.47-1.21Z"/>
            <path class="cls-59" d="M50.28,17.09c-.58-.12-1.08-.6-1.47-1.03-.04-.05-.1,.01-.08,.06,.16,.33,.33,.66,.41,1.02-.31-.36-.64-.7-.99-1.03-.03-.03-.1,0-.08,.05,.23,.66,.01,1.46-.78,1.46-.64,0-1.23-.4-1.78-.7-.21-.11-.43-.23-.65-.33,.08-.09,.17-.17,.27-.25,1.04-.87,2.73-1.13,4-.83,.73,.17,1.28,.57,1.71,1.12-.04,.31-.18,.55-.56,.47Z"/>
            <path class="cls-80" d="M44.97,18.52s-.09-.03-.13-.04c-.14-.3-.2-.68-.28-.95-.14-.46-.39-.82-.86-.76,.08-.11,.19-.19,.28-.29,.03-.03,0-.08-.04-.07-.14,.02-.28,.08-.42,.07,.09-.1,.21-.16,.32-.24,.03-.02,.03-.07-.01-.08-.15-.03-.29-.03-.44,0,.11-.14,.26-.25,.45-.16,.03,.02,.09-.02,.06-.06-.06-.08-.12-.16-.18-.24,.09,.07,.17,.15,.26,.22,.03,.03,.08,0,.07-.04-.25-.97-.84-1.8-1.64-2.35-.43-.29-.89-.51-1.36-.72,.11,.03,.23,.07,.34,.11,.84,.29,1.63,.78,2.24,1.45,.31,.34,.55,.74,.75,1.16,.21,.44,.54,1.35,.81,1.76,.14,.22,.47,1.39-.21,1.23Z"/>
            <path class="cls-65" d="M49.72,25.17c.14,.33,.72,.51,1.01,.67,.27,.15,.38,.35,.56,.62,.33,.49,.72,.79,1.26,1.03,.15,.07,.32,.11,.49,.13,.19-.15,.38-.2,.54-.42,.16-.22,.3-.7,.22-.97,0,0,0-.02,0-.03,0,0,.01,0,.02,0,.02,0,.03,.02,.03,.04-.02,.09,.02,.26,.01,.35,0,.18-.06,.35-.13,.52-.1,.27-.28,.43-.52,.53,.28,.01,.57-.04,.81-.16,.01,0,.04,.03,.02,.04-.63,.57-1.8,.07-2.34-.44-.17-.16-.3-.43-.43-.62-.23-.32-.55-.49-.88-.69-.3-.18-.64-.24-.76-.61-.02-.07,.06-.03,.07,0Z"/>
            <g>
              <g>
                <path class="cls-56" d="M46.91,19.42c.21-.02,.41-.09,.62-.1,.63-.03,1.23,.27,1.53,.9,.03,.06,.17,.52,.21,.53-.12-.03-.34-.39-.35-.38-.37,.15-.81,.3-1.24,.15-.41-.15-.61-.38-.69-.82-.06-.02-.44-.19-.44-.23,.04-.02,.31-.04,.36-.05Z"/>
                <g>
                  <path class="cls-82" d="M47.17,19.71s.28-.25,.91-.14c.37,.07,.63,.27,.74,.45,0,.21-.17,.34-.37,.41-.25,.06-.56,.09-.82-.03-.42-.18-.53-.55-.45-.69Z"/>
                  <path class="cls-74" d="M47.31,19.65c.13-.07,.39-.16,.82-.08,.24,.04,.43,.14,.57,.25-.04,.74-1.48,.58-1.38-.18Z"/>
                  <path class="cls-65" d="M48.78,19.96s.03,.04,.04,.06c0,.21-.17,.34-.37,.41-.25,.06-.56,.09-.82-.03-.09-.04-.16-.09-.22-.14,.45,.32,1.25,.27,1.38-.3Z"/>
                  <path class="cls-11" d="M47.17,19.71s.28-.25,.91-.14c.37,.07,.63,.27,.74,.45,0,.03,0,.07-.01,.1-.14-.09-.38-.13-.45-.16-.39-.11-.8-.16-1.21-.14,0-.04,0-.08,.02-.11Z"/>
                  <path class="cls-30" d="M48.31,19.85s.02-.08,.02-.12c.11,.05,.22,.11,.31,.18,0,.05-.02,.09-.04,.14-.09-.07-.19-.15-.29-.21Z"/>
                </g>
              </g>
              <path class="cls-40" d="M46.87,19.87c.08-.08,.16-.16,.26-.22-.07,.03-.15,.06-.22,.08-.01,0-.03-.02-.02-.03,.32-.2,.67-.31,1.04-.25,0,0,0,0,0,0,0,0,0,0,0,0,.04,0,.08,.02,.13,.03,.03,0,.07,.02,.1,.03,.16,.03,.31,.08,.44,.19,.17,.13,.32,.33,.38,.54,0,.01,0,0-.01,0-.04-.07-.09-.14-.13-.21-.02-.02-.04-.04-.06-.06-.05-.03-.11-.05-.17-.07,0,0-.01-.02,0-.01,.04,0,.08,.02,.12,.03-.01-.01-.03-.03-.04-.04-.07-.03-.15-.06-.22-.06,0,0-.01-.01,0-.01,.06,0,.11,0,.17,.03,0,0,.01,0,.02,0-.02-.02-.04-.04-.07-.05-.07-.01-.14-.02-.21,0,0,0-.02-.01,0-.02,.05-.02,.1-.03,.15-.02,0,0,0,0,.01,0,0,0-.02-.01-.02-.02-.09,0-.18,0-.27,.05,0,0-.02,0,0-.01,.07-.05,.15-.07,.23-.07-.02,0-.03-.02-.05-.03-.09,.02-.16,.06-.23,.13,0,0-.02,0-.01-.02,.05-.06,.12-.11,.19-.14,0,0,0,0,0,0-.14,.02-.28,.11-.38,.2,0,0-.02,0-.01-.01,.06-.07,.14-.13,.23-.17,.01,0,.03-.01,.04-.02-.05,.02-.1,.03-.15,.06-.09,.05-.17,.11-.26,.17,0,0-.02-.01-.01-.02,.1-.09,.23-.2,.37-.25-.06,.02-.12,.04-.18,.06-.11,.05-.2,.12-.3,.17,0,0-.02-.02-.01-.02,.14-.08,.26-.18,.41-.23-.14,.02-.28,.08-.4,.14,0,0-.02-.02-.01-.02,.1-.05,.19-.11,.3-.13,.02,0,.05-.01,.08-.02-.11,.02-.23,.03-.34,.08-.13,.05-.24,.16-.36,.24,0,0-.03-.01-.02-.02,.12-.11,.24-.2,.38-.27-.08,.03-.15,.05-.22,.1,0,0-.01,0,0-.01,.06-.06,.14-.1,.22-.13,0,0-.01-.01,0-.02,0,0,0,0,0,0-.05,.02-.1,.04-.15,.07-.11,.06-.2,.14-.31,.22,0,0-.02-.01-.02-.02,.12-.12,.26-.23,.41-.3,0,0,0,0-.01,0,0,0,0,0,0,0-.19,.06-.36,.16-.52,.29,0,0-.03-.02-.02-.02,.08-.08,.19-.17,.3-.23-.01,0-.02,0-.04,.01-.07,.04-.16,.07-.23,.12-.09,.05-.17,.12-.24,.19,0,0-.02-.01-.01-.02Z"/>
            </g>
            <path class="cls-64" d="M52.27,25.43s.04,.06,.04,.08c0,.11,.05,.18,.11,.22,.23-.12,.57,.01,.77,.11,.26,.12,.47,.29,.78,.21,.2-.05,.3-.04,.5,0,0,0,0,0,.01,0,0,0,0-.01,0-.02,0-.1-.09-.2-.15-.27-.01-.02,0-.04,.02-.02,.07,.06,.22,.19,.27,.31,0,.01,0,.02,0,.03-.05,.18-.23,.22-.38,.29-.1,.04-.17,.11-.24,.18-.01,0-.03,0-.04,.01-.01,0-.03,0-.04,0h0s-.03,0-.05,0c-.05,0-.09,0-.15-.02-.11-.03-.21-.1-.29-.18-.22-.14-.43-.3-.69-.38-.08,0-.16-.01-.23-.05-.11-.05-.24-.16-.29-.27,0-.09,.02-.17,.07-.25Z"/>
            <path class="cls-75" d="M51.6,16.98c.22-.13,.43-.12,.64-.08,.1,0,.21-.03,.31-.04,.23-.01,.47,.05,.66-.12,.27-.24,.49-.76,.56-1.12,0-.05,.07,.01,.07,.04-.04,.39-.22,.84-.46,1.14-.12,.16-.22,.21-.41,.21-.08,0-.16,0-.25-.01,.14,.03,.29,.04,.44,0,.67-.14,1.17-1.14,1.45-1.71,.01-.03,.06,.02,.05,.05-.27,.65-.62,1.24-1.14,1.71-.6,.53-1.23-.2-1.87-.01-.03,0-.07-.05-.04-.07Z"/>
            <path class="cls-5" d="M49.97,16.48h.01c.25-.27,.52-.52,.76-.8,.29-.34,.56-.68,.87-.99,.62-.61,1.35-.89,2.15-1.14,1.05-.33,1.69-1.21,1.87-1.15,.36,.13-.03,1.26-.07,1.48-.01,.05-.02,.11-.04,.16,.01-.14,.02-.29,.02-.43,0-.05-.05-.07-.09-.04-.27,.24-.46,.6-.77,.79-.22,.14-.47,.28-.63,.5-.22,.3-.35,.63-.5,.97-.16,.35-.41,.62-.65,.91-.03,.03-.01,.09,.04,.09,.55-.01,.91-.6,1.1-1.11,.06,.54-.4,1.08-.83,1.33-.35,.2-.93,.08-1.14,.49-.1,.19,.15,.34,.39,.44-.5-.06-.99-.33-1.53-.42-.57-.09-.78-.49-1.01-1-.02-.04,0-.09,.05-.09Z"/>
            <path class="cls-7" d="M49.97,16.48h.01c.25-.27,.52-.52,.76-.8,.29-.34,.56-.68,.87-.99,.62-.61,1.35-.89,2.15-1.14,.68-.21,1.18-.66,1.51-.93-.17,.3-.39,.57-.69,.76-.4,.25-.85,.4-1.28,.59-.82,.37-1.49,.98-1.91,1.81-.02,.04,.01,.09,.06,.08,.43-.12,.87-.18,1.24-.47,.21-.16,.37-.36,.53-.58-.22,.5-.46,.95-.95,1.27-.25,.17-.53,.28-.78,.45-.16,.11-.29,.25-.34,.46-.04,.17-.05,.39-.04,.61-.06-.01-.13-.03-.19-.04-.57-.09-.78-.49-1.01-1-.02-.04,0-.09,.05-.09Z"/>
            <g>
              <path class="cls-86" d="M44.96,3.87c-.05-.17-.1-.34-.15-.51-.18-.72-.3-1.45-.41-2.19-.04-.25-.07-.49-.08-.74,0-.15,.03-.45,.15-.42,.32,.68,.55,1.43,.86,2.12,.41,.92,.92,1.79,1.62,2.49,1.26,1.28,3.13,1.54,4.51,2.63,1.41,1.11,1.27,2.96,.86,4.56-.23,.92-.39,1.9-.74,2.77-.19,.48-.88,2.2-1.26,2.36-.57,.23-1.36-.64-1.44-1.11-.08-.48,.91-2.47,1.1-3.04,.43-1.27,1.29-3.03,.3-4.26-.22-.28-.55-.54-.87-.69-.5-.24-1-.46-1.49-.72-.85-.44-1.74-1.07-2.31-1.88-.29-.41-.44-.92-.66-1.37Z"/>
              <path class="cls-26" d="M50.71,16.1c.08-.4-.21-.6-.45-.84,.18,.05,.34,.13,.42,.31,.02,.04,.09,.03,.1-.01,.07-.35,.29-.61,.48-.9,.12-.18,.27-.42,.25-.65-.03-.35-.31-.52-.57-.7,.25,.05,.47,.16,.66,.34,.03,.02,.09,.02,.09-.03,.06-.43,.49-.95,.35-1.39-.09-.29-.31-.47-.53-.65,.23,.09,.43,.25,.58,.44,.04,.04,.09,0,.09-.04,0,0,0-.01,0-.02,0,0,0,0,0,0,.07-.08,.06-.26,.08-.36,.04-.18,.09-.35,.12-.53,.04-.23,.1-.5,.03-.73-.07-.23-.23-.36-.42-.47,.14,.04,.27,.1,.4,.18,.03,.02,.07,0,.08-.03,.13-.63-.15-1.4-.48-1.93-.21-.33-.57-.23-.9-.18,.15-.11,.3-.2,.46-.29,.04-.02,.03-.08,0-.1-.42-.26-.8-.61-1.26-.8-.38-.15-.72-.1-1.09,.02,.08-.13,.17-.25,.28-.35,.03-.03,.01-.08-.02-.1-.36-.12-.65-.4-1-.52-.28-.09-.54-.03-.81,0,.08-.06,.15-.12,.24-.17,.03-.02,.04-.08,0-.1-.96-.52-1.79-1.49-2.35-2.44-.52-.9-.97-1.98-1.1-3.04,0,0,.01,0,.02,0,.32,.68,.55,1.43,.86,2.12,.41,.92,.92,1.79,1.62,2.49,1.26,1.28,3.13,1.54,4.51,2.63,1.41,1.11,1.27,2.96,.86,4.56-.23,.92-.39,1.9-.74,2.77-.19,.48-.88,2.2-1.26,2.36-.04,.02-.08,.03-.12,.03,.24-.23,.44-.57,.5-.86Z"/>
              <path class="cls-2" d="M50.59,7.87s0-.06,.02-.03c.34,.36,.46,.84,.48,1.34,0,.25,0,.53-.09,.76-.15,.41-.26,.85-.43,1.25-.01,.03-.07-.02-.06-.05,.26-.97,.79-2.38,.09-3.28Z"/>
              <g>
                <path class="cls-88" d="M49.34,15.21c.36-.29,.97-.11,1.33,.11,.18,.12,.61,.53,.33,.76-.05,.04-.11-.04-.12-.09,0,0,0,0,0,0-.08-.72-.98-.59-1.47-.66-.03,0-.1-.08-.06-.11Z"/>
                <path class="cls-87" d="M51.72,13.71s.01,.01,0,.01c0,0-.01-.01,0-.01Z"/>
                <path class="cls-49" d="M50.3,13.24c.36-.22,.8,0,1.12,.2,.18,.11,.49,.42,.39,.67-.02,.07-.11-.02-.13-.05-.04-.06-.06-.14-.09-.2-.08-.15-.25-.23-.39-.3-.24-.12-.55-.13-.81-.16-.04,0-.14-.11-.08-.15Z"/>
                <path class="cls-58" d="M50.71,11.65c.27-.37,.77-.21,1.12-.05,.26,.12,.6,.49,.45,.82-.04,.08-.13-.03-.14-.07-.04-.12-.05-.27-.14-.36-.1-.11-.26-.15-.39-.19-.13-.04-.28-.06-.42-.07-.14,0-.25,.05-.39,.05-.04,0-.11-.08-.08-.12Z"/>
                <path class="cls-52" d="M51.13,9.88c.2-.36,.65-.29,.97-.16,.23,.09,.65,.43,.52,.74,0,.02,0,.03-.01,.04,0,0,0,0,0,0-.05,.03-.11-.04-.12-.09-.08-.52-.88-.57-1.25-.41-.05,.02-.12-.08-.1-.13Z"/>
                <path class="cls-1" d="M50.87,8.01c.09-.37,.46-.41,.78-.43,.32-.02,.44,.16,.58,.43,0,.01,.01,.05-.01,.04-.03,0-.07-.02-.09-.04-.11-.11-.2-.16-.35-.15-.29,.03-.52,.16-.79,.28-.05,.02-.13-.08-.12-.13Z"/>
                <path class="cls-41" d="M49.08,6.8c.08-.33,.31-.46,.63-.46,.23,0,.45,.04,.63,.21,.02,0,.04,.03,.04,.04,0,0,0,0,0,.01,0,.02,0,.05-.03,.04-.17-.08-.4-.02-.58,0-.23,.02-.38,.2-.59,.28-.05,.02-.12-.07-.11-.12Z"/>
                <path class="cls-45" d="M47.42,5.87c.16-.37,.89-.41,1.16-.19,.02,.01,.02,.05,0,.04-.16-.04-.42,.02-.58,.07-.17,.05-.28,.19-.43,.25-.07,.03-.17-.11-.14-.18Z"/>
              </g>
            </g>
            <path class="cls-70" d="M47.99,20.91c.29-.11,.58-.11,.84-.04,.29,0,.54,.1,.79,.4,.52,.62,.82,1.33,1.2,2.04,.02,.03,.01,.08-.03,.06-.16-.04-.24-.14-.35-.28-.24-.3-.46-.63-.69-.94-.3-.41-.67-.62-1.12-.8-.2-.08-.45-.11-.62-.25-.04-.04-.1-.16-.02-.19Z"/>
            <path class="cls-13" d="M54.15,27c.04-.07,.07-.17,.14-.22,.15-.09,.31-.19,.43-.33,.05-.06,.09-.13,.12-.2,0,0,0,.02,0,.02,.03,.28-.16,.66-.41,.96-.15,.05-.31,.09-.47,.12,.07-.12,.13-.23,.2-.35Z"/>
            <path class="cls-15" d="M45.12,16.33c.7-.59,1.7-.9,2.67-.94,.15,.32,.26,.66,.25,1-.03,.78-.81,1.28-1.5,1.24-.26-.02-.47-.17-.73-.2-.14-.02-.23,0-.3,.15-.08,.18,.04,.4,.03,.58,0,.47-.42,.73-.79,.46-.02-.02-.06,0-.08,.02-.39,.74-.12,1.81,.2,2.53,.02,.05,.09,.03,.1-.01,.03-.13,.05-.26,.07-.39-.01,.57,.07,1.18,.51,1.4,.03,.02,.07,0,.08-.03,0-.01,0-.03,.01-.04,.15,.41,.39,.79,.62,1.02,.03,.03,.1,.01,.09-.04-.03-.28-.08-.57-.07-.85,.07,.41,.18,.8,.35,1.19,.03,.06,.11,.02,.1-.04-.03-.12-.04-.23-.03-.35,.1,.53,.34,1.02,.76,1.39,.59,.52,1.34,.78,2.09,.89,.04,0,.08-.02,.07-.07-.02-.06-.04-.11-.05-.17,.19,.25,.47,.4,.76,.53,.27,.12,.52,.24,.74,.45,.22,.21,.42,.44,.64,.65,.3,.27,.82,.76,1.26,.65,.38-.09,.52-.5,.56-.87,0-.03-.02-.05-.04-.05-.38-.15-.91-.16-1.19-.51-.31-.4,.02-.8,.39-.99-.06,.15-.1,.32-.03,.43,.14,.23,.59,.36,.83,.42,.23,.05,.53,.12,.75,0,.22-.13-.05-.42-.12-.54-.52-.94-.96-1.93-1.43-2.89-.2-.41-.42-.84-.53-1.29-.02-.07-.03-.15-.04-.22,.51,1.21,2.27,4.28,2.64,5.25-.04,.2-.15,.37-.36,.52-.09,.06-.22,.11-.27,.21-.11,.21-.22,.41-.34,.62-.03,.05,.02,.09,.06,.08,.14-.02,.28-.05,.42-.09-.18,.19-.37,.33-.53,.38-.56,.19-1.14,.06-1.63-.26-.49-.32-.87-.83-1.31-1.22-.62-.54-1.37-.53-2.11-.74-1.27-.35-2.47-1.19-3.41-2.13-1.75-1.76-2.24-5.38-.18-7.1Z"/>
            <path class="cls-21" d="M50.63,17.04c-.35,.21-.66,.23-1.02,0-.29-.18-.57-.43-.77-.73-.18-.27-.35-.59-.31-.92,.2,.02,.4,.05,.59,.09,.8,.19,1.38,.65,1.83,1.27,.05,.05,.11,.1,.16,.15-.14-.03-.29,.01-.47,.12Z"/>
            <path class="cls-22" d="M47.38,19.04c.47-.03,.98,.05,1.35,.38,.48,.42,.65,1.05,.73,1.68-.1-.13-.22-.26-.35-.35-.39-.27-.72-.08-1.13,.03-.32,.09-.66,.05-.89-.24-.16-.21-.22-.46-.37-.67-.19-.26-.44-.43-.72-.54,.18-.04,.35-.11,.53-.15,.28-.07,.58-.12,.86-.14Z"/>
            <g>
              <path class="cls-57" d="M35.78,6.6c1.06,.67,2.38,.83,3.55,1.28,1.12,.42,3.82,1.04,4.93,5.18,.17,.64,.33,1.27,.45,1.92,.09,.47,.14,.98,.34,1.42,.39,.86,1.41,.98,2.25,.75,.58-.16,.45-.86,.25-1.44-.23-1.5-1.03-3-1.79-4.29-.83-1.39-1.82-2.74-3.22-3.63-1.61-1.02-3.62-1.03-5.35-1.78-.88-.38-1.93-.94-2.4-1.81-.48-.88-.86-2.44-.72-3.43,.15-1.06-.55,.3-.59,.44-.63,1.9,.67,4.33,2.32,5.38Z"/>
              <path class="cls-35" d="M47.3,15.37c-.11-.28-.3-.44-.52-.53,.13-.01,.24-.04,.32-.14,.14-.19-.13-.61-.22-.77-.16-.3-.23-.77-.51-.99-.21-.17-.5-.22-.77-.22,.21-.03,.47-.02,.52-.2,.06-.2-.2-.48-.31-.62-.11-.15-.21-.28-.3-.45-.1-.19-.19-.42-.35-.56-.28-.25-.6-.29-.94-.33,.2-.06,.4-.06,.61-.05,.04,0,.06-.04,.05-.07-.09-.37-.44-.7-.69-.96-.29-.31-.55-.43-.93-.47,.09-.07,.18-.13,.27-.19,.03-.02,.04-.06,.01-.09-.25-.25-.54-.43-.81-.64-.12-.1-.26-.16-.4-.22-.13-.13-.35-.22-.48-.2-.03-.01-.05,0-.06,.01-.18,.05-.29,.2-.37,.37,.01-.17,.06-.34,.12-.51,0-.03,0-.05-.03-.06-.36-.26-1.45-.66-1.84-.24,.02-.1,.05-.19,.09-.29,.01-.04,0-.07-.03-.08-.68-.27-1.41-.34-2.08-.62-.36-.15-.71-.32-1.05-.51-.05-.03-.13-.07-.22-.12,.27,.14,.54,.27,.79,.38,1.73,.75,3.74,.75,5.35,1.78,1.41,.9,2.4,2.24,3.22,3.63,.76,1.28,1.56,2.79,1.79,4.29,.17,.47,.29,1.03,0,1.3,.02-.22,0-.44-.03-.66-.05-.32-.09-.68-.22-.98Z"/>
              <path class="cls-61" d="M45.52,15.17c.44-.25,.83-.4,1.33-.33,.3,.04,.55,.12,.67,.43,0,.02,.01,.07-.01,.09,0,0-.01,0-.02,.01-.01,0-.03,0-.04,0-.56-.34-1.22-.19-1.83-.04-.05,.01-.16-.11-.1-.15Z"/>
              <path class="cls-63" d="M44.65,12.95c.51-.45,1.1-.66,1.75-.38,.17,.08,.52,.39,.32,.58-.03,.03-.08-.01-.1-.05-.34-.67-1.39-.19-1.9-.03-.05,.01-.12-.08-.08-.12Z"/>
              <path class="cls-54" d="M43.79,10.74c.3-.28,.73-.37,1.11-.25,.29,.09,.75,.3,.74,.69,0,.05-.06,0-.08,0-.47-.55-1.06-.38-1.65-.22-.08,.02-.2-.14-.13-.2Z"/>
              <path class="cls-69" d="M42.78,9.31c.25-.41,.56-.6,1.04-.45,.14,.04,.65,.32,.52,.55,0,0,0,0,0,0-.02,.03-.06-.01-.06-.03-.09-.23-.52-.25-.7-.22-.24,.04-.45,.23-.66,.33-.06,.03-.17-.11-.13-.17Z"/>
              <path class="cls-72" d="M41.3,8.08c.11-.31,.41-.55,.74-.53,.27,.01,.61,.12,.74,.39,0,0,0,.02,.01,.02,0,0,0,0,0,.01,0,.02-.02,.03-.03,.02-.44-.33-.95-.06-1.29,.27-.07,.07-.18-.1-.16-.17Z"/>
              <path class="cls-77" d="M40.05,6.95c.27-.12,.52,.02,.77,.08,.02,0,.05,.06,.02,.06-.21,.02-.38,0-.59,.09-.24,.1-.4,.33-.58,.51-.06,.06-.17-.08-.16-.15,.07-.28,.27-.48,.52-.59Z"/>
              <path class="cls-55" d="M37.83,6.93c.1-.24,.28-.4,.51-.48,.11-.04,.25-.03,.36,0,.05,.02,.1,.05,.14,.06,.01,0,.03,.02,.03,.03,0,0,0,.02,0,.03,0,0-.02,.01-.03,0-.15-.05-.39,.09-.5,.18-.14,.1-.22,.25-.35,.36-.08,.07-.2-.11-.17-.19Z"/>
              <path class="cls-62" d="M36.73,6.31c.04-.12,.13-.19,.24-.24,.11-.05,.21-.09,.32-.02,.01,0,.04,.06,0,.06-.09,0-.17,.09-.24,.15-.07,.06-.12,.12-.17,.2-.05,.1-.19-.07-.16-.15Z"/>
            </g>
            <path class="cls-14" d="M33.46,1.22c.03-.09,.31-.65,.48-.8-.23,.6-.38,1.23-.3,1.88,.09,.73,.34,1.44,.71,2.06,.36,.6,.8,1.19,1.37,1.58,.21,.14,.46,.31,.72,.28,.17-.02,.32-.09,.48-.16-.05,.07-.1,.14-.14,.23-.03,.06,.04,.12,.09,.07,.07-.07,.15-.13,.24-.18-.17,.24-.26,.51,.12,.64,.16,.05,.38,.2,.55,.12,.17-.08,.3-.21,.44-.32-.08,.1-.14,.21-.13,.34,.02,.2,.31,.28,.46,.32,.26,.08,.56,.2,.83,.16,.15-.02,.26-.13,.38-.22,.16-.12,.31-.21,.49-.24-.18,.17-.48,.48-.29,.55,.05,.02,.13-.01,.18-.04,0,.2,.25,.29,.4,.34,.18,.07,.42,.23,.61,.11,.18-.12,.33-.25,.54-.31,.07-.02,.13-.03,.2-.04-.08,.06-.15,.14-.2,.23-.03,.05,.02,.09,.06,.08,.25-.05,.49-.13,.73-.13-.13,.02-.25,.07-.35,.15-.14,.13-.22,.35-.08,.52,.09,.11,.21,.18,.32,.26,.12,.09,.24,.22,.38,.25,.34,.08,.64-.2,.96-.17-.27,.05-.53,.2-.63,.46-.02,.04,.03,.08,.07,.07,.25-.06,.6-.23,.89-.2-.25,0-.5,.04-.68,.24-.02,.02-.02,.05,0,.07,.14,.22,.35,.37,.5,.59,.08,.12,.17,.3,.3,.38,.09,.06,.19,.08,.29,.09-.12,.04-.23,.11-.31,.21-.03,.03-.01,.1,.04,.1,.2-.02,.39-.03,.59-.02-.15,.02-.3,.07-.42,.16-.21,.16,0,.44,.1,.59,.12,.16,.25,.31,.38,.46,.1,.12,.18,.26,.3,.37,.09,.08,.22,.08,.33,.07,.1-.01,.19-.03,.28-.05-.19,.06-.37,.14-.53,.25-.04,.03-.03,.09,.01,.1,.16,.04,.32,.08,.48,.12-.12,.05-.23,.11-.24,.27,0,.32,.34,.65,.48,.91,.1,.19,.12,.37,.18,.57,.03,.09,.07,.2,.16,.24,.07,.03,.14,.05,.21,.07-.24,.03-.48,.08-.71,.21-.04,.02-.03,.1,.01,.1,.22,.04,.44,.05,.66,.07-.12,.02-.23,.07-.26,.16-.06,.15,0,.31,.06,.45,.09,.19,.14,.4,.24,.59,.21,.39,.65,.6,1.04,.53-.06,.05-.13,.08-.21,.11-.84,.23-1.86,.11-2.25-.75-.2-.44-.25-.96-.34-1.42-.12-.65-.28-1.28-.45-1.92-1.11-4.14-3.82-4.75-4.93-5.18-1.17-.44-2.49-.61-3.55-1.28-1.65-1.05-2.95-3.48-2.32-5.38Z"/>
            <path class="cls-73" d="M39.91,16.02c.46,.48,1.08,1.03,1.73,1.18,.5,.11,1,.16,1.5,.28,.21,.05,.6,.15,.83,.34,0,0-.02,0-.03,0-.59-.15-1.21-.08-1.81-.18-1.01-.18-1.92-.79-2.46-1.71-.1-.16-.18-.34-.25-.51,.15,.22,.32,.43,.5,.62Z"/>
            <path class="cls-85" d="M44.97,18.52c-.43-.1-.61-.6-1.04-.7-.59-.15-1.21-.08-1.81-.18-1.01-.18-1.92-.79-2.46-1.71-.32-.55-.52-1.18-.67-1.8-.08-.34-.08-1.42,.06-1.53,.05-.04,.1-.07,.16-.09,.27,.01,.54,.05,.78,.09,.48,.06,.94,.18,1.4,.34,.84,.29,1.63,.78,2.24,1.45,.31,.34,.55,.74,.75,1.16,.21,.44,.54,1.35,.81,1.76,.14,.22,.47,1.39-.21,1.23Z"/>
            <path class="cls-67" d="M39.05,12.59s.1-.07,.16-.09c.27,.01,.54,.05,.78,.09,.48,.06,.94,.18,1.4,.34,.53,.18,1.04,.45,1.5,.79-.05-.03-.1-.06-.15-.09-.28-.15-.57-.3-.89-.35-.04,0-.08,.04-.04,.07,.14,.12,.28,.22,.41,.35-.4-.21-.82-.38-1.26-.43-.32-.03-.78-.04-.96,.3-.25,.45-.06,1.03,.09,1.53-.08-.16-.17-.32-.26-.47-.02-.04-.08-.02-.08,.02,0,.21,.06,.41,.13,.61-.05-.08-.1-.16-.16-.23-.02-.03-.07,0-.07,.03,.01,.49,.19,.97,.41,1.41-.15-.17-.28-.35-.4-.55-.32-.55-.52-1.18-.67-1.8-.08-.34-.08-1.42,.06-1.53Z"/>
            <g class="cls-23">
              <path class="cls-75" d="M41.36,13.67s-.03-.05,0-.05c.6,.11,1.44,.57,1.82,1.07,.16,.21,.22,.39,.22,.66,0,.49-.07,.93,.04,1.41,0,.03-.03,0-.03,0-.08-.19-.18-.39-.16-.61,0-.1,.02-.2,.03-.3-.13-.17-.25-.31-.44-.44-.3-.19-.61-.3-.95-.38-.02,0-.06-.07-.02-.07,.37,.01,.66,.13,.99,.32,.25,.14,.34,.26,.44,.46,.02-.19,.02-.37,0-.56-.09-.8-1.35-1.2-1.92-1.51Z"/>
              <path class="cls-75" d="M40.62,15.57c.42,.44,.92,.86,1.47,1.09,.53,.22,1.08,.41,1.61,.63,.03,.01,.06,.09,0,.08-.62-.16-1.27-.35-1.86-.62-.5-.24-.9-.72-1.26-1.13-.02-.02,0-.06,.02-.03Z"/>
              <path class="cls-75" d="M43.65,16.95c.11,.05,.23,.07,.34,.12,.07,.04,.17,.05,.22,.12,.06,.07,.07,.14,.07,.23,0,.11,.02,.21,.02,.32,0,.07-.09-.01-.1-.04-.03-.08-.06-.15-.08-.23,0-.01-.01-.18,0-.18-.08-.02-.16-.1-.23-.13-.08-.04-.16-.09-.24-.14-.02-.01-.04-.08,0-.06Z"/>
            </g>
            <path class="cls-6" d="M38.99,14.12c.15,.62,.35,1.25,.67,1.8,.54,.92,1.45,1.54,2.46,1.71,.6,.11,1.22,.03,1.81,.18,.43,.11,.61,.61,1.04,.7,.68,.16,.35-1.02,.21-1.23-.02-.02-.03-.05-.05-.08,.09,.27,.15,.55,.14,.83,0,.04-.06,.08-.09,.04-.18-.24-.32-.52-.48-.78-.1-.16-.21-.3-.34-.43-.07-.07-.17-.14-.2-.24-.04-.11-.04-.19-.02-.31,.04-.22,.06-.38,0-.61-.08-.4-.29-.78-.47-1.14-.06-.12-.13-.24-.21-.35-.59-.59-1.31-1.02-2.08-1.29-.46-.16-.92-.28-1.4-.34-.25-.03-.52-.07-.78-.09-.06,.03-.11,.06-.16,.09-.14,.11-.14,1.19-.06,1.53Zm1.49-.2c.02-.18,.06-.35,.24-.4,.32-.1,.82,.18,1.09,.41,.3,.12,.59,.26,.86,.48,.36,.29,.62,.63,.63,1.12,0,.06-.07,.07-.09,.03-.32-.44-.92-.76-1.44-.57,.33,.22,.74,.28,1.06,.54,.42,.34,.23,.96,.59,1.33,.04,.04,0,.1-.05,.09-.62-.14-1.24-.32-1.8-.65-.53-.32-.87-.78-1.01-1.4-.07-.31-.1-.64-.07-.96Z"/>
            <path class="cls-9" d="M42.52,17.28s.03-.08,0-.1c-.49-.34-1.04-.63-1.44-1.07,.23,.17,.47,.32,.73,.43,.32,.15,.66,.27,.98,.4,.31,.12,.55,.16,.86,.08,.47-.13,.58,.16,.7,.56,.07,.23,.16,.43,.3,.62,.19,.25,.4,.38,.59,.28-.06,.05-.15,.06-.28,.03-.43-.1-.61-.6-1.04-.7-.59-.15-1.21-.08-1.81-.18-.27-.05-.53-.13-.78-.23,.39,.07,.8,.04,1.17-.12Z"/>
            <path class="cls-28" d="M54.84,26.3c-.08-.25-.23-.5-.38-.74-.26-.41-.45-.84-.67-1.27-.23-.45-.48-.89-.73-1.32-.26-.45-.51-.91-.77-1.36-.28-.46-.5-.87-.49-1.43,0-.41,.01-.82-.09-1.23-.08-.28-.19-.55-.32-.8,.16,.16,.28,.35,.37,.57,.03,.06,.11,.01,.1-.04-.08-.64-.34-1.19-.68-1.69,.27,.27,.52,.58,.65,.93,.28,.74,.23,1.65,.17,2.43-.04,.54,2.77,5.28,2.85,5.93,0,0,0,.02,0,.02Z"/>
            <path class="cls-36" d="M49.31,18.96s.1-.02,.08-.06c-.07-.18-.16-.34-.26-.49,.29,.23,.45,.57,.57,.94,.02,.06,.12,.05,.11-.02,0,0,0-.01,0-.02h0c-.03-.25-.07-.5-.09-.76,.18,.35,.25,.75,.27,1.15-.03,.16-.07,.31-.11,.47-.33-.58-.69-1.13-1.23-1.55-.6-.47-1.3-.68-1.95-1.01,.52,.09,1.06,.24,1.51,.49,.4,.23,.72,.58,1.09,.85Z"/>
            <path class="cls-24" d="M47.63,22.47c-.32,.55-.23,1.05-.02,1.58-.4-.52-.77-1.24-.11-1.66,.06-.04,0-.13-.06-.1-.12,.06-.24,.11-.35,.18,.08-.26,.34-.46,.59-.49,0,0,.01,0,.02,0,.06-.01,.05-.12-.01-.11,0,0,0,0-.01,0h0c-.17,.03-.35,.04-.52,.05,.34-.19,.71-.22,1.09-.24-.26,.2-.48,.56-.62,.79Z"/>
            <path class="cls-10" d="M44.42,.02c.14,1.44,.64,2.94,1.34,4.19,.33,.59,.73,1.15,1.18,1.65,.12,.12,.26,0,.36-.09,.2-.17,.47-.24,.74-.24-.12,.04-.23,.09-.33,.17-.05,.04,0,.13,.06,.1,.18-.1,.44-.19,.68-.19,.02,0,.05,.02,.07,.03-.27,.17-.63,.22-.73,.6-.08,.32,.14,.44,.37,.59,.24,.16,.47,.34,.71,.08,.16-.17,.28-.35,.49-.44,.13-.06,.26-.1,.39-.11-.13,.05-.25,.13-.34,.25-.03,.03-.01,.1,.04,.1,.14-.02,.28-.06,.42-.08-.28,.11-.55,.29-.49,.59,.04,.22,.39,.41,.54,.53,.11,.09,.25,.19,.34,.31,.11,.14,.19,.29,.29,.44,.03,.05,.1,.03,.1-.03,.03-.37-.15-.65-.35-.93,.16,.11,.29,.25,.42,.4,.02,.02,.06,.02,.08,0,.21-.25,.46-.31,.73-.31-.14,.07-.25,.17-.36,.3-.03,.04,0,.12,.05,.1,.21-.08,.46-.14,.68-.07-.22,.01-.47,.04-.58,.23-.12,.18-.07,.4-.03,.6,.04,.2,.03,.6,.25,.7,.22,.09,.43,.15,.62,.24-.22-.09-.45-.13-.67,0-.04,.02-.03,.09,.01,.11,.3,.07,.79,.09,.92,.42-.21-.13-.48-.3-.71-.24-.25,.07-.31,.29-.32,.54,0,.18,0,.36-.06,.54-.03,.11-.05,.17,.03,.26,.1,.1,.32,.13,.44,.2,.1,.06,.19,.12,.26,.2-.22-.17-.48-.28-.75-.24-.05,0-.08,.08-.03,.11,.19,.1,.39,.15,.55,.31,.12,.12,.22,.25,.26,.41-.03-.05-.07-.09-.11-.13-.08-.08-.18-.17-.28-.22-.14-.07-.31-.14-.47-.11-.42,.06-.49,.73-.56,1.08,0,.03,0,.06,.04,.07,.34,.07,.74,.16,.94,.46-.27-.19-.65-.25-.96-.17-.06,.02-.05,.11,.01,.11,.22,.01,.38,.14,.53,.29-.19-.07-.4-.12-.56,.01-.2,.16-.29,.44-.37,.69-.04,.13-.26,.47-.16,.61,.07,.09,.21,.11,.3,.16,.13,.08,.26,.16,.34,.28-.26-.15-.52-.28-.79-.07-.1,.08-.14,.22-.18,.35-.05,.16-.13,.37-.11,.54,.03,.33,.32,.61,.63,.65,0,0,0,0,0,0-.57,.23-1.36-.64-1.44-1.11-.08-.48,.91-2.47,1.1-3.04,.16-.48,.38-1.02,.54-1.58-.01-.01-.03-.03-.02-.05,.05-.2,.12-.43,.18-.66,.12-.71,.06-1.4-.4-1.98-.22-.28-.55-.54-.87-.69-.5-.24-1-.46-1.49-.72-.85-.44-1.74-1.07-2.31-1.88-.29-.41-.44-.92-.66-1.37-.05-.17-.1-.34-.15-.51-.18-.72-.3-1.45-.41-2.19-.04-.25-.07-.49-.08-.74,0-.12,.02-.34,.09-.4Z"/>
          </g>
        </g>
      </g>
    </g>
  </g>
</svg>