<?xml version="1.0" encoding="UTF-8"?>
<svg xmlns="http://www.w3.org/2000/svg" xmlns:xlink="http://www.w3.org/1999/xlink" viewBox="0 0 52.97 64.69">
  <defs>
    <style>
      .uuid-e2da0ffa-a2e9-465d-a58a-46ac91312dbf {
        fill: url(#uuid-1131b43e-b5be-4bf4-afc7-376f348a4bdf);
      }

      .uuid-7cd0bdae-5b23-43fc-be01-6a592f79f553 {
        fill: url(#uuid-a290eda9-2413-445f-9e02-3b6a1ae6f9db);
      }

      .uuid-312eacc5-554c-448a-976e-5391e00c7ea9 {
        fill: url(#uuid-575a2f53-68f9-4222-aa4e-0bb3369bbf1c);
      }

      .uuid-312eacc5-554c-448a-976e-5391e00c7ea9, .uuid-41929415-45a1-494b-a1e7-ea3ffc2e1be4, .uuid-97bc9dc3-f971-4bae-b329-a92c58d169d9, .uuid-e24772ee-4f40-4e7e-993c-081026977459, .uuid-c8ffe0a8-7a4e-44aa-9372-6af28a56c471, .uuid-88f1f0c2-5a54-470d-9cdc-1a051e8a2f8f, .uuid-fb747311-0943-4535-884c-ad2a9dcad335, .uuid-01e22db9-354c-485a-aa31-4a40939d05ae, .uuid-e7647fb4-c282-4af8-8f81-9cd417693e69, .uuid-ab35161d-d848-4f3b-9a5e-ef5fc7697651, .uuid-dbc18206-bf0b-43b5-ac63-b078076f2b9b, .uuid-de935eb2-71a5-47d6-bf06-9df73da39b9b, .uuid-055c3050-8567-4362-8165-4cc3ae9836fc, .uuid-40237b81-08e5-4765-8236-251a2c9a1e66 {
        mix-blend-mode: screen;
      }

      .uuid-312eacc5-554c-448a-976e-5391e00c7ea9, .uuid-41929415-45a1-494b-a1e7-ea3ffc2e1be4, .uuid-ab35161d-d848-4f3b-9a5e-ef5fc7697651, .uuid-dbc18206-bf0b-43b5-ac63-b078076f2b9b, .uuid-8fb562b1-088c-4b37-a86e-c966b682b3d5, .uuid-de935eb2-71a5-47d6-bf06-9df73da39b9b, .uuid-268f2a0d-7adc-4f34-8697-370de11793c5, .uuid-ea6d6657-c2fe-4717-8fe1-b87e3e768e97, .uuid-0fa231e6-848b-4ea9-bc3a-93ebeecda8a5 {
        opacity: .4;
      }

      .uuid-c2585f27-6b1a-40aa-976e-8f78e50d987e {
        fill: url(#uuid-55f78724-c419-4040-a984-fe89ba8491f7);
      }

      .uuid-41929415-45a1-494b-a1e7-ea3ffc2e1be4 {
        fill: url(#uuid-78e615b5-6189-46fd-97bd-6e3297c4731b);
      }

      .uuid-6c471f12-452a-4f00-ba33-6e37e443edcb {
        fill: url(#uuid-c9e2ca3d-434a-4db2-a957-1f3f69ce798f);
      }

      .uuid-0d5be6fe-fc3d-4169-9588-240b3a2fab15 {
        fill: url(#uuid-6cad274e-21c0-46a1-8190-8f9da1eafdba);
      }

      .uuid-0d5be6fe-fc3d-4169-9588-240b3a2fab15, .uuid-ddaaa824-7ccc-4c30-b6c3-97784f84d55d, .uuid-febb6de8-92ec-4ed3-8bfe-f94af06cd19f, .uuid-ee6ce3f9-e291-4fa5-aa1a-cb7f56c1a96f, .uuid-b80f7a7b-2c05-455a-aa16-f4eac2997fcd, .uuid-570f5893-efd4-4abb-a53e-c87cc572430d, .uuid-4ba52c80-7c20-45a8-b9e6-fc53eb218b1b, .uuid-b8774884-435d-40a5-a923-9a74a13976c3, .uuid-88e2237b-1bed-467a-986c-b62eba0c6487, .uuid-dad26567-4bd8-44cf-8bf3-39d20f0ea488, .uuid-0af4b7f2-56d7-4fa4-92c7-735e97490e24, .uuid-7653db98-592f-4fb5-bce4-e95a98fd3fb3, .uuid-a77a424e-b7c5-41bc-a81f-7721ca8b5db2, .uuid-d2d1edde-0a5b-41e0-88eb-22a82abcecaf, .uuid-28444b79-be95-4a91-837d-1535764e4616, .uuid-73b8ad50-ac27-488e-b370-7b6f6c67bdbd, .uuid-ca5f21d9-702b-4e13-8604-9c2694c3cd71, .uuid-8fb562b1-088c-4b37-a86e-c966b682b3d5, .uuid-268f2a0d-7adc-4f34-8697-370de11793c5, .uuid-5ac80f2a-0ec5-46a1-a02a-1b7b95dc2d63, .uuid-ea6d6657-c2fe-4717-8fe1-b87e3e768e97, .uuid-0fa231e6-848b-4ea9-bc3a-93ebeecda8a5, .uuid-00b3bfc1-b39e-48bd-89f2-2ab692a7ee83 {
        mix-blend-mode: multiply;
      }

      .uuid-b7935d83-3d23-4738-aae9-ad7c9aecf531 {
        fill: url(#uuid-4e0b6acf-2499-4d46-8836-050b4d412e2b);
      }

      .uuid-00e3d7ea-b204-468d-8bfa-36b88a332733 {
        fill: url(#uuid-5ad6d51e-bfa8-40ea-9493-460b99867b82);
      }

      .uuid-c1f39ce1-132f-4dc3-b775-437532b127d3 {
        fill: url(#uuid-57175976-5858-4f73-8771-cb5d6558d311);
      }

      .uuid-fbeabe82-e0d7-4e36-8504-360717f0efac {
        fill: url(#uuid-5fc3b353-cf92-4d26-973c-1cf60a89af0d);
      }

      .uuid-ddaaa824-7ccc-4c30-b6c3-97784f84d55d {
        fill: #4e4e4e;
      }

      .uuid-febb6de8-92ec-4ed3-8bfe-f94af06cd19f {
        fill: url(#uuid-3c1bc993-808c-43a7-8421-b024d949fb17);
      }

      .uuid-e5c3e8e8-44b4-4da7-bd52-5a73adfccd97 {
        fill: url(#uuid-20a0ddac-32de-4460-ba49-d0b36b38030e);
      }

      .uuid-b23de182-7b63-4af8-80ce-16a148807439 {
        fill: url(#uuid-0a5ad4dc-b407-4723-bc57-7b8351799492);
      }

      .uuid-1e314087-3077-4cf4-a9b6-d2c9b4cca738 {
        fill: url(#uuid-01d7ca3d-bafb-4324-a4fb-4fb66e6e9d63);
      }

      .uuid-ee6ce3f9-e291-4fa5-aa1a-cb7f56c1a96f {
        fill: url(#uuid-3ccfffb0-7f24-4146-9442-b85bc69b960e);
      }

      .uuid-ee6ce3f9-e291-4fa5-aa1a-cb7f56c1a96f, .uuid-4ba52c80-7c20-45a8-b9e6-fc53eb218b1b {
        opacity: .9;
      }

      .uuid-9102696f-17a6-494e-a105-e8174b513876 {
        fill: url(#uuid-9513be9d-f49b-4495-8fc2-38c1b01d4ec4);
      }

      .uuid-35f7af09-c17b-4410-aab4-d91bdce900b8 {
        fill: url(#uuid-199ac807-720a-4a76-8d86-8287e42c6661);
      }

      .uuid-63c27c11-afe9-4427-93da-53f999175094 {
        fill: url(#uuid-68cf454f-9010-4d7b-b2fc-42cb0c2fe162);
      }

      .uuid-26ed2c47-b353-4cfb-a0f6-d0609b878d03 {
        isolation: isolate;
      }

      .uuid-97bc9dc3-f971-4bae-b329-a92c58d169d9 {
        fill: #806661;
      }

      .uuid-b80f7a7b-2c05-455a-aa16-f4eac2997fcd {
        fill: url(#uuid-a2fe03ac-199b-43bb-8b98-c201455675bd);
      }

      .uuid-e24772ee-4f40-4e7e-993c-081026977459 {
        fill: url(#uuid-206cc1df-bd94-4a25-a2c4-83d3f2a43125);
      }

      .uuid-f48ba390-0372-4d7f-929b-57e243527596 {
        fill: url(#uuid-4b2b48fc-12cc-4ad1-80e7-1b8fc7cc5aa1);
      }

      .uuid-c8ffe0a8-7a4e-44aa-9372-6af28a56c471 {
        fill: url(#uuid-18440aa7-07e0-49bb-aa79-9dc5794b9e5e);
      }

      .uuid-bbde2478-27d7-49dc-be1e-eeafc4670009 {
        fill: #361f17;
      }

      .uuid-105ad52c-86fb-4828-8c57-41e3555fbf66 {
        fill: url(#uuid-4379dda9-e86e-4e41-9e00-b9c49343db67);
      }

      .uuid-2c941cd0-48b4-430e-8bcd-6474971cd0b5 {
        fill: url(#uuid-718380a3-165d-40df-a2de-4537d199fa35);
      }

      .uuid-570f5893-efd4-4abb-a53e-c87cc572430d, .uuid-654cf42c-9562-43b4-a14d-c55583d8c303 {
        fill: #545d5b;
      }

      .uuid-6f6408fe-4a7c-4513-9281-493dd79c7e3b {
        fill: url(#uuid-a1d6028f-6c39-4948-889b-d79e8bfe34f0);
      }

      .uuid-18ed7789-bda4-4d60-aa38-ccaf282e474b {
        fill: url(#uuid-fb92eb17-0f55-4523-b4c3-410b8c062b01);
      }

      .uuid-bb62a971-86aa-48b2-a2cc-ef956255d401 {
        fill: url(#uuid-38df9dd0-b483-44a2-9baa-8f6a1b4cfd68);
      }

      .uuid-749c54e2-479e-4377-b51e-3a8ce590ca4d {
        fill: url(#uuid-47d6814e-fa3d-40bb-87a0-ba23369fdf10);
      }

      .uuid-b30c0822-0d85-4862-9df2-97289e935112 {
        fill: url(#uuid-504fe1e2-1205-4bd0-93b4-548dab2a50d2);
      }

      .uuid-88f1f0c2-5a54-470d-9cdc-1a051e8a2f8f {
        fill: url(#uuid-c27fb574-8ac5-4036-83f4-6961b80c009e);
      }

      .uuid-d185d8ed-aa26-4295-b727-97daf172c508 {
        fill: url(#uuid-f0ce4b22-1bdb-4137-ad6d-acd1a1bbbfdf);
      }

      .uuid-fb747311-0943-4535-884c-ad2a9dcad335 {
        fill: url(#uuid-7ddd533b-9b7d-41a5-b1a2-e6af97b3bc5c);
      }

      .uuid-50644919-9875-4d0a-b7e3-d31d902d4900 {
        fill: url(#uuid-2bf3d8d2-77f2-48fd-86ec-c1f350273f0d);
      }

      .uuid-4ba52c80-7c20-45a8-b9e6-fc53eb218b1b {
        fill: url(#uuid-c84d8197-a924-4a98-91c2-8c2247d91c4c);
      }

      .uuid-b8774884-435d-40a5-a923-9a74a13976c3 {
        fill: #3c2f2c;
        opacity: .3;
      }

      .uuid-9db4b6ca-19ab-477d-8009-b250d8f8aa41 {
        fill: url(#uuid-145f72c1-22e4-4d89-a6fc-ca6ab8f322ec);
      }

      .uuid-88e2237b-1bed-467a-986c-b62eba0c6487 {
        fill: url(#uuid-34985a79-c36b-4d68-b439-515ee5059585);
      }

      .uuid-88e2237b-1bed-467a-986c-b62eba0c6487, .uuid-dad26567-4bd8-44cf-8bf3-39d20f0ea488, .uuid-7653db98-592f-4fb5-bce4-e95a98fd3fb3, .uuid-a77a424e-b7c5-41bc-a81f-7721ca8b5db2, .uuid-28444b79-be95-4a91-837d-1535764e4616, .uuid-ca5f21d9-702b-4e13-8604-9c2694c3cd71 {
        opacity: .6;
      }

      .uuid-54abb0af-e787-4b47-8e74-82c30f833cf5 {
        fill: url(#uuid-59d6f600-4725-4bae-bc30-5f7453132ee5);
      }

      .uuid-99359cb8-78c7-4681-baef-e6c784d21edb {
        fill: url(#uuid-337955af-d882-4474-afe7-4fffae6f8edc);
      }

      .uuid-01e22db9-354c-485a-aa31-4a40939d05ae {
        fill: url(#uuid-a2ceb274-208f-4f84-bb5b-a151d49ade82);
      }

      .uuid-27076ddd-75d0-4493-827d-72fa13e9e4ac {
        fill: url(#uuid-b55774e1-d750-49b6-9719-7593c2bb077e);
      }

      .uuid-dad26567-4bd8-44cf-8bf3-39d20f0ea488 {
        fill: url(#uuid-6d1156f4-44a4-4888-96ab-3e867475c391);
      }

      .uuid-209a3668-58db-4b68-8ca5-27f8b8f55a90 {
        fill: #624f4b;
      }

      .uuid-b780720e-dab6-4eec-a93b-bf61c46e109d {
        fill: url(#uuid-259ba754-9fff-4e0a-bcf1-b008a6351cba);
      }

      .uuid-e846de3d-dfa7-41ef-ad11-23d072b6ed81 {
        fill: url(#uuid-7693d9ca-566b-45d8-a8de-01575d7d59f6);
      }

      .uuid-3028737a-ae51-45c4-b7f1-5cd7fdfccad0 {
        fill: url(#uuid-cba920e1-162f-47a7-b447-86bfbfbe97df);
      }

      .uuid-3a7e0495-cab3-42bf-9e58-f936f54f1884 {
        fill: url(#uuid-03f64b96-2f1a-49f9-9ba3-52513c625161);
      }

      .uuid-3b624e59-1e1c-4895-aaf6-6276705bf416 {
        fill: url(#uuid-ed3e5f36-e676-4388-8447-04509db762ae);
      }

      .uuid-a8b74004-a40b-4020-8f70-32022c0d3839 {
        fill: url(#uuid-5912e35d-6cdf-4619-8549-838c5f040bd9);
      }

      .uuid-0af4b7f2-56d7-4fa4-92c7-735e97490e24 {
        fill: url(#uuid-b5d8b508-7861-42f3-ba3c-4c697e1b4f36);
      }

      .uuid-7653db98-592f-4fb5-bce4-e95a98fd3fb3 {
        fill: url(#uuid-ff8c37b8-8a07-4493-ac73-34fb1889ad78);
      }

      .uuid-e0d6f8a9-1a0a-49ee-a70f-dcff52a8e557 {
        fill: url(#uuid-4b8d3dd7-b49f-4cb9-91b4-c97d804896cf);
      }

      .uuid-a77a424e-b7c5-41bc-a81f-7721ca8b5db2 {
        fill: url(#uuid-b355c5bf-dacb-4dda-a41d-776bc52101f2);
      }

      .uuid-d2d1edde-0a5b-41e0-88eb-22a82abcecaf {
        fill: url(#uuid-0aedafbd-5fa3-4a67-aea4-84fe18621d4c);
      }

      .uuid-f1b30f97-324a-44dd-925c-1fcd54d174b2 {
        fill: #171311;
      }

      .uuid-28444b79-be95-4a91-837d-1535764e4616 {
        fill: url(#uuid-d21c2704-a3dc-4506-8d2f-c6837988d67c);
      }

      .uuid-2ce7b0b8-fab3-4865-8f1f-a1943deb6324 {
        fill: #bcbcbc;
      }

      .uuid-e7647fb4-c282-4af8-8f81-9cd417693e69 {
        fill: url(#uuid-52b00fc1-c2db-44ca-b564-1734c62bdf2c);
      }

      .uuid-ab35161d-d848-4f3b-9a5e-ef5fc7697651 {
        fill: url(#uuid-bf7ba143-86e6-450e-88de-7931f43a279a);
      }

      .uuid-dbc18206-bf0b-43b5-ac63-b078076f2b9b {
        fill: url(#uuid-ca1a2a8d-6d6b-4325-9afd-72d837f5e8d0);
      }

      .uuid-16cc1987-cec4-4e2d-820c-250ae1890285 {
        fill: url(#uuid-a7f180ed-8d90-494e-a2b2-d23958dba9c0);
      }

      .uuid-4271ecff-4fe1-453d-a4bd-c11898649878 {
        fill: url(#uuid-83d8d2ce-3612-40fd-a4a3-82f8d5277c03);
      }

      .uuid-8cc029b8-8dad-4271-a01b-cf20a0dd0b26 {
        fill: url(#uuid-2547a277-8fc9-4740-9586-117cce40bdff);
      }

      .uuid-73b8ad50-ac27-488e-b370-7b6f6c67bdbd {
        fill: url(#uuid-7ccff500-ebe0-4ef3-9e6c-ca8841985a9e);
        opacity: .5;
      }

      .uuid-4a27da8d-03c6-4bfb-8f7a-d9edb2d1dec7 {
        fill: url(#uuid-e6cb9e0d-dc3a-4d0b-8849-a87c2cf1f2ed);
      }

      .uuid-ca5f21d9-702b-4e13-8604-9c2694c3cd71 {
        fill: url(#uuid-4b528073-11fd-43bc-b222-d3839852dc58);
      }

      .uuid-6dd20441-94a8-47d1-bafc-8fc5185f5a31 {
        fill: url(#uuid-10349ef0-5c7e-4f3f-8430-be7199745454);
      }

      .uuid-8fb562b1-088c-4b37-a86e-c966b682b3d5 {
        fill: url(#uuid-27279ba3-0898-4415-a4a2-7cb7eeccf013);
      }

      .uuid-0eaa6542-207e-481d-ab61-d2822d27560f {
        fill: url(#uuid-f5d58bff-0e7d-43cd-8143-957f459c3dfe);
      }

      .uuid-de935eb2-71a5-47d6-bf06-9df73da39b9b {
        fill: url(#uuid-5194aa48-9566-439b-ab86-b5e070fa646f);
      }

      .uuid-bd34fb9f-4269-4923-a796-627e0b206df7 {
        fill: url(#uuid-f173b045-9a08-442f-8603-e068d1c088f0);
      }

      .uuid-90619c66-7523-467f-924c-3a638edf5c79 {
        fill: url(#uuid-519adc97-5e8c-4980-951d-bd5b83b542bd);
      }

      .uuid-055c3050-8567-4362-8165-4cc3ae9836fc {
        fill: url(#uuid-4063ce14-3d34-4822-b7b6-24e299d27e4b);
      }

      .uuid-40237b81-08e5-4765-8236-251a2c9a1e66 {
        fill: url(#uuid-1cccc693-8b74-4965-b692-5502d4b27931);
      }

      .uuid-c4f050f2-5b2a-4748-8f03-040b35847644 {
        fill: url(#uuid-5f2357e9-de62-46f8-880d-8a7154b63a34);
      }

      .uuid-268f2a0d-7adc-4f34-8697-370de11793c5 {
        fill: url(#uuid-ca3f836e-3ac3-40a4-8bfe-ea7a56c2aa95);
      }

      .uuid-c065942e-55e5-4e72-96d3-cf6e2a1ff833 {
        fill: #302313;
      }

      .uuid-ea6d6657-c2fe-4717-8fe1-b87e3e768e97 {
        fill: url(#uuid-c8b02676-b6fd-401b-b0bc-b804d3cf55c0);
      }

      .uuid-0fa231e6-848b-4ea9-bc3a-93ebeecda8a5 {
        fill: url(#uuid-9faa8c74-5f44-43a3-b908-99ac7a9a509f);
      }

      .uuid-00b3bfc1-b39e-48bd-89f2-2ab692a7ee83 {
        fill: url(#uuid-37d9f0be-b994-41cd-82c6-b8d6cb745491);
      }

      .uuid-76cac226-e99b-40ce-947c-ee58d0eef9a4 {
        fill: url(#uuid-25c461f7-2fdb-4910-89d7-cb773457dc1c);
      }

      .uuid-0057c42a-22bb-41ed-9fa4-1b993dc67ba3 {
        fill: url(#uuid-4a56605e-ae7a-4ada-a37d-692f119e37b0);
      }
    </style>
    <linearGradient id="uuid-718380a3-165d-40df-a2de-4537d199fa35" x1="7774.95" y1="1475.89" x2="7742.87" y2="1482.3" gradientTransform="translate(7868.71 1148.72) rotate(-161.23) scale(1 -1)" gradientUnits="userSpaceOnUse">
      <stop offset="0" stop-color="#ffead9"/>
      <stop offset=".14" stop-color="#f7d7b2"/>
      <stop offset=".31" stop-color="#efc38a"/>
      <stop offset=".39" stop-color="#edbc7b"/>
      <stop offset=".56" stop-color="#dda45a"/>
      <stop offset=".73" stop-color="#d1913f"/>
      <stop offset=".88" stop-color="#c9862f"/>
      <stop offset="1" stop-color="#c7822a"/>
    </linearGradient>
    <linearGradient id="uuid-7ccff500-ebe0-4ef3-9e6c-ca8841985a9e" x1="7413.17" y1="34.42" x2="7419.5" y2="33.56" gradientTransform="translate(7404 -841.01) rotate(173.4) scale(1 -1)" xlink:href="#uuid-718380a3-165d-40df-a2de-4537d199fa35"/>
    <linearGradient id="uuid-9faa8c74-5f44-43a3-b908-99ac7a9a509f" x1="7769.46" y1="1483.09" x2="7772.65" y2="1470.99" gradientTransform="translate(7868.71 1148.72) rotate(-161.23) scale(1 -1)" gradientUnits="userSpaceOnUse">
      <stop offset="0" stop-color="#ffead9"/>
      <stop offset=".24" stop-color="#f7d7b2"/>
      <stop offset=".52" stop-color="#efc38a"/>
      <stop offset=".67" stop-color="#edbc7b"/>
      <stop offset=".76" stop-color="#dda45a"/>
      <stop offset=".85" stop-color="#d1913f"/>
      <stop offset=".94" stop-color="#c9862f"/>
      <stop offset="1" stop-color="#c7822a"/>
    </linearGradient>
    <linearGradient id="uuid-bf7ba143-86e6-450e-88de-7931f43a279a" x1="7349.33" y1="3098.48" x2="7349.84" y2="3099.61" gradientTransform="translate(7261.74 3428.58) rotate(-132.01) scale(1 -1)" gradientUnits="userSpaceOnUse">
      <stop offset=".09" stop-color="#fff"/>
      <stop offset=".15" stop-color="#f9f1e8"/>
      <stop offset=".31" stop-color="#ead0af"/>
      <stop offset=".48" stop-color="#ddb47f"/>
      <stop offset=".63" stop-color="#d39e5a"/>
      <stop offset=".78" stop-color="#cc8e3f"/>
      <stop offset=".9" stop-color="#c8852f"/>
      <stop offset="1" stop-color="#c7822a"/>
    </linearGradient>
    <linearGradient id="uuid-504fe1e2-1205-4bd0-93b4-548dab2a50d2" x1="7479.66" y1="-814.98" x2="7482.9" y2="-817.74" gradientTransform="translate(7506.64 -597.42) rotate(168.97) scale(1 -1)" xlink:href="#uuid-718380a3-165d-40df-a2de-4537d199fa35"/>
    <linearGradient id="uuid-145f72c1-22e4-4d89-a6fc-ca6ab8f322ec" x1="7454.85" y1="29.95" x2="7452.61" y2="32.8" gradientTransform="translate(7461.97) rotate(-180) scale(1 -1)" gradientUnits="userSpaceOnUse">
      <stop offset=".06" stop-color="#221a17"/>
      <stop offset=".97" stop-color="#d9c5bd"/>
    </linearGradient>
    <linearGradient id="uuid-259ba754-9fff-4e0a-bcf1-b008a6351cba" x1="4335.07" y1="-1598.91" x2="4344.24" y2="-1615.05" gradientTransform="translate(4029.37 -2257.23) rotate(129.86) scale(1 -1)" xlink:href="#uuid-718380a3-165d-40df-a2de-4537d199fa35"/>
    <linearGradient id="uuid-c84d8197-a924-4a98-91c2-8c2247d91c4c" x1="4335.07" y1="-1598.91" x2="4344.24" y2="-1615.04" gradientTransform="translate(4029.37 -2257.23) rotate(129.86) scale(1 -1)" xlink:href="#uuid-9faa8c74-5f44-43a3-b908-99ac7a9a509f"/>
    <linearGradient id="uuid-27279ba3-0898-4415-a4a2-7cb7eeccf013" x1="7439.66" y1="37.92" x2="7442.2" y2="26.71" gradientTransform="translate(7092.23 2347.38) rotate(-161.72) scale(1 -1)" xlink:href="#uuid-9faa8c74-5f44-43a3-b908-99ac7a9a509f"/>
    <linearGradient id="uuid-1cccc693-8b74-4965-b692-5502d4b27931" x1="4339.55" y1="-1596.74" x2="4348.41" y2="-1612.32" gradientTransform="translate(4029.37 -2257.23) rotate(129.86) scale(1 -1)" xlink:href="#uuid-718380a3-165d-40df-a2de-4537d199fa35"/>
    <linearGradient id="uuid-f0ce4b22-1bdb-4137-ad6d-acd1a1bbbfdf" x1="7425.18" y1="30.9" x2="7432.68" y2="8.51" gradientTransform="translate(7457.08 -16.15) rotate(179.78) scale(1 -1)" xlink:href="#uuid-718380a3-165d-40df-a2de-4537d199fa35"/>
    <linearGradient id="uuid-5fc3b353-cf92-4d26-973c-1cf60a89af0d" x1="7425.18" y1="30.9" x2="7432.68" y2="8.51" gradientTransform="translate(7457.08 -16.15) rotate(179.78) scale(1 -1)" xlink:href="#uuid-718380a3-165d-40df-a2de-4537d199fa35"/>
    <linearGradient id="uuid-25c461f7-2fdb-4910-89d7-cb773457dc1c" x1="7433.85" y1="30.35" x2="7429.23" y2="44.35" gradientTransform="translate(7461.97) rotate(-180) scale(1 -1)" gradientUnits="userSpaceOnUse">
      <stop offset=".04" stop-color="#cec2a0"/>
      <stop offset=".15" stop-color="#d4caad"/>
      <stop offset=".53" stop-color="#ebe6d9"/>
      <stop offset=".83" stop-color="#f9f8f4"/>
      <stop offset="1" stop-color="#fff"/>
    </linearGradient>
    <linearGradient id="uuid-4b528073-11fd-43bc-b222-d3839852dc58" x1="7425.18" y1="30.9" x2="7432.68" y2="8.51" gradientTransform="translate(7457.08 -16.15) rotate(179.78) scale(1 -1)" xlink:href="#uuid-718380a3-165d-40df-a2de-4537d199fa35"/>
    <linearGradient id="uuid-4e0b6acf-2499-4d46-8836-050b4d412e2b" x1="7440.45" y1="22.86" x2="7423.46" y2="64.49" gradientTransform="translate(7395.8 1038.89) rotate(-171.97) scale(1 -1)" xlink:href="#uuid-718380a3-165d-40df-a2de-4537d199fa35"/>
    <linearGradient id="uuid-d21c2704-a3dc-4506-8d2f-c6837988d67c" x1="7440.45" y1="22.86" x2="7423.46" y2="64.49" gradientTransform="translate(7395.8 1038.89) rotate(-171.97) scale(1 -1)" xlink:href="#uuid-718380a3-165d-40df-a2de-4537d199fa35"/>
    <linearGradient id="uuid-6d1156f4-44a4-4888-96ab-3e867475c391" x1="7438.29" y1="21.95" x2="7421.27" y2="63.65" gradientTransform="translate(7395.8 1038.89) rotate(-171.97) scale(1 -1)" xlink:href="#uuid-718380a3-165d-40df-a2de-4537d199fa35"/>
    <linearGradient id="uuid-7ddd533b-9b7d-41a5-b1a2-e6af97b3bc5c" x1="7422.61" y1="28.24" x2="7425.44" y2="28.24" gradientTransform="translate(7393.21 1022.22) rotate(-172.18) scale(1 -1)" xlink:href="#uuid-718380a3-165d-40df-a2de-4537d199fa35"/>
    <linearGradient id="uuid-18440aa7-07e0-49bb-aa79-9dc5794b9e5e" x1="7425.55" y1="36.98" x2="7426" y2="36.98" gradientTransform="translate(7393.21 1022.22) rotate(-172.18) scale(1 -1)" xlink:href="#uuid-718380a3-165d-40df-a2de-4537d199fa35"/>
    <linearGradient id="uuid-c27fb574-8ac5-4036-83f4-6961b80c009e" x1="7426.03" y1="42.03" x2="7426.78" y2="42.03" gradientTransform="translate(7393.21 1022.22) rotate(-172.18) scale(1 -1)" xlink:href="#uuid-718380a3-165d-40df-a2de-4537d199fa35"/>
    <linearGradient id="uuid-ed3e5f36-e676-4388-8447-04509db762ae" x1="6233.07" y1="-1206.94" x2="6243.24" y2="-1219.86" gradientTransform="translate(6120.68 -1694.48) rotate(153.1) scale(1 -1)" xlink:href="#uuid-718380a3-165d-40df-a2de-4537d199fa35"/>
    <linearGradient id="uuid-3ccfffb0-7f24-4146-9442-b85bc69b960e" x1="7450.99" y1="46.42" x2="7461.64" y2="43.58" gradientTransform="translate(7403.53 977.96) rotate(-172.46) scale(1 -1)" xlink:href="#uuid-9faa8c74-5f44-43a3-b908-99ac7a9a509f"/>
    <linearGradient id="uuid-1131b43e-b5be-4bf4-afc7-376f348a4bdf" x1="7459.77" y1="31.62" x2="7448.62" y2="37.65" gradientTransform="translate(7403.53 977.96) rotate(-172.46) scale(1 -1)" xlink:href="#uuid-145f72c1-22e4-4d89-a6fc-ca6ab8f322ec"/>
    <linearGradient id="uuid-5194aa48-9566-439b-ab86-b5e070fa646f" x1="-1.29" y1="40.04" x2="8.84" y2="38.86" gradientTransform="translate(6.06 -1.05) rotate(7.54)" xlink:href="#uuid-718380a3-165d-40df-a2de-4537d199fa35"/>
    <linearGradient id="uuid-78e615b5-6189-46fd-97bd-6e3297c4731b" x1="7439.27" y1="26.12" x2="7446.92" y2="25.23" gradientTransform="translate(7400.79 961.3) rotate(-172.68) scale(1 -1)" xlink:href="#uuid-718380a3-165d-40df-a2de-4537d199fa35"/>
    <linearGradient id="uuid-ca1a2a8d-6d6b-4325-9afd-72d837f5e8d0" x1="7431.27" y1="28" x2="7446.33" y2="28" gradientTransform="translate(7461.97) rotate(-180) scale(1 -1)" xlink:href="#uuid-718380a3-165d-40df-a2de-4537d199fa35"/>
    <linearGradient id="uuid-575a2f53-68f9-4222-aa4e-0bb3369bbf1c" x1="7419.84" y1="29.67" x2="7425.99" y2="29.67" gradientTransform="translate(7461.97) rotate(-180) scale(1 -1)" xlink:href="#uuid-718380a3-165d-40df-a2de-4537d199fa35"/>
    <linearGradient id="uuid-fb92eb17-0f55-4523-b4c3-410b8c062b01" x1="50.43" y1="7.16" x2="43.5" y2="20.04" gradientTransform="translate(-1.49 14.79) rotate(-20.28)" xlink:href="#uuid-25c461f7-2fdb-4910-89d7-cb773457dc1c"/>
    <linearGradient id="uuid-199ac807-720a-4a76-8d86-8287e42c6661" x1="7415.51" y1="10.35" x2="7411.85" y2="17.15" gradientTransform="translate(6998.13 -2571.01) rotate(159.72) scale(1 -1)" xlink:href="#uuid-145f72c1-22e4-4d89-a6fc-ca6ab8f322ec"/>
    <linearGradient id="uuid-a1d6028f-6c39-4948-889b-d79e8bfe34f0" x1="7414.25" y1="17.22" x2="7416.19" y2="8.12" gradientTransform="translate(6998.13 -2571.01) rotate(159.72) scale(1 -1)" xlink:href="#uuid-145f72c1-22e4-4d89-a6fc-ca6ab8f322ec"/>
    <linearGradient id="uuid-83d8d2ce-3612-40fd-a4a3-82f8d5277c03" x1="7413.94" y1="14.27" x2="7415.29" y2="13.05" gradientTransform="translate(6998.13 -2571.01) rotate(159.72) scale(1 -1)" xlink:href="#uuid-718380a3-165d-40df-a2de-4537d199fa35"/>
    <linearGradient id="uuid-68cf454f-9010-4d7b-b2fc-42cb0c2fe162" x1="7413.12" y1="20.07" x2="7424.2" y2="20.07" gradientTransform="translate(6998.13 -2571.01) rotate(159.72) scale(1 -1)" xlink:href="#uuid-718380a3-165d-40df-a2de-4537d199fa35"/>
    <linearGradient id="uuid-4a56605e-ae7a-4ada-a37d-692f119e37b0" x1="7413.12" y1="20.07" x2="7424.2" y2="20.07" gradientTransform="translate(6998.13 -2571.01) rotate(159.72) scale(1 -1)" xlink:href="#uuid-718380a3-165d-40df-a2de-4537d199fa35"/>
    <linearGradient id="uuid-38df9dd0-b483-44a2-9baa-8f6a1b4cfd68" x1="7413.12" y1="18.27" x2="7424.2" y2="18.27" gradientTransform="translate(6998.13 -2571.01) rotate(159.72) scale(1 -1)" xlink:href="#uuid-25c461f7-2fdb-4910-89d7-cb773457dc1c"/>
    <linearGradient id="uuid-cba920e1-162f-47a7-b447-86bfbfbe97df" x1="7415.66" y1="34.63" x2="7414.81" y2="31.8" gradientTransform="translate(6999.16 -2565.86) rotate(159.83) scale(1 -1)" xlink:href="#uuid-25c461f7-2fdb-4910-89d7-cb773457dc1c"/>
    <linearGradient id="uuid-03f64b96-2f1a-49f9-9ba3-52513c625161" x1="7413.12" y1="20.49" x2="7424.2" y2="20.49" gradientTransform="translate(6998.13 -2571.01) rotate(159.72) scale(1 -1)" xlink:href="#uuid-145f72c1-22e4-4d89-a6fc-ca6ab8f322ec"/>
    <linearGradient id="uuid-59d6f600-4725-4bae-bc30-5f7453132ee5" x1="7420.05" y1="15.54" x2="7419.13" y2="21.5" gradientTransform="translate(6998.13 -2571.01) rotate(159.72) scale(1 -1)" xlink:href="#uuid-145f72c1-22e4-4d89-a6fc-ca6ab8f322ec"/>
    <linearGradient id="uuid-57175976-5858-4f73-8771-cb5d6558d311" x1="7425.54" y1="12.77" x2="7421.05" y2="17.96" gradientTransform="translate(6998.13 -2571.01) rotate(159.72) scale(1 -1)" xlink:href="#uuid-145f72c1-22e4-4d89-a6fc-ca6ab8f322ec"/>
    <linearGradient id="uuid-0a5ad4dc-b407-4723-bc57-7b8351799492" x1="7419.97" y1="18.29" x2="7420.38" y2="19.74" gradientTransform="translate(6998.13 -2571.01) rotate(159.72) scale(1 -1)" gradientUnits="userSpaceOnUse">
      <stop offset=".08" stop-color="#261e1c"/>
      <stop offset=".25" stop-color="#3f3734"/>
      <stop offset=".62" stop-color="#827971"/>
      <stop offset="1" stop-color="#cec5b8"/>
    </linearGradient>
    <linearGradient id="uuid-4379dda9-e86e-4e41-9e00-b9c49343db67" x1="7420.02" y1="18.4" x2="7419.55" y2="16.79" xlink:href="#uuid-0a5ad4dc-b407-4723-bc57-7b8351799492"/>
    <linearGradient id="uuid-c9e2ca3d-434a-4db2-a957-1f3f69ce798f" x1="7414.67" y1="25.91" x2="7414.75" y2="27.01" gradientTransform="translate(6998.13 -2571.01) rotate(159.72) scale(1 -1)" xlink:href="#uuid-145f72c1-22e4-4d89-a6fc-ca6ab8f322ec"/>
    <linearGradient id="uuid-0aedafbd-5fa3-4a67-aea4-84fe18621d4c" x1="7416.35" y1="10.74" x2="7412.58" y2="17.75" gradientTransform="translate(6998.13 -2571.01) rotate(159.72) scale(1 -1)" xlink:href="#uuid-25c461f7-2fdb-4910-89d7-cb773457dc1c"/>
    <linearGradient id="uuid-3c1bc993-808c-43a7-8421-b024d949fb17" x1="7416.57" y1="10.83" x2="7412.75" y2="17.92" gradientTransform="translate(6998.13 -2571.01) rotate(159.72) scale(1 -1)" xlink:href="#uuid-25c461f7-2fdb-4910-89d7-cb773457dc1c"/>
    <linearGradient id="uuid-f173b045-9a08-442f-8603-e068d1c088f0" x1="7420.86" y1="7.16" x2="7414.61" y2="1.87" gradientTransform="translate(6998.13 -2571.01) rotate(159.72) scale(1 -1)" xlink:href="#uuid-145f72c1-22e4-4d89-a6fc-ca6ab8f322ec"/>
    <linearGradient id="uuid-206cc1df-bd94-4a25-a2c4-83d3f2a43125" x1="7420.87" y1="7.17" x2="7414.59" y2="1.86" gradientTransform="translate(6998.13 -2571.01) rotate(159.72) scale(1 -1)" xlink:href="#uuid-145f72c1-22e4-4d89-a6fc-ca6ab8f322ec"/>
    <linearGradient id="uuid-5912e35d-6cdf-4619-8549-838c5f040bd9" x1="7415.09" y1="11.57" x2="7424.11" y2="19.99" gradientTransform="translate(6998.13 -2571.01) rotate(159.72) scale(1 -1)" xlink:href="#uuid-145f72c1-22e4-4d89-a6fc-ca6ab8f322ec"/>
    <linearGradient id="uuid-b55774e1-d750-49b6-9719-7593c2bb077e" x1="7415.26" y1="11.24" x2="7424.48" y2="19.85" gradientTransform="translate(6998.13 -2571.01) rotate(159.72) scale(1 -1)" xlink:href="#uuid-145f72c1-22e4-4d89-a6fc-ca6ab8f322ec"/>
    <linearGradient id="uuid-5f2357e9-de62-46f8-880d-8a7154b63a34" x1="7415.61" y1="10.91" x2="7424.6" y2="19.31" gradientTransform="translate(6998.13 -2571.01) rotate(159.72) scale(1 -1)" xlink:href="#uuid-145f72c1-22e4-4d89-a6fc-ca6ab8f322ec"/>
    <linearGradient id="uuid-a290eda9-2413-445f-9e02-3b6a1ae6f9db" x1="7416.18" y1="10.2" x2="7425.24" y2="18.67" gradientTransform="translate(6998.13 -2571.01) rotate(159.72) scale(1 -1)" xlink:href="#uuid-145f72c1-22e4-4d89-a6fc-ca6ab8f322ec"/>
    <linearGradient id="uuid-01d7ca3d-bafb-4324-a4fb-4fb66e6e9d63" x1="7416.88" y1="9.36" x2="7425.97" y2="17.84" gradientTransform="translate(6998.13 -2571.01) rotate(159.72) scale(1 -1)" xlink:href="#uuid-145f72c1-22e4-4d89-a6fc-ca6ab8f322ec"/>
    <linearGradient id="uuid-20a0ddac-32de-4460-ba49-d0b36b38030e" x1="7418.1" y1="8" x2="7427.3" y2="16.58" gradientTransform="translate(6998.13 -2571.01) rotate(159.72) scale(1 -1)" xlink:href="#uuid-145f72c1-22e4-4d89-a6fc-ca6ab8f322ec"/>
    <linearGradient id="uuid-10349ef0-5c7e-4f3f-8430-be7199745454" x1="7419.58" y1="6.35" x2="7428.75" y2="14.91" gradientTransform="translate(6998.13 -2571.01) rotate(159.72) scale(1 -1)" xlink:href="#uuid-145f72c1-22e4-4d89-a6fc-ca6ab8f322ec"/>
    <linearGradient id="uuid-519adc97-5e8c-4980-951d-bd5b83b542bd" x1="7420.79" y1="5" x2="7429.97" y2="13.57" gradientTransform="translate(6998.13 -2571.01) rotate(159.72) scale(1 -1)" xlink:href="#uuid-145f72c1-22e4-4d89-a6fc-ca6ab8f322ec"/>
    <linearGradient id="uuid-337955af-d882-4474-afe7-4fffae6f8edc" x1="7419.21" y1="19.18" x2="7417.57" y2="22.83" gradientTransform="translate(6998.13 -2571.01) rotate(159.72) scale(1 -1)" xlink:href="#uuid-145f72c1-22e4-4d89-a6fc-ca6ab8f322ec"/>
    <linearGradient id="uuid-a2fe03ac-199b-43bb-8b98-c201455675bd" x1="7413.12" y1="25.25" x2="7424.2" y2="25.25" gradientTransform="translate(6998.13 -2571.01) rotate(159.72) scale(1 -1)" xlink:href="#uuid-25c461f7-2fdb-4910-89d7-cb773457dc1c"/>
    <linearGradient id="uuid-34985a79-c36b-4d68-b439-515ee5059585" x1="7413.12" y1="20.08" x2="7424.2" y2="20.08" gradientTransform="translate(6998.13 -2571.01) rotate(159.72) scale(1 -1)" xlink:href="#uuid-718380a3-165d-40df-a2de-4537d199fa35"/>
    <linearGradient id="uuid-6cad274e-21c0-46a1-8190-8f9da1eafdba" x1="7413.12" y1="14.76" x2="7424.2" y2="14.76" gradientTransform="translate(6998.13 -2571.01) rotate(159.72) scale(1 -1)" xlink:href="#uuid-25c461f7-2fdb-4910-89d7-cb773457dc1c"/>
    <linearGradient id="uuid-ff8c37b8-8a07-4493-ac73-34fb1889ad78" x1="7413.12" y1="18.52" x2="7424.2" y2="18.52" gradientTransform="translate(6998.13 -2571.01) rotate(159.72) scale(1 -1)" xlink:href="#uuid-718380a3-165d-40df-a2de-4537d199fa35"/>
    <linearGradient id="uuid-f5d58bff-0e7d-43cd-8143-957f459c3dfe" x1="23.03" y1="4.35" x2="62.54" y2="14.7" gradientTransform="translate(-1.49 14.79) rotate(-20.28)" xlink:href="#uuid-145f72c1-22e4-4d89-a6fc-ca6ab8f322ec"/>
    <linearGradient id="uuid-52b00fc1-c2db-44ca-b564-1734c62bdf2c" x1="7420.04" y1="8.21" x2="7443.55" y2="14.37" gradientTransform="translate(6998.13 -2571.01) rotate(159.72) scale(1 -1)" xlink:href="#uuid-145f72c1-22e4-4d89-a6fc-ca6ab8f322ec"/>
    <linearGradient id="uuid-5ad6d51e-bfa8-40ea-9493-460b99867b82" x1="7422.13" y1="14.44" x2="7427.75" y2="20.46" gradientTransform="translate(6998.13 -2571.01) rotate(159.72) scale(1 -1)" xlink:href="#uuid-145f72c1-22e4-4d89-a6fc-ca6ab8f322ec"/>
    <linearGradient id="uuid-4b8d3dd7-b49f-4cb9-91b4-c97d804896cf" x1="7423.63" y1="12.95" x2="7429.26" y2="18.98" gradientTransform="translate(6998.13 -2571.01) rotate(159.72) scale(1 -1)" xlink:href="#uuid-145f72c1-22e4-4d89-a6fc-ca6ab8f322ec"/>
    <linearGradient id="uuid-4b2b48fc-12cc-4ad1-80e7-1b8fc7cc5aa1" x1="7425.14" y1="11.44" x2="7430.75" y2="17.45" gradientTransform="translate(6998.13 -2571.01) rotate(159.72) scale(1 -1)" xlink:href="#uuid-145f72c1-22e4-4d89-a6fc-ca6ab8f322ec"/>
    <linearGradient id="uuid-9513be9d-f49b-4495-8fc2-38c1b01d4ec4" x1="7426.55" y1="10.08" x2="7432.19" y2="16.12" gradientTransform="translate(6998.13 -2571.01) rotate(159.72) scale(1 -1)" xlink:href="#uuid-145f72c1-22e4-4d89-a6fc-ca6ab8f322ec"/>
    <linearGradient id="uuid-2bf3d8d2-77f2-48fd-86ec-c1f350273f0d" x1="7428.01" y1="8.67" x2="7433.67" y2="14.74" gradientTransform="translate(6998.13 -2571.01) rotate(159.72) scale(1 -1)" xlink:href="#uuid-145f72c1-22e4-4d89-a6fc-ca6ab8f322ec"/>
    <linearGradient id="uuid-a7f180ed-8d90-494e-a2b2-d23958dba9c0" x1="7429.36" y1="7.39" x2="7435.03" y2="13.47" gradientTransform="translate(6998.13 -2571.01) rotate(159.72) scale(1 -1)" xlink:href="#uuid-145f72c1-22e4-4d89-a6fc-ca6ab8f322ec"/>
    <linearGradient id="uuid-e6cb9e0d-dc3a-4d0b-8849-a87c2cf1f2ed" x1="7430.59" y1="6.2" x2="7436.27" y2="12.29" gradientTransform="translate(6998.13 -2571.01) rotate(159.72) scale(1 -1)" xlink:href="#uuid-145f72c1-22e4-4d89-a6fc-ca6ab8f322ec"/>
    <linearGradient id="uuid-7693d9ca-566b-45d8-a8de-01575d7d59f6" x1="7431.55" y1="5.27" x2="7437.25" y2="11.39" gradientTransform="translate(6998.13 -2571.01) rotate(159.72) scale(1 -1)" xlink:href="#uuid-145f72c1-22e4-4d89-a6fc-ca6ab8f322ec"/>
    <linearGradient id="uuid-c8b02676-b6fd-401b-b0bc-b804d3cf55c0" x1="7431.84" y1="12.1" x2="7475.77" y2="59.19" gradientTransform="translate(6998.13 -2571.01) rotate(159.72) scale(1 -1)" xlink:href="#uuid-145f72c1-22e4-4d89-a6fc-ca6ab8f322ec"/>
    <linearGradient id="uuid-55f78724-c419-4040-a984-fe89ba8491f7" x1="7427.14" y1="14.22" x2="7422.7" y2="19.36" gradientTransform="translate(6998.13 -2571.01) rotate(159.72) scale(1 -1)" xlink:href="#uuid-145f72c1-22e4-4d89-a6fc-ca6ab8f322ec"/>
    <linearGradient id="uuid-2547a277-8fc9-4740-9586-117cce40bdff" x1="7424.32" y1="11.67" x2="7428.63" y2="18.39" gradientTransform="translate(6998.13 -2571.01) rotate(159.72) scale(1 -1)" xlink:href="#uuid-25c461f7-2fdb-4910-89d7-cb773457dc1c"/>
    <linearGradient id="uuid-47d6814e-fa3d-40bb-87a0-ba23369fdf10" x1="7427.38" y1="12.73" x2="7429.6" y2="10.7" gradientTransform="translate(6998.13 -2571.01) rotate(159.72) scale(1 -1)" xlink:href="#uuid-145f72c1-22e4-4d89-a6fc-ca6ab8f322ec"/>
    <linearGradient id="uuid-b5d8b508-7861-42f3-ba3c-4c697e1b4f36" x1="32.82" y1="9.22" x2="41.75" y2="23.15" gradientTransform="translate(-1.49 14.79) rotate(-20.28)" xlink:href="#uuid-25c461f7-2fdb-4910-89d7-cb773457dc1c"/>
    <linearGradient id="uuid-37d9f0be-b994-41cd-82c6-b8d6cb745491" x1="7422.89" y1="12.76" x2="7427.07" y2="19.3" gradientTransform="translate(6998.13 -2571.01) rotate(159.72) scale(1 -1)" xlink:href="#uuid-25c461f7-2fdb-4910-89d7-cb773457dc1c"/>
    <linearGradient id="uuid-4063ce14-3d34-4822-b7b6-24e299d27e4b" x1="7413.13" y1="20.09" x2="7424.2" y2="20.09" gradientTransform="translate(6998.13 -2571.01) rotate(159.72) scale(1 -1)" xlink:href="#uuid-718380a3-165d-40df-a2de-4537d199fa35"/>
    <linearGradient id="uuid-a2ceb274-208f-4f84-bb5b-a151d49ade82" x1="7413.12" y1="17.35" x2="7424.2" y2="17.35" gradientTransform="translate(6998.13 -2571.01) rotate(159.72) scale(1 -1)" xlink:href="#uuid-718380a3-165d-40df-a2de-4537d199fa35"/>
    <linearGradient id="uuid-b355c5bf-dacb-4dda-a41d-776bc52101f2" x1="7413.12" y1="21.31" x2="7424.2" y2="21.31" gradientTransform="translate(6998.13 -2571.01) rotate(159.72) scale(1 -1)" xlink:href="#uuid-718380a3-165d-40df-a2de-4537d199fa35"/>
    <linearGradient id="uuid-ca3f836e-3ac3-40a4-8bfe-ea7a56c2aa95" x1="7426.84" y1="12.76" x2="7497.65" y2="78.88" gradientTransform="translate(6998.13 -2571.01) rotate(159.72) scale(1 -1)" xlink:href="#uuid-145f72c1-22e4-4d89-a6fc-ca6ab8f322ec"/>
  </defs>
  <g class="uuid-26ed2c47-b353-4cfb-a0f6-d0609b878d03">
    <g id="uuid-74e4c91f-63e5-4a1a-9d02-4344a0e9f119" data-name="Layer 2">
      <g id="uuid-8d0b583a-77c2-413f-9a08-97fde723a690" data-name="Layer 1">
        <g>
          <g>
            <g>
              <g>
                <path class="uuid-654cf42c-9562-43b4-a14d-c55583d8c303" d="M36.3,56.17s-.84,.05-1.47,.14c0,0-.17,1.96,.78,2.67l1.4-1.12-.72-1.7Z"/>
                <path class="uuid-570f5893-efd4-4abb-a53e-c87cc572430d" d="M36.24,57.84c-.43-.33-1.04-.73-1.41-1.2,0-.21,.01-.34,.01-.34,.63-.09,1.47-.14,1.47-.14l.72,1.7-.47,.37c-.02-.16-.17-.28-.32-.39Z"/>
                <path class="uuid-2c941cd0-48b4-430e-8bcd-6474971cd0b5" d="M36.44,55.97c.05,0,.06-.07,.03-.1-.05-.05-.11-.1-.17-.14,.42-.09,.83-.24,1.2-.43,.13-.07,.23-.17,.32-.28,.01,0,.02,.02,.03,.03,.01-.04,.02-.08,.04-.12,.1-.16,.17-.33,.23-.52,.49-1.42,.95-2.85,1.42-4.28,.12-.37,.25-.75,.37-1.12,.11-.32,.28-.67,.33-1.01,.04-.29-.04-.6,.06-.88,.07-.2,.09-.34,.04-.55-.12-.47-.43-.9-.72-1.27-.18-.23-.37-.44-.55-.66-.42-.64-.82-1.21-.95-1.37-.91-1.18-6.2-6.46-3.83-8.66,1.61-1.49,3.43-.29,4.21,1.78,.37,.99,2.1,6.43,2.68,7.56,.29,.55,.49,1.18,.82,1.7,.31,.49,.5,.81,.38,1.43-.1,.49-.34,.94-.63,1.29-.01,.02-.03,.04-.04,.05-.85,.94-1.14,2.45-1.65,3.7-.2,.7-.39,1.41-.62,2.1-.24,.69-.5,1.33-.84,1.9-.11,.08-.24,.63-.35,.69-.4,.21-1.41,1.44-1.69,1.42-.3-.26-.81-1.5-.78-2.27,.22,.01,.44,0,.66,0Z"/>
                <path class="uuid-bbde2478-27d7-49dc-be1e-eeafc4670009" d="M36.49,55.68c.35-.09,.7-.22,1.01-.38,.13-.07,.23-.17,.32-.28,.01,0,.02,.02,.03,.03,.01-.04,.02-.08,.04-.12,.1-.16,.17-.33,.23-.52,.07-.19,.13-.38,.2-.58,.06,.55,.03,1.15-.19,1.59-.32,.67-1.2,.81-1.63,.25Z"/>
                <path class="uuid-73b8ad50-ac27-488e-b370-7b6f6c67bdbd" d="M37.58,36.54c-.25,.33-.53,.64-.72,1.02-.21,.4-.34,.81-.41,1.26-.01,.07,.07,.08,.1,.03,.06-.11,.13-.22,.19-.32-.06,.2-.1,.4-.08,.61,0,.05,.07,.06,.09,.03,.1-.11,.2-.23,.3-.34-.32,1.21,.38,2.33,1.06,3.3,.83,1.19,1.58,2.44,2.24,3.74,.02,.04,.06,.05,.09,.01,.14-.14,.28-.26,.44-.38-.34,1.02-.08,2.07,0,3.12-.08-.12-.16-.24-.23-.37-.02-.04-.1-.05-.1,.01-.07,.77-.47,1.43-.7,2.14-.25,.77-.49,1.54-.77,2.31-.24,.66-.32,1.4-.64,2.03-.32,.64-.98,.69-1.51,1.05-.04,.02-.02,.08,.01,.1,.13,.08,.28,.12,.43,.14-.37,.2-.8,.28-1.17,.5-.13,.08-.23,.19-.31,.32-.08-.31-.14-.62-.13-.88,.22,.01,.44,0,.66,0,.05,0,.06-.07,.03-.1-.05-.05-.11-.1-.17-.14,.42-.09,.83-.24,1.2-.43,.13-.07,.23-.17,.32-.28,.01,0,.02,.02,.03,.03,.01-.04,.02-.08,.04-.12,.1-.16,.17-.33,.23-.52,.49-1.42,.95-2.85,1.42-4.28,.12-.37,.25-.75,.37-1.12,.11-.32,.28-.67,.33-1.01,.04-.29-.04-.6,.06-.88,.07-.2,.09-.34,.04-.55-.12-.47-.43-.9-.72-1.27-.18-.23-.37-.44-.55-.66-.42-.64-.82-1.21-.95-1.37-.91-1.18-6.2-6.46-3.83-8.66,1.41-1.31,2.99-.54,3.89,1.08-.01,.02-.03,.04-.04,.06-.19,.26-.35,.54-.55,.8Z"/>
                <path class="uuid-0fa231e6-848b-4ea9-bc3a-93ebeecda8a5" d="M34.28,34.61c1.61-1.49,3.43-.29,4.21,1.78,.17,.46,.63,1.86,1.13,3.35-.2,.22-.44,.39-.68,.55-.33,.21-.7,.37-.95,.71-.33,.44-.35,1.08-.37,1.7-1.57-1.8-5.44-6.14-3.34-8.08Z"/>
              </g>
              <path class="uuid-ab35161d-d848-4f3b-9a5e-ef5fc7697651" d="M38.74,39.44c-.12-.58-.7-2.89-.88-3.47-.12-.4-.26-.79-.45-1.15,0,0,0,0,0,0,.63,.43,1.65,3.82,1.9,4.56,.44,1.27,.81,2.57,1.34,3.8,.27,.63,.58,1.28,.89,1.89,.22,.43,.56,.76,.7,1.23,.2,.69-.16,1.47-.6,1.88,.28-.48,.45-1.05,.43-1.63-.02-.66-.3-.34-.5-.83-.2-.47-.71-1.16-.92-1.61-.2-.44-.42-.86-.62-1.3-.21-.46-.4-.92-.6-1.39-.11-.29-.22-.58-.33-.88-.13-.37-.26-.74-.38-1.12Z"/>
            </g>
            <path class="uuid-b30c0822-0d85-4862-9df2-97289e935112" d="M5.08,34.71c-.05,.13-.09,.25-.13,.38-.02,.07-.16-.02-.14-.08,.12-.51,.25-1.02,.42-1.52,.04-.59,.12-1.18,.31-1.75,.25-.77,.68-1.49,1.15-2.16,.34-.49,.66-.99,1.14-1.37,.48-.39,1.06-.62,1.61-.91,0,.08-.01,.15-.03,.23-.08,.33-.18,.65-.32,.96-.29,.63-.68,1.22-1,1.84-.19,.37-.37,.75-.54,1.14-.29,.63-.55,1.21-.52,1.91,.01,.31,.03,.64,.19,.91,.04,.07,0,.13-.09,.1-.16-.05-.3-.17-.42-.32,0,0,0,0,0,0,0,.51,.08,1.01,.11,1.52,0,.07-.11,0-.12-.03,0,0,0-.01,0-.02,0,0-.01,0-.02-.01-.12-.2-.19-.41-.26-.63,0,.13,.01,.25,.03,.38,.12,.36,.29,.71,.41,1.08,.04,.11-.12,.06-.16,.02-.23-.22-.42-.47-.58-.75,.01,.27,.05,.54,.11,.81,.02,.16,.05,.32,.07,.48-.05,.01-.15-.03-.17-.07-.11-.19-.2-.39-.27-.6,.04,.34,.11,.68,.21,1.03,0,.13,0,.25,0,.38-.06,0-.13-.05-.16-.09-.16-.25-.28-.52-.36-.8,0,.04-.02,.09-.03,.13-.04,.13-.12,.42-.09,.59-.12-.29-.2-.6-.25-.93,0-.23-.01-.46-.02-.69-.04,.19-.07,.38-.1,.58,0,.06-.12,0-.12-.05,.03-.56,.06-1.12,.17-1.68Z"/>
            <path class="uuid-9db4b6ca-19ab-477d-8009-b250d8f8aa41" d="M6.7,34.06s0,0,0,0c0,.33,.04,.66,.07,.99-.04-.3-.1-.6-.17-.9-.12-.53-.25-1.06-.25-1.61,0-.55,.06-1.71,.03-1.66-.44,.56-.75,1.13-1.05,1.77,.05-.31,.12-.61,.22-.91,.25-.77,.68-1.49,1.15-2.16,.34-.49,.66-.99,1.14-1.37,.48-.39,1.06-.62,1.61-.91,0,.08-.01,.15-.03,.23-.08,.33-.18,.65-.32,.96-.29,.63-.68,1.22-1,1.84-.19,.37-.37,.75-.54,1.14-.29,.63-.55,1.21-.52,1.91,.01,.31,.03,.64,.19,.91,.04,.07,0,.13-.09,.1-.16-.05-.3-.17-.42-.32Z"/>
            <g>
              <path class="uuid-654cf42c-9562-43b4-a14d-c55583d8c303" d="M15.97,62.53s.52,1.06,.53,2.17c0,0-1.48,0-2.21-1.07l.39-1.2,1.28,.1Z"/>
              <path class="uuid-570f5893-efd4-4abb-a53e-c87cc572430d" d="M15.97,62.53s.17,.35,.32,.86c-.34,.12-.76-.16-1.08,.12-.2,.18-.27,.44-.31,.71-.22-.15-.44-.34-.61-.59l.39-1.2,1.28,.1Z"/>
              <path class="uuid-b780720e-dab6-4eec-a93b-bf61c46e109d" d="M12.28,30.59c.23-1.34,.9-2.74,1.87-3.69,.53-.52,1.16-.88,1.82-1.05,1.36,.1,2.71,.57,3.66,1.22,4.41,3.02,5.21,15.34-4.26,23.93-.31,.28,.75,7.39,.93,8.41,.06,.38,.11,1.61,.28,2.53-.03,.27-.08,.53-.15,.8-.04,.14-.08,.28-.13,.43-.58,.19-1.3-.25-1.75-.69l.47-1.73c.21-.3-.39-1.09-.33-1.45,.07-.49,0-.58-.1-.97-.13-.48-.04-.16-.2-.63-1.05-3.19-1.39-3.76-2.09-7.05-.27-1.28,1.86-2.85,2.66-3.41,1.2-.83,.55-5.21,.39-6.49-.32-2.45-1.67-4.86-2.83-7.03-.24-1.02-.4-2.07-.22-3.13Z"/>
              <path class="uuid-4ba52c80-7c20-45a8-b9e6-fc53eb218b1b" d="M14.15,26.91c.53-.52,1.16-.88,1.82-1.05,1.36,.1,2.71,.57,3.66,1.22,3.2,2.19,4.5,9.3,1.34,16.31-.02-.53-.22-1.05-.47-1.48-.03-.06-.11-.03-.1,.04,.02,.22,.03,.44,.02,.65-.2-.58-.7-1.1-1.23-1.3-.05-.02-.09,.04-.07,.08,.07,.19,.15,.37,.21,.56-.31-.34-.71-.5-1.17-.61-.3-.07-.51-.06-.65,.27-.64,1.45-.77,3.01-1.18,4.53-.01,.05,.03,.09,.08,.07,.18-.09,.82,.23,1.01,.2-.69,.4-4.47,2.59-4.14,5.74,.12,1.18,.71,2.25,1.06,3.37,.2,.65,.35,1.32,.6,1.95,.07,.18,.15,.36,.17,.55,.03,.19-.03,.33-.1,.5-.07,.18-.16,.41-.06,.6,.11,.21,.3,.29,.47,.44,.09,.08-.07,.32-.1,.41-.04,.14-.08,.28-.1,.42-.06,.39-.11,.77-.22,1.16-.07,.28-.14,.55-.15,.83,0,.04,.06,.09,.09,.04,.16-.19,.29-.41,.41-.63-.05,.3,0,.59,.27,.83,.19,.17,.43,.36,.69,.49,0,.02-.01,.03-.02,.05-.58,.19-1.3-.25-1.75-.69l.47-1.73c.21-.3-.39-1.09-.33-1.45,.07-.49,0-.58-.1-.97-.13-.48-.04-.16-.2-.63-1.05-3.19-1.39-3.76-2.09-7.05-.27-1.28,1.86-2.85,2.66-3.41,1.2-.83,.55-5.21,.39-6.49-.32-2.45-1.67-4.86-2.83-7.03-.24-1.02-.4-2.07-.22-3.13,.23-1.34,.9-2.74,1.87-3.69Z"/>
              <path class="uuid-bbde2478-27d7-49dc-be1e-eeafc4670009" d="M14.65,57.43c.49,.35,.85,.98,1.04,1.55,.12,.36,.19,.75,0,1.1-.17,.31-.42,.57-.7,.77l.03-.1c.21-.3-.39-1.09-.33-1.45,.04-.26,.04-.41,.01-.55,.04-.44,.01-.89-.04-1.33Z"/>
              <path class="uuid-8fb562b1-088c-4b37-a86e-c966b682b3d5" d="M14.15,26.91c.53-.52,1.16-.88,1.82-1.05,1.36,.1,2.71,.57,3.66,1.22,3.06,2.09,4.38,8.67,1.74,15.37-.92,.2-1.88-.07-2.79,.18-.67,.19-1.2,.67-1.63,1.23-.48,.62-.89,1.42-1.39,2.1,.28-1.65-.1-4.26-.22-5.2-.32-2.45-1.67-4.86-2.83-7.03-.24-1.02-.4-2.07-.22-3.13,.23-1.34,.9-2.74,1.87-3.69Z"/>
              <path class="uuid-40237b81-08e5-4765-8236-251a2c9a1e66" d="M14.6,50.92c.33-.46,.54-.75,.94-1.15,1-.99,1.95-2.03,2.78-3.17,.4-.49,.79-1,1.16-1.5,.46-.62,.91-1.26,1.27-1.96,.15-.3,.3-.62,.47-.91-1.16,3-3.11,6.03-6.05,8.7-.24,.22,.34,4.49,.69,6.91-.17-.77-.34-1.53-.54-2.29-.3-1.18-.95-4.29-.71-4.63Z"/>
            </g>
            <path class="uuid-d185d8ed-aa26-4295-b727-97daf172c508" d="M7.15,28.47c.88-1.33,2.31-2.24,3.87-2.45,3.04-.13,4.09,.42,6.36,.49,2.58,.07,5.14-.24,7.73-.08,1.54,.1,3.07,.26,4.6,.43,1.17,.14,2.79-.45,4-.53,2.28-1.11,6.14-6.89,6.58-7.82,.31-.66,.39-1.49,.94-2,.58-.53,1.42-.2,1.96,.2,.53,.39,1.12,.7,1.59,1.16,0,0,.02,0,.03,0,.04-.01,.09,.07,.06,.09,.04,.04,.08,.08,.12,.13,.04,.03,.08,.06,.12,.1,.67,.67,.4,.7,.78,1.59,.04,.09-2.18,5.26-3.05,6.56-.88,1.3-2.42,2.88-2.96,4.38-.52,1.47-.79,3.04-1.36,4.49-.11,.27-.23,.54-.37,.8-.4,.5-.83,.97-1.32,1.39-.87,.75-1.76,1.16-2.87,1.31-2.65,.34-5.18,1.32-7.84,1.62-2.5,.27-5.01,.11-7.5-.07-3.18-.23-7.39-.24-9.43-3.31-.92-1.37-1.88-2.78-2.41-4.35-.36-1.06-.37-2.09,.03-3.14,.12-.32,.24-.65,.37-.98Z"/>
            <path class="uuid-fbeabe82-e0d7-4e36-8504-360717f0efac" d="M7.15,28.47c.88-1.33,2.31-2.24,3.87-2.45,3.04-.13,4.09,.42,6.36,.49,2.58,.07,5.14-.24,7.73-.08,1.54,.1,3.07,.26,4.6,.43,1.17,.14,2.79-.45,4-.53,2.28-1.11,6.14-6.89,6.58-7.82,.31-.66,.39-1.49,.94-2,.58-.53,1.42-.2,1.96,.2,.53,.39,1.12,.7,1.59,1.16,0,0,.02,0,.03,0,.04-.01,.09,.07,.06,.09,.04,.04,.08,.08,.12,.13,.04,.03,.08,.06,.12,.1,.67,.67,.4,.7,.78,1.59,.04,.09-2.18,5.26-3.05,6.56-.88,1.3-2.42,2.88-2.96,4.38-.52,1.47-.79,3.04-1.36,4.49-.11,.27-.23,.54-.37,.8-.4,.5-.83,.97-1.32,1.39-.87,.75-1.76,1.16-2.87,1.31-2.65,.34-5.18,1.32-7.84,1.62-2.5,.27-5.01,.11-7.5-.07-3.18-.23-7.39-.24-9.43-3.31-.92-1.37-1.88-2.78-2.41-4.35-.36-1.06-.37-2.09,.03-3.14,.12-.32,.24-.65,.37-.98Z"/>
            <path class="uuid-76cac226-e99b-40ce-947c-ee58d0eef9a4" d="M12.7,36.78c2.26,.68,4.59,1.1,6.94,1.26,3.42,.24,6.91,.18,10.25-.68,1.22-.31,2.45-.7,3.62-1.21,.51-.22,1.27-.56,1.64-1.1,.84-.6,1.48-1.5,2.02-2.4,1.39-2.3,1.89-5.18,3.72-7.18,.04-.04,.08-.08,.12-.13,.04-.05-.03-.13-.07-.08-.03,.04-.07,.07-.1,.11-.16,.16-.34,.27-.56,.31,.19-.36,.42-.69,.7-.98,.05-.04,.09-.09,.14-.14,.05-.05-.03-.12-.08-.08-.05,.05-.1,.09-.14,.14-.17,.16-.36,.3-.58,.37,.18-.47,.47-.92,.83-1.26,.14-.11,.28-.23,.42-.33,.06-.04,0-.13-.05-.1-.17,.1-.32,.22-.47,.36-.19,.15-.38,.28-.62,.3,.38-.58,.84-1.12,1.2-1.72,.37-.61,.56-1.28,.77-1.97,.34-1.11,.7-2.25,1.25-3.27,.39,.26,.78,.51,1.12,.83,0,0,.02,0,.03,0,.04-.01,.09,.07,.06,.09,.04,.04,.08,.08,.12,.13,.04,.03,.08,.06,.12,.1,.67,.67,.4,.7,.78,1.59,.04,.09-2.18,5.26-3.05,6.56-.88,1.3-2.42,2.88-2.96,4.38-.52,1.47-.79,3.04-1.36,4.49-.11,.27-.23,.54-.37,.8-.4,.5-.83,.97-1.32,1.39-.87,.75-1.76,1.16-2.87,1.31-2.65,.34-5.18,1.32-7.84,1.62-2.5,.27-5.01,.11-7.5-.07-3.18-.23-7.39-.24-9.43-3.31-.07-.11-.15-.22-.23-.34,.72-.06,1.44-.2,2.14-.38,.54,.21,1.08,.39,1.62,.55Z"/>
            <path class="uuid-ca5f21d9-702b-4e13-8604-9c2694c3cd71" d="M6.75,32.59c.53,1.56,1.49,2.97,2.41,4.35,2.05,3.07,6.25,3.08,9.43,3.31,2.5,.18,5.01,.35,7.5,.07,2.66-.29,5.19-1.27,7.84-1.62,1.11-.14,2.01-.55,2.87-1.31,.49-.43,.93-.89,1.32-1.39,.14-.26,.26-.53,.37-.8,.57-1.46,.84-3.02,1.36-4.49,.53-1.5,2.08-3.08,2.96-4.38,.88-1.3,3.09-6.47,3.05-6.56-.38-.89-.11-.92-.78-1.59-.04-.04-.08-.07-.12-.1-.04-.04-.08-.09-.12-.13,.04-.03-.02-.11-.06-.09,0,0-.02,0-.03,0-.47-.46-1.06-.77-1.59-1.16-.55-.4-1.38-.73-1.96-.2-.55,.5-.63,1.34-.94,2-.44,.93-4.3,6.71-6.58,7.82-1.21,.09-2.83,.67-4,.53-1.53-.18-3.06-.33-4.6-.43-2.59-.16-5.15,.15-7.73,.08-2.27-.07-3.31-.61-6.36-.49-1.55,.21-2.98,1.12-3.87,2.45-.12,.33-.24,.66-.37,.98-.4,1.05-.39,2.08-.03,3.14Zm6.92-5.83c.71,.03,1.42,.16,2.13,.2,1.47,.09,2.91,.04,4.37-.19,.64-.1,8.26,1.04,8.62,1.16,1.3,.42,2.77,.71,3.99-.08,.05-.03,.11,.05,.07,.09-.39,.39-.91,.64-1.25,1.08,1.36-.25,2.67-1.19,3.53-2.28,.03-.04,.11,0,.09,.06-.21,.64-.49,1.33-.34,2.01,.17-.39,.18-.85,.33-1.25,.19-.51,.45-.97,.68-1.46,.03-.06,.11-.02,.1,.04-.11,.48-.17,.95-.17,1.43,.22-1.3,.78-2.44,1.62-3.46,.55-.68,1.19-1.27,1.78-1.91,.33-.37,.66-.76,.91-1.2,.23-.42,.37-.88,.61-1.3,.03-.05,.08-.03,.1,.01,.08,.21,.13,.44,.16,.67,.1,.32,.16,.64,.18,.98,.03,.43-.04,.86,.03,1.28,.17-.43,.17-.93,.18-1.39,0-.07,.09-.08,.11-.02,.21,.66,.28,1.33,.33,2.02,.11-.43,.13-.87,.15-1.31,0-.06,.07-.08,.1-.03,.3,.58,.4,1.26,.5,1.91,.1,.65,.13,1.28-.17,1.88-.29,.59-.73,1.05-1.19,1.49-.11,.12-.22,.23-.33,.35-.97,1.02-1.37,2.45-1.77,3.79-.02,.06-.11,.05-.11-.02-.01-.43,.01-.86,.03-1.29-.22,1.13-.34,2.28-.62,3.39-.32,1.26-.87,2.54-1.99,3.23-.05,.03-.1-.03-.08-.08,.03-.05,.05-.11,.08-.16-.3,.31-.63,.58-.96,.81-.04,.03-.09-.02-.08-.07,.32-1.57,.05-3.91-1.58-4.58-.98-.4-2.27-.1-3.1,.52-.99,.73-1.23,2-1.29,3.19,0,.05-.06,.08-.09,.04-.39-.5-.42-1.28-.36-1.95-.19,.65-.2,1.36-.11,2.03,.08,.63,.12,1.27-.41,1.7-.45,.36-1.02,.48-1.56,.62-.84,.22-1.67,.44-2.52,.57-.67,.11-1.35,.15-2.03,.18-.57,.03-1.15,.03-1.72-.04-.89-.11-2.3-.57-2.14-1.78,.12-.91,.46-1.79,.68-2.68,.07-.29,.13-.58,.17-.87-.14,.37-.66,1.03-.66,.98-.01-.42,.1-.84,.15-1.25,.04-.34,.02-.68-.03-1.02-.03,.39-.36,1.15-.36,1.1-.07-1.27-.3-2.55-1-3.6,.18,.48,.19,1.58,.18,1.52-.34-1.2-1.23-2.17-2.15-2.93-.95-.78-2.31-2.15-1.77-2.12Z"/>
            <g>
              <g>
                <path class="uuid-654cf42c-9562-43b4-a14d-c55583d8c303" d="M28.08,61.6c.45-.05,.97-.05,1.42,.09l.57,1.97c-1.18,.62-3.21-.61-3.21-.61,.09-.4,.23-.85,.33-1.18,.29-.12,.58-.23,.88-.26Z"/>
                <path class="uuid-570f5893-efd4-4abb-a53e-c87cc572430d" d="M28.08,61.6c.45-.05,.97-.05,1.42,.09l.12,.43s-.05-.02-.08-.02c-.28,0-1.56,.54-1.96,.7-.21,.08-.37,.22-.53,.35-.12-.06-.18-.1-.18-.1,.09-.4,.23-.85,.33-1.18,.29-.12,.58-.23,.88-.26Z"/>
                <path class="uuid-b7935d83-3d23-4738-aae9-ad7c9aecf531" d="M33.78,32.88c2.68-.45,3.29,.78,3.05,3.31-.11,1.21-4.64,10.05-5.04,11.35-.2,.66,.05,1.89-.44,2.43-.31,.34-2.26,9.2-2.32,9.71-.14,1.12,.58,1.8,.55,2.11-.64-.15-1.97,.28-2.63,.34-.1-.73,1.06-.82,.49-1.29-1.34,.21-.83,.14,.14-1.74,.05-.22,1.39-4.62,2.08-8.5,.37-2.1,.76-3.05,.88-3.55,.55-2.74-.72-13.48,3.24-14.15Z"/>
                <path class="uuid-28444b79-be95-4a91-837d-1535764e4616" d="M27.58,59.08c.05-.22,1.39-4.62,2.08-8.5,.37-2.1,.76-3.05,.88-3.55,.55-2.74-.72-13.48,3.24-14.15,1.84-.31,2.71,.18,2.99,1.33-.33-.66-.85-1.15-1.6-.9-1.2,.4-3.53,10.87-3.96,12.7-.01,.06,.06,.09,.1,.04,.19-.24,.42-.4,.66-.55-.52,.62-.85,1.36-1.01,2.18-.13,.64-.19,1.29-.25,1.95-.08-.27-.17-.55-.27-.81-.02-.06-.09-.04-.11,.01-.43,2.08-.85,4.17-1.33,6.24-.12,.52-.24,1.04-.32,1.56-.08,.5-.14,1.02-.32,1.5-.16,.44-.39,.8-.67,1.17-.23,.3-.45,.6-.59,.96-.02,.05,.02,.1,.07,.08,.26-.13,.52-.29,.76-.45-.1,.12-.2,.24-.28,.38-.02,.04,.02,.09,.06,.08,.29-.06,.57-.1,.86-.1-.47,.33-.67,.77-.82,1.36-.01,.04,.04,.07,.07,.06,.49-.2,1.08-.15,1.57,.09-.69-.06-1.85,.31-2.46,.36-.1-.73,1.06-.82,.49-1.29-1.34,.21-.83,.14,.14-1.74Z"/>
                <path class="uuid-dad26567-4bd8-44cf-8bf3-39d20f0ea488" d="M33.42,33.26c-.49,.52-.79,1.21-1.04,1.88-.59,1.59-.83,3.29-.97,4.97-.08,.9-.14,1.79-.21,2.69-.07,.88-.17,1.77-.17,2.64,0,.38,.04,.84-.15,1.18-.11,.2-.25,.39-.39,.58,.02-.07,.04-.13,.05-.18,.55-2.74-.72-13.48,3.24-14.15,.06,0,.11-.02,.17-.02-.19,.11-.36,.24-.53,.41Z"/>
                <path class="uuid-bbde2478-27d7-49dc-be1e-eeafc4670009" d="M28.22,59.21c-.17,.5-.55,.86-.96,1.14-.19,.13-.4,.26-.62,.36,.09-.23,.46-.72,.93-1.64,.02-.08,.23-.79,.52-1.84,.03,.11,.05,.21,.07,.32,.11,.52,.23,1.13,.05,1.65Z"/>
              </g>
              <path class="uuid-fb747311-0943-4535-884c-ad2a9dcad335" d="M32.51,44.81c.17-.48,.28-1,.47-1.47,.38-.97,.85-1.91,1.25-2.87,.38-.91,.75-1.83,1.15-2.73,.24-.54,.44-1.09,.56-1.67,.08-.41,.27-.82,.31-1.24,0-.02,0-.03,.03-.03h.04s.07,.1,.03,.1c.06,0,0,1.04-.03,1.17-.07,.5-.18,.98-.35,1.46-.34,.98-.82,1.94-1.23,2.89-.42,.97-.88,1.91-1.32,2.87-.22,.48-.47,.96-.67,1.45-.21,.51-.36,1.04-.57,1.55-.03,.08-.13-.04-.11-.09,.14-.47,.29-.93,.45-1.39Z"/>
              <path class="uuid-c8ffe0a8-7a4e-44aa-9372-6af28a56c471" d="M31.22,48.87c.03-.26,.09-.56,.19-.8,.02-.04,.06,.03,.06,.05-.03,.36,.08,.72,.05,1.09-.03,.3-.24,.48-.44,.68-.05,.05-.11-.05-.1-.1,.05-.32,.19-.61,.23-.93Z"/>
              <path class="uuid-88f1f0c2-5a54-470d-9cdc-1a051e8a2f8f" d="M29.56,55.46c.1-.51,.12-1.04,.22-1.55,.21-1.08,.58-2.1,.94-3.13,.02-.05,.06,.02,.06,.04,0,1.06-.41,2.09-.7,3.1-.3,1.03-.54,2.07-.8,3.11-.01,.05-.07-.02-.07-.06,.09-.51,.23-1.01,.34-1.52Z"/>
            </g>
            <g>
              <g>
                <path class="uuid-654cf42c-9562-43b4-a14d-c55583d8c303" d="M1.87,60.56s.82,1.11,.87,2.23c0,0-1.93,.44-2.65-.65l.42-1.18,1.35-.4Z"/>
                <path class="uuid-570f5893-efd4-4abb-a53e-c87cc572430d" d="M1.83,61.63c-.16,0-1.14-.06-1.29-.1-.02,0-.12-.05-.2-.07l.17-.49,1.35-.4s.82,1.11,.87,2.23c0,0-.03,0-.07,.01-.09-.47-.5-1.18-.84-1.18Z"/>
                <path class="uuid-3b624e59-1e1c-4895-aaf6-6276705bf416" d="M2.41,61.56c-.22-.15-2.93-.11-2.33-.62,.62-.53,1.15-2.58,1.1-2.66-.17-.28-.18-1.13-.09-1.23,1.06-1.94,.08-11.42,1.03-11.53,1.41-.16,4.15-2.04,4.38-3.32,.52-2.98-.17-10.14-.12-10.65,.15-1.98,1.37-4.05,3.55-4.24,2.33-.2,4.9,1.89,5.93,3.87,2.54,4.87-.27,9.81-3.95,12.99-2.3,1.99-5.34,2.16-7.79,4.2-1.11,.92-1.15,10.81-1.44,11.82-.06,.2-.08,.89-.27,1.39Z"/>
                <path class="uuid-ee6ce3f9-e291-4fa5-aa1a-cb7f56c1a96f" d="M1.19,58.27c-.17-.28-.18-1.13-.09-1.23,1.06-1.94,.08-11.42,1.03-11.53,1.41-.16,4.15-2.04,4.38-3.32,.52-2.98-.17-10.14-.12-10.65,.15-1.98,1.37-4.05,3.55-4.24,.62-.05,1.26,.06,1.88,.28-.98-.08-1.95,.21-2.71,1.06-.04,.04,.02,.11,.06,.09,.1-.04,.2-.07,.3-.1-.21,.15-.38,.33-.48,.59-.01,.04,.02,.09,.06,.08,.16-.04,.32-.09,.47-.14-.55,.4-.83,1.12-.97,1.8-.28,1.4-.27,2.88-.26,4.3,.02,1.79,.09,3.62-.29,5.38-.33,1.54-1.1,3.18-2.49,3.94-.38,.2-.78,.35-1.16,.55-.18,.09-.37,.19-.53,.32-.08,.07-.14,.19-.17,.21-.04,.04-.01,.11,.04,.1,.42-.05,.82,.01,1.22,.09-.76,.26-1.71,.2-2.18,.97-.33,.55-.34,1.26-.33,1.89,.02,.84,.03,1.66-.03,2.5-.07,.91-.15,1.82-.23,2.74-.04,.43-.07,.87-.1,1.3-.03,.44-.06,.91-.23,1.32-.11,.27-.32,.53-.37,.83-.05,.32,.03,.59,.12,.9,.22,.8-.48,1.6-.78,2.3-.02,.04,.03,.1,.07,.07,.27-.15,.46-.4,.66-.64-.07,.24-.15,.48-.17,.73,0,.05,.07,.1,.1,.04,.13-.22,.26-.43,.44-.61,.01,.47,.21,1.01,.56,1.29,0,.02-.02,.05-.02,.07-.22-.15-2.93-.11-2.33-.62,.62-.53,1.15-2.58,1.1-2.66Z"/>
                <path class="uuid-e2da0ffa-a2e9-465d-a58a-46ac91312dbf" d="M7.99,28.11c-.27,.36-.48,.75-.63,1.19-.27,.81-.33,1.68-.23,2.52,.13,1.06,.35,2.1,.39,3.17,.04,1.07,0,2.14-.29,3.18-.07-.65-.21-1.29-.41-1.91-.02-.06-.1-.04-.11,.02-.03,.15-.05,.31-.07,.47-.09-2.56-.3-4.93-.27-5.21,.1-1.28,.64-2.6,1.6-3.42Z"/>
                <path class="uuid-bbde2478-27d7-49dc-be1e-eeafc4670009" d="M2.07,57.08c.08,.41,.19,.95,0,1.35-.22,.47-.7,.67-1.15,.89,.18-.54,.28-1.01,.26-1.04-.17-.28-.18-1.13-.09-1.23,.06-.11,.11-.25,.16-.41,.22-.22,.41-.48,.58-.76,.04,.41,.15,.8,.23,1.2Z"/>
              </g>
              <path class="uuid-de935eb2-71a5-47d6-bf06-9df73da39b9b" d="M3.71,48.28c.74-.91,1.63-1.53,2.73-1.86,.98-.29,1.93-.62,2.87-1.07,.95-.45,1.83-1.01,2.65-1.69,.76-.64,1.56-1.3,2.16-2.12,1.26-1.72,2.07-4.08,2.12-6.24,.04-1.65-.4-3.14-1.12-4.52-.14-.32-.31-.61-.51-.89-.05-.08-.11-.17-.16-.25-.02-.03-.05-.04-.06-.03-.19-.22-.39-.43-.61-.64-.14-.13-.19,.08-.13,.19,.53,.88,.6,1.87,.69,2.88,.09,1.05,.13,2.15-.09,3.2-.39,1.93-1.39,3.71-2.62,5.19-1.28,1.56-2.95,2.7-4.52,3.91-1.4,1.08-2.69,2.14-3.5,3.78-.03,.06,.06,.2,.11,.14Z"/>
              <path class="uuid-41929415-45a1-494b-a1e7-ea3ffc2e1be4" d="M10.8,44.09c2.16-2.01,4.17-4.55,4.59-7.63,.31-2.3-.06-4.72-.97-6.83,0,0,.02,.01,.03,.03,.05,.08,.11,.17,.16,.25,.2,.27,.37,.57,.51,.89,.73,1.38,1.16,2.87,1.12,4.52-.05,2.16-.86,4.52-2.12,6.24-.6,.82-1.39,1.48-2.16,2.12-.81,.68-1.7,1.23-2.64,1.68,.51-.4,1-.82,1.48-1.26Z"/>
            </g>
            <path class="uuid-dbc18206-bf0b-43b5-ac63-b078076f2b9b" d="M29.67,28.73c-.75-.1-1.49-.23-2.23-.35-.73-.12-1.46-.23-2.2-.24-.74-.01-1.47,.07-2.2,.15-1.47,.17-2.96,.26-4.44,.12-.71-.06-1.47-.13-2.14-.4-.28-.12-.55-.26-.8-.43,1.16-.04,2.3-.25,3.45-.31,1.37-.06,2.77,0,4.14,.13,.67,.06,1.33,.13,1.99,.27,.65,.14,1.28,.35,1.93,.47,1.18,.21,2.36,.42,3.55,.54-.33,.07-.67,.1-1.04,.05Z"/>
            <path class="uuid-312eacc5-554c-448a-976e-5391e00c7ea9" d="M37.31,33.46c.47-1.28,.59-2.65,.76-3.99,.05-.38,.18-.65,.46-.9,.21-.19,.43-.36,.63-.56,.47-.44,.97-.85,1.4-1.33,.38-.42,.7-.86,.86-1.42,.1-.34,.15-.69,.19-1.04,0,0,0,0,0,0,.15,.21,.12,.45,.12,.68,.11-.37,.11-.78,.18-1.15,0,0,0-.01,0-.02,.1,.2,.16,.42,.19,.65,0,.56-.07,1.17-.31,1.61-.05,.08-.15-.03-.17-.09-.04-.12-.05-.24-.06-.37-.05,.19-.11,.38-.2,.58-.22,.49-.55,.89-.85,1.32-.61,.86-1.2,1.64-1.61,2.63-.41,.99-.29,2.06-.59,3.07-.05,.15-.1,.32-.15,.49-.15,.22-.31,.43-.46,.65-.23,.32-.46,.65-.72,.95,0-.03-.01-.06,0-.08,.16-.4,.34-.81,.47-1.22-.35,.64-.78,1.22-1.38,1.66-.03,.03-.08,.01-.12-.02,.55-.63,1.04-1.31,1.33-2.11Z"/>
          </g>
          <g>
            <path class="uuid-18ed7789-bda4-4d60-aa38-ccaf282e474b" d="M44.93,13.65c.39,.4,.73,.7,1.29,.59,.81-.16,1.65,.13,2.27-.54,.47-.51,.68-1.36,.78-2.05,.12-.81,.14-1.65,.01-2.47-.04-.23-.06-1.41-.45-1.42-.19,0-.49,1.05-1.35,1.72-.66,.51-1.25,1.03-1.62,1.81-.19,.4-.32,.82-.48,1.23-.13,.35-.29,.67-.44,1.01h-.01s-.04,.07-.01,.1Z"/>
            <path class="uuid-35f7af09-c17b-4410-aab4-d91bdce900b8" d="M49.11,9.77c-.36-.47-.79,0-1.1,.28-.6,.56-1.45,1.88-2.38,1.78,.07-.18,.14-.35,.22-.53,.37-.79,.96-1.3,1.62-1.81,.87-.67,1.17-1.72,1.35-1.72,.38,0,.41,1.19,.45,1.42,.05,.33,.08,.67,.09,1.02-.07-.15-.15-.3-.25-.43Z"/>
            <path class="uuid-6f6408fe-4a7c-4513-9281-493dd79c7e3b" d="M44.94,13.55h.01c.14-.34,.31-.67,.44-1.02,.15-.42,.29-.83,.48-1.23,.37-.79,.96-1.3,1.62-1.81,.87-.67,1.17-1.72,1.35-1.72,.02,0,.04,0,.06,.01,.07,.36,.06,.75-.05,1.1-.11,.39-.36,.65-.59,.97-.2,.28-.29,.57-.29,.93,0,.43-.43,2.11-.88,2.31-.3,.13-.63,.23-.87,.47-.19,.19-.36,.43-.43,.69-.33-.07-.59-.3-.87-.59-.03-.03-.03-.08,.01-.1Z"/>
            <path class="uuid-4271ecff-4fe1-453d-a4bd-c11898649878" d="M48.35,8.89c-.17,.37-.44,.67-.63,1.03-.19,.36-.25,.72-.32,1.12-.06,.35-.12,.74-.36,1.01-.24,.27-.58,.4-.89,.57-.28,.16-.55,.32-.79,.53-.17,.15-.32,.31-.44,.5-.03-.03-.03-.08,.01-.1h.01c.14-.34,.31-.67,.44-1.02,.15-.42,.29-.83,.48-1.23,.37-.79,.96-1.3,1.62-1.81,.6-.46,.93-1.11,1.13-1.46-.05,.3-.13,.59-.26,.85Z"/>
            <path class="uuid-63c27c11-afe9-4427-93da-53f999175094" d="M40.33,15.1c.68-1.18,2.17-2.01,3.47-2.17,.81-.1,1.52,.13,2.15,.56,.45,.17,.9,.41,1.21,.77,.52,.6,.79,1.47,1,2.22,.15,.52,4.42,3.99,4.73,4.58,.24,.47-.15,1.51-.49,1.79-.46,.37-1.05,.45-1.62,.32-.57-.13-1.1-.48-1.65-.69-.77-.3-1.47-.03-2.24,.04-1.31,.11-2.73-.26-3.93-.81-2.25-1.04-3.97-4.27-2.63-6.6Z"/>
            <path class="uuid-0057c42a-22bb-41ed-9fa4-1b993dc67ba3" d="M40.33,15.1c.68-1.18,2.17-2.01,3.47-2.17,.81-.1,1.52,.13,2.15,.56,.45,.17,.9,.41,1.21,.77,.52,.6,.79,1.47,1,2.22,.15,.52,4.42,3.99,4.73,4.58,.24,.47-.15,1.51-.49,1.79-.46,.37-1.05,.45-1.62,.32-.57-.13-1.1-.48-1.65-.69-.77-.3-1.47-.03-2.24,.04-1.31,.11-2.73-.26-3.93-.81-2.25-1.04-3.97-4.27-2.63-6.6Z"/>
            <path class="uuid-bb62a971-86aa-48b2-a2cc-ef956255d401" d="M43.19,16.46c.07,0,.06-.1,0-.11-.16-.04-.31-.07-.47-.09,.9-.23,1.86-.07,2.55,.67,.29,.32,.59,.74,.95,1.05-.15-.02-.3-.02-.44,0-.45,.09-.58,.5-.93,.75-.76,.56-1.58,.23-2.27-.29,.05,0,.1,0,.16,0,.06,0,.09-.08,.03-.11-.28-.12-.58-.23-.82-.41-.35-.27-.33-.56-.04-.85,.03-.03,0-.1-.05-.09-.08,.01-.16,.02-.24,.03,.48-.31,.98-.54,1.56-.56Z"/>
            <path class="uuid-3028737a-ae51-45c4-b7f1-5cd7fdfccad0" d="M47.35,21.56s0-.01,0-.02c.25,.19,.54,.39,.84,.39,.24,0,.45-.06,.69-.09,.26-.03,.47,0,.71,.11,.61,.26,1.18,.6,1.75,.09,.03-.02,.03-.07,0-.09-.25-.19-.54-.31-.81-.46,.53-.12,1.08,.24,1.59-.03,.19-.1,.33-.27,.49-.42,.07-.07,.14-.11,.21-.12,.05,.06,.08,.1,.1,.14,.24,.47-.15,1.51-.5,1.79-.47,.37-1.05,.45-1.62,.32-.57-.14-1.1-.48-1.65-.69-.3-.12-.59-.14-.88-.13-.35-.19-.63-.45-.9-.77Z"/>
            <path class="uuid-3a7e0495-cab3-42bf-9e58-f936f54f1884" d="M47.56,17.04c-.61-.64-1.24-1.26-1.77-1.97,.39,.21,.74,.49,1.08,.79,.39,.34,.79,.67,1.21,.98,.46,.34,.94,.67,1.41,1,.76,.7,1.71,1.53,2.42,2.18-.11,.3-.1,.67-.06,.99-.51-.22-1.09-.08-1.61-.14-.36-.04-.72-.16-.86-.55-.14-.38-.17-.79-.28-1.19-.12-.43-.38-.78-.66-1.13-.27-.34-.56-.66-.86-.98Z"/>
            <path class="uuid-54abb0af-e787-4b47-8e74-82c30f833cf5" d="M45.43,14.02c-.59,.08-1.22-.19-1.74-.46-.05-.03-.09,.05-.05,.09,.26,.26,.53,.5,.74,.81-.42-.23-.85-.44-1.29-.62-.04-.02-.1,.03-.06,.08,.45,.54,.52,1.37-.22,1.63-.6,.22-1.29,.05-1.91-.04-.23-.03-.48-.07-.73-.09,.05-.11,.1-.22,.16-.33,.68-1.18,2.17-2.01,3.47-2.17,.75-.09,1.4,.09,1.99,.46,.08,.31,.03,.58-.36,.64Z"/>
            <path class="uuid-c1f39ce1-132f-4dc3-b775-437532b127d3" d="M40.95,17.2s-.09,0-.13,0c-.24-.23-.42-.57-.59-.79-.29-.38-.65-.63-1.07-.41,.04-.13,.11-.24,.16-.36,.02-.04-.03-.08-.06-.06-.12,.07-.23,.17-.36,.21,.05-.13,.14-.22,.22-.33,.02-.03,0-.08-.04-.07-.15,.02-.28,.08-.41,.15,.06-.17,.15-.32,.37-.31,.04,0,.07-.05,.03-.08-.08-.06-.16-.11-.25-.16,.11,.04,.21,.08,.32,.12,.04,.01,.08-.03,.05-.07-.57-.83-1.41-1.4-2.36-1.64-.5-.13-1.01-.17-1.53-.2,.12,0,.24-.01,.35-.02,.89-.02,1.8,.17,2.6,.59,.41,.21,.77,.5,1.1,.83,.34,.34,.98,1.07,1.36,1.37,.2,.16,.93,1.14,.23,1.23Z"/>
            <path class="uuid-209a3668-58db-4b68-8ca5-27f8b8f55a90" d="M47.71,21.79c.24,.26,.86,.23,1.18,.28,.31,.05,.48,.2,.74,.38,.48,.34,.95,.49,1.54,.53,.16,.01,.34,0,.51-.04,.12-.21,.29-.32,.36-.58,.07-.26,.04-.76-.13-.99,0,0-.01-.02,0-.03,0,0,0,0,.01-.01,.01,0,.04,0,.04,.02,0,.09,.1,.23,.13,.33,.05,.17,.06,.35,.06,.53,0,.29-.12,.5-.3,.68,.27-.09,.52-.23,.7-.43,.01-.01,.04,.01,.04,.03-.39,.76-1.66,.69-2.35,.39-.22-.09-.43-.3-.62-.43-.33-.22-.69-.27-1.06-.34-.34-.07-.68,0-.93-.3-.05-.06,.04-.05,.07-.02Z"/>
            <g>
              <g>
                <path class="uuid-b23de182-7b63-4af8-80ce-16a148807439" d="M43.09,17.38c.19-.09,.35-.23,.55-.31,.58-.24,1.25-.17,1.75,.31,.05,.05,.34,.43,.38,.43-.12,.02-.45-.25-.46-.23-.29,.27-.66,.57-1.11,.57-.43,0-.71-.14-.93-.53-.06,0-.48-.02-.49-.06,.03-.03,.28-.14,.32-.17Z"/>
                <g>
                  <path class="uuid-c065942e-55e5-4e72-96d3-cf6e2a1ff833" d="M43.43,17.55s.17-.34,.81-.44c.38-.07,.69,.04,.85,.17,.07,.2-.04,.38-.21,.52-.21,.14-.49,.27-.78,.26-.46-.03-.69-.34-.67-.49Z"/>
                  <path class="uuid-f1b30f97-324a-44dd-925c-1fcd54d174b2" d="M43.53,17.45c.1-.11,.31-.28,.74-.36,.24-.04,.45-.02,.62,.04,.22,.71-1.18,1.06-1.36,.31Z"/>
                  <path class="uuid-209a3668-58db-4b68-8ca5-27f8b8f55a90" d="M45.03,17.23s.04,.03,.05,.04c.07,.2-.04,.38-.21,.52-.21,.14-.49,.27-.78,.26-.1,0-.18-.02-.26-.05,.53,.14,1.27-.19,1.19-.76Z"/>
                  <path class="uuid-b8774884-435d-40a5-a923-9a74a13976c3" d="M43.43,17.55s.17-.34,.81-.44c.38-.07,.69,.04,.85,.17,.01,.03,.02,.06,.02,.09-.17-.03-.4,0-.48,.01-.41,.03-.81,.12-1.18,.28-.02-.04-.02-.08-.02-.11Z"/>
                  <path class="uuid-97bc9dc3-f971-4bae-b329-a92c58d169d9" d="M44.55,17.29s-.01-.08-.02-.11c.12,0,.24,.03,.35,.07,.01,.05,.01,.09,.01,.14-.11-.04-.23-.07-.34-.09Z"/>
                </g>
              </g>
              <path class="uuid-105ad52c-86fb-4828-8c57-41e3555fbf66" d="M43.2,17.81c.04-.11,.1-.2,.17-.29-.06,.05-.12,.1-.18,.16,0,0-.04-.01-.03-.02,.23-.3,.52-.52,.89-.59,0,0,0,0,0,0,0,0,0,0,0,0,.04,0,.08-.01,.13-.02,.04,0,.07,0,.1,0,.16-.03,.31-.03,.48,.02,.2,.07,.41,.2,.54,.38,0,.01,0,.01-.01,0-.06-.05-.13-.1-.2-.15-.02-.01-.05-.03-.08-.04-.06,0-.12-.01-.18,0,0,0-.02-.01,0-.01,.04,0,.08-.01,.13-.01-.02,0-.03-.02-.05-.02-.08,0-.16,0-.22,.02,0,0-.02,0-.01-.01,.05-.03,.1-.03,.17-.03,0,0,.01,0,.02,0-.03-.01-.05-.02-.08-.03-.07,.01-.14,.03-.19,.07,0,0-.02,0-.01-.01,.04-.04,.08-.06,.14-.07,0,0,0,0,.01,0,0,0-.02,0-.03,0-.09,.04-.17,.06-.24,.14,0,0-.02,0-.01,0,.04-.07,.11-.12,.19-.15-.02,0-.04,0-.05,0-.07,.05-.13,.11-.17,.2,0,0-.02,0-.02-.01,.02-.07,.07-.15,.13-.19,0,0,0,0,0,0-.12,.07-.22,.2-.29,.31,0,0-.02,0-.01,0,.03-.09,.08-.17,.15-.24,.01-.01,.02-.02,.03-.03-.04,.03-.08,.07-.12,.11-.07,.08-.12,.17-.18,.25,0,0-.02,0-.02-.01,.07-.12,.15-.26,.26-.36-.05,.04-.1,.08-.15,.12-.09,.08-.15,.18-.23,.26,0,0-.02,0-.02-.01,.1-.12,.19-.26,.31-.35-.12,.07-.23,.18-.33,.27,0,0-.03,0-.02-.02,.07-.08,.14-.17,.24-.23,.02-.01,.04-.03,.06-.04-.1,.06-.2,.11-.29,.19-.11,.1-.17,.23-.25,.35,0,.01-.03,0-.02-.01,.08-.14,.16-.27,.26-.38-.06,.05-.13,.1-.17,.17,0,0-.01,0-.01,0,.04-.08,.1-.14,.16-.2,0,0-.02,0-.01-.01,0,0,0,0,0,0-.04,.03-.08,.07-.12,.11-.08,.1-.14,.2-.21,.31,0,0-.03,0-.02-.01,.07-.15,.16-.31,.28-.43,0,0,0,0-.01,0,0,0,0,0,0,0-.16,.13-.28,.28-.39,.46,0,.01-.03,0-.02-.02,.05-.1,.12-.23,.21-.32-.01,0-.02,.02-.03,.02-.06,.06-.12,.12-.17,.19-.06,.08-.12,.17-.16,.26,0,0-.02,0-.02-.01Z"/>
            </g>
            <path class="uuid-6c471f12-452a-4f00-ba33-6e37e443edcb" d="M50.2,21.16s.06,.04,.07,.06c.04,.1,.11,.15,.19,.17,.17-.2,.54-.18,.76-.17,.28,.02,.54,.11,.8-.07,.17-.12,.27-.15,.47-.17,0,0,0,0,.01,0,0,0,0-.01,0-.02-.04-.09-.16-.16-.24-.2-.02,0-.01-.03,0-.02,.08,.03,.27,.1,.36,.2,0,.01,0,.02,0,.03,.01,.19-.13,.29-.26,.4-.08,.07-.12,.16-.16,.25-.01,0-.02,.02-.03,.02-.01,0-.03,.02-.04,.02h0s-.03,.01-.04,.02c-.04,.02-.09,.03-.15,.03-.11,.01-.23-.03-.34-.07-.26-.05-.51-.13-.78-.12-.08,.02-.16,.04-.24,.04-.12-.01-.27-.06-.37-.16-.03-.08-.04-.17-.02-.26Z"/>
            <path class="uuid-2ce7b0b8-fab3-4865-8f1f-a1943deb6324" d="M46.64,13.46c.16-.19,.36-.26,.58-.29,.1-.04,.18-.1,.28-.14,.21-.09,.45-.11,.57-.34,.17-.32,.2-.88,.14-1.24,0-.05,.07-.01,.08,.02,.1,.38,.08,.86-.03,1.23-.06,.19-.13,.28-.31,.34-.07,.03-.15,.05-.24,.08,.14-.03,.28-.06,.41-.15,.58-.36,.7-1.48,.76-2.11,0-.03,.07,0,.07,.03-.03,.7-.15,1.38-.48,2-.38,.71-1.22,.24-1.76,.64-.02,.01-.08-.02-.06-.05Z"/>
            <path class="uuid-d2d1edde-0a5b-41e0-88eb-22a82abcecaf" d="M44.94,13.55h.01c.14-.34,.31-.67,.44-1.02,.15-.42,.29-.83,.48-1.23,.37-.79,.96-1.3,1.62-1.81,.87-.67,1.17-1.72,1.35-1.72,.38,0,.41,1.19,.45,1.42,0,.05,.02,.11,.02,.16-.04-.14-.08-.27-.13-.41-.02-.05-.07-.04-.09,0-.17,.32-.22,.72-.45,1.01-.16,.21-.34,.43-.42,.69-.1,.36-.11,.72-.14,1.09-.02,.38-.17,.73-.29,1.08-.02,.04,.02,.09,.06,.07,.51-.2,.65-.88,.65-1.42,.25,.49,0,1.15-.32,1.53-.26,.31-.84,.4-.9,.86-.03,.21,.26,.27,.52,.27-.49,.12-1.04,.03-1.58,.14-.56,.11-.9-.19-1.29-.59-.03-.03-.03-.08,.01-.1Z"/>
            <path class="uuid-febb6de8-92ec-4ed3-8bfe-f94af06cd19f" d="M44.94,13.55h.01c.14-.34,.31-.67,.44-1.02,.15-.42,.29-.83,.48-1.23,.37-.79,.96-1.3,1.62-1.81,.56-.44,.88-1.03,1.09-1.39-.06,.34-.17,.67-.38,.95-.29,.38-.66,.67-.99,1-.64,.63-1.06,1.44-1.17,2.36,0,.05,.04,.08,.08,.05,.37-.26,.76-.47,1.01-.87,.14-.22,.22-.47,.3-.73-.04,.54-.1,1.05-.45,1.52-.18,.24-.4,.45-.57,.69-.12,.16-.18,.34-.16,.55,.02,.17,.09,.38,.18,.58-.07,0-.13,.02-.2,.03-.56,.11-.9-.19-1.29-.59-.03-.03-.03-.08,.01-.1Z"/>
            <g>
              <path class="uuid-bd34fb9f-4269-4923-a796-627e0b206df7" d="M35.87,3.46c-.11-.14-.21-.28-.32-.43-.42-.61-.78-1.26-1.14-1.91-.12-.22-.24-.44-.33-.67-.05-.14-.13-.43,0-.45,.54,.53,1.01,1.15,1.54,1.69,.7,.72,1.48,1.36,2.38,1.78,1.62,.76,3.47,.36,5.15,.9,1.71,.55,2.22,2.34,2.39,3.98,.1,.94,.29,1.92,.26,2.85-.02,.51-.06,2.37-.37,2.65-.45,.41-1.5-.13-1.74-.55-.24-.42,0-2.63-.02-3.23-.04-1.34,.16-3.28-1.19-4.1-.3-.18-.7-.31-1.05-.34-.55-.05-1.1-.08-1.65-.16-.95-.12-2-.4-2.81-.96-.41-.28-.73-.71-1.09-1.05Z"/>
              <path class="uuid-e24772ee-4f40-4e7e-993c-081026977459" d="M45.49,12.94c-.06-.41-.41-.49-.72-.63,.18-.01,.37,0,.51,.15,.04,.03,.1,0,.09-.05-.05-.36,.06-.67,.14-1.01,.05-.21,.11-.49,0-.7-.15-.32-.47-.38-.78-.46,.25-.04,.5,0,.74,.09,.03,.01,.09-.01,.08-.06-.09-.42,.13-1.06-.15-1.43-.18-.24-.45-.34-.72-.43,.24,0,.49,.08,.7,.21,.05,.03,.08-.03,.07-.07,0,0,0-.01,0-.02,0,0,0,0,0-.01,.03-.1-.03-.26-.05-.37-.02-.18-.04-.36-.07-.54-.04-.23-.08-.51-.22-.7-.15-.19-.35-.26-.56-.3,.14,0,.29,0,.44,.03,.03,0,.07-.02,.06-.06-.1-.64-.63-1.27-1.12-1.64-.31-.24-.62-.02-.9,.15,.1-.15,.21-.29,.33-.43,.03-.03,0-.08-.03-.09-.48-.1-.97-.3-1.45-.31-.41-.01-.72,.15-1.02,.39,.03-.15,.07-.29,.14-.43,.02-.04-.02-.08-.06-.08-.38,0-.75-.15-1.12-.14-.29,.01-.51,.16-.76,.27,.05-.09,.1-.17,.16-.25,.02-.03,0-.09-.03-.09-1.08-.15-2.2-.77-3.05-1.48-.8-.66-1.59-1.52-2.08-2.47,0,0,.01,0,.02,0,.54,.53,1.01,1.15,1.54,1.69,.7,.72,1.48,1.36,2.38,1.78,1.62,.76,3.47,.36,5.15,.9,1.71,.55,2.22,2.34,2.39,3.98,.1,.94,.29,1.92,.26,2.85-.02,.51-.06,2.37-.37,2.65-.03,.03-.06,.05-.1,.07,.14-.3,.22-.69,.17-.98Z"/>
              <path class="uuid-ddaaa824-7ccc-4c30-b6c3-97784f84d55d" d="M42.54,5.27s-.02-.05,.01-.04c.44,.22,.72,.63,.91,1.09,.1,.23,.18,.5,.18,.75,0,.44,.05,.89,.03,1.32,0,.04-.07,0-.08-.02-.09-1.01-.09-2.5-1.06-3.1Z"/>
              <g>
                <path class="uuid-a8b74004-a40b-4020-8f70-32022c0d3839" d="M43.9,12.58c.23-.4,.88-.44,1.28-.35,.21,.04,.76,.29,.57,.6-.03,.05-.12,0-.14-.05,0,0,0,0,0,0-.33-.65-1.12-.21-1.61-.11-.03,0-.12-.04-.1-.08Z"/>
                <path class="uuid-27076ddd-75d0-4493-827d-72fa13e9e4ac" d="M45.61,10.35s.02,0,0,.01c0,0-.02,0,0-.01Z"/>
                <path class="uuid-c4f050f2-5b2a-4748-8f03-040b35847644" d="M44.12,10.4c.26-.33,.75-.27,1.12-.2,.21,.04,.6,.23,.59,.49,0,.07-.11,.02-.14,0-.06-.05-.1-.11-.16-.16-.13-.12-.32-.13-.47-.15-.27-.03-.56,.06-.82,.13-.04,.01-.17-.06-.13-.11Z"/>
                <path class="uuid-7cd0bdae-5b23-43fc-be01-6a592f79f553" d="M43.96,8.77c.13-.44,.65-.47,1.03-.44,.29,.02,.73,.25,.7,.61,0,.08-.13,.01-.16-.02-.08-.1-.14-.23-.26-.29-.13-.07-.3-.05-.43-.04-.14,0-.29,.04-.42,.08-.13,.04-.22,.13-.34,.18-.04,.01-.13-.04-.11-.08Z"/>
                <path class="uuid-1e314087-3077-4cf4-a9b6-d2c9b4cca738" d="M43.74,6.97c.07-.41,.51-.49,.86-.49,.25,0,.76,.17,.74,.51,0,.01,.01,.03,0,.04,0,0,0,0,0,0-.04,.05-.12,0-.14-.05-.26-.46-1.02-.23-1.31,.05-.04,.04-.14-.03-.14-.09Z"/>
                <path class="uuid-e5c3e8e8-44b4-4da7-bd52-5a73adfccd97" d="M42.84,5.3c-.05-.38,.29-.55,.58-.67,.29-.13,.47,0,.69,.2,0,0,.03,.04,0,.04-.03,0-.07,0-.1,0-.14-.07-.24-.09-.38-.02-.26,.13-.44,.33-.64,.53-.04,.04-.15-.03-.15-.08Z"/>
                <path class="uuid-6dd20441-94a8-47d1-bafc-8fc5185f5a31" d="M40.75,4.78c-.04-.34,.13-.54,.43-.65,.22-.08,.44-.12,.66-.02,.02,0,.05,.01,.06,.03,0,0,0,0,0,.01,.01,.02,.02,.05-.01,.05-.19-.02-.39,.12-.55,.2-.21,.1-.29,.32-.45,.47-.04,.03-.14-.03-.14-.07Z"/>
                <path class="uuid-90619c66-7523-467f-924c-3a638edf5c79" d="M38.87,4.49c.03-.4,.69-.69,1.02-.58,.02,0,.04,.04,.01,.04-.17,.02-.39,.17-.52,.27-.14,.1-.19,.27-.32,.38-.06,.05-.19-.05-.19-.12Z"/>
              </g>
            </g>
            <path class="uuid-99359cb8-78c7-4681-baef-e6c784d21edb" d="M44.61,18.39c.24-.2,.5-.31,.77-.33,.27-.1,.54-.09,.88,.1,.71,.4,1.23,.96,1.84,1.5,.03,.02,.04,.07,0,.07-.17,.02-.28-.05-.42-.14-.33-.2-.65-.43-.97-.64-.42-.28-.84-.35-1.33-.36-.22,0-.46,.05-.67-.02-.05-.02-.15-.11-.09-.17Z"/>
            <path class="uuid-b80f7a7b-2c05-455a-aa16-f4eac2997fcd" d="M52.5,21.97c0-.08,0-.19,.06-.25,.11-.14,.23-.28,.29-.46,.03-.08,.04-.15,.04-.22,0,0,0,.01,.01,.02,.13,.25,.08,.67-.05,1.05-.13,.1-.26,.19-.4,.27,.02-.13,.05-.27,.06-.4Z"/>
            <path class="uuid-88e2237b-1bed-467a-986c-b62eba0c6487" d="M40.33,15.1c.46-.8,1.29-1.43,2.17-1.81,.25,.25,.47,.52,.58,.85,.24,.74-.31,1.48-.98,1.68-.25,.07-.5,0-.75,.06-.14,.03-.22,.08-.23,.24,0,.2,.17,.36,.23,.54,.15,.44-.14,.83-.59,.71-.03,0-.06,.02-.06,.05-.11,.83,.52,1.74,1.06,2.3,.03,.04,.1,0,.09-.05-.02-.13-.05-.26-.07-.39,.18,.53,.48,1.08,.96,1.14,.04,0,.06-.02,.06-.06,0-.01,0-.03,0-.04,.28,.33,.64,.61,.94,.74,.04,.02,.1-.02,.07-.07-.13-.26-.28-.51-.36-.78,.2,.36,.45,.69,.74,.99,.05,.05,.11-.02,.08-.08-.06-.1-.11-.21-.15-.32,.27,.47,.67,.84,1.19,1.04,.73,.28,1.52,.27,2.27,.11,.04,0,.07-.05,.04-.09-.04-.05-.08-.09-.11-.14,.26,.17,.58,.21,.89,.24,.29,.02,.57,.05,.85,.17,.28,.12,.55,.27,.83,.38,.37,.15,1.03,.42,1.41,.18,.33-.22,.32-.65,.22-1.01,0-.03-.03-.04-.06-.04-.41,0-.91,.17-1.29-.07-.42-.27-.26-.76,.03-1.07,0,.16,.02,.34,.12,.41,.21,.17,.68,.14,.92,.11,.23-.03,.54-.08,.7-.26,.17-.2-.19-.37-.3-.47-.82-.7-1.56-1.47-2.34-2.21-.33-.32-.69-.64-.94-1.03-.04-.06-.08-.13-.12-.19,.89,.96,3.62,3.23,4.3,4.01,.03,.2,0,.4-.16,.61-.06,.09-.17,.18-.18,.29-.03,.23-.06,.47-.1,.7,0,.05,.05,.08,.09,.06,.13-.07,.25-.15,.37-.23-.1,.24-.24,.44-.36,.54-.46,.37-1.05,.45-1.62,.32-.57-.13-1.1-.48-1.65-.69-.77-.3-1.47-.03-2.24,.04-1.31,.11-2.73-.26-3.93-.81-2.25-1.04-3.97-4.27-2.63-6.6Z"/>
            <path class="uuid-0d5be6fe-fc3d-4169-9588-240b3a2fab15" d="M45.75,13.85c-.26,.32-.54,.45-.96,.36-.34-.07-.69-.21-.98-.42-.26-.19-.54-.43-.61-.75,.2-.05,.4-.09,.59-.12,.81-.1,1.52,.13,2.15,.56,.07,.03,.13,.05,.2,.08-.14,.02-.26,.11-.4,.28Z"/>
            <path class="uuid-7653db98-592f-4fb5-bce4-e95a98fd3fb3" d="M43.4,16.85c.43-.19,.93-.29,1.4-.11,.59,.23,.98,.76,1.26,1.33-.14-.09-.29-.17-.45-.21-.45-.12-.7,.17-1.05,.42-.27,.2-.61,.27-.92,.09-.22-.14-.37-.35-.58-.5-.27-.18-.56-.25-.86-.25,.15-.1,.29-.22,.44-.33,.24-.16,.5-.32,.76-.43Z"/>
            <g>
              <path class="uuid-0eaa6542-207e-481d-ab61-d2822d27560f" d="M28.2,9.2c1.22,.26,2.52-.04,3.77-.03,1.19,.01,3.94-.35,6.42,3.15,.38,.54,.75,1.08,1.09,1.65,.24,.41,.47,.87,.81,1.22,.66,.67,1.66,.43,2.37-.08,.49-.35,.12-.97-.27-1.43-.73-1.33-2.01-2.46-3.17-3.4-1.26-1.02-2.65-1.94-4.28-2.29-1.86-.4-3.76,.29-5.63,.19-.96-.05-2.13-.21-2.88-.86-.75-.66-1.65-1.99-1.87-2.96-.23-1.04-.41,.47-.4,.62,.07,2,2.13,3.83,4.04,4.24Z"/>
              <path class="uuid-e7647fb4-c282-4af8-8f81-9cd417693e69" d="M42.04,13.44c-.2-.22-.43-.31-.67-.32,.12-.05,.22-.12,.25-.24,.07-.23-.34-.53-.47-.65-.25-.22-.49-.64-.82-.75-.26-.08-.54-.03-.8,.06,.19-.11,.43-.18,.42-.36-.01-.21-.36-.38-.51-.47-.16-.1-.3-.19-.43-.32-.16-.15-.33-.32-.53-.4-.35-.14-.66-.06-1,.02,.16-.13,.35-.19,.55-.26,.03-.01,.04-.06,.02-.09-.22-.32-.65-.5-.98-.66-.38-.19-.66-.21-1.03-.12,.06-.09,.12-.19,.19-.28,.02-.03,.01-.07-.02-.09-.32-.15-.65-.22-.99-.32-.15-.05-.3-.06-.45-.07-.17-.07-.4-.08-.52-.02-.03,0-.05,.01-.06,.03-.15,.11-.21,.29-.22,.48-.05-.17-.06-.34-.07-.52,0-.03-.02-.05-.05-.05-.43-.12-1.59-.12-1.81,.41-.01-.1-.02-.2-.02-.31,0-.04-.02-.07-.06-.07-.73-.02-1.43,.17-2.17,.14-.39-.02-.78-.05-1.16-.11-.06,0-.15-.02-.25-.04,.3,.04,.6,.07,.88,.08,1.88,.1,3.77-.59,5.63-.19,1.63,.35,3.02,1.27,4.28,2.29,1.16,.94,2.43,2.07,3.17,3.4,.32,.38,.62,.86,.45,1.22-.05-.21-.15-.41-.25-.6-.16-.28-.32-.61-.54-.85Z"/>
              <path class="uuid-00e3d7ea-b204-468d-8bfa-36b88a332733" d="M40.31,13.87c.32-.38,.64-.66,1.14-.77,.29-.06,.55-.08,.77,.17,.02,.02,.04,.06,.02,.08,0,0,0,.01-.01,.02,0,.01-.02,.01-.04,.01-.65-.13-1.22,.24-1.73,.6-.05,.03-.19-.05-.14-.11Z"/>
              <path class="uuid-e0d6f8a9-1a0a-49ee-a70f-dcff52a8e557" d="M38.72,12.09c.32-.6,.8-1,1.51-.96,.19,.01,.62,.18,.5,.43-.02,.04-.08,.02-.11-.02-.55-.51-1.37,.31-1.79,.63-.04,.03-.14-.04-.12-.09Z"/>
              <path class="uuid-f48ba390-0372-4d7f-929b-57e243527596" d="M37.15,10.31c.19-.36,.56-.6,.96-.62,.3-.02,.81,.02,.94,.39,.02,.05-.06,.03-.07,.02-.63-.36-1.13,0-1.62,.36-.07,.05-.24-.06-.19-.15Z"/>
              <path class="uuid-9102696f-17a6-494e-a105-e8174b513876" d="M35.71,9.32c.09-.47,.32-.75,.81-.78,.14,0,.72,.07,.68,.33,0,0,0,0,0,0,0,.03-.06,0-.07,0-.16-.19-.57-.05-.73,.04-.21,.12-.34,.37-.51,.54-.05,.05-.2-.04-.18-.11Z"/>
              <path class="uuid-50644919-9875-4d0a-b7e3-d31d902d4900" d="M33.89,8.68c0-.33,.2-.66,.51-.75,.26-.08,.62-.1,.83,.11,0,0,.01,.01,.02,.01,0,0,0,0,0,0,.01,.02,0,.03-.03,.03-.53-.15-.91,.27-1.12,.7-.05,.09-.21-.03-.21-.11Z"/>
              <path class="uuid-16cc1987-cec4-4e2d-820c-250ae1890285" d="M32.33,8.05c.21-.21,.49-.16,.75-.19,.02,0,.07,.04,.04,.05-.19,.09-.36,.14-.52,.29-.19,.17-.26,.44-.36,.67-.04,.08-.19-.02-.2-.08-.04-.29,.09-.54,.29-.74Z"/>
              <path class="uuid-4a27da8d-03c6-4bfb-8f7a-d9edb2d1dec7" d="M30.24,8.8c0-.26,.12-.47,.32-.63,.09-.07,.23-.12,.34-.12,.06,0,.11,.01,.15,0,.01,0,.03,0,.04,.02,0,0,.01,.02,0,.03,0,.01-.01,.02-.02,.02-.16,0-.33,.22-.41,.34-.09,.14-.12,.31-.2,.46-.05,.1-.23-.03-.22-.12Z"/>
              <path class="uuid-e846de3d-dfa7-41ef-ad11-23d072b6ed81" d="M28.99,8.6c0-.13,.05-.22,.14-.31,.09-.08,.17-.16,.29-.13,.02,0,.06,.04,.03,.05-.08,.03-.13,.15-.17,.22-.04,.08-.07,.16-.09,.25-.02,.11-.2,0-.2-.08Z"/>
            </g>
            <path class="uuid-ea6d6657-c2fe-4717-8fe1-b87e3e768e97" d="M24.16,4.96c0-.09,.07-.72,.18-.92-.01,.64,.07,1.29,.37,1.87,.33,.65,.82,1.23,1.38,1.68,.54,.44,1.17,.84,1.84,1.01,.25,.06,.54,.14,.77,0,.15-.08,.27-.2,.39-.32-.03,.08-.05,.17-.05,.27,0,.06,.08,.1,.11,.04,.04-.09,.1-.17,.16-.25-.08,.29-.07,.57,.33,.56,.17,0,.42,.06,.55-.08,.13-.13,.21-.3,.3-.45-.04,.12-.06,.25,0,.36,.08,.18,.39,.15,.54,.14,.27-.02,.59,0,.83-.13,.13-.07,.2-.21,.28-.34,.1-.17,.21-.31,.37-.4-.11,.23-.28,.62-.08,.61,.05,0,.11-.06,.15-.1,.07,.19,.34,.19,.49,.18,.19,0,.47,.07,.61-.11,.13-.17,.22-.35,.4-.47,.06-.04,.11-.07,.17-.11-.05,.09-.09,.18-.11,.29,0,.05,.05,.08,.09,.06,.22-.14,.41-.29,.64-.37-.11,.07-.22,.15-.28,.27-.09,.17-.09,.4,.1,.51,.13,.07,.26,.1,.39,.14,.14,.04,.3,.12,.44,.1,.35-.05,.53-.41,.84-.49-.23,.14-.43,.37-.43,.65,0,.05,.06,.06,.09,.04,.21-.14,.49-.43,.77-.49-.23,.09-.45,.21-.56,.47,0,.02,0,.05,.02,.07,.21,.15,.46,.23,.67,.38,.12,.09,.26,.22,.41,.25,.11,.02,.21,.01,.3-.02-.1,.08-.18,.18-.22,.3-.01,.04,.02,.1,.07,.08,.18-.09,.36-.17,.55-.22-.13,.07-.26,.17-.34,.29-.14,.22,.15,.42,.3,.52,.17,.11,.34,.2,.52,.3,.14,.08,.26,.19,.41,.24,.11,.04,.23,0,.33-.05,.08-.05,.16-.1,.24-.14-.16,.12-.3,.26-.42,.42-.03,.04,0,.1,.05,.09,.17-.02,.33-.04,.5-.05-.1,.09-.18,.18-.13,.33,.1,.3,.55,.49,.77,.69,.16,.15,.24,.31,.37,.47,.06,.08,.13,.16,.24,.17,.08,0,.15,0,.22-.01-.22,.11-.43,.24-.59,.44-.03,.03,0,.1,.05,.09,.22-.04,.43-.1,.64-.17-.11,.06-.19,.14-.19,.24,0,.17,.1,.29,.21,.4,.15,.15,.27,.33,.43,.47,.33,.29,.81,.34,1.16,.14-.04,.06-.09,.12-.16,.17-.71,.51-1.71,.75-2.37,.08-.34-.34-.56-.81-.81-1.22-.34-.57-.7-1.11-1.09-1.65-2.48-3.49-5.23-3.14-6.42-3.15-1.25-.01-2.55,.29-3.77,.03-1.91-.41-3.98-2.24-4.04-4.24Z"/>
            <path class="uuid-c2585f27-6b1a-40aa-976e-8f78e50d987e" d="M35.34,16.61c.6,.3,1.36,.59,2.03,.51,.5-.07,1-.2,1.5-.25,.22-.02,.61-.07,.89,.03,0,0-.02,0-.03,0-.61,.07-1.16,.35-1.76,.46-1.01,.18-2.08-.08-2.9-.75-.15-.12-.28-.25-.42-.39,.22,.16,.45,.29,.69,.41Z"/>
            <path class="uuid-8cc029b8-8dad-4271-a01b-cf20a0dd0b26" d="M40.95,17.2c-.43,.06-.78-.35-1.22-.3-.61,.07-1.16,.35-1.76,.46-1.01,.18-2.08-.08-2.9-.75-.49-.4-.9-.93-1.25-1.46-.19-.29-.57-1.3-.47-1.45,.03-.05,.07-.1,.12-.14,.26-.08,.52-.13,.76-.19,.47-.11,.95-.16,1.43-.17,.89-.02,1.8,.17,2.6,.59,.41,.21,.77,.5,1.1,.83,.34,.34,.98,1.07,1.36,1.37,.2,.16,.93,1.14,.23,1.23Z"/>
            <path class="uuid-749c54e2-479e-4377-b51e-3a8ce590ca4d" d="M33.35,13.69c.03-.05,.07-.1,.12-.14,.26-.08,.52-.13,.76-.19,.47-.11,.95-.16,1.43-.17,.56-.01,1.13,.06,1.68,.22-.06-.01-.11-.02-.17-.03-.32-.05-.64-.08-.96-.02-.04,0-.06,.07-.01,.08,.17,.06,.34,.11,.51,.18-.45-.06-.91-.08-1.33,.04-.31,.08-.74,.23-.8,.61-.08,.51,.3,.99,.62,1.4-.13-.12-.27-.24-.41-.35-.03-.03-.08,0-.07,.05,.07,.2,.2,.37,.34,.53-.07-.06-.15-.11-.23-.16-.03-.02-.07,.02-.06,.05,.18,.45,.52,.85,.87,1.18-.2-.11-.39-.23-.56-.38-.49-.4-.9-.93-1.25-1.46-.19-.29-.57-1.3-.47-1.45Z"/>
            <g class="uuid-5ac80f2a-0ec5-46a1-a02a-1b7b95dc2d63">
              <path class="uuid-2ce7b0b8-fab3-4865-8f1f-a1943deb6324" d="M35.88,13.9s-.05-.04-.02-.04c.6-.11,1.55,.03,2.08,.38,.22,.14,.34,.29,.43,.54,.17,.46,.25,.89,.52,1.31,.01,.02-.03,.01-.03,0-.14-.15-.31-.31-.36-.51-.03-.1-.05-.19-.08-.29-.18-.11-.34-.21-.57-.26-.35-.08-.68-.07-1.03-.03-.02,0-.08-.04-.04-.05,.36-.12,.67-.1,1.04-.05,.28,.04,.4,.12,.57,.28-.05-.18-.11-.36-.19-.53-.36-.72-1.68-.66-2.32-.75Z"/>
              <path class="uuid-2ce7b0b8-fab3-4865-8f1f-a1943deb6324" d="M35.85,15.94c.54,.27,1.17,.48,1.76,.51,.57,.02,1.15,.01,1.72,.03,.03,0,.09,.06,.04,.07-.64,.06-1.31,.12-1.96,.06-.55-.05-1.09-.36-1.57-.63-.03-.01-.02-.05,.01-.04Z"/>
              <path class="uuid-2ce7b0b8-fab3-4865-8f1f-a1943deb6324" d="M39.17,16.19c.12,0,.24-.02,.36,0,.08,.01,.17,0,.25,.03,.08,.04,.11,.1,.15,.19,.04,.1,.1,.19,.13,.29,.02,.07-.09,.02-.11,0-.05-.06-.11-.11-.16-.18,0,0-.08-.17-.06-.17-.08,0-.18-.04-.26-.05-.09,0-.18-.03-.27-.05-.02,0-.07-.06-.02-.06Z"/>
            </g>
            <path class="uuid-0af4b7f2-56d7-4fa4-92c7-735e97490e24" d="M33.82,15.14c.36,.52,.76,1.05,1.25,1.46,.83,.68,1.89,.94,2.9,.75,.6-.11,1.15-.39,1.76-.46,.44-.05,.79,.36,1.22,.3,.69-.09-.03-1.07-.23-1.23-.02-.02-.05-.04-.07-.06,.17,.22,.33,.46,.41,.73,.01,.04-.03,.09-.07,.06-.26-.17-.48-.38-.72-.57-.15-.12-.3-.21-.47-.29-.09-.04-.2-.07-.27-.15-.08-.09-.1-.17-.12-.28-.04-.22-.08-.38-.2-.58-.22-.34-.54-.63-.83-.9-.1-.09-.21-.18-.32-.26-.75-.35-1.58-.51-2.4-.49-.48,.01-.96,.06-1.43,.17-.24,.06-.51,.11-.76,.19-.04,.04-.08,.09-.12,.14-.1,.15,.28,1.17,.47,1.45Zm1.32-.71c-.05-.18-.07-.34,.09-.46,.27-.2,.83-.12,1.16,0,.32,.01,.64,.04,.97,.15,.44,.15,.8,.38,.98,.83,.02,.05-.04,.08-.08,.06-.45-.3-1.13-.39-1.55-.04,.39,.09,.8,0,1.18,.14,.51,.17,.54,.82,1.01,1.04,.05,.02,.03,.09-.02,.1-.63,.08-1.28,.13-1.91,.01-.61-.11-1.09-.43-1.43-.96-.18-.27-.32-.57-.4-.88Z"/>
            <path class="uuid-00b3bfc1-b39e-48bd-89f2-2ab692a7ee83" d="M38.22,16.89s0-.08-.03-.09c-.58-.15-1.19-.23-1.72-.5,.27,.08,.55,.13,.84,.15,.35,.02,.71,.03,1.06,.03,.33,0,.57-.04,.84-.23,.39-.28,.6-.05,.85,.28,.14,.19,.3,.35,.49,.48,.26,.17,.51,.21,.65,.06-.04,.07-.12,.11-.25,.13-.43,.06-.78-.35-1.22-.3-.61,.07-1.16,.35-1.76,.46-.27,.05-.54,.06-.81,.05,.4-.07,.77-.24,1.06-.52Z"/>
            <path class="uuid-055c3050-8567-4362-8165-4cc3ae9836fc" d="M52.91,21.08c-.16-.21-.39-.39-.62-.56-.38-.29-.72-.63-1.07-.96-.37-.35-.75-.67-1.14-.99-.4-.33-.79-.68-1.2-1-.42-.33-.77-.65-.95-1.17-.14-.39-.27-.78-.51-1.12-.17-.24-.37-.45-.58-.64,.2,.1,.38,.24,.55,.41,.05,.05,.11-.02,.08-.08-.3-.57-.73-1-1.23-1.34,.35,.16,.68,.36,.93,.65,.52,.6,.79,1.47,1,2.22,.15,.52,4.42,3.99,4.73,4.58,0,0,0,.01,0,.02Z"/>
            <path class="uuid-01e22db9-354c-485a-aa31-4a40939d05ae" d="M45.18,16.11s.09-.05,.05-.09c-.12-.14-.26-.26-.41-.37,.35,.12,.61,.38,.86,.68,.04,.05,.13,0,.1-.05,0,0,0,0,0-.01h0c-.12-.23-.24-.45-.34-.68,.29,.26,.49,.62,.66,.98,.02,.16,.04,.32,.06,.48-.51-.43-1.04-.82-1.69-1.03-.73-.24-1.45-.19-2.18-.27,.52-.1,1.08-.14,1.59-.06,.46,.08,.87,.3,1.32,.42Z"/>
            <path class="uuid-a77a424e-b7c5-41bc-a81f-7721ca8b5db2" d="M44.82,19.99c-.11,.63,.15,1.07,.53,1.48-.55-.35-1.15-.89-.67-1.52,.04-.06-.04-.12-.09-.07-.1,.09-.19,.18-.26,.29-.01-.27,.16-.55,.38-.67,0,0,.01,0,.02,0,.05-.03,0-.13-.05-.1,0,0,0,0-.01,0h0c-.15,.09-.31,.15-.47,.23,.25-.29,.59-.46,.94-.6-.18,.28-.26,.69-.31,.96Z"/>
            <path class="uuid-268f2a0d-7adc-4f34-8697-370de11793c5" d="M34.03,.04c.63,1.3,1.62,2.54,2.71,3.46,.52,.44,1.08,.83,1.68,1.13,.15,.08,.25-.1,.31-.21,.13-.23,.36-.39,.61-.48-.1,.07-.19,.16-.26,.27-.04,.06,.04,.13,.09,.07,.13-.15,.35-.33,.57-.41,.03,0,.05,0,.07,0-.2,.25-.51,.43-.48,.82,.03,.33,.28,.37,.55,.43,.28,.06,.56,.16,.69-.17,.09-.21,.15-.42,.31-.59,.1-.1,.21-.18,.32-.24-.1,.09-.19,.21-.23,.35-.01,.04,.02,.1,.07,.08,.13-.06,.24-.15,.37-.22-.22,.2-.41,.46-.25,.72,.11,.19,.51,.25,.69,.31,.14,.05,.3,.09,.43,.17,.15,.09,.28,.21,.42,.31,.05,.03,.1,0,.09-.06-.1-.36-.37-.56-.65-.75,.19,.05,.36,.14,.53,.23,.03,.01,.06,0,.07-.03,.11-.31,.32-.45,.58-.55-.1,.11-.18,.25-.24,.41-.02,.05,.04,.11,.08,.07,.17-.15,.39-.29,.61-.3-.2,.09-.42,.2-.47,.42-.05,.21,.07,.4,.18,.57,.11,.17,.23,.55,.47,.57,.24,.01,.45,0,.67,.01-.24,0-.47,.04-.63,.23-.03,.04,0,.1,.05,.09,.3-.04,.77-.19,1.01,.07-.25-.05-.55-.12-.75,.02-.22,.15-.19,.38-.12,.62,.06,.18,.12,.34,.13,.53,0,.11,.01,.18,.11,.23,.13,.06,.34,.01,.48,.04,.12,.02,.22,.05,.31,.1-.26-.09-.55-.09-.79,.03-.04,.02-.05,.1,.01,.11,.22,.03,.42,0,.63,.1,.16,.07,.29,.16,.39,.3-.05-.03-.09-.06-.14-.09-.11-.05-.22-.1-.34-.11-.15-.01-.34-.02-.48,.06-.37,.2-.2,.86-.16,1.2,0,.03,.03,.06,.06,.05,.34-.06,.75-.11,1.04,.11-.32-.08-.7,0-.96,.17-.05,.04,0,.12,.05,.1,.21-.07,.41,0,.6,.09-.2,0-.42,.03-.52,.2-.13,.22-.12,.52-.1,.77,0,.14-.09,.53,.07,.63,.09,.06,.24,.03,.34,.05,.15,.02,.3,.06,.42,.15-.29-.05-.59-.08-.76,.21-.06,.11-.06,.26-.05,.39,.01,.17,0,.39,.08,.55,.14,.3,.51,.46,.81,.39,0,0,0,0,0,0-.45,.41-1.5-.13-1.74-.55-.24-.42,0-2.63-.02-3.23-.01-.5,0-1.09-.04-1.67-.02,0-.03-.02-.04-.04-.02-.21-.03-.44-.05-.68-.14-.7-.43-1.33-1.06-1.72-.3-.18-.7-.31-1.05-.34-.55-.05-1.1-.08-1.65-.16-.95-.12-2-.4-2.81-.96-.41-.28-.73-.71-1.09-1.05-.11-.14-.21-.28-.32-.43-.42-.61-.78-1.26-1.14-1.91-.12-.22-.24-.44-.33-.67-.04-.11-.1-.32-.06-.41Z"/>
          </g>
        </g>
      </g>
    </g>
  </g>
</svg>