<?xml version="1.0" encoding="UTF-8"?>
<svg id="uuid-d780b162-2337-437c-8f1e-e9c22f9a460c" data-name="Layer 2" xmlns="http://www.w3.org/2000/svg" viewBox="0 0 371.71 470.7">
  <defs>
    <style>
      .uuid-c7e7d5f5-6145-499b-a8b0-6ceb6b8384c1 {
        fill: #cc506a;
      }

      .uuid-ecea73b0-cd58-438a-bf06-b8ece8216477 {
        opacity: .7;
      }

      .uuid-c7cfc6b1-d33e-4229-8ecb-79fd9e431727 {
        fill: #f2618d;
      }

      .uuid-84420226-a444-44ff-932a-b94a381a2185 {
        opacity: .5;
      }

      .uuid-aa5626e4-769a-439d-b665-dd6fa7cb95db {
        fill: #d1607d;
      }

      .uuid-0c4afa1c-87a3-43c6-befa-ed93a6e33c70 {
        fill: #ff8aa0;
      }

      .uuid-f1fa1e59-d88d-4649-9698-1567f917e17b {
        fill: #fff9ee;
      }

      .uuid-7aea3c20-4db7-4d18-95d8-50125c6a500e {
        fill: #b2465d;
      }

      .uuid-171e32f2-0d1d-4efa-b9d5-c6321d9e8cc8 {
        fill: #77203f;
      }

      .uuid-cade0534-72ab-4d96-9f32-9501aea98c87 {
        fill: #b23b5b;
      }

      .uuid-d1e2cbdd-8645-40a4-b071-51536d1d5e68 {
        fill: #a03552;
      }

      .uuid-7306ade6-04d3-48ec-b077-06d738fc08b6 {
        fill: #bc4a68;
      }

      .uuid-59ee3819-cd36-43c3-9557-e63dea8656a8 {
        fill: #bf3d63;
      }

      .uuid-3e19d0fa-a8eb-4a6e-be60-adef05e59c2f {
        opacity: .75;
      }

      .uuid-05b3c2c6-72b3-45e7-979f-00c61e90dece {
        fill: #bc3f66;
      }

      .uuid-324ded00-d19d-4ab5-a081-8591e2a48c95 {
        fill: #120438;
      }

      .uuid-3984c956-ede4-4098-b791-e910b8210173 {
        fill: #963251;
      }

      .uuid-6ada0014-a6c6-4ccc-946f-f40aefeae5bc {
        fill: #ef7b94;
      }

      .uuid-93289398-6038-4545-9810-aca370d5e3cc {
        fill: #bc506c;
      }

      .uuid-b63f250d-7651-457b-9aae-f7d1dbf9d9cd {
        fill: #8c2d4f;
      }

      .uuid-390ed4e9-e005-4e30-9528-a3d10ac3a330 {
        fill: #c64e6a;
      }

      .uuid-8422f0df-6deb-4404-a2e6-4ada717dd116 {
        fill: #d65473;
      }

      .uuid-d69724f9-4a44-4de1-9443-42c7fd18f294 {
        fill: #c65367;
      }

      .uuid-d8a9e2e8-135a-4f1f-b374-75f12bd428ab {
        fill: #d65b7b;
      }
    </style>
  </defs>
  <g id="uuid-10acb3b7-59c0-4372-bd7e-4e2f39185c36" data-name="OBJECTS">
    <g>
      <g>
        <g>
          <path class="uuid-d1e2cbdd-8645-40a4-b071-51536d1d5e68" d="M199.06,320.31c-1.04,.08-2.07,.37-3.09,.93-2.77,1.52-3.84,4.88-4.52,7.95-.88,4.01-1.51,8.12-1.1,12.21,.35,3.57,1.49,10.62,.18,15.21,7.42-10.35,7.49-23.96,8.54-36.31Z"/>
          <path class="uuid-d1e2cbdd-8645-40a4-b071-51536d1d5e68" d="M150.79,363.57c4.9,3.33,11.62,7.68,17.8,7.44,7.67-.3,13.32-5.13,18.38-10.25-1.11,.3-2.49,.25-4.21-.29-12.44-3.88-18.91-12.6-24.35-23.58-2.64-5.34-4.95-11.16-4.32-17.07,1.52-14.31,16.27-20.74,26.08-28.74,9.88-8.06,19.79-16.14,30.46-23.17,10.33-6.81,22.35-12.07,29.99-21.99,5.23-6.79,10.41-13.52,14.69-20.97,7.55-13.12,16.02-34.54-2.08-43.33-1.72-.83-8.38-3.39-6.77,1.05,.67,1.86,6.56,3.25,8,5.2,7.21,9.77,2.81,23.48-1.92,33.26-6.14,12.7-14.8,19.84-26.86,27.06-13.25,7.93-27.55,13.86-41.31,20.82-6.75,3.41-12.49,6.05-19.72,8.19-22.07,6.55-36.66,25.01-34.76,46.85,.04,.18,.07,.36,.12,.55,3.33,14.6,7.75,30.09,20.8,38.96Z"/>
          <path class="uuid-7306ade6-04d3-48ec-b077-06d738fc08b6" d="M212.61,329.95c-2.4-4.17-7.95-10.07-13.55-9.64-1.05,12.34-1.12,25.95-8.54,36.31-.59,2.07-1.67,3.63-3.55,4.15-5.06,5.12-10.71,9.95-18.38,10.25-6.18,.24-12.9-4.11-17.8-7.44-13.06-8.87-17.48-24.37-20.8-38.96-.04-.18-.08-.36-.12-.55,.3,3.42,.98,6.91,2.13,10.46,8.56,26.65,25.86,47.74,53.14,56.37,8.99,2.84,18.66,2.49,26.32-3.42,8.95-6.91,12.35-19.21,11.06-30.43-1.1-9.59-5.1-18.76-9.89-27.09Z"/>
        </g>
        <g>
          <path class="uuid-93289398-6038-4545-9810-aca370d5e3cc" d="M137.04,314.23c.11,2.23,.17,3.98,.31,6.22-1.48-1.67-1.58-4.4-.31-6.22h0Z"/>
          <path class="uuid-93289398-6038-4545-9810-aca370d5e3cc" d="M135.41,326.09c1.09,1.41,1.68,2.65,2.21,4.35-1.6-.77-2.48-2.61-2.21-4.35h0Z"/>
          <path class="uuid-93289398-6038-4545-9810-aca370d5e3cc" d="M148.29,296.35c-.43-2.39,1.33-4.7,3.38-5.74-1.08,2.11-2.38,3.58-3.38,5.74h0Z"/>
          <path class="uuid-93289398-6038-4545-9810-aca370d5e3cc" d="M236.56,245.39c1.05-2.33,2.92-4.1,5.16-5.28-1.31,2.2-3.07,3.84-5.16,5.28h0Z"/>
          <path class="uuid-93289398-6038-4545-9810-aca370d5e3cc" d="M260.61,192.56c1.14,.52,1.47,2.05,.66,3-.62-1.1-.75-1.75-.66-3h0Z"/>
          <path class="uuid-93289398-6038-4545-9810-aca370d5e3cc" d="M145.72,319.3c.57,1.46,.7,2.46,.87,4-1.39-.75-1.73-2.73-.87-4h0Z"/>
        </g>
        <g>
          <path class="uuid-7aea3c20-4db7-4d18-95d8-50125c6a500e" d="M197.77,359.31c-3.76,.87-2.04,7.8,1.13,4.82,1.41-1.33,1.79-5.49-1.13-4.82Z"/>
          <path class="uuid-7aea3c20-4db7-4d18-95d8-50125c6a500e" d="M215.2,372.01c.07,1.01-.31,2.22-1,2.97-.36,.4-.93,.66-1.45,.52-.33-.09-.61-.32-.82-.58-.91-1.11-1.35-4.06-.24-5.19,1.73-1.75,3.39,.65,3.51,2.28Z"/>
          <path class="uuid-7aea3c20-4db7-4d18-95d8-50125c6a500e" d="M202.93,385.47c1.41-1.8,.07-5.97-2.03-3.6-1.47,1.66-.37,6.7,2.03,3.6Z"/>
          <path class="uuid-7aea3c20-4db7-4d18-95d8-50125c6a500e" d="M188.58,372.81c2.09-.93,1.34-3.28-.71-2.05-1.75,1.05-.66,2.96,.71,2.05Z"/>
          <path class="uuid-7aea3c20-4db7-4d18-95d8-50125c6a500e" d="M182.47,387.28c3.36,1.21,5.6-1.5,1.51-2.49-2.59-.63-4.97,1.52-1.51,2.49Z"/>
          <path class="uuid-7aea3c20-4db7-4d18-95d8-50125c6a500e" d="M213.84,345.23c1.35,1.09,1.91-1.38,1.76-2.14-.16-.8-1.22-3.54-1.9-3.98-1.32-.87-2.51,.53-2.42,1.93,.08,1.28,1,3.46,2.56,4.2Z"/>
        </g>
      </g>
      <g>
        <path class="uuid-0c4afa1c-87a3-43c6-befa-ed93a6e33c70" d="M339.49,153.76c-.55-6.02-3.1-8.81-5.88-14.27-.9-1.76-3.77-3.6-6.08-5.38,.71,.92,1.39,1.87,2.21,2.67,1.07,1.05,2.1,2.17,2.8,3.51,2.62,5.05,4.85,11.16,5.63,16.8,.6,4.31,.3,8.85-1.66,12.81-1.42,2.87-3.37,5.37-5.7,7.56,.37-.25,.73-.49,1.1-.76,8.76-6.23,8.27-15.44,7.58-22.96Z"/>
        <path class="uuid-0c4afa1c-87a3-43c6-befa-ed93a6e33c70" d="M261.77,223.49c-4.24,9.7-.68,24.81,4.5,32.81,4.66,7.19,9.39,14.46,15.77,20.2,2.19,1.97,4.56,3.56,6.91,5.18-1.41-1.45-2.8-2.86-4.15-4.23-9.89-10.03-18.67-23.73-20.73-37.95-2.27-15.65,8.84-23.57,21.86-30.37,.27-.14,.56-.28,.84-.43-9.93,1.93-20.21,3.85-25,14.8Z"/>
        <g>
          <path class="uuid-b63f250d-7651-457b-9aae-f7d1dbf9d9cd" d="M341.23,147.95c-.73-1.62-1.45-3.32-2.33-4.87-2.54-4.49-5.8-9.34-10.56-11.78-.94-.48-2.16-.92-2.96-.24-.26,.4,.14,.89,.5,1.21,.62,.55,1.15,1.19,1.65,1.84,2.31,1.78,5.18,3.62,6.08,5.38,2.78,5.46,5.33,8.24,5.88,14.27,.69,7.52,1.18,16.73-7.58,22.96-.37,.26-.73,.51-1.1,.76-8.98,8.5-23.55,12.42-34.74,14.9-16.59,3.67-34.53,7.73-45.37,22.01-4.35,5.72-7.68,10.37-8.28,17.84-1.35,16.69,6.24,31.59,17.21,43.68,11.57,12.77,23.09,25.53,31.4,40.8,3.24,5.96,5.99,14.7,3,20.65-1.34,2.65-2.62,5.68-4.15,8.23-4.47,7.43-16.54,12.61-25.39,11.97-9.6-.7-15.71-12.34-19.05-19.96-6.69-15.25-14.99-30.76-29.01-39.88-2.51-1.63-5.54-3.09-8.42-2.24-3.6,1.06-5.31,5.43-4.72,9.11,.53,3.34-.11,6.21,1.32,9.03,4.68-1.68,9.2,.36,13.12,2.98,5.76,3.85,11.47,7.65,16.49,12.52,7.61,7.38,11.05,20.31,18.57,27.78,5.05,5.02,10.05,8.5,15.55,13.03,1.9,1.56,7.2,.37,9.52,1.55,.48,.08,.96,.13,1.46,.16,3.87,.21,7.7-1.04,11.55-1.36,11.01-.92,18.26-8.57,22.56-18.37,.9-2.04,1.62-4.1,2.27-6.18,1.09-4.8,1.55-9.9,1.36-15.24-.69-19.14-15.22-35.6-28.1-48.82-2.35-1.62-4.72-3.21-6.91-5.18-6.38-5.73-11.12-13.01-15.77-20.2-5.18-8-8.75-23.11-4.5-32.81,4.79-10.94,15.08-12.87,25-14.8,17.4-8.84,48.46-17.36,54.87-37.19,1.42-4.4,1.65-8.7,2-13.31,.27-3.57-.97-7.04-2.42-10.25Z"/>
          <path class="uuid-aa5626e4-769a-439d-b665-dd6fa7cb95db" d="M313.43,351.91c-4.3,9.8-11.56,17.45-22.56,18.37-6.39,.53-12.18,2-18.33-.72-4.09-1.81-7.62-4.66-10.92-7.67-10.82-9.87-16.95-22.64-27.4-32.77-5.02-4.87-10.73-8.68-16.49-12.52-3.93-2.62-8.44-4.66-13.12-2.98,.15,.29,.31,.58,.5,.86,12.64,18.97,22.57,43.35,40.43,58.54,11.75,10,33.14,10.35,46.19,3.65,1.51-.77,2.92-1.63,4.29-2.51,10.49-6.76,17.01-16.66,19.69-28.43-.65,2.07-1.38,4.14-2.27,6.18Zm-33.62,20.48c-.32-.13-.63-.27-.94-.42,.31,.14,.63,.28,.94,.42Zm.97,.39c-.3-.11-.6-.23-.9-.35,.3,.12,.6,.24,.9,.35Zm4.25,1.15c.34,.05,.68,.1,1.02,.13-.34-.03-.68-.08-1.02-.13Zm-4.12-1.1c.28,.1,.56,.2,.85,.29-.28-.09-.57-.19-.85-.29Zm1.03,.35c.26,.08,.53,.16,.79,.23-.26-.07-.53-.15-.79-.23Zm1.03,.3c.25,.07,.5,.13,.75,.18-.25-.06-.5-.12-.75-.18Zm1.03,.25c.25,.05,.5,.1,.75,.14-.25-.04-.5-.09-.75-.14Z"/>
        </g>
        <g>
          <path class="uuid-59ee3819-cd36-43c3-9557-e63dea8656a8" d="M252.1,242.24c2.1,2.61,2.45,6.11,4.61,8.69-3.17-1.57-3.81-5.57-4.61-8.69h0Z"/>
          <path class="uuid-59ee3819-cd36-43c3-9557-e63dea8656a8" d="M255.32,253.67c.85,.05,1.2,.56,.92,1.37-.85-.05-1.2-.57-.92-1.37h0Z"/>
          <path class="uuid-59ee3819-cd36-43c3-9557-e63dea8656a8" d="M294.02,293c3.48,2.46,6.54,5.49,8.75,9.15-3.26-2.75-6.22-5.7-8.75-9.15h0Z"/>
          <path class="uuid-59ee3819-cd36-43c3-9557-e63dea8656a8" d="M305.08,356.56c2.09-4.43,3.16-9.2,5.99-13.26-1.56,4.6-2.71,9.53-5.99,13.26h0Z"/>
          <path class="uuid-59ee3819-cd36-43c3-9557-e63dea8656a8" d="M307.85,340.1c.68,2.01,1.24,5.12-.92,6.4,.93-2.11,.17-4.21,.92-6.4h0Z"/>
          <path class="uuid-59ee3819-cd36-43c3-9557-e63dea8656a8" d="M274.67,286.59c1.77,1.25,3.11,2.67,4.15,4.57-1.97-.88-3.48-2.51-4.15-4.57h0Z"/>
          <path class="uuid-59ee3819-cd36-43c3-9557-e63dea8656a8" d="M294.95,199.71c2.17-.75,4.17-.83,6.45-.91-1.83,1.41-4.3,1.55-6.45,.91h0Z"/>
          <path class="uuid-59ee3819-cd36-43c3-9557-e63dea8656a8" d="M300.47,196.05c1.74-.89,3.19-1.28,5.07-1.83-1.01,1.69-3.22,2.35-5.07,1.83h0Z"/>
          <path class="uuid-59ee3819-cd36-43c3-9557-e63dea8656a8" d="M332.73,182.34c.22-1.32,1.03-2.3,2.3-2.74-.25,1.37-1.01,2.26-2.3,2.74h0Z"/>
          <path class="uuid-59ee3819-cd36-43c3-9557-e63dea8656a8" d="M247.95,227.61c.26,2.4-.2,4.57-.92,6.86-.66-2.33-.16-4.74,.92-6.86h0Z"/>
          <path class="uuid-59ee3819-cd36-43c3-9557-e63dea8656a8" d="M275.59,360.22c2.88-.57,5.44-.65,8.29-1.37-2.2,2-5.55,2.2-8.29,1.37h0Z"/>
          <path class="uuid-7aea3c20-4db7-4d18-95d8-50125c6a500e" d="M266.14,365.34c6.25,5.85,17.37,5.79,25.4,4.7,1.1-.16,2.7-.47,3.78-.69-8.46,3.27-23,3.71-29.19-4.01h0Z"/>
          <path class="uuid-59ee3819-cd36-43c3-9557-e63dea8656a8" d="M300.47,321.8c1.13,1.6,1.57,3.61,.92,5.49-.74-1.83-1.12-3.51-.92-5.49h0Z"/>
          <path class="uuid-59ee3819-cd36-43c3-9557-e63dea8656a8" d="M263.15,209.32c1.01-1.49,2.38-2.4,4.15-2.74-.97,1.47-2.41,2.42-4.15,2.74h0Z"/>
        </g>
        <g>
          <path class="uuid-171e32f2-0d1d-4efa-b9d5-c6321d9e8cc8" d="M295.87,367.53c1.09-1.78,2.72-2.85,4.61-3.66-.98,1.85-2.68,2.96-4.61,3.66h0Z"/>
          <path class="uuid-171e32f2-0d1d-4efa-b9d5-c6321d9e8cc8" d="M308.31,317.69c.95,.84,1.29,1.98,.92,3.2-.97-.88-1.27-1.94-.92-3.2h0Z"/>
          <path class="uuid-171e32f2-0d1d-4efa-b9d5-c6321d9e8cc8" d="M302.78,312.66c1.3,.63,2.12,1.77,2.3,3.2-1.34-.68-2.08-1.72-2.3-3.2h0Z"/>
          <path class="uuid-171e32f2-0d1d-4efa-b9d5-c6321d9e8cc8" d="M260.85,263.73c1.63,.36,2.88,1.28,3.69,2.74-1.63-.35-2.88-1.29-3.69-2.74h0Z"/>
          <path class="uuid-171e32f2-0d1d-4efa-b9d5-c6321d9e8cc8" d="M253.48,218.46c.8-2.17,2.69-3.45,4.61-4.57-.95,2.11-2.77,3.3-4.61,4.57h0Z"/>
          <path class="uuid-171e32f2-0d1d-4efa-b9d5-c6321d9e8cc8" d="M316.14,189.65c1.71-1.36,3.47-2.07,5.53-2.74-1.24,1.8-3.39,2.7-5.53,2.74h0Z"/>
          <path class="uuid-171e32f2-0d1d-4efa-b9d5-c6321d9e8cc8" d="M341.94,154.44c.66,1.84,.44,3.77-.46,5.49-.47-1.9-.25-3.68,.46-5.49h0Z"/>
        </g>
        <g>
          <path class="uuid-7aea3c20-4db7-4d18-95d8-50125c6a500e" d="M232.91,349c-.31-.42-1.44-.42-1.17,1.04,.17,.92,1.73,2.52,2.56,2.97,3.16,1.76,1.27-3.35-1.38-4.01Z"/>
          <path class="uuid-7aea3c20-4db7-4d18-95d8-50125c6a500e" d="M242.79,368.76c1.03-.03,2.84,1.55,2.96,2.54-1.47,.64-3.46-1.52-2.96-2.54Z"/>
          <path class="uuid-7aea3c20-4db7-4d18-95d8-50125c6a500e" d="M287.39,376.33c.36-.78,3.33-2.31,3.6-1.05,.25,1.2-3.28,1.91-3.6,1.05Z"/>
          <path class="uuid-7aea3c20-4db7-4d18-95d8-50125c6a500e" d="M300.26,369.65c.63-.77,1.48-1.27,2.41-1.47,.67,1.22-1.12,2.23-1.99,2.81-.61,.4-3.33,1.43-.41-1.34Z"/>
        </g>
        <g>
          <path class="uuid-7aea3c20-4db7-4d18-95d8-50125c6a500e" d="M258.95,368.31c1.27,.11,2.12,.74,2.54,1.93-1.24-.08-2.15-.76-2.54-1.93h0Z"/>
          <path class="uuid-7aea3c20-4db7-4d18-95d8-50125c6a500e" d="M262.4,374.85c.57-.47,.93-.3,.9,.45-.57,.47-.92,.29-.9-.45h0Z"/>
          <path class="uuid-7aea3c20-4db7-4d18-95d8-50125c6a500e" d="M215.4,322.26c.78-.08,1.07,.32,.75,1.04-.78,.08-1.07-.33-.75-1.04h0Z"/>
          <path class="uuid-7aea3c20-4db7-4d18-95d8-50125c6a500e" d="M220.49,335.33c1.71,1.49,2.77,3.34,3.44,5.5-1.81-1.37-2.91-3.31-3.44-5.5h0Z"/>
        </g>
      </g>
      <path class="uuid-3984c956-ede4-4098-b791-e910b8210173" d="M335.79,290.09c-3.36-6.69-8.11-12.58-12.54-18.62-12.96-17.66-24.63-36.93-28.59-58.61-1.94-10.65-1.51-21.67-1.03-32.42,.53-11.78,2.97-23.6,8.34-34.21,4.13-8.17,7.09-17.08,12.71-24.31,5.41-6.97,9.46-14.92,11.44-23.61,1.9-8.33,1.41-17.33-2.72-24.68-6.02-10.74-15.62-17.08-27.79-19.09-12.05-1.99-21.67,1.17-32.18,7.21-11.94,6.86-19.75,16.77-28,27.14-4.73,5.94-9.92,14.11-11.14,21.57-.59,3.59-1.54,20.95-1.31,27.1,2.27-2.75,4.63-6.08,6.94-9.7,5.69-8.94,11.01-19.69,13.49-28.04,1.08-3.64,1.96-7.38,3.53-10.81,.43-.94,.9-1.86,1.45-2.75,2.29-3.67,6.55-9.55,10.18-12.15,9.68-6.93,18.83-13.37,34.84-11.53v-.09c3.47,.81,6.88,1.79,9.9,3.52,5.79,3.3,10.22,9.46,12.75,15.51,6.82,16.3-6.52,31.79-14.02,45.5-3.98,7.27-7.96,14.56-10.94,22.27-12.43,32.21-6.76,69.31,7.76,99.9,8.37,17.62,21.88,29.97,30.45,47.37,7.17,14.57,5.76,36.45,1.42,51.99-5.07,18.13-27.28,28.23-46.25,24.65-12.35-2.33-23.18-10.27-31.94-19.47-10.11-10.61-17.24-22.66-25.79-34.3-2.59-3.53-6.44-6.72-10.98-6.57-1.37,3.57,.22,7.43,1.93,10.77,13.01,25.51,38.52,54.05,69.63,57.62,20.11,2.31,41.33-7.3,49.78-25.1,9.3-19.59,8.15-47.21-1.31-66.05Z"/>
      <g>
        <g>
          <path class="uuid-390ed4e9-e005-4e30-9528-a3d10ac3a330" d="M278.59,358.34c10.5,9.76,33.74,27.85,47.21,13.38,8.04-8.64,1.23-18.46-2.93-27.32-5.86-12.5-12.85-24.7-22.83-34.42-11.15-10.85-26.28-18.49-25.63-36.01,.11-3.08,.72-6.21,2.26-8.89,1.08-1.87,2.59-3.47,3.76-5.3,2.37-3.7,3.21-9.84,3.24-15.58-.38-5.12-1.06-9.88-3.88-14.43-7.06-11.38-20.73-18.73-33.09-22.58-8.7-2.72-18.75-4.54-26.42-9.65-8.21-5.46-12.92-15.69-11.73-25.48,.34-2.79,1.06-5.83-.39-8.23-1.49-.26-2.28,1.69-2.46,3.18-.75,6.45-.63,13.1,1.34,19.28,3.43,10.71,12.66,16.41,22.44,20.77,11.53,5.14,21.11,10.41,30.57,19.03,4.51,4.11,8.42,9.17,9.82,15.11,3.99,16.9-10.05,34.2-1.33,50.45,7.91,14.74,20.93,26.34,29.76,40.54,5.85,9.42,21.44,28.06,2.5,33.33-10.35,2.88-20.21-5.08-26.78-12-11.01-11.62-20.16-25.42-33.78-33.86-2.96-1.84-6-3.59-9.27-1.45,18.86,3.25,34.6,28.06,47.61,40.14Z"/>
          <path class="uuid-aa5626e4-769a-439d-b665-dd6fa7cb95db" d="M283.84,246.64c-.05-.82-.1-1.64-.16-2.44-.03,5.74-.87,11.88-3.24,15.58-1.17,1.82-2.68,3.42-3.76,5.3-1.55,2.68-2.15,5.81-2.26,8.89-.65,17.52,14.48,25.16,25.63,36.01,9.98,9.72,16.97,21.92,22.83,34.42,4.16,8.86,10.97,18.68,2.93,27.32-13.47,14.47-36.71-3.62-47.21-13.38-13-12.08-28.75-36.89-47.61-40.14-.2,.13-.41,.28-.61,.45-2.33,1.87-3.16,5.05-3.25,8.02-.17,5.96,2.13,11.77,5.43,16.73,3.31,4.96,7.59,9.18,11.84,13.36,8.23,8.1,16,16.75,25.14,23.86,5.88,4.57,11.91,8.1,18.13,10.25,10.5,3.63,21.55,3.33,33.39-2.49,18.34-9.01,11.34-37,3.62-50.93-9.19-16.6-24.45-29.24-34.78-45.11-4.91-7.53-5.84-15.28-4.72-24.28,.89-7.08-.89-14.2-1.34-21.43Z"/>
        </g>
        <g>
          <path class="uuid-cade0534-72ab-4d96-9f32-9501aea98c87" d="M269.71,276.58c-1-2.09-.46-5.01,1.51-6.36-.78,2.23-1.07,4.05-1.51,6.36h0Z"/>
          <path class="uuid-cade0534-72ab-4d96-9f32-9501aea98c87" d="M269.27,269.79c.48-1.72,1.11-2.93,2.11-4.4,.4,1.74-.55,3.58-2.11,4.4h0Z"/>
          <path class="uuid-cade0534-72ab-4d96-9f32-9501aea98c87" d="M266.22,222.26c1.11,.15,1.67,.54,2.18,1.55-1.09,.27-2.07-.44-2.18-1.55h0Z"/>
          <path class="uuid-cade0534-72ab-4d96-9f32-9501aea98c87" d="M251.34,215.76c1.67-.6,3.64,.02,4.66,1.47-1.77-.25-3.06-.67-4.66-1.47h0Z"/>
          <path class="uuid-cade0534-72ab-4d96-9f32-9501aea98c87" d="M228.95,203.54c1.15-.26,2.15,.27,2.6,1.36-1.19,.07-1.98-.36-2.6-1.36h0Z"/>
          <path class="uuid-cade0534-72ab-4d96-9f32-9501aea98c87" d="M313.47,340.33c1.88,1.59,4.64,4.05,3.94,6.76-.77-2.57-3.1-4.21-3.94-6.76h0Z"/>
        </g>
        <g>
          <path class="uuid-aa5626e4-769a-439d-b665-dd6fa7cb95db" d="M277.01,239.01c1.04,1.15,1.35,2.69,.79,4.14-.83-1.32-1.07-2.61-.79-4.14h0Z"/>
          <path class="uuid-aa5626e4-769a-439d-b665-dd6fa7cb95db" d="M271.01,232.14c1.55,.78,2.58,1.98,3.09,3.64-1.54-.75-2.6-2.01-3.09-3.64h0Z"/>
          <path class="uuid-aa5626e4-769a-439d-b665-dd6fa7cb95db" d="M293.34,310.19c2.31,1.17,4.43,2.7,5.69,5.01-2.23-1.33-4.27-2.8-5.69-5.01h0Z"/>
          <path class="uuid-aa5626e4-769a-439d-b665-dd6fa7cb95db" d="M298.25,318.02c1.68,1.66,3.27,3.5,3.58,5.92-1.55-1.8-3.07-3.54-3.58-5.92h0Z"/>
          <path class="uuid-aa5626e4-769a-439d-b665-dd6fa7cb95db" d="M212.86,193.09c.8-.29,1.33,.04,1.39,.89-.8,.3-1.32-.04-1.39-.89h0Z"/>
        </g>
        <g class="uuid-3e19d0fa-a8eb-4a6e-be60-adef05e59c2f">
          <path class="uuid-7aea3c20-4db7-4d18-95d8-50125c6a500e" d="M289.97,380.51c0,.21-.03,.43-.12,.69-.59,1.73-2.69,1.29-4.03,.77-1.03-.41-2.33-1.11-2.87-2.13-.3-.59-.25-1.38,.12-1.9,.27-.39,.72-.63,1.31-.52,.48,.09,.91,.36,1.33,.6,1.24,.69,4.19,.82,4.25,2.49Z"/>
          <path class="uuid-7aea3c20-4db7-4d18-95d8-50125c6a500e" d="M254.22,355.65c.57,1,1.53,1.77,2.64,2.09,.57,.17,1.32,.16,1.62-.36,1.22-2.14-4.2-5.57-4.52-2.67-.03,.3,.09,.6,.23,.87,.01,.02,.02,.05,.04,.07Z"/>
          <path class="uuid-7aea3c20-4db7-4d18-95d8-50125c6a500e" d="M259.58,371.86c-.09,.61,1.06,1.71,1.49,2.07,.68,.57,3.04,1.82,3.54,.55,.49-1.23-1.24-2.91-2.18-3.3-.65-.27-1.45-.35-2.11-.05-.48,.22-.7,.46-.74,.73Z"/>
          <path class="uuid-7aea3c20-4db7-4d18-95d8-50125c6a500e" d="M260.05,365.55c.37,.41,.83,.71,1.25,.71,.43,0,.87-.31,.91-.74,.03-.34-.19-.64-.41-.89-.23-.27-.48-.51-.75-.74-.28-.24-.59-.46-.96-.5-1.28-.14-.86,1.27-.03,2.17Z"/>
          <path class="uuid-7aea3c20-4db7-4d18-95d8-50125c6a500e" d="M311.98,387.97c.3,.03,.61,.05,.91,.05,.61,0,1.25-.03,1.81-.28s1.05-.74,1.13-1.35c.26-2.07-5.4-1.7-6.11-.33-.18,.34,0,.76,.26,1.04,.5,.55,1.24,.78,2,.86Z"/>
          <path class="uuid-7aea3c20-4db7-4d18-95d8-50125c6a500e" d="M276.2,276.36c-.08,.14-.15,.28-.2,.43-.65,1.67-.32,4.22,1.18,5.4,1.38,1.09,2.06-1.04,1.72-2.05-.41-1.21-.58-2.47-1.01-3.68-.08-.22-.17-.44-.35-.58-.28-.21-.69-.15-.97,.06-.15,.11-.27,.26-.37,.42Z"/>
          <path class="uuid-7aea3c20-4db7-4d18-95d8-50125c6a500e" d="M281.92,263.6c-.19,.81-.17,1.66,.22,2.26,.43,.68,1.34,.65,1.8,.03,.66-.87,.59-2.04,.48-3.06-.09-.9-.2-2.6-1.43-1.34-.47,.48-.88,1.28-1.07,2.1Z"/>
          <path class="uuid-7aea3c20-4db7-4d18-95d8-50125c6a500e" d="M324.69,338.7c-.36-.83-.79-1.57-1.3-2.31-.33-.47-1.76-1.65-1.63-2.28,.29-1.43,1.83,.98,2.1,1.37,.81,1.17,1.15,1.77,.83,3.21Z"/>
          <path class="uuid-7aea3c20-4db7-4d18-95d8-50125c6a500e" d="M301.53,307.72c-.05,.11,2.11,3.28,3.03,3.07,.09-.92-1.96-4.29-3.03-3.07Z"/>
          <path class="uuid-7aea3c20-4db7-4d18-95d8-50125c6a500e" d="M316.99,328.77c-.03,.6,1.24,3.24,1.96,2.28,.47-.63-1.5-2.8-1.96-2.28Z"/>
          <path class="uuid-7aea3c20-4db7-4d18-95d8-50125c6a500e" d="M295.94,377.26c.55,.23,3.08,1.42,2.84,2.39-.21,.86-1.65,.42-2.16,.3-.72-.17-1.68-.49-2.03-1.24-.27-.58-.01-1.5,1.35-1.45Z"/>
          <path class="uuid-7aea3c20-4db7-4d18-95d8-50125c6a500e" d="M289.16,390.77c-.19,.13-.4,.15-.59,.29,.63,1.38,5.21,2.23,6.67,1.78-.2-2.5-5.32-2.65-6.08-2.07Z"/>
        </g>
        <g class="uuid-3e19d0fa-a8eb-4a6e-be60-adef05e59c2f">
          <path class="uuid-7aea3c20-4db7-4d18-95d8-50125c6a500e" d="M285.4,294.19c1.33,1.59,2.79,2.5,3.88,4.3-1.89-.62-3.86-2.14-3.88-4.3h0Z"/>
          <path class="uuid-7aea3c20-4db7-4d18-95d8-50125c6a500e" d="M272.3,364.69c2.01,.83,3.38,2.26,4.72,3.93-2.12-.53-3.65-2.1-4.72-3.93h0Z"/>
          <path class="uuid-7aea3c20-4db7-4d18-95d8-50125c6a500e" d="M274.85,370.56c1.63,.38,2.96,1.38,3.75,2.86-1.68-.42-2.9-1.35-3.75-2.86h0Z"/>
          <path class="uuid-7aea3c20-4db7-4d18-95d8-50125c6a500e" d="M242.22,339.36c2.48,1.1,4.24,3.23,5.45,5.61-2.27-1.49-3.85-3.45-5.45-5.61h0Z"/>
          <path class="uuid-7aea3c20-4db7-4d18-95d8-50125c6a500e" d="M299.97,389.07c1.89-.56,4-.21,5.5,1.1-1.99,0-3.68-.28-5.5-1.1h0Z"/>
          <path class="uuid-7aea3c20-4db7-4d18-95d8-50125c6a500e" d="M281.98,278.23c-.92-1.51-.98-3.37-.13-4.93,.53,1.7,.58,3.2,.13,4.93h0Z"/>
        </g>
      </g>
      <g>
        <g>
          <path class="uuid-d1e2cbdd-8645-40a4-b071-51536d1d5e68" d="M142.54,355.59c2.86,3.75,5.17,8.43,9.16,11.14,3.11,2.12,8.06,1.7,11.67,1.71,3.42,0,4.29-1.51,6.86-3.43,2.47-1.84,5.75-3.17,7.3-6,1.75-3.21,1.96-7.77,2.37-11.34,.31-2.73,.83-5.43,1.13-8.16,.3-2.73,1.17-5.23,1.6-7.94,.64-4.13,.64-8.42,.52-12.59-.1-3.69-.18-7.37-.18-11.07,0-1.12,.04-2.26,.06-3.4-2.09,2.51-2.5,6.79-2.54,10.33-.13,11.64-1.78,23.26-4.91,34.48-1.46,5.23-3.65,10.88-8.52,13.35-2.94,1.49-6.41,1.54-9.67,1.06-11.41-1.69-20.2-14.35-25.33-23.87-.07-.14-.14-.28-.21-.41,.6,1.4,1.23,2.78,1.88,4.13,2.23,4.64,5.73,7.98,8.8,12.01Z"/>
          <path class="uuid-aa5626e4-769a-439d-b665-dd6fa7cb95db" d="M204.08,323.2c-.89-5.12-.39-10.88-4.51-14.23-3.2-2.6-9.3-7.55-13.6-6.37-1.23,.34-2.18,1.01-2.92,1.91-.02,1.14-.06,2.28-.06,3.4,0,3.7,.08,7.38,.18,11.07,.12,4.17,.12,8.46-.52,12.59-.42,2.71-1.29,5.21-1.6,7.94-.3,2.73-.82,5.43-1.13,8.16-.41,3.58-.62,8.13-2.37,11.34-1.55,2.83-4.83,4.16-7.3,6-2.58,1.92-3.44,3.44-6.86,3.43-3.61,0-8.56,.41-11.67-1.71-3.99-2.71-6.3-7.4-9.16-11.14-3.07-4.03-6.57-7.37-8.8-12.01-.65-1.35-1.28-2.73-1.88-4.13-3.02-5.75-4.99-12.54-6.05-18.92-2.17-13.06,6.58-26.81,10.88-38.55,3.66-9.97,10.15-19.32,11.75-29.97,0-.21-.01-.42-.02-.63-.67-12.28-8.05-25.33-21.92-25.15-6.86,.09-12.57,2.78-19.19,4.01-.62,.12-1.3,.26-2.01,.41,.55,0,1.1,0,1.65,.03,5.7,.2,11.71-.76,17.29,.75,7.71,2.09,8.51,7.46,9.61,14.46,2.05,13.03-6.31,25.73-11.93,36.83-7.56,14.92-12.18,32.46-11.34,49.22,.81,16.21,10.07,31.62,20.42,43.74,13.36,15.66,31.8,24.87,50.85,13.65,13.83-8.15,20.67-27.1,23.35-42.05,1.45-8.08,.27-16.03-1.13-24.08Z"/>
          <path class="uuid-d1e2cbdd-8645-40a4-b071-51536d1d5e68" d="M126.5,226.23c13.87-.18,21.26,12.87,21.92,25.15,.01,.21,.01,.42,.02,.63,.09-.63,.18-1.26,.24-1.9,1.13-12.31-6.93-27.4-19.35-31.13-9.74-2.93-21.85,2.57-31.17,5.13-10.69,2.93-20.93,2.67-29.12-5.66-5.2-5.29-6.75-11.37-8.13-18.34-1.38-6.99,1.64-13.41,4.48-19.59-2.66-.48-5.34,1.18-6.84,3.4-3.22,4.75-3.17,13.56-2.68,19.08,.7,7.88,4.61,14.88,10.39,20.23,1.74,1.62,3.65,3.08,5.72,4.32,11.27,6.77,21.36,3.04,33.33,3.09,.71-.15,1.38-.29,2.01-.41,6.61-1.24,12.32-3.92,19.19-4.01Z"/>
        </g>
        <g class="uuid-3e19d0fa-a8eb-4a6e-be60-adef05e59c2f">
          <path class="uuid-7aea3c20-4db7-4d18-95d8-50125c6a500e" d="M123.77,330.29c2.73-2.72-2.41-7.7-3.51-3.5-.49,1.87,1.4,5.61,3.51,3.5Z"/>
          <path class="uuid-7aea3c20-4db7-4d18-95d8-50125c6a500e" d="M116.9,309.42c-.26,1.23-.03,2.54,1.11,2.73,2.78,.46,3.37-6.34,.29-4.98-.65,.29-1.19,1.25-1.4,2.25Z"/>
          <path class="uuid-7aea3c20-4db7-4d18-95d8-50125c6a500e" d="M129.04,354.05c-.6-.82-.92-2.04-.73-3.05,.1-.53,.44-1.05,.95-1.21,.33-.1,.68-.05,1.01,.06,1.36,.46,3.3,2.74,2.95,4.28-.54,2.4-3.22,1.23-4.19-.09Z"/>
          <path class="uuid-7aea3c20-4db7-4d18-95d8-50125c6a500e" d="M116.29,335.01c-.24,2.27,3.11,5.11,3.63,1.99,.36-2.19-3.24-5.89-3.63-1.99Z"/>
          <path class="uuid-7aea3c20-4db7-4d18-95d8-50125c6a500e" d="M131.32,273.28c-1.28,1.89,.61,3.49,1.69,1.36,.92-1.81-1.01-2.86-1.69-1.36Z"/>
          <path class="uuid-7aea3c20-4db7-4d18-95d8-50125c6a500e" d="M139.44,240.35c.98-.06,2.36,1.07,1.9,2.19-.71,1.75-3.1-.63-1.9-2.19Z"/>
          <path class="uuid-7aea3c20-4db7-4d18-95d8-50125c6a500e" d="M169.16,373.08c-3.49,.74-3.96,4.22,.04,2.91,2.53-.83,3.41-3.9-.04-2.91Z"/>
          <path class="uuid-7aea3c20-4db7-4d18-95d8-50125c6a500e" d="M143.59,381.14c-1.72-.22-.88,2.18-.35,2.74,.56,.6,2.91,2.36,3.72,2.39,1.59,.05,1.85-1.77,1.03-2.91-.75-1.05-2.68-2.41-4.4-2.22Z"/>
        </g>
        <g>
          <path class="uuid-93289398-6038-4545-9810-aca370d5e3cc" d="M119.74,221.32c.74-.8,1.76-.88,2.59-.17-.87,.67-1.65,.73-2.59,.17h0Z"/>
          <path class="uuid-93289398-6038-4545-9810-aca370d5e3cc" d="M124.93,222.18c1.6-.69,3.45-.58,4.84,.51-1.74,.25-3.21,.18-4.84-.51h0Z"/>
          <path class="uuid-93289398-6038-4545-9810-aca370d5e3cc" d="M65.84,219.43c1.29,.73,1.72,1.59,2.59,2.74-1.51,.14-2.56-1.35-2.59-2.74h0Z"/>
          <path class="uuid-93289398-6038-4545-9810-aca370d5e3cc" d="M76.72,226.98c1.59-.28,2.86,.32,4.15,1.2-1.55,.48-2.98-.18-4.15-1.2h0Z"/>
          <path class="uuid-93289398-6038-4545-9810-aca370d5e3cc" d="M59.62,188.05c.61,.39,.54,.73-.17,.86-.61-.39-.54-.73,.17-.86h0Z"/>
          <path class="uuid-93289398-6038-4545-9810-aca370d5e3cc" d="M107.82,225.43c1.16-1.01,2.64-1.56,4.15-1.03-1.31,.84-2.58,1.33-4.15,1.03h0Z"/>
          <path class="uuid-93289398-6038-4545-9810-aca370d5e3cc" d="M174,359.7c-.27-1.19,.41-1.98,1.38-2.57,.27,1.2-.42,1.97-1.38,2.57h0Z"/>
          <path class="uuid-93289398-6038-4545-9810-aca370d5e3cc" d="M176.94,353.18c-.7-.85-.57-1.8,.17-2.57,.63,.9,.5,1.74-.17,2.57h0Z"/>
        </g>
        <g>
          <g>
            <path class="uuid-7aea3c20-4db7-4d18-95d8-50125c6a500e" d="M130.46,229.38c1.09-.27,1.89,.05,2.42,1.03-1.04,.29-1.93-.07-2.42-1.03h0Z"/>
            <path class="uuid-7aea3c20-4db7-4d18-95d8-50125c6a500e" d="M130.63,232.47c1.17,.02,1.9,.5,2.42,1.54-1.15,.18-2.08-.43-2.42-1.54h0Z"/>
            <path class="uuid-7aea3c20-4db7-4d18-95d8-50125c6a500e" d="M141.86,262.47c.44,1.23,.13,2.27-.69,3.26-.55-1.19-.2-2.35,.69-3.26h0Z"/>
            <path class="uuid-7aea3c20-4db7-4d18-95d8-50125c6a500e" d="M159.83,385.42c.83-.68,1.62-.9,2.59-.34-.71,.8-1.71,1.03-2.59,.34h0Z"/>
            <path class="uuid-7aea3c20-4db7-4d18-95d8-50125c6a500e" d="M152.57,381.31c.39-.61,.73-.55,.86,.17-.39,.61-.73,.54-.86-.17h0Z"/>
            <path class="uuid-7aea3c20-4db7-4d18-95d8-50125c6a500e" d="M125.45,288.88c.53,.53,.4,.93-.35,1.03-.54-.53-.4-.93,.35-1.03h0Z"/>
          </g>
          <path class="uuid-7aea3c20-4db7-4d18-95d8-50125c6a500e" d="M190.58,370.68c-.13,1.71-.79,3.01-1.9,4.29-.21-1.7,.57-3.25,1.9-4.29h0Z"/>
          <path class="uuid-7aea3c20-4db7-4d18-95d8-50125c6a500e" d="M122.89,339.68c.17,.23,.35,.46,.52,.69,.05,.07,.15,.1,.23,.12,.12,.03,.26,.04,.38,.03l.12-.02c.06-.01,.12-.03,.18-.07,.05-.04,.1-.09,.05-.15-.17-.23-.35-.46-.52-.69-.05-.07-.15-.1-.23-.12-.12-.03-.26-.04-.38-.03l-.12,.02c-.06,.01-.12,.03-.18,.07-.05,.04-.1,.09-.05,.15h0Z"/>
        </g>
      </g>
      <g>
        <path class="uuid-0c4afa1c-87a3-43c6-befa-ed93a6e33c70" d="M91.84,89.87c-.94-.12-2.49-.18-4.32-.19,3.8,.94,7.44,2.56,11.11,3.97,8.43,3.25,20.58,5.88,31.46,7.14-4.27-1.14-10.37-3.26-20.37-7.3-5.83-2.36-11.73-2.81-17.88-3.63Z"/>
        <path class="uuid-3984c956-ede4-4098-b791-e910b8210173" d="M173.13,360.04c1.74-8.73,2.02-18.29-2.26-25.94-3.56,11.88-5.73,24.17-9.9,35.84-4.17,11.67-10.69,23-20.8,29.82-15.53,10.49-39.4,9.82-51.15-4.65-6.98-8.6-10.53-18.53-12.78-29.56-3.16-15.5,.52-39.83,2.38-55.63,2.78-23.58-1.08-49.36-11.1-71.67-9.58-21.34-17.93-32.52-36.48-46.55-10.29-7.79-21.09-18.06-21.97-31.81-2.24-35.08,27.68-63.08,58.98-70.75,4.37-1.07,11.85-.61,16.29-.06,1.07,.13,2.12,.35,3.16,.6,1.84,0,3.38,.06,4.32,.19,6.15,.81,12.05,1.27,17.88,3.63,9.99,4.04,16.09,6.16,20.37,7.3,4.4,.51,8.61,.81,12.27,.82-4.96-3.89-19.9-13.69-23.24-15.44-6.93-3.62-16.86-4.79-24.67-4.93-13.63-.26-25.6,1.6-38.58,6.15C26.92,97.52,4.67,119.7,1.05,151.53c-1.68,14.8,3.32,24.57,14.24,34.92,7.29,6.91,14.48,12.11,21.38,19.42,11.1,11.75,18.57,21.95,25.22,36.9,3.87,8.7,6.71,22.06,8.2,31.55,3.89,24.79,0,46.14-1.55,68.46-1.54,22.32,1.46,47.27,17.82,61.67,14.64,12.88,37.43,13.48,54.48,3.71,17.05-9.77,28.38-28.46,32.29-48.11Z"/>
      </g>
      <path class="uuid-59ee3819-cd36-43c3-9557-e63dea8656a8" d="M277.1,342.58c.13,0,.42-.04,.36-.22s-.48-.18-.6-.18c-.13,0-.42,.04-.36,.22s.48,.18,.6,.18h0Z"/>
      <g>
        <g>
          <path class="uuid-390ed4e9-e005-4e30-9528-a3d10ac3a330" d="M84.47,336.27c10.4,9.23,22.82,11.52,34.47,18.05,13.05,7.32,15.65,28.02,15.1,41.19-.64,15.32-2.57,33.41,9.01,45.39,6.51,6.73,20.14,12.96,29.55,9.12,5.23-2.13,8.38-7.09,10.2-12.76-.41,.92-.84,1.81-1.31,2.64-5.81,10.2-18.73,11.78-27.57,4.09-5.88-5.12-11.58-15.35-13.36-22.87-2.77-11.7-2.82-24.42-3.58-36.33-.67-10.42-4.48-22.62-11-30.97-6.26-8.02-19.81-11.94-28.97-15.07-4.86-1.66-9.86-3.49-13.51-7.08-4.13-4.07-5.35-10.72-4.53-16.89-1.97,7.44,.53,17.06,5.53,21.5Z"/>
          <g>
            <path class="uuid-390ed4e9-e005-4e30-9528-a3d10ac3a330" d="M188.78,375.4c2.47-8.15,7.08-16.54,11.07-24.14,3-5.71,7.51-9.41,11.85-13.74-.41-.17-.84-.31-1.29-.39-2.23-.4-4.49,.46-6.44,1.59-7.19,4.16-10.9,12.85-15.32,19.49-9.33,14.01-7.32,36.57-3.22,52.08,.57,2.17,.89,4.6,.99,7.12,.43-4.4,.76-9.36,.67-11.91-.44-12.13-1.17-20.67,1.69-30.11Z"/>
            <path class="uuid-6ada0014-a6c6-4ccc-946f-f40aefeae5bc" d="M205.41,414.32c-1.13-13.42-2.78-27.41,2.07-39.94,3.84-9.93,11.74-19.46,9.37-29.87-.66-2.92-2.46-5.86-5.15-6.99-4.34,4.33-8.84,8.04-11.85,13.74-4,7.6-8.6,15.99-11.07,24.14-2.86,9.44-2.13,17.98-1.69,30.11,.09,2.55-.23,7.51-.67,11.91,.26,6.66-1.07,14.09-3.63,19.85-1.82,5.67-4.97,10.63-10.2,12.76-9.41,3.84-23.04-2.38-29.55-9.12-11.58-11.98-9.65-30.06-9.01-45.39,.55-13.17-2.05-33.87-15.1-41.19-11.65-6.53-24.06-8.82-34.47-18.05-5-4.43-7.5-14.06-5.53-21.5,.5-3.75,1.75-7.33,3.56-10.04,1.81-2.71,3.65-5.43,6.03-7.66,2.38-2.23,5.37-3.95,8.63-4.22,3.81-.32,12.34,1.49,14.3,4.99,.97,1.72,1.81,3.79,3.66,4.51,1.39-1.23,.51-3.5-.45-5.1-4.93-8.22-11.48-12.91-21.56-9.3-12.01,4.31-20.07,16.32-22.51,28.43-2.19,10.86,1.49,20.97,9.63,28.44,4.95,4.54,10.77,7.99,16.49,11.45,7.12,4.31,17.9,6.58,21.36,15.29,3.94,9.91,4.98,19.85,5.34,30.51,.5,14.57-.76,32.45,6.6,45.79,6.4,11.61,19.48,21.73,36.35,22.76,13.19,.81,26.69-5.82,33.51-17.05,6.98-11.48,6.65-25.85,5.52-39.27Z"/>
          </g>
        </g>
        <g>
          <path class="uuid-aa5626e4-769a-439d-b665-dd6fa7cb95db" d="M125.75,388.86c1.17,.74,2.13,3.63,.19,4.26-.45,.15-.95-.12-1.23-.5-.47-.65-.71-2.28-.42-3.04,.37-.95,.94-1.06,1.46-.72Z"/>
          <path class="uuid-aa5626e4-769a-439d-b665-dd6fa7cb95db" d="M79.15,302.31c-.75,.79-1.23,3.17,.4,2.09,1.35-.9-.11-3.04-.4-2.09Z"/>
          <path class="uuid-aa5626e4-769a-439d-b665-dd6fa7cb95db" d="M113.3,354.28c-2.02-.93-2.72,1.25-.78,1.97,2.65,.99,1.92-1.89,.78-1.97Z"/>
          <path class="uuid-aa5626e4-769a-439d-b665-dd6fa7cb95db" d="M127.7,381.93c-.16,.18-.3,.47-.38,.92-.18,.93,.21,3.62,1.72,2.77,1.87-1.06-.3-4.8-1.34-3.69Z"/>
          <path class="uuid-aa5626e4-769a-439d-b665-dd6fa7cb95db" d="M94.97,350.99c-1.59-.98-.93,1.41,.56,1.87,2.57,.8,1.9-1.63-.56-1.87Z"/>
          <path class="uuid-aa5626e4-769a-439d-b665-dd6fa7cb95db" d="M134.44,435.3c-1.44-2.67-2.48,1.36-1.26,2.97,2.28,3.01,3.46-1.98,1.26-2.97Z"/>
          <path class="uuid-aa5626e4-769a-439d-b665-dd6fa7cb95db" d="M134.48,448.12c1.47,.55,1.93,2.6-.09,1.92-1.11-.37-2.95-3.83,.09-1.92Z"/>
          <path class="uuid-aa5626e4-769a-439d-b665-dd6fa7cb95db" d="M200.71,427.42c-.48,1.88,1.29,4.51,2.29,1.7,.8-2.25-2-4.75-2.29-1.7Z"/>
          <path class="uuid-aa5626e4-769a-439d-b665-dd6fa7cb95db" d="M192.95,375.86c-.82,.74-1.62,3.72,.37,3.25,1.81-.42,1.43-5.36-.37-3.25Z"/>
          <path class="uuid-aa5626e4-769a-439d-b665-dd6fa7cb95db" d="M198.31,369.8c-1.85,.62-1.74,5.77,.56,4.63,1.92-.95,1.89-5.47-.56-4.63Z"/>
          <path class="uuid-aa5626e4-769a-439d-b665-dd6fa7cb95db" d="M179.2,451.83c-3.25,.6-3.13,4.31,.29,3.02,2.78-1.05,2.34-3.88-.29-3.02Z"/>
          <path class="uuid-aa5626e4-769a-439d-b665-dd6fa7cb95db" d="M186.33,453.39c-.11,.75-.52,1.87-1.46,2.01-1.9,.26-.62-1.96,1.46-2.01Z"/>
          <path class="uuid-aa5626e4-769a-439d-b665-dd6fa7cb95db" d="M194.68,421.11c1.05,.42,1.82,2.4,.28,2.32-1.46-.07-1.97-2.3-.28-2.32Z"/>
          <path class="uuid-aa5626e4-769a-439d-b665-dd6fa7cb95db" d="M160.53,465.5c-.68-.55-2.52-.51-1.76,.67,.74,1.15,4.33-.06,1.76-.67Z"/>
          <path class="uuid-aa5626e4-769a-439d-b665-dd6fa7cb95db" d="M108.67,293.32c.54,.15,.98,.51,1.27,.95-.69,.37-1.55-.26-2.22-.73,.08-.52,.34-.46,.95-.22Z"/>
        </g>
        <g>
          <path class="uuid-aa5626e4-769a-439d-b665-dd6fa7cb95db" d="M78.96,334.92c1.1,.44,1.75,1.25,1.69,2.46-1.09-.46-1.72-1.25-1.69-2.46h0Z"/>
          <path class="uuid-aa5626e4-769a-439d-b665-dd6fa7cb95db" d="M76.28,330.56c.93,1.01,.96,2.07,.81,3.38-1.14-.78-1.25-2.16-.81-3.38h0Z"/>
          <path class="uuid-aa5626e4-769a-439d-b665-dd6fa7cb95db" d="M97.57,289.49c.97-.72,1.81-.64,2.91-.25-.75,.96-1.97,.91-2.91,.25h0Z"/>
          <path class="uuid-aa5626e4-769a-439d-b665-dd6fa7cb95db" d="M104.61,291.59c.86-.37,1.47-.14,1.8,.74-.8,.4-1.53,.11-1.8-.74h0Z"/>
          <path class="uuid-aa5626e4-769a-439d-b665-dd6fa7cb95db" d="M163.71,457.91c.25-.67,.56-.67,.79,.02-.25,.67-.56,.66-.79-.02h0Z"/>
          <path class="uuid-aa5626e4-769a-439d-b665-dd6fa7cb95db" d="M168.06,460.97c.16-.76,.62-.9,1.18-.37-.16,.76-.62,.9-1.18,.37h0Z"/>
          <path class="uuid-aa5626e4-769a-439d-b665-dd6fa7cb95db" d="M197.81,442.45c.48,.64,.3,1.15-.49,1.32-.49-.64-.29-1.15,.49-1.32h0Z"/>
          <path class="uuid-aa5626e4-769a-439d-b665-dd6fa7cb95db" d="M178.66,466.52c.9-1.4,2.14-2.16,3.73-2.58-.73,1.5-2.12,2.34-3.73,2.58h0Z"/>
          <path class="uuid-aa5626e4-769a-439d-b665-dd6fa7cb95db" d="M199.9,414.18c.53,1.09,.52,2.28-.44,3.12-.39-1.16-.39-2.16,.44-3.12h0Z"/>
          <path class="uuid-aa5626e4-769a-439d-b665-dd6fa7cb95db" d="M188.96,435.46c.48,.64,.3,1.15-.49,1.32-.49-.64-.29-1.15,.49-1.32h0Z"/>
          <path class="uuid-aa5626e4-769a-439d-b665-dd6fa7cb95db" d="M130.49,396.18c.58,1.6,.48,3.25-.31,4.76-.59-1.64-.47-3.21,.31-4.76h0Z"/>
          <path class="uuid-aa5626e4-769a-439d-b665-dd6fa7cb95db" d="M122.65,369.42c1.65,.79,2.26,2.63,2.29,4.35-1.33-1.23-1.72-2.68-2.29-4.35h0Z"/>
          <path class="uuid-aa5626e4-769a-439d-b665-dd6fa7cb95db" d="M86.3,342.9c1.16-.12,1.87,.23,2.57,1.15-1.08,.42-2.13-.1-2.57-1.15h0Z"/>
        </g>
      </g>
      <g>
        <g>
          <g>
            <path class="uuid-0c4afa1c-87a3-43c6-befa-ed93a6e33c70" d="M150.28,374.83c-1.75,.3-3.48-.56-5.25-.7-3.72-.3-7.45,2.55-10.96,1.29-3.55-1.28-6.07-4.27-9.38-5.57-.89-.35-1.87-.37-2.81-.52-6.12-1.01-11.86-10.51-12.81-16.12-.52-3.06,.08-6.32-1.09-9.19-1.73-4.24-4.37-7.44-4.14-12.29,.15-3.29,1.36-6.36,1.43-9.72,.22-10.67-.36-21.11,1.22-31.74,1.87-12.61,2.81-25.02,.75-37.7-1.67-10.3-5.2-20.66-12.41-28.25-4.29-4.52-9.79-7.89-15.77-9.69-4.75-1.43-9.74-1.87-14.69-2.08-5.45-.24-11.12-.17-16.05,2.16-4.28,2.03-7.6,5.59-10.81,9.06-1.82,1.98-3.65,3.95-5.47,5.93-4.22,4.57-6.37,7.52-8.02,13.5-2.43,8.82-.23,23.23,5.08,31.19-1.66-3.1-3-6.3-3.76-9.3-1.48-5.9-.63-9.41,.65-15.35,1.83-8.49,4.81-18.11,11.62-23.57,2.86-2.3,7.25-4.92,10.71-6.17,6.11-2.21,9.41-2.52,15.9-2.92,7.28-.44,18.05,2.98,24.67,7.49,2.52,1.72,4.88,3.88,6.72,6.31,1.72,2.27,3.87,4.68,4.89,7.35,1.34,3.53,2.04,7.62,2.96,11.3,1.07,4.29,1.95,8.63,2.33,13.04,2.17,25.13-11.84,50-7.65,74.87,1.25,7.41,2.79,14.73,6.17,21.45,3.81,7.58,11.61,13.67,19.38,17.2,7.91,3.59,18.08,5,26.37,2.07,4.29-1.52,10.51-3.8,13.86-6.92,1.57-1.46,3.03-2.91,4.42-4.38-4.27,3.14-9.13,5.31-15.07,6.62-1.09,.24-1.9,1.22-3,1.41Z"/>
            <path class="uuid-8422f0df-6deb-4404-a2e6-4ada717dd116" d="M210.09,337.61c1.57-.14,3.15-.73,4.18-1.91,1.45-1.67,1.5-4.08,1.47-6.28-.01-1.23-.03-2.46-.04-3.7,0-.68-.01-1.38,.23-2.01,.79-2.07,2.77-1.83,4.09-.53,1.88,1.85,4.37,3.53,6.99,3.08,3.22-.55,4.99-3.94,6.27-6.93,1.09-2.55,2.19-5.13,2.71-7.85,1.05-5.48-.93-11.69-3.24-16.62-.95-2.04-1.96-4.08-2.39-6.28-.31-1.58-.31-3.19-.31-4.8,0-2.07,0-4.14,0-6.22,0-8.7-.04-17.63-3.16-25.76-.1-.27-.23-.56-.48-.7-.28-.16-.62-.09-.93-.02-9.38,2.06-18.85,3.3-27.71,7.02-12.69,5.33-25.8,9.64-39.18,12.88-.43,10.56,4.92,19.91,7.43,29.83,2.53,10.02,1.79,20.58-.99,30.47-.61,2.18-1.11,4.42-2.05,6.48-1.45,3.19-3.13,7.89-5.11,10.79-4.32,6.34-11.42,10.52-19.52,10.8-2.97,.1-6.43-1.3-9.2-2.41-7.97-3.19-12.05-11.37-14.15-19.16-2.75-10.2-2.93-20.83-.85-31.13,2.88-14.27,6.51-29.11,6.4-43.67-.07-9.7-3.1-20.71-7.26-29.49-6.37-13.47-19.6-24.1-34.38-26.58-10.28-1.72-19.53-.86-29.37,2.4-4.44,1.47-12.06,6.36-15.52,9.55-3.76,3.47-6.99,7.69-9.72,11.99-4.67,7.36-6.41,17.32-5.52,25.96,.76,7.41,2.94,12.84,7.01,19.1,4.07,6.26,8.61,12.3,11.42,19.2,.5,1.24,1.83,2.78,2.85,1.9,.24-.2,.37-.49,.47-.79,1.26-3.68-1.4-8-3.95-10.95-2.63-3.05-5.32-6.91-7.47-10.93-5.31-7.97-7.51-22.38-5.08-31.19,1.65-5.98,3.8-8.93,8.02-13.5,1.82-1.98,3.65-3.95,5.47-5.93,3.21-3.47,6.52-7.03,10.81-9.06,4.92-2.33,10.6-2.4,16.05-2.16,4.96,.22,9.94,.66,14.69,2.08,5.98,1.8,11.48,5.18,15.77,9.69,7.21,7.59,10.74,17.96,12.41,28.25,2.06,12.69,1.12,25.1-.75,37.7-1.58,10.63-1,21.07-1.22,31.74-.07,3.37-1.28,6.44-1.43,9.72-.23,4.85,2.41,8.05,4.14,12.29,1.17,2.87,.57,6.14,1.09,9.19,.95,5.61,6.69,15.11,12.81,16.12,.94,.16,1.92,.17,2.81,.52,3.31,1.31,5.83,4.29,9.38,5.57,3.5,1.27,7.24-1.59,10.96-1.29,1.77,.14,3.5,1,5.25,.7,1.1-.19,1.91-1.17,3-1.41,5.94-1.31,10.8-3.48,15.07-6.62,5.59-5.92,9.82-12.12,13.31-20.02,1.51-3.42,2.78-6.58,3.76-10.18,.42-1.55,1.26-3.91,1.51-5.49,.2-1.29,.61-4.75,1.76-5.49,.33-.21,.61-.21,.85-.04,2.72,1.98,.52,26.16,13.4,16.39,1.15-.87,2.17-1.88,3.29-2.78,1.11-.89,2.47-1.47,3.87-1.6Z"/>
          </g>
          <g>
            <path class="uuid-c7cfc6b1-d33e-4229-8ecb-79fd9e431727" d="M116.63,357.47c2.64,4.93,7.68,7.64,12.35,10.43-5.17-1.42-11.02-4.86-12.35-10.43h0Z"/>
            <path class="uuid-c7cfc6b1-d33e-4229-8ecb-79fd9e431727" d="M159.27,360.43c2.37-2.42,3.89-5.13,5.85-7.88-.62,3.25-2.66,6.63-5.85,7.88h0Z"/>
            <path class="uuid-c7cfc6b1-d33e-4229-8ecb-79fd9e431727" d="M172.22,349.03c.25-1.79,1.16-3.18,2.51-4.35-.12,1.81-1.09,3.27-2.51,4.35h0Z"/>
            <path class="uuid-c7cfc6b1-d33e-4229-8ecb-79fd9e431727" d="M178.07,329.34c.62,.75,.54,1.66-.21,2.28-.61-.86-.54-1.55,.21-2.28h0Z"/>
            <path class="uuid-c7cfc6b1-d33e-4229-8ecb-79fd9e431727" d="M171.38,313.38c1.11-.4,2.26-.21,2.92,.83-1.17,.25-2.12,.1-2.92-.83h0Z"/>
            <path class="uuid-c7cfc6b1-d33e-4229-8ecb-79fd9e431727" d="M170.76,309.65c1.58,.07,2.83,.54,3.97,1.66-1.56,.2-3.04-.38-3.97-1.66h0Z"/>
            <path class="uuid-c7cfc6b1-d33e-4229-8ecb-79fd9e431727" d="M108.72,324.16c.75,.62,.88,1.21,.42,2.07-.86-.45-1.03-1.32-.42-2.07h0Z"/>
            <path class="uuid-c7cfc6b1-d33e-4229-8ecb-79fd9e431727" d="M114.57,264.87c.72,.09,.8,.41,.21,.83-.72-.08-.8-.41-.21-.83h0Z"/>
            <path class="uuid-c7cfc6b1-d33e-4229-8ecb-79fd9e431727" d="M115.82,255.75c1.09,1.09,1.52,2.72,.84,4.15-.71-1.39-1.04-2.58-.84-4.15h0Z"/>
            <path class="uuid-c7cfc6b1-d33e-4229-8ecb-79fd9e431727" d="M95.98,219.68c1.07,.24,1.68,.76,1.88,1.87-1.09-.05-1.86-.75-1.88-1.87h0Z"/>
            <path class="uuid-c7cfc6b1-d33e-4229-8ecb-79fd9e431727" d="M100.58,221.13c1.58,.66,3.02,1.93,3.13,3.73-1.34-1.13-2.49-2.06-3.13-3.73h0Z"/>
            <path class="uuid-c7cfc6b1-d33e-4229-8ecb-79fd9e431727" d="M25.8,232.95c.16-1.18,.56-1.97,1.67-2.49,.11,1.17-.48,2.22-1.67,2.49h0Z"/>
          </g>
          <g>
            <path class="uuid-d69724f9-4a44-4de1-9443-42c7fd18f294" d="M103.27,346.95c.83,1,1.1,1.91,.92,3.2-1.09-.71-1.46-2.02-.92-3.2h0Z"/>
            <path class="uuid-d69724f9-4a44-4de1-9443-42c7fd18f294" d="M103.73,341.01c.96,1.03,1.29,2.3,.92,3.66-.97-1.05-1.28-2.28-.92-3.66h0Z"/>
            <path class="uuid-d69724f9-4a44-4de1-9443-42c7fd18f294" d="M101.43,305.8c.41,1.77,.25,3.36-.46,5.03-.67-1.68-.48-3.49,.46-5.03h0Z"/>
            <path class="uuid-d69724f9-4a44-4de1-9443-42c7fd18f294" d="M124.01,373.93c1.49-.36,3.08,.42,3.69,1.83-1.51-.33-2.51-.83-3.69-1.83h0Z"/>
          </g>
          <g>
            <path class="uuid-59ee3819-cd36-43c3-9557-e63dea8656a8" d="M111.57,296.2c.66,2.31,.28,4.61-.46,6.86-.63-2.32-.25-4.6,.46-6.86h0Z"/>
            <path class="uuid-59ee3819-cd36-43c3-9557-e63dea8656a8" d="M112.03,247.27c.74-.03,.93,.33,.46,.91-.75,.03-.92-.33-.46-.91h0Z"/>
            <path class="uuid-59ee3819-cd36-43c3-9557-e63dea8656a8" d="M111.1,238.58c1.33,1.93,2.31,4.02,2.3,6.4-1.31-1.95-2.27-4.02-2.3-6.4h0Z"/>
            <path class="uuid-59ee3819-cd36-43c3-9557-e63dea8656a8" d="M73.32,208.4c1.51-.83,3.53-.43,4.61,.91-1.74-.08-2.97-.33-4.61-.91h0Z"/>
            <path class="uuid-59ee3819-cd36-43c3-9557-e63dea8656a8" d="M20.34,249.56c-.86-.94-.7-2.57,.46-3.2,.12,1.29,.08,2.01-.46,3.2h0Z"/>
            <path class="uuid-59ee3819-cd36-43c3-9557-e63dea8656a8" d="M176.53,337.35c-.08-2.44,.38-4.86,1.84-6.86-.15,2.44-.58,4.73-1.84,6.86h0Z"/>
            <path class="uuid-59ee3819-cd36-43c3-9557-e63dea8656a8" d="M171.46,315.4c1.06-.68,2.17-.69,3.23,0-1.06,.69-2.17,.68-3.23,0h0Z"/>
            <path class="uuid-59ee3819-cd36-43c3-9557-e63dea8656a8" d="M165.01,285.68c1.22,1.95,2.05,3.75,2.76,5.94-1.84-1.36-2.89-3.66-2.76-5.94h0Z"/>
            <path class="uuid-59ee3819-cd36-43c3-9557-e63dea8656a8" d="M164.55,291.62c2.17,.43,3.79,2.45,4.15,4.57-1.63-1.48-2.7-2.92-4.15-4.57h0Z"/>
            <path class="uuid-59ee3819-cd36-43c3-9557-e63dea8656a8" d="M224.91,257.79c.71,1.52,.86,2.95,.46,4.57-.96-1.36-1.13-3.05-.46-4.57h0Z"/>
            <path class="uuid-59ee3819-cd36-43c3-9557-e63dea8656a8" d="M226.75,264.19c.68,2.43,.69,4.89,0,7.32-.69-2.43-.68-4.89,0-7.32h0Z"/>
            <path class="uuid-59ee3819-cd36-43c3-9557-e63dea8656a8" d="M144.28,368.9c3.03,.1,5.71-.94,8.75-.91-2.64,1.32-5.96,2.41-8.75,.91h0Z"/>
            <path class="uuid-59ee3819-cd36-43c3-9557-e63dea8656a8" d="M165.93,359.76c-.2-1.18,.65-2.24,1.84-2.29-.33,1.16-.79,1.71-1.84,2.29h0Z"/>
          </g>
        </g>
        <g>
          <g>
            <path class="uuid-0c4afa1c-87a3-43c6-befa-ed93a6e33c70" d="M6.89,287.89c.3-.17,.6-.31,.92-.35,6.83-1.05,11.32,5.67,13.04,11.86-.17-2.5-.45-4.97-1.11-7.34-1.92-6.85-8.45-7.58-12.84-4.16Z"/>
            <path class="uuid-8422f0df-6deb-4404-a2e6-4ada717dd116" d="M214.64,323.21c-1.63-4.66-4.88-8.95-9.45-10.89-3.33-1.41-9.22-1.67-11.95,1.24-1.88,2-.41,4.33-1.22,6.51-1.5-.59-2.61-1.71-4.43-1.59-.38,.02-.78,.1-1.09,.32-.59,.42-.73,1.24-.65,1.96,.34,3.11,3.15,5.36,3.91,8.37,.6,2.37,.64,4.9,1.05,7.3,1.87,10.89,.52,27.97-5.3,37.5-8.48,13.88-18.74,23.34-33.52,29.84-17.33,7.62-40.03,6.67-58.4,3.77-7.77-1.22-15.65-5.75-22.78-9.04-17.03-7.85-28.5-24.26-36.22-41.24-1.84-4.04-2.36-7.52-3.55-11.79-4.12-14.84-3.57-31.09-6.45-46.12-1.13-5.9-1.91-11.62-7.8-14.64-3.88-1.99-10.54-2.19-13.89,1-1.15,1.1-4.42,6.43-2.11,7.66,1.82,.96,3.65-4.05,6.08-5.47,4.4-3.42,10.93-2.68,12.84,4.16,.66,2.37,.94,4.85,1.11,7.34,.47,1.69,.73,3.35,.78,4.79,.52,17.07-.18,29.62,2.86,46.43,3.04,16.81,9.18,36.02,21.43,48.01,6.1,5.97,13.35,12.34,21.08,16.12,34.02,16.64,76.8,17.38,110.16-1.86,4.88-2.82,9.16-6.22,13.45-9.83,4.66-3.92,8.28-8.93,11.36-14.17,9.08-15.42,13.85-33.22,14.36-51.07,.14-4.93-.05-9.96-1.68-14.62Z"/>
          </g>
          <g>
            <path class="uuid-59ee3819-cd36-43c3-9557-e63dea8656a8" d="M77.01,410.97c1.41,.38,2.37,.7,3.46,1.71-1.39,.37-2.99-.3-3.46-1.71h0Z"/>
            <path class="uuid-59ee3819-cd36-43c3-9557-e63dea8656a8" d="M82.54,410.97c1.85-.13,3.8-.02,5.18,1.37-1.88-.09-3.65-.16-5.18-1.37h0Z"/>
            <path class="uuid-59ee3819-cd36-43c3-9557-e63dea8656a8" d="M174.46,405.49c.14-.98,.74-1.46,1.73-1.37-.13,.98-.74,1.46-1.73,1.37h0Z"/>
            <path class="uuid-59ee3819-cd36-43c3-9557-e63dea8656a8" d="M181.37,402.06c.16-1.23,.87-2.06,2.07-2.4-.16,1.24-.88,2.06-2.07,2.4h0Z"/>
            <path class="uuid-59ee3819-cd36-43c3-9557-e63dea8656a8" d="M202.79,338.95c.68,2.02,1.09,4.11,.35,6.17-.63-2.04-1.03-4.09-.35-6.17h0Z"/>
            <path class="uuid-59ee3819-cd36-43c3-9557-e63dea8656a8" d="M205.56,330.72c.53,1.89,1.38,3.48,1.04,5.49-.55-.84-.92-1.66-1.19-2.59-.23-.91-.33-1.99,.15-2.9h0Z"/>
            <path class="uuid-59ee3819-cd36-43c3-9557-e63dea8656a8" d="M201.41,323.52c2.16-.67,4.36-1.06,6.57-.34-2.17,.66-4.36,1.04-6.57,.34h0Z"/>
            <path class="uuid-59ee3819-cd36-43c3-9557-e63dea8656a8" d="M207.63,326.61c2.15-.35,4.58,.73,5.53,2.74-1.98-1-3.59-1.68-5.53-2.74h0Z"/>
            <path class="uuid-59ee3819-cd36-43c3-9557-e63dea8656a8" d="M202.79,377.02c-.03,3.55-1.45,7.23-4.15,9.6,1.58-3.23,2.74-6.3,4.15-9.6h0Z"/>
            <path class="uuid-59ee3819-cd36-43c3-9557-e63dea8656a8" d="M40.72,380.45c1.6,.66,2.93,1.99,3.11,3.77-1.39-1.08-2.46-2.11-3.11-3.77h0Z"/>
            <path class="uuid-59ee3819-cd36-43c3-9557-e63dea8656a8" d="M43.14,385.94c1.48,.9,2.69,2.04,3.11,3.77-1.5-.87-2.71-2.03-3.11-3.77h0Z"/>
            <path class="uuid-59ee3819-cd36-43c3-9557-e63dea8656a8" d="M28.28,350.96c.87,.45,1.12,1.17,.69,2.06-.88-.45-1.11-1.17-.69-2.06h0Z"/>
            <path class="uuid-59ee3819-cd36-43c3-9557-e63dea8656a8" d="M24.83,321.12c.68,.11,.68,.24,0,.34-.68-.11-.68-.24,0-.34h0Z"/>
            <path class="uuid-59ee3819-cd36-43c3-9557-e63dea8656a8" d="M3.4,288.54c.71-1.31,1.96-2.07,3.46-2.06-.87,1.22-1.97,1.87-3.46,2.06h0Z"/>
            <path class="uuid-59ee3819-cd36-43c3-9557-e63dea8656a8" d="M128.84,422.63c2.24-.66,4.29-.14,6.57,0-2.02,1.23-4.46,.72-6.57,0h0Z"/>
            <path class="uuid-59ee3819-cd36-43c3-9557-e63dea8656a8" d="M135.76,421.26c4.64-1.76,8.95-4.06,13.82-5.14-4.33,2.35-8.83,4.72-13.82,5.14h0Z"/>
            <path class="uuid-59ee3819-cd36-43c3-9557-e63dea8656a8" d="M196.23,361.93c.1,2.18-.07,4.36-1.38,6.17-.02-2.18,.15-4.3,1.38-6.17h0Z"/>
          </g>
          <g>
            <path class="uuid-c7cfc6b1-d33e-4229-8ecb-79fd9e431727" d="M61.34,399.54c1.73-.45,3.66,.3,4.61,1.83-1.77-.38-3.06-.89-4.61-1.83h0Z"/>
            <path class="uuid-c7cfc6b1-d33e-4229-8ecb-79fd9e431727" d="M62.27,402.28c1.83-.11,3.59,.76,4.61,2.29-1.81-.39-3.2-1.09-4.61-2.29h0Z"/>
            <path class="uuid-c7cfc6b1-d33e-4229-8ecb-79fd9e431727" d="M25.4,333.69c.68,2.28,.69,4.58,0,6.86-.69-2.28-.68-4.58,0-6.86h0Z"/>
            <path class="uuid-c7cfc6b1-d33e-4229-8ecb-79fd9e431727" d="M120.78,416c2.02-.73,3.85-.94,5.99-.91-1.7,1.3-3.98,1.57-5.99,.91h0Z"/>
            <path class="uuid-c7cfc6b1-d33e-4229-8ecb-79fd9e431727" d="M162.25,412.8c.78-1.43,2.08-2.41,3.69-2.74-.84,1.48-2.03,2.36-3.69,2.74h0Z"/>
            <path class="uuid-c7cfc6b1-d33e-4229-8ecb-79fd9e431727" d="M202.79,319.98c1.6-.72,3.77-.86,5.07,.46-1.82,0-3.33,.21-5.07-.46h0Z"/>
            <path class="uuid-c7cfc6b1-d33e-4229-8ecb-79fd9e431727" d="M200.95,362.96c.37,1.61,.05,3.24-.92,4.57-.36-1.69-.06-3.16,.92-4.57h0Z"/>
            <path class="uuid-c7cfc6b1-d33e-4229-8ecb-79fd9e431727" d="M199.57,354.73c.56,1.85,.43,4-.92,5.49,.04-1.97,.1-3.66,.92-5.49h0Z"/>
            <path class="uuid-c7cfc6b1-d33e-4229-8ecb-79fd9e431727" d="M172.85,397.71c.62-2.22,2.29-3.78,4.15-5.03-.81,2.15-2.4,3.6-4.15,5.03h0Z"/>
            <path class="uuid-c7cfc6b1-d33e-4229-8ecb-79fd9e431727" d="M198.65,390.4c.3-2.6,1.49-4.92,3.23-6.86-.51,2.57-1.65,4.78-3.23,6.86h0Z"/>
            <path class="uuid-c7cfc6b1-d33e-4229-8ecb-79fd9e431727" d="M211.55,349.7c.85,2.44,.21,4.92-.46,7.32-.71-2.48-.07-4.87,.46-7.32h0Z"/>
          </g>
        </g>
        <g>
          <g>
            <path class="uuid-0c4afa1c-87a3-43c6-befa-ed93a6e33c70" d="M282.75,404.01c-12.4-5.56-18.58-14.63-26.57-24.84-9.94-12.7-16.07-30.05-27.61-41.78,3.18,6.28,6.01,12.76,9.35,18.96,4.31,7.99,9.46,15.49,14.61,22.97,2.9,4.22,5.81,8.45,9.2,12.3,9.74,11.05,23.42,18.62,38.02,21.02,6.47,1.06,13.25,1.12,19.45-1,4.97-1.7,14.03-5.25,18.35-8.23,7.94-5.48,11.56-8.18,17.13-16.02,1.06-1.49,2.08-3.23,3.07-5.11-1.9,2.3-3.92,4.55-5.97,6.87-17.77,20.06-44.38,25.91-69.02,14.87Z"/>
            <path class="uuid-8422f0df-6deb-4404-a2e6-4ada717dd116" d="M361.05,257.9c-6.34-15.88-10-21.14-18.61-35.92-.73-1.25-1.38-2.79-1.88-4.48-1.18-2.21-2.26-4.46-2.95-6.82-2.01-6.82,3.16-10.86,8.71-10.25,2.82-.06,7.04,3.24,8.07,1.47,1.31-2.25-4.3-5.07-5.86-5.4-4.54-.96-10.1,2.69-12.33,6.41-3.4,5.65-1.02,10.92,1.15,16.52,4.13,10.66,8.51,18.24,11.67,29.04,3.29,11.23,7.08,17.75,8.51,29.31,3.12,25.27,2.32,45.01-1.68,62.83-3.92,17.47-9.46,35.97-26.91,43.68-7.37,3.26-15.67,6.22-23.66,4.33-8.19-1.94-15.78-6.13-22.12-11.58-10.62-9.12-15.47-19.84-20.94-32.04-5.29-11.78-12.11-23.58-19.08-34.46-3.47-5.42-7.14-11-12.32-14.97-6.95-5.33-12.09-5.89-20.15-2.79-3.15,1.21-6.61,2.83-7.74,5.99-1.66,4.64,2.57,9.09,6.18,12.46,1.57,1.46,3.1,2.97,4.57,4.53,3.03,3.2,5.84,6.61,8.32,10.25,2.47,3.63,4.59,7.46,6.57,11.37,11.54,11.74,17.67,29.09,27.61,41.78,8,10.21,14.17,19.28,26.57,24.84,24.63,11.04,51.25,5.18,69.02-14.87,2.05-2.32,4.07-4.57,5.97-6.87,3.02-5.8,5.62-12.96,7.2-18.33,9.75-33.03,9.42-72.69-3.89-106.03Z"/>
            <path class="uuid-0c4afa1c-87a3-43c6-befa-ed93a6e33c70" d="M346.31,200.43c-.35,0-.67,.06-.97,.18-6.36,2.68-6.61,10.74-4.78,16.89-1.18-2.21-2.26-4.46-2.95-6.82-2.01-6.82,3.16-10.86,8.71-10.25Z"/>
          </g>
          <g>
            <path class="uuid-59ee3819-cd36-43c3-9557-e63dea8656a8" d="M366.7,296.79c.33,1.75-.04,3.19-.64,4.83-.79-1.6-.37-3.43,.64-4.83h0Z"/>
            <path class="uuid-59ee3819-cd36-43c3-9557-e63dea8656a8" d="M361.61,265.22c.83,.53,1.01,1.27,.51,2.11-.83-.52-1-1.27-.51-2.11h0Z"/>
            <path class="uuid-59ee3819-cd36-43c3-9557-e63dea8656a8" d="M348.7,238.05c.63-.27,.7-.16,.18,.29-.63,.27-.7,.16-.18-.29h0Z"/>
            <path class="uuid-59ee3819-cd36-43c3-9557-e63dea8656a8" d="M349.61,199.16c-1.37,.62-2.65,.64-4.03,.06,1.27-.79,2.74-.81,4.03-.06h0Z"/>
            <path class="uuid-59ee3819-cd36-43c3-9557-e63dea8656a8" d="M221.47,304.72c1.29-3.29,6.93-3.95,9.97-3.28-2.68,.56-5.25,.95-7.78,1.88-.8,.33-1.59,.69-2.2,1.39h0Z"/>
            <path class="uuid-59ee3819-cd36-43c3-9557-e63dea8656a8" d="M227.98,305.75c.85-1.76,3.26-2.48,4.99-1.64-1.83,.63-3.16,.97-4.99,1.64h0Z"/>
            <path class="uuid-59ee3819-cd36-43c3-9557-e63dea8656a8" d="M263.01,364.79c2.26,2.26,4.15,4.87,5.05,7.97-2.1-2.42-3.92-4.95-5.05-7.97h0Z"/>
            <path class="uuid-59ee3819-cd36-43c3-9557-e63dea8656a8" d="M265.88,375.16c3.14,1.59,5.91,3.76,8.19,6.43-3.17-1.61-5.88-3.74-8.19-6.43h0Z"/>
            <path class="uuid-59ee3819-cd36-43c3-9557-e63dea8656a8" d="M360.32,346.78c.38,3.14,.08,6.37-1.35,9.23,.08-3.18,.35-6.2,1.35-9.23h0Z"/>
            <path class="uuid-59ee3819-cd36-43c3-9557-e63dea8656a8" d="M361.3,356.34c-.05,1.78-1,3.37-2.54,4.26,.44-1.73,1.23-3.04,2.54-4.26h0Z"/>
            <path class="uuid-59ee3819-cd36-43c3-9557-e63dea8656a8" d="M352.61,246.9c1.24,2.05,1.84,4.38,1.75,6.78-1.26-2.11-1.82-4.32-1.75-6.78h0Z"/>
            <path class="uuid-59ee3819-cd36-43c3-9557-e63dea8656a8" d="M288.21,395.5c3.55,1.89,7.2,2.81,10.85,4.46-3.93-.26-8.14-1.44-10.85-4.46h0Z"/>
            <path class="uuid-59ee3819-cd36-43c3-9557-e63dea8656a8" d="M311.35,405.25c8,1.27,14.5-3.64,21.13-7.3,3.42-1.79,7.12-3.03,10.01-5.39,1.4-1.19,2.36-2.88,3.39-4.49,1.04-1.59,2.22-3.28,4-4.11-1.65,1.03-2.67,2.7-3.58,4.36-.94,1.65-1.83,3.42-3.29,4.81-2.94,2.62-6.7,3.84-10.06,5.7-6.55,3.54-13.71,8.54-21.59,6.41h0Z"/>
            <path class="uuid-59ee3819-cd36-43c3-9557-e63dea8656a8" d="M345.15,381.93c1.41-3.38,4.06-5.99,6.94-8.15-1.89,3.13-4.4,5.56-6.94,8.15h0Z"/>
            <path class="uuid-59ee3819-cd36-43c3-9557-e63dea8656a8" d="M248.76,331.66c1.6,1.24,1.92,3.09,2.57,4.9-1.76-.96-2.21-3.06-2.57-4.9h0Z"/>
            <path class="uuid-59ee3819-cd36-43c3-9557-e63dea8656a8" d="M235.56,326.41c1.6,1,2.55,2.3,3.44,3.94-1.8-.58-2.97-2.16-3.44-3.94h0Z"/>
          </g>
          <g>
            <path class="uuid-c7cfc6b1-d33e-4229-8ecb-79fd9e431727" d="M354.89,249.04c1.79,1.57,3.02,3.53,3.64,5.83-1.79-1.57-3.01-3.53-3.64-5.83h0Z"/>
            <path class="uuid-c7cfc6b1-d33e-4229-8ecb-79fd9e431727" d="M220.4,302.03c1.45-1.67,3.66-2.51,5.86-2.6-1.75,1.41-3.69,2.11-5.86,2.6h0Z"/>
            <path class="uuid-c7cfc6b1-d33e-4229-8ecb-79fd9e431727" d="M238.64,332.2c2.01,1.47,3.92,3.6,4.03,6.2-1.25-1.83-3.22-4.09-4.03-6.2h0Z"/>
            <path class="uuid-c7cfc6b1-d33e-4229-8ecb-79fd9e431727" d="M247.73,338.12c1,.81,1.38,1.89,1.09,3.15-1.01-.81-1.38-1.89-1.09-3.15h0Z"/>
            <path class="uuid-c7cfc6b1-d33e-4229-8ecb-79fd9e431727" d="M317.85,397.58c1.3-1.44,3.01-2.33,4.94-2.55-1.34,1.47-2.97,2.3-4.94,2.55h0Z"/>
            <path class="uuid-c7cfc6b1-d33e-4229-8ecb-79fd9e431727" d="M323.81,396.81c2.25-2.52,4.91-4.5,7.99-5.92-2.24,2.52-4.93,4.5-7.99,5.92h0Z"/>
            <path class="uuid-c7cfc6b1-d33e-4229-8ecb-79fd9e431727" d="M353.21,377.38c.4-2.54,1.73-4.63,3.33-6.59-.36,2.55-1.7,4.66-3.33,6.59h0Z"/>
            <path class="uuid-c7cfc6b1-d33e-4229-8ecb-79fd9e431727" d="M364.43,320.46c.58,.98,.47,1.94-.31,2.76-.58-.98-.47-1.94,.31-2.76h0Z"/>
            <path class="uuid-c7cfc6b1-d33e-4229-8ecb-79fd9e431727" d="M366.5,324.47c.84,2.55,.7,5.66-.96,7.84,.34-2.71,.4-5.15,.96-7.84h0Z"/>
            <path class="uuid-c7cfc6b1-d33e-4229-8ecb-79fd9e431727" d="M250.94,354.9c2.05,.69,3.24,2.8,3.49,4.85-1.54-1.48-2.33-3.07-3.49-4.85h0Z"/>
            <path class="uuid-c7cfc6b1-d33e-4229-8ecb-79fd9e431727" d="M283.43,383.85c2.04,1.27,3.57,2.66,5.31,4.3-2.37-.38-4.34-2.14-5.31-4.3h0Z"/>
          </g>
        </g>
        <g>
          <path class="uuid-59ee3819-cd36-43c3-9557-e63dea8656a8" d="M189.89,330.95c-.87-3.83-4.59-13.49-9.68-11.89,.6-.42,1.37-.61,2.14-.57,4.8,.76,7.77,8.11,7.54,12.46h0Z"/>
          <path class="uuid-59ee3819-cd36-43c3-9557-e63dea8656a8" d="M178.37,306.71c.8,2.19,2.11,3.38,3.69,5.03-2.25-.27-4.42-2.71-3.69-5.03h0Z"/>
          <path class="uuid-59ee3819-cd36-43c3-9557-e63dea8656a8" d="M177.45,310.37c1.64,2.22,2.97,4.26,5.53,5.49-2.95,.27-5.31-2.77-5.53-5.49h0Z"/>
          <path class="uuid-59ee3819-cd36-43c3-9557-e63dea8656a8" d="M177.45,293.91c.41-2.58,2.47-4.97,5.07-5.49-1.94,1.81-3.34,3.48-5.07,5.49h0Z"/>
          <path class="uuid-59ee3819-cd36-43c3-9557-e63dea8656a8" d="M214.77,325.01c.02-2.98,3.84-4.76,6.02-2.47,1.46,1.51,1.82,3.49,2.67,5.25,1.46,2.86,3.15,5.59,4.68,8.43,1.23,2.28,2.4,4.61,3.21,7.07-2.37-4.62-5.38-8.79-7.88-13.34-1.38-2.12-1.74-4.94-3.25-6.89-1.71-2.07-5.11-.61-5.46,1.94h0Z"/>
          <path class="uuid-59ee3819-cd36-43c3-9557-e63dea8656a8" d="M165.93,368.9c9.85-7.87,15.15-19.76,18.42-31.63,.58-1.48,1.36-2.78,1.75-4.3,.34-2.03,.78-4.12,1.65-6.01,.21-.41,.41-1.16,1-1.07-.58-.03-.68,.71-.86,1.13-.74,1.97-.96,4.01-1.24,6.08-.32,1.54-1.08,2.99-1.58,4.43-2.9,12.02-8.53,24.33-19.15,31.37h0Z"/>
          <path class="uuid-59ee3819-cd36-43c3-9557-e63dea8656a8" d="M223.99,273.79c1.26,6.61,3.38,13.01,5.99,19.21-2.07-2.72-3.37-5.93-4.43-9.16-.98-3.24-1.78-6.64-1.56-10.05h0Z"/>
          <path class="uuid-59ee3819-cd36-43c3-9557-e63dea8656a8" d="M173.31,292.54c-.45-1.68,.59-3.67,2.3-4.12-.78,1.57-1.32,2.66-2.3,4.12h0Z"/>
        </g>
        <g>
          <path class="uuid-f1fa1e59-d88d-4649-9698-1567f917e17b" d="M183.01,292.11c.14-.03,.27-.06,.42-.08,8.38-1.33,11.03,11.48,5.67,16.02-9.14,7.73-15.41-13.81-6.09-15.94Z"/>
          <g>
            <path class="uuid-324ded00-d19d-4ab5-a081-8591e2a48c95" d="M183.5,293.99c.11-.02,.21-.05,.33-.06,6.55-1.04,8.63,8.98,4.44,12.53-7.14,6.05-12.05-10.8-4.76-12.46Z"/>
            <path class="uuid-f1fa1e59-d88d-4649-9698-1567f917e17b" d="M179.79,298.46c.3,1.4,1.69,2.3,3.1,2s2.31-1.67,2.02-3.08c-.3-1.4-1.69-2.3-3.1-2-1.41,.3-2.31,1.67-2.02,3.08Z"/>
          </g>
        </g>
      </g>
      <g>
        <path class="uuid-8422f0df-6deb-4404-a2e6-4ada717dd116" d="M131.48,.43c-.01-.35,.38-.55,.66-.35,.67,.48,1.69,.61,2.34,1.57,2.48,3.66,4.49,9.29,7.44,12.61,3.4,3.83,7.33,6.04,12.17,7.69,2.99,1.02,6.64,2.03,8.35,4.89,1.99,3.34,.81,7.36,.63,10.98-.21,4.02-.05,5.87,2.43,8.7,2.91,3.32,6.5,13.22,.54,15.66-4.34-5.65-9.64-10.82-13.58-16.75-3.71-5.59-7.03-11.83-9.84-17.91-3.89-8.4-10.68-16.74-11.13-27.1Z"/>
        <g>
          <path class="uuid-c7e7d5f5-6145-499b-a8b0-6ceb6b8384c1" d="M221.69,259.69c6.73,3.4,11.67,8.76,17.72,12.74,.78-2.16,3.63-6.88,3.16-9.27-.48-2.49-3.09-3.52-4.87-5.32-3.88-3.92-7.19-8.5-10.84-12.67-.85,4.33-4.24,9.49-5.18,14.52Z"/>
          <g>
            <path class="uuid-59ee3819-cd36-43c3-9557-e63dea8656a8" d="M225.56,261.26c3.77,2.86,7.71,5.74,11.05,9.11-4.2-2.3-8.21-5.23-11.05-9.11h0Z"/>
            <path class="uuid-59ee3819-cd36-43c3-9557-e63dea8656a8" d="M233.83,260.65c.89-.06,1.47,.52,1.26,1.41-.89-.08-1.32-.5-1.26-1.41h0Z"/>
            <path class="uuid-59ee3819-cd36-43c3-9557-e63dea8656a8" d="M236.43,261.18c.73-.19,1.03,.14,.75,.85-.74,.19-1.03-.14-.75-.85h0Z"/>
          </g>
        </g>
        <g>
          <path class="uuid-d8a9e2e8-135a-4f1f-b374-75f12bd428ab" d="M129.07,67.1c-1.4,14.54-3.23,29.06-3.23,43.67,0,13.64-1.38,27.05,1.38,40.46,4.68,22.7,8.77,45.45,13.48,68.17,2.71,13.07,5.12,25.96,8.56,38.73,1.3,4.84,1.97,10.59-1.38,14.33-.86,.96-1.95,1.73-2.75,2.75-.8,1.02-1.26,2.46-.67,3.6,2.26,4.36,8.54-.1,12.27,1.61,.76,.35,1.47,.81,2.28,1.03,1.05,.28,2.15,.13,3.24,.07,4.12-.24,8.47,1.08,12.56,1.66,11.6,1.64,26.67-1.8,36.59-8.57,4.55-3.11,7.58-7.81,11.76-11.32,3.26-2.73,8.76-4.84,10.53-8.86,.56-1.28,.84-2.76,1.88-3.71,.63-.58,1.51-.91,1.95-1.65,.75-1.28-.35-2.95-1.73-3.53s-2.93-.47-4.4-.76c-6.86-1.35-9.31-8.02-10.47-13.96-2.55-13.09-5.1-26.18-7.66-39.26-2.02-10.36-1.91-21.34-4.38-31.47-4.58-18.79-10.04-37.86-19.94-54.64-9.46-16.03-18.57-33.17-25.45-50.44-5.35-13.44-12.34-27.19-21.98-38.11-1.2-1.36-4.75-6.94-6.92-6.59-1.58,.25-2.69,5.12-3.09,6.39-3.35,10.66-3.45,21.64-2.42,50.39Z"/>
          <g>
            <g class="uuid-ecea73b0-cd58-438a-bf06-b8ece8216477">
              <path class="uuid-05b3c2c6-72b3-45e7-979f-00c61e90dece" d="M152.11,266.47c5.93-3.11,12.79-4.02,19.42-3.61,7.86,.38,15.64,2.11,23.41,.97,5.28-1.08,9.46-4.68,13.07-8.54,4.51-4.79,8.34-10.38,13.67-14.42-5.06,4.36-8.67,9.99-13.1,14.94-3.82,4.34-8.76,8.46-14.71,9.16-7.5,.8-15.02-.82-22.39-1.34-6.58-.58-13.29,.14-19.37,2.85h0Z"/>
            </g>
            <g class="uuid-ecea73b0-cd58-438a-bf06-b8ece8216477">
              <path class="uuid-05b3c2c6-72b3-45e7-979f-00c61e90dece" d="M144.74,52.93c2.45,17.01,4.99,34.04,5.89,51.23,.45,8.58,.68,17.18,1.86,25.67,1.06,8.53,3.61,16.73,6.59,24.76,4.42,12.08,9.76,23.87,13.99,36.05,4.34,12.14,8.39,24.39,12.06,36.75,2.41,8.25,4.63,16.56,6.61,24.92-2.14-8.32-4.51-16.58-7.08-24.78-5.14-16.38-10.72-32.66-16.97-48.64-3.18-7.97-6.58-15.87-9.56-23.96-2.97-8.08-5.52-16.4-6.55-24.98-1.14-8.56-1.39-17.17-1.72-25.75-.75-17.16-3.03-34.22-5.12-51.27h0Z"/>
            </g>
            <g class="uuid-ecea73b0-cd58-438a-bf06-b8ece8216477">
              <path class="uuid-05b3c2c6-72b3-45e7-979f-00c61e90dece" d="M157.18,132.49c6.29,16.83,11.87,34.9,19.16,51.32,3.63,8.34,7.73,16.65,9.74,25.65,2.11,8.91,3.54,17.94,5.66,26.83-2.47-8.8-4.11-17.82-6.35-26.66-2.22-8.85-6.21-17.08-9.96-25.42-7.14-16.25-12.79-34.8-18.25-51.72h0Z"/>
            </g>
            <g class="uuid-ecea73b0-cd58-438a-bf06-b8ece8216477">
              <path class="uuid-05b3c2c6-72b3-45e7-979f-00c61e90dece" d="M178.37,102.31c3.76,6.24,4.94,13.56,6.45,20.58-2.85-6.67-3.95-13.79-6.45-20.58h0Z"/>
            </g>
            <g class="uuid-ecea73b0-cd58-438a-bf06-b8ece8216477">
              <path class="uuid-05b3c2c6-72b3-45e7-979f-00c61e90dece" d="M154.42,114.2c.52,1.89,.7,3.53,.46,5.49-1.11-1.6-1.32-3.73-.46-5.49h0Z"/>
            </g>
            <g class="uuid-ecea73b0-cd58-438a-bf06-b8ece8216477">
              <path class="uuid-05b3c2c6-72b3-45e7-979f-00c61e90dece" d="M149.81,74.42c.41,3.51,1.6,8.37,.92,11.89-.71-3.93-1.86-7.9-.92-11.89h0Z"/>
            </g>
            <g class="uuid-ecea73b0-cd58-438a-bf06-b8ece8216477">
              <path class="uuid-05b3c2c6-72b3-45e7-979f-00c61e90dece" d="M206.94,235.38c1.44,1.44,2.23,3.08,2.76,5.03-1.67-1.16-2.58-3.03-2.76-5.03h0Z"/>
            </g>
            <g class="uuid-ecea73b0-cd58-438a-bf06-b8ece8216477">
              <path class="uuid-05b3c2c6-72b3-45e7-979f-00c61e90dece" d="M211.55,238.12c.83,1.25,1.16,2.18,1.38,3.66-1.36-.62-1.97-2.3-1.38-3.66h0Z"/>
            </g>
            <g class="uuid-ecea73b0-cd58-438a-bf06-b8ece8216477">
              <path class="uuid-05b3c2c6-72b3-45e7-979f-00c61e90dece" d="M170.08,267.85c2.41-.45,4.82,.15,6.91,1.37-2.45,.11-4.65-.46-6.91-1.37h0Z"/>
            </g>
            <g class="uuid-ecea73b0-cd58-438a-bf06-b8ece8216477">
              <path class="uuid-05b3c2c6-72b3-45e7-979f-00c61e90dece" d="M157.64,250.93c1.8,1.51,2.55,3.49,3.69,5.49-2.14-1.02-3.1-3.32-3.69-5.49h0Z"/>
            </g>
            <g class="uuid-ecea73b0-cd58-438a-bf06-b8ece8216477">
              <path class="uuid-05b3c2c6-72b3-45e7-979f-00c61e90dece" d="M133.22,84.94c.68,2.74,.69,5.5,0,8.23-.69-2.74-.68-5.49,0-8.23h0Z"/>
            </g>
            <g class="uuid-ecea73b0-cd58-438a-bf06-b8ece8216477">
              <path class="uuid-05b3c2c6-72b3-45e7-979f-00c61e90dece" d="M129.54,93.17c1.43,2.12,2.08,4.82,1.38,7.32-.7-2.49-1.26-4.73-1.38-7.32h0Z"/>
            </g>
            <g class="uuid-ecea73b0-cd58-438a-bf06-b8ece8216477">
              <path class="uuid-05b3c2c6-72b3-45e7-979f-00c61e90dece" d="M142.9,29.15c1.67,.76,3.04,2.23,3.23,4.12-1.41-1.22-2.52-2.36-3.23-4.12h0Z"/>
            </g>
            <g class="uuid-ecea73b0-cd58-438a-bf06-b8ece8216477">
              <path class="uuid-05b3c2c6-72b3-45e7-979f-00c61e90dece" d="M195.42,185.08c.18,1.46,.96,2.54,.92,4.12-1.17-.69-2.17-3.16-.92-4.12h0Z"/>
            </g>
            <g class="uuid-ecea73b0-cd58-438a-bf06-b8ece8216477">
              <path class="uuid-05b3c2c6-72b3-45e7-979f-00c61e90dece" d="M168.24,187.37c1.92,1.17,2.97,3.3,3.23,5.49-1.54-1.64-2.36-3.43-3.23-5.49h0Z"/>
            </g>
            <g class="uuid-ecea73b0-cd58-438a-bf06-b8ece8216477">
              <path class="uuid-05b3c2c6-72b3-45e7-979f-00c61e90dece" d="M185.75,113.75c3.1,9.13,4.43,18.8,5.53,28.35-2.19-8.07-3.98-20.03-5.53-28.35h0Z"/>
            </g>
            <g class="uuid-ecea73b0-cd58-438a-bf06-b8ece8216477">
              <path class="uuid-05b3c2c6-72b3-45e7-979f-00c61e90dece" d="M148.43,200.63c1.9,5.71,3.33,14.18,4.61,20.12-2.77-6.36-3.85-13.27-4.61-20.12h0Z"/>
            </g>
            <g class="uuid-ecea73b0-cd58-438a-bf06-b8ece8216477">
              <path class="uuid-05b3c2c6-72b3-45e7-979f-00c61e90dece" d="M155.34,209.77c1.75,5.51,3.71,11.07,3.69,16.92-1.2-4.98-3.41-11.82-3.69-16.92h0Z"/>
            </g>
            <g class="uuid-ecea73b0-cd58-438a-bf06-b8ece8216477">
              <path class="uuid-05b3c2c6-72b3-45e7-979f-00c61e90dece" d="M218.95,250.9c1.54-3.05,4.14-5.33,5.6-8.42-.12,3.55-3.03,6.3-5.6,8.42h0Z"/>
            </g>
            <g class="uuid-84420226-a444-44ff-932a-b94a381a2185">
              <path class="uuid-0c4afa1c-87a3-43c6-befa-ed93a6e33c70" d="M152.96,280.13c.97-.15,1.97-.25,2.96-.06,1,.19,1.82,.82,2.73,1.13,1.87,.61,3.9-.11,5.84,.09,3.99,.18,7.82,1.34,11.71,1.66,11.64,.94,23.69-1.92,33.7-7.93,5.12-2.95,8.46-8.14,12.97-11.91,1.52-1.32,3.28-2.26,4.8-3.47,3.17-2.34,5.63-5.47,7.83-8.72-2,3.38-4.39,6.63-7.51,9.13-1.54,1.28-3.27,2.26-4.7,3.56-4.43,3.92-7.67,9.12-12.91,12.19-10.13,6.22-22.44,9.08-34.27,7.91-3.97-.43-7.75-1.66-11.66-1.94-1.96-.27-3.99,.38-5.91-.33-.94-.36-1.73-1.01-2.68-1.23-.95-.24-1.95-.19-2.93-.09h0Z"/>
              <path class="uuid-0c4afa1c-87a3-43c6-befa-ed93a6e33c70" d="M201.41,178.22c1.01,1.15,1.19,2.77,.46,4.12-.66-1.4-.79-2.61-.46-4.12h0Z"/>
              <path class="uuid-0c4afa1c-87a3-43c6-befa-ed93a6e33c70" d="M206.02,183.71c1.1,1.28,1.59,2.89,1.38,4.57-1.13-1.34-1.57-2.83-1.38-4.57h0Z"/>
              <path class="uuid-0c4afa1c-87a3-43c6-befa-ed93a6e33c70" d="M193.58,266.93c3.85-.6,7.06-1.65,10.14-4.12-1.96,3.48-6.36,5-10.14,4.12h0Z"/>
              <path class="uuid-0c4afa1c-87a3-43c6-befa-ed93a6e33c70" d="M194.04,253.21c-3.87-17.97-8.62-35.81-14.22-53.32-3.62-10.45-8.69-20.28-12.44-30.71-3.5-10.49-7.87-20.67-11.01-31.28-2.11-7.08-3.5-14.42-3.67-21.82-.14-3.71,.22-7.39,.07-11.05-.22-7.35-1.68-14.61-2.58-21.91,1.06,7.28,2.68,14.5,3.07,21.89,.11,7.38-.24,14.71,1.32,21.96,2.7,14.46,9.05,27.91,13.74,41.87,3.68,10.39,8.73,20.31,12.31,30.77,5.51,17.58,9.94,35.51,13.4,53.6h0Z"/>
              <path class="uuid-0c4afa1c-87a3-43c6-befa-ed93a6e33c70" d="M194.5,131.12c.83,.95,.99,2.05,.46,3.2-.83-.95-.99-2.05-.46-3.2h0Z"/>
              <path class="uuid-0c4afa1c-87a3-43c6-befa-ed93a6e33c70" d="M139.67,160.84c1.82,2.72,2.51,5.92,2.76,9.15-1.59-2.86-2.24-5.95-2.76-9.15h0Z"/>
              <path class="uuid-0c4afa1c-87a3-43c6-befa-ed93a6e33c70" d="M139.21,171.82c1.24,1.65,2.3,3.36,2.3,5.49-1.28-1.61-2.35-3.36-2.3-5.49h0Z"/>
              <path class="uuid-0c4afa1c-87a3-43c6-befa-ed93a6e33c70" d="M159.02,242.24c1.72,2.82,2.8,5.86,3.23,9.15-1.72-2.8-2.8-5.89-3.23-9.15h0Z"/>
              <path class="uuid-0c4afa1c-87a3-43c6-befa-ed93a6e33c70" d="M153.95,50.64c1.8,1.55,2.65,3.69,3.23,5.94-1.78-1.58-2.61-3.7-3.23-5.94h0Z"/>
              <path class="uuid-0c4afa1c-87a3-43c6-befa-ed93a6e33c70" d="M159.48,54.3c1.26,.98,1.95,2.11,2.3,3.66-1.44-.68-2.28-2.08-2.3-3.66h0Z"/>
              <path class="uuid-0c4afa1c-87a3-43c6-befa-ed93a6e33c70" d="M156.72,275.62c1.21-.47,2.45-.13,3.23,.91-1.28,.25-2.26-.04-3.23-.91h0Z"/>
            </g>
          </g>
        </g>
        <g>
          <path class="uuid-8422f0df-6deb-4404-a2e6-4ada717dd116" d="M131.54,.19c-2.37,3.13-2.24,9.48-4.61,13.9-2.36,4.39-6.41,7.39-9.37,11.35-3.31,4.43-8.38,11-4.91,16.28,2.22,3.37,5.29,5.7,6.99,9.38,1.64,3.55,3.07,6.89,5.47,10.02,2.29,2.98,5.12,6.21,8.75,7.52,.1-8.93,.2-17.97-.49-26.91-.71-9.22,.86-19.33,.94-28.56,.04-5.13-1.33-9.18-2.78-12.97Z"/>
          <path class="uuid-05b3c2c6-72b3-45e7-979f-00c61e90dece" d="M134.15,10.4c.2,2.44-.42,4.86-.63,7.25-.41,4.83,.47,9.67,.43,14.53,.08,7.28-.74,14.57-.49,21.83,.04,2.43,.27,4.81,.61,7.22,.26,2.41,.58,5.11-.72,7.3-.97-.18-1.75-.82-2.31-1.55,.6,.67,1.41,1.21,2.27,1.34,1.52-4.14-.7-9.58-.7-14.27-.36-7.32,.36-14.57,.43-21.87,.06-4.85-.6-9.73,0-14.59,.37-2.42,1.08-4.75,1.09-7.2h0Z"/>
          <path class="uuid-05b3c2c6-72b3-45e7-979f-00c61e90dece" d="M145.26,21.75c1.1,2.42,3.44,4.06,4.7,6.4,0,0,1.42,2.23,1.42,2.23,1.68,2.65,4.02,6.37,5.51,9.08,3.34,6.21,7.13,12.4,8.46,19.41-1.09-3.34-2.45-6.61-4.18-9.67-3.02-5.48-7.3-13.1-10.44-18.41,0,0-1.31-2.31-1.31-2.31-1.15-2.41-3.33-4.16-4.16-6.73h0Z"/>
          <path class="uuid-05b3c2c6-72b3-45e7-979f-00c61e90dece" d="M135.62,10.73c2.99,1.11,4.7,4.17,5.88,6.97-2.38-2.07-3.71-4.71-5.88-6.97h0Z"/>
          <path class="uuid-05b3c2c6-72b3-45e7-979f-00c61e90dece" d="M132.84,2.62c1.14,1.08,1.2,2.61,.82,4.05-.99-1.22-.99-2.56-.82-4.05h0Z"/>
          <path class="uuid-05b3c2c6-72b3-45e7-979f-00c61e90dece" d="M114.06,35.53c-1.01,6.51,6.29,9.39,8.97,14.52,2.14,3.91,3.15,8.29,6.02,11.79,.83,1.22,1.71,2.42,2.49,3.69-1.89-2.28-3.93-4.43-5.53-7-1.6-2.53-2.29-5.46-3.85-7.98-2.53-4.8-10.02-8.67-8.1-15.02h0Z"/>
          <path class="uuid-05b3c2c6-72b3-45e7-979f-00c61e90dece" d="M126.15,19.16c1.4-3.22,2.5-6.27,4.08-9.4-.22,3.46-1.54,6.98-4.08,9.4h0Z"/>
          <path class="uuid-05b3c2c6-72b3-45e7-979f-00c61e90dece" d="M155.55,35.69c-.23-1.05,.15-1.85,1.14-2.27,.23,1.05-.16,1.84-1.14,2.27h0Z"/>
          <path class="uuid-05b3c2c6-72b3-45e7-979f-00c61e90dece" d="M157.02,38.29c0-.94,.75-1.48,1.63-1.13-.29,.9-.68,1.2-1.63,1.13h0Z"/>
          <path class="uuid-05b3c2c6-72b3-45e7-979f-00c61e90dece" d="M127.29,41.21c1.4-.58,2.79-.47,4.08,.32-1.4,.58-2.79,.46-4.08-.32h0Z"/>
          <path class="uuid-05b3c2c6-72b3-45e7-979f-00c61e90dece" d="M125,25.97c2.24-.23,4.85,.14,6.37,1.95-1.94-.52-4.61-.89-6.37-1.95h0Z"/>
          <path class="uuid-05b3c2c6-72b3-45e7-979f-00c61e90dece" d="M128.6,24.35c1.37-.26,2.3,.41,3.27,1.3-1.26,.47-2.47-.3-3.27-1.3h0Z"/>
        </g>
      </g>
    </g>
  </g>
</svg>