<?xml version="1.0" encoding="UTF-8"?>
<svg xmlns="http://www.w3.org/2000/svg" xmlns:xlink="http://www.w3.org/1999/xlink" viewBox="0 0 49.12 66.44">
  <defs>
    <style>
      .uuid-714c4f03-fb1b-4704-8354-af775001e6d5 {
        fill: url(#uuid-dadfb05e-2b16-4cb9-9977-7b61beedd09e);
      }

      .uuid-84e0bc42-379f-4286-86b8-047d41973897 {
        fill: url(#uuid-8cd2f7d0-08ba-42e0-ae5e-b55e4fa24e01);
      }

      .uuid-b47ea5e0-a65f-4e4b-8639-18f2902bc770 {
        fill: url(#uuid-1d2b508f-9ca4-4a72-bcc4-2ddf83b8d375);
      }

      .uuid-a2429ff1-33a3-4346-8be5-133e6ff013d6 {
        fill: url(#uuid-30d842fc-9fc7-4a22-b19c-23c1d94bba26);
      }

      .uuid-bb9731d5-36db-4cf1-9512-0c7459d7f350 {
        fill: url(#uuid-7a0f0347-026a-4c1b-841d-5f09b6971de8);
      }

      .uuid-6044cf43-6686-4366-9e24-81d56596cd8f {
        fill: url(#uuid-84a3a2b4-9765-4667-b454-d77830c24bdd);
      }

      .uuid-290440ac-c803-4118-8fe2-b4294a104add {
        fill: url(#uuid-35721d8f-adef-4905-b95e-d82181cf4478);
      }

      .uuid-aabbba95-be65-4a8f-9eb8-4ee072125a5b {
        fill: url(#uuid-c0a03f3d-fbbf-4d5d-acc9-443c70ed91c5);
      }

      .uuid-d68f43b6-d683-4841-a1e5-e4212bda6241 {
        fill: url(#uuid-35639c60-5a1e-4e57-86d8-d44cf28826f1);
      }

      .uuid-d61bc433-deb7-442f-ae82-2336a49c112a {
        fill: url(#uuid-b0c422b1-eb91-422d-89a6-0eb49dd7d34e);
      }

      .uuid-b1e67681-3d4c-4785-b0e8-3e2fd66bf4e5 {
        fill: url(#uuid-367a3a96-3ced-438a-9914-e1e4516f3741);
      }

      .uuid-82198c09-e60c-48e5-b4ce-547aecf6f3f1 {
        fill: url(#uuid-143ec970-d955-47d2-8a2c-bb2fbee1de35);
      }

      .uuid-82198c09-e60c-48e5-b4ce-547aecf6f3f1, .uuid-41f08678-1779-40d8-856c-0f368fa6bce5, .uuid-8076662f-346b-4e5a-a4b9-3110b68e9675, .uuid-649403b1-aeba-4f97-8a4a-a88e7e4a8994, .uuid-0d38bce6-e8df-4988-9c0d-4e807c723b54, .uuid-af97a412-d946-403e-8756-aa55d7af67cd, .uuid-97dccc7b-8d15-42e0-a82f-29fa3ac56bad, .uuid-a6e3e1bf-629a-4862-82b6-b59e78efd07e, .uuid-c2c22619-9503-47e7-b485-ea3a086619bd, .uuid-52aa308f-d2aa-4ada-a898-0e561e810370, .uuid-caee9d2a-730f-44be-ada1-57938864e39b, .uuid-1116be81-ac86-48a9-bd41-9abb56f8d62a, .uuid-3eeffac2-8972-4534-8655-14a94d3c4cf4, .uuid-4dd44add-67d8-4d51-9015-9960b15d2e61 {
        mix-blend-mode: screen;
      }

      .uuid-dd65e0bd-82d4-4dd9-a8d8-be2b60cfc05f {
        fill: url(#uuid-63e15ddd-e4cf-453b-be4d-077754c285ba);
      }

      .uuid-4eeeebaf-c06b-4f81-916e-9fd943a9ded0 {
        fill: url(#uuid-f2e661da-ae23-45e9-8e58-5609001788e0);
      }

      .uuid-3a890ae8-ec7a-4c2c-8681-cd735cdd0153 {
        fill: #4e4e4e;
      }

      .uuid-3a890ae8-ec7a-4c2c-8681-cd735cdd0153, .uuid-0997e33e-a56b-4c34-bc8d-01742e2039ca, .uuid-7b955e3c-aa33-4666-8908-eb55a4b03ea7, .uuid-13e9b8bb-3ca2-4203-ac83-605a1da7e689, .uuid-16902628-23e2-402f-bf3d-cfe1fbcd42f1, .uuid-ad2f5adc-aa7e-4e9a-b924-fe5770109a10, .uuid-cc6fcbac-bee7-45d7-b812-570d8557abe3, .uuid-2cb323f4-7afd-4bb6-b0c1-f903f8c68a04, .uuid-02af6373-5fed-487d-9729-d0cd9cb203e7, .uuid-d4085b93-d165-47b4-bfe7-35d895861539, .uuid-1a5d938a-4b44-4685-9263-91f1227313e3, .uuid-bd2a387a-06d5-4cd9-823b-66071421fece, .uuid-18ab584a-9fd1-4035-8bed-9989068db40d, .uuid-a54c6f51-a557-4717-99f7-ae06fe5b2e6b, .uuid-3610ee73-f870-4334-b8c2-e2429c189290, .uuid-8b5eaddd-6b35-4f30-9474-f71356b5c17f, .uuid-fa8479fc-4a29-4d00-8a46-b0df1d2de265, .uuid-f8500874-cb33-4fd4-bf5c-3344e82eb62c, .uuid-6da5e9b6-1cb9-411f-b6de-5cc9b8d2c5d7, .uuid-fb0c31b6-6908-4e5c-aa78-7450fbbd2939, .uuid-e8eef71b-20a8-4818-8257-b2736ef986be, .uuid-13112260-abfc-47e7-93b0-422894a18913, .uuid-e18a87a8-539a-4e6a-bbd8-06da107ada44 {
        mix-blend-mode: multiply;
      }

      .uuid-f56295da-2105-4160-af02-b9b1f7c37837 {
        fill: url(#uuid-7d30cb7c-cec8-49ae-aae2-2d6b4e841b3c);
      }

      .uuid-10a88191-5058-4771-a46d-2bf0355d597d {
        fill: url(#uuid-4033e04b-c3b4-4fb2-8bcd-b0e5189aeb8f);
      }

      .uuid-2738d72f-72bb-44b7-8a5f-937c0ae05278 {
        fill: url(#uuid-3537effb-b1f8-4b55-aa8e-216b7af4bad5);
      }

      .uuid-24d817ed-1a81-4df8-ac37-e6940f96410f {
        fill: url(#uuid-1a401d19-00f8-48c4-92d7-2f5375eaa9c7);
      }

      .uuid-0997e33e-a56b-4c34-bc8d-01742e2039ca {
        fill: url(#uuid-a7f0b2ac-5f35-486d-9df1-ae871b5f18f0);
      }

      .uuid-0997e33e-a56b-4c34-bc8d-01742e2039ca, .uuid-02af6373-5fed-487d-9729-d0cd9cb203e7, .uuid-18ab584a-9fd1-4035-8bed-9989068db40d, .uuid-a54c6f51-a557-4717-99f7-ae06fe5b2e6b, .uuid-f8500874-cb33-4fd4-bf5c-3344e82eb62c, .uuid-fb0c31b6-6908-4e5c-aa78-7450fbbd2939 {
        opacity: .6;
      }

      .uuid-41f08678-1779-40d8-856c-0f368fa6bce5 {
        fill: url(#uuid-504b2a88-4f0a-415f-9652-50b124945e72);
      }

      .uuid-41f08678-1779-40d8-856c-0f368fa6bce5, .uuid-649403b1-aeba-4f97-8a4a-a88e7e4a8994, .uuid-0d38bce6-e8df-4988-9c0d-4e807c723b54, .uuid-af97a412-d946-403e-8756-aa55d7af67cd, .uuid-1116be81-ac86-48a9-bd41-9abb56f8d62a, .uuid-8b5eaddd-6b35-4f30-9474-f71356b5c17f, .uuid-6da5e9b6-1cb9-411f-b6de-5cc9b8d2c5d7, .uuid-e8eef71b-20a8-4818-8257-b2736ef986be, .uuid-e18a87a8-539a-4e6a-bbd8-06da107ada44 {
        opacity: .4;
      }

      .uuid-67e681f4-89d2-4a1f-a19f-2fbe3e7e7b48 {
        isolation: isolate;
      }

      .uuid-8076662f-346b-4e5a-a4b9-3110b68e9675 {
        fill: #806661;
      }

      .uuid-649403b1-aeba-4f97-8a4a-a88e7e4a8994 {
        fill: url(#uuid-0b1effc6-c5a0-474b-b057-1612fa933d96);
      }

      .uuid-0d38bce6-e8df-4988-9c0d-4e807c723b54 {
        fill: url(#uuid-0d3f7160-5cd8-4abb-b3db-859dca8353de);
      }

      .uuid-4435e007-201c-4fc7-9b5b-d88611e2a9c1 {
        fill: url(#uuid-a43673b4-a18a-46e3-a677-b66472105215);
      }

      .uuid-d7156ff1-6ea4-4db8-9cc6-33d5ff87dbd0 {
        fill: #361f17;
      }

      .uuid-a8444d3d-22f9-4496-b678-0c6d9b6de5f2 {
        fill: url(#uuid-93fb8583-fc03-43fe-8fd7-badbdfcd8c5b);
      }

      .uuid-af97a412-d946-403e-8756-aa55d7af67cd {
        fill: url(#uuid-3883cf36-1195-49f8-90b3-e6d0cb2f9db0);
      }

      .uuid-7d4b4764-d7e6-4db3-887f-3b3721675a01 {
        fill: url(#uuid-15b977e0-87fd-49a3-9721-ebc4273c926c);
      }

      .uuid-eec1209d-9c08-4fbe-959e-4f2c6995ed68 {
        fill: url(#uuid-cb745e43-dc22-401f-929a-f684bdd746cf);
      }

      .uuid-7b955e3c-aa33-4666-8908-eb55a4b03ea7 {
        fill: url(#uuid-d49fa9c5-3235-4877-8bc2-475502d5f536);
      }

      .uuid-d0c15706-2448-4c41-a2db-00e6d69b7601 {
        fill: url(#uuid-5b49bb49-bb66-4b1b-8441-e616a4a0573a);
      }

      .uuid-13e9b8bb-3ca2-4203-ac83-605a1da7e689, .uuid-565059f5-7c6b-451f-aa86-3514f5aa8846 {
        fill: #545d5b;
      }

      .uuid-f768b43a-2453-437f-a073-cde35431f1ae {
        fill: url(#uuid-de8bca6b-163d-4969-8a8e-eab7aa234ca1);
      }

      .uuid-16902628-23e2-402f-bf3d-cfe1fbcd42f1 {
        fill: url(#uuid-b047147c-fa0b-4e5e-8925-3e3a6d5282c5);
      }

      .uuid-16902628-23e2-402f-bf3d-cfe1fbcd42f1, .uuid-fa8479fc-4a29-4d00-8a46-b0df1d2de265 {
        opacity: .9;
      }

      .uuid-ad2f5adc-aa7e-4e9a-b924-fe5770109a10 {
        fill: url(#uuid-8fe007e7-6dec-48fc-822d-d035cd580762);
      }

      .uuid-cc6fcbac-bee7-45d7-b812-570d8557abe3 {
        fill: #3c2f2c;
        opacity: .3;
      }

      .uuid-210a8dda-ebab-478c-81f7-99e9ebdbbeb4 {
        fill: url(#uuid-56a67e49-43f0-4d11-8da2-62399c7c5c9f);
      }

      .uuid-2cb323f4-7afd-4bb6-b0c1-f903f8c68a04 {
        fill: url(#uuid-faf80775-2787-4430-b8a6-7ab3a6da0d4a);
      }

      .uuid-97dccc7b-8d15-42e0-a82f-29fa3ac56bad {
        fill: url(#uuid-2e497ea3-f30d-4048-b78e-a915b61f7e6a);
      }

      .uuid-a6e3e1bf-629a-4862-82b6-b59e78efd07e {
        fill: url(#uuid-b313d31f-1586-482d-a8fc-f6228e0488e7);
      }

      .uuid-02af6373-5fed-487d-9729-d0cd9cb203e7 {
        fill: url(#uuid-ad162ca9-a88a-470f-94e4-b2aef4f61013);
      }

      .uuid-896bee24-8016-4193-a1ba-114c2ad5feb8 {
        fill: url(#uuid-c5668936-264d-484b-b180-137c2e107ab5);
      }

      .uuid-d4085b93-d165-47b4-bfe7-35d895861539 {
        fill: url(#uuid-214f161c-6fbb-48a4-a43a-21852e2b4b5c);
        opacity: .5;
      }

      .uuid-0d1861ce-6306-4131-83e8-bc7de7516839 {
        fill: url(#uuid-581712c7-503a-4b35-ac53-fc3d41924ea4);
      }

      .uuid-0091f1cf-7845-48c8-915e-aaae7b26d354 {
        fill: url(#uuid-a5691b4b-a05d-4f8d-af8d-77c32fb87b5d);
      }

      .uuid-74b20d40-0d0d-4f3a-ac93-efd607d8a9c1 {
        fill: url(#uuid-c1175312-b4d0-436c-bc6b-d96cfda4dc16);
      }

      .uuid-df4fbd12-eb29-4ec5-ab7d-6f448bc576e5 {
        fill: #624f4b;
      }

      .uuid-1a5d938a-4b44-4685-9263-91f1227313e3 {
        fill: url(#uuid-fc3b94be-3801-4cde-8b18-df22610561a6);
      }

      .uuid-bd2a387a-06d5-4cd9-823b-66071421fece {
        fill: url(#uuid-bb25eea9-06ab-4eb4-a72e-6206263a716b);
      }

      .uuid-18ab584a-9fd1-4035-8bed-9989068db40d {
        fill: url(#uuid-2a88c58b-199a-40be-b4ef-923a8b95257c);
      }

      .uuid-7d3cf360-aa3b-41ff-b063-29bd49047176 {
        fill: url(#uuid-d825b277-9681-4c03-b79c-e6b4d276ad21);
      }

      .uuid-9ef49a75-8b1d-47af-9527-c78db7718a15 {
        fill: url(#uuid-babdfcdf-eeda-4c84-a4f2-5b6b40653d91);
      }

      .uuid-c2c22619-9503-47e7-b485-ea3a086619bd {
        fill: url(#uuid-30d356ee-777d-4924-bfd9-4f2d734e52ce);
      }

      .uuid-31fba4a8-2fba-4db8-952d-7f1ebe937679 {
        fill: url(#uuid-e379caaa-61d8-4ef7-a7d9-ab350689446b);
      }

      .uuid-a54c6f51-a557-4717-99f7-ae06fe5b2e6b {
        fill: url(#uuid-3a730a14-6db4-4c00-b789-06665cea0374);
      }

      .uuid-52aa308f-d2aa-4ada-a898-0e561e810370 {
        fill: url(#uuid-a1e117d7-aba7-49ef-a8ae-02ddfdfcbe8a);
      }

      .uuid-46ac34b4-c3cf-4274-bf87-3d1a387ca0cb {
        fill: url(#uuid-0439d945-01de-4bb0-8b55-6a7e3dfe1edf);
      }

      .uuid-fafc2b4d-1612-4113-b21c-238ddda8034e {
        fill: url(#uuid-2fb5d894-077c-42f5-9386-dbc9ef2f2298);
      }

      .uuid-3d655435-6ce1-4282-b586-c8330c38e767 {
        fill: url(#uuid-c1e17f1f-2845-490d-8d77-6f0c65732744);
      }

      .uuid-520aaba1-7344-4b61-aed5-4e009d240286 {
        fill: #171311;
      }

      .uuid-64b104ce-aec2-4ba0-ba5b-248118bbe2d6 {
        fill: #bcbcbc;
      }

      .uuid-db98c72b-8281-4042-ae05-2f768698e3f4 {
        fill: url(#uuid-d7f3e993-3671-4ffd-bac3-791dca7b72af);
      }

      .uuid-3610ee73-f870-4334-b8c2-e2429c189290 {
        fill: url(#uuid-3eefc527-9c09-41d4-9985-7597efe365cd);
      }

      .uuid-caee9d2a-730f-44be-ada1-57938864e39b {
        fill: url(#uuid-4c29a56f-8736-4c9c-83af-d062f05136e7);
      }

      .uuid-1686d6d7-785b-4fb5-b951-fb514ad15783 {
        fill: url(#uuid-8ab5fa74-9986-48d6-abfc-74d9afe511e8);
      }

      .uuid-1116be81-ac86-48a9-bd41-9abb56f8d62a {
        fill: url(#uuid-9cda30a0-2a86-4d1e-b6cc-082d2320acf8);
      }

      .uuid-47f95eac-70b5-4910-a2e0-d73cc61f2f20 {
        fill: url(#uuid-5451a6a8-8cdb-40dd-b4d6-7a14784532e1);
      }

      .uuid-8b5eaddd-6b35-4f30-9474-f71356b5c17f {
        fill: url(#uuid-998c9a7e-34a4-47a4-b567-90da4172ce54);
      }

      .uuid-5f088c6a-2849-41ac-aa30-502f1e4e424f {
        fill: url(#uuid-fddcc9f5-2bca-4b50-9536-a513c69ef496);
      }

      .uuid-fa8479fc-4a29-4d00-8a46-b0df1d2de265 {
        fill: url(#uuid-a2b6484c-2d94-426b-8dc6-97d6104e37d4);
      }

      .uuid-f8500874-cb33-4fd4-bf5c-3344e82eb62c {
        fill: url(#uuid-3adf7e9e-930e-45d4-ada3-5b8b07d3e060);
      }

      .uuid-3eeffac2-8972-4534-8655-14a94d3c4cf4 {
        fill: url(#uuid-530b749f-12df-41c8-b2b7-5c679aa558cd);
      }

      .uuid-6da5e9b6-1cb9-411f-b6de-5cc9b8d2c5d7 {
        fill: url(#uuid-fd8c5942-aa8c-40d9-b894-efb1aaadaa0b);
      }

      .uuid-19657c94-abad-4529-8aa0-7c882ee045d1 {
        fill: url(#uuid-99de4fd5-9344-4207-8dbd-50ae73b9e014);
      }

      .uuid-9e52105d-6077-446a-9b27-f68af6e05114 {
        fill: url(#uuid-380a7031-8455-4b77-adff-0f6c6edf0c4c);
      }

      .uuid-fb0c31b6-6908-4e5c-aa78-7450fbbd2939 {
        fill: url(#uuid-f2ffde10-3317-4d4b-b8ba-d410c2012f5c);
      }

      .uuid-fcd7c604-06e4-4113-90c3-2bb38a0b8ee1 {
        fill: url(#uuid-09283a5c-9042-4c4b-bbcc-2fadb4a82c52);
      }

      .uuid-e8eef71b-20a8-4818-8257-b2736ef986be {
        fill: url(#uuid-f5fdc44c-b0c8-4ec4-b124-9dd3f03448db);
      }

      .uuid-803f8a1c-bb57-4354-b140-0019130add99 {
        fill: url(#uuid-1d71c911-dcf3-42b9-bdd3-af443c8fde2c);
      }

      .uuid-81c4ddec-f1c6-471e-90c1-aa7c95477b9b {
        fill: #302313;
      }

      .uuid-638e2304-7785-4e13-83ef-b9b16fce3415 {
        fill: url(#uuid-156aa7db-ec4d-4fe3-b02a-7f7162e1b5dd);
      }

      .uuid-619dad56-cf21-4e87-a901-5a923121b737 {
        fill: url(#uuid-adb73486-3da8-452e-8790-72bf3265df43);
      }

      .uuid-e18a87a8-539a-4e6a-bbd8-06da107ada44 {
        fill: url(#uuid-16f9920c-1f68-4919-940e-b2de193233b3);
      }

      .uuid-7c1b6d02-e782-4d2a-b140-20f88ffae85e {
        fill: url(#uuid-de24621c-3611-4915-a250-e359e6e5ba5b);
      }

      .uuid-1ec6fe3e-31c4-45d3-ab4b-91554f968dfc {
        fill: url(#uuid-aacd338a-68e6-45d6-bdc5-d58dbe66f1e8);
      }

      .uuid-4dd44add-67d8-4d51-9015-9960b15d2e61 {
        fill: url(#uuid-b0acaec9-2d32-4ffa-8f92-0cc07476b175);
      }
    </style>
    <linearGradient id="uuid-1d71c911-dcf3-42b9-bdd3-af443c8fde2c" x1="7894.5" y1="1507.07" x2="7862.41" y2="1513.49" gradientTransform="translate(7813.03 2038.66) rotate(-154.84) scale(1 -1)" gradientUnits="userSpaceOnUse">
      <stop offset="0" stop-color="#ffead9"/>
      <stop offset=".14" stop-color="#f7d7b2"/>
      <stop offset=".31" stop-color="#efc38a"/>
      <stop offset=".39" stop-color="#edbc7b"/>
      <stop offset=".56" stop-color="#dda45a"/>
      <stop offset=".73" stop-color="#d1913f"/>
      <stop offset=".88" stop-color="#c9862f"/>
      <stop offset="1" stop-color="#c7822a"/>
    </linearGradient>
    <linearGradient id="uuid-214f161c-6fbb-48a4-a43a-21852e2b4b5c" x1="7539.31" y1="37.33" x2="7545.64" y2="36.47" gradientTransform="translate(7577.14 -16.38) rotate(179.78) scale(1 -1)" xlink:href="#uuid-1d71c911-dcf3-42b9-bdd3-af443c8fde2c"/>
    <linearGradient id="uuid-16f9920c-1f68-4919-940e-b2de193233b3" x1="7889" y1="1514.28" x2="7892.19" y2="1502.18" gradientTransform="translate(7813.03 2038.66) rotate(-154.84) scale(1 -1)" gradientUnits="userSpaceOnUse">
      <stop offset="0" stop-color="#ffead9"/>
      <stop offset=".24" stop-color="#f7d7b2"/>
      <stop offset=".52" stop-color="#efc38a"/>
      <stop offset=".67" stop-color="#edbc7b"/>
      <stop offset=".76" stop-color="#dda45a"/>
      <stop offset=".85" stop-color="#d1913f"/>
      <stop offset=".94" stop-color="#c9862f"/>
      <stop offset="1" stop-color="#c7822a"/>
    </linearGradient>
    <linearGradient id="uuid-3883cf36-1195-49f8-90b3-e6d0cb2f9db0" x1="7447.24" y1="3155.04" x2="7447.75" y2="3156.17" gradientTransform="translate(6937.86 4260.94) rotate(-125.62) scale(1 -1)" gradientUnits="userSpaceOnUse">
      <stop offset=".09" stop-color="#fff"/>
      <stop offset=".15" stop-color="#f9f1e8"/>
      <stop offset=".31" stop-color="#ead0af"/>
      <stop offset=".48" stop-color="#ddb47f"/>
      <stop offset=".63" stop-color="#d39e5a"/>
      <stop offset=".78" stop-color="#cc8e3f"/>
      <stop offset=".9" stop-color="#c8852f"/>
      <stop offset="1" stop-color="#c7822a"/>
    </linearGradient>
    <linearGradient id="uuid-de24621c-3611-4915-a250-e359e6e5ba5b" x1="7602.52" y1="-824.83" x2="7605.76" y2="-827.59" gradientTransform="translate(7625.15 -608.86) rotate(168.97) scale(1 -1)" xlink:href="#uuid-1d71c911-dcf3-42b9-bdd3-af443c8fde2c"/>
    <linearGradient id="uuid-0439d945-01de-4bb0-8b55-6a7e3dfe1edf" x1="7578.88" y1="32.34" x2="7576.65" y2="35.19" gradientTransform="translate(7582.05) rotate(-180) scale(1 -1)" gradientUnits="userSpaceOnUse">
      <stop offset=".06" stop-color="#221a17"/>
      <stop offset=".97" stop-color="#d9c5bd"/>
    </linearGradient>
    <linearGradient id="uuid-156aa7db-ec4d-4fe3-b02a-7f7162e1b5dd" x1="4418.42" y1="-1656.12" x2="4427.6" y2="-1672.26" gradientTransform="translate(3171.54 -3465.88) rotate(111.36) scale(1 -1)" xlink:href="#uuid-1d71c911-dcf3-42b9-bdd3-af443c8fde2c"/>
    <linearGradient id="uuid-a2b6484c-2d94-426b-8dc6-97d6104e37d4" x1="4418.42" y1="-1656.12" x2="4427.6" y2="-1672.26" gradientTransform="translate(3171.54 -3465.89) rotate(111.36) scale(1 -1)" xlink:href="#uuid-16f9920c-1f68-4919-940e-b2de193233b3"/>
    <linearGradient id="uuid-f5fdc44c-b0c8-4ec4-b124-9dd3f03448db" x1="7563.7" y1="40.07" x2="7566.24" y2="28.86" gradientTransform="translate(7577.14 -16.38) rotate(179.78) scale(1 -1)" xlink:href="#uuid-16f9920c-1f68-4919-940e-b2de193233b3"/>
    <linearGradient id="uuid-a1e117d7-aba7-49ef-a8ae-02ddfdfcbe8a" x1="4422.9" y1="-1653.95" x2="4431.77" y2="-1669.53" gradientTransform="translate(3171.54 -3465.88) rotate(111.36) scale(1 -1)" xlink:href="#uuid-1d71c911-dcf3-42b9-bdd3-af443c8fde2c"/>
    <linearGradient id="uuid-5b49bb49-bb66-4b1b-8441-e616a4a0573a" x1="7549.22" y1="33.05" x2="7556.72" y2="10.66" gradientTransform="translate(7577.14 -16.38) rotate(179.78) scale(1 -1)" xlink:href="#uuid-1d71c911-dcf3-42b9-bdd3-af443c8fde2c"/>
    <linearGradient id="uuid-1a401d19-00f8-48c4-92d7-2f5375eaa9c7" x1="7549.22" y1="33.05" x2="7556.72" y2="10.66" gradientTransform="translate(7577.14 -16.38) rotate(179.78) scale(1 -1)" xlink:href="#uuid-1d71c911-dcf3-42b9-bdd3-af443c8fde2c"/>
    <linearGradient id="uuid-e379caaa-61d8-4ef7-a7d9-ab350689446b" x1="7557.89" y1="32.74" x2="7553.27" y2="46.74" gradientTransform="translate(7582.05) rotate(-180) scale(1 -1)" gradientUnits="userSpaceOnUse">
      <stop offset=".04" stop-color="#cec2a0"/>
      <stop offset=".15" stop-color="#d4caad"/>
      <stop offset=".53" stop-color="#ebe6d9"/>
      <stop offset=".83" stop-color="#f9f8f4"/>
      <stop offset="1" stop-color="#fff"/>
    </linearGradient>
    <linearGradient id="uuid-3a730a14-6db4-4c00-b789-06665cea0374" x1="7549.22" y1="33.05" x2="7556.72" y2="10.66" gradientTransform="translate(7577.14 -16.38) rotate(179.78) scale(1 -1)" xlink:href="#uuid-1d71c911-dcf3-42b9-bdd3-af443c8fde2c"/>
    <linearGradient id="uuid-63e15ddd-e4cf-453b-be4d-077754c285ba" x1="7564.49" y1="25.25" x2="7547.5" y2="66.88" gradientTransform="translate(7582.05) rotate(-180) scale(1 -1)" xlink:href="#uuid-1d71c911-dcf3-42b9-bdd3-af443c8fde2c"/>
    <linearGradient id="uuid-a7f0b2ac-5f35-486d-9df1-ae871b5f18f0" x1="7564.49" y1="25.25" x2="7547.5" y2="66.88" gradientTransform="translate(7582.05) rotate(-180) scale(1 -1)" xlink:href="#uuid-1d71c911-dcf3-42b9-bdd3-af443c8fde2c"/>
    <linearGradient id="uuid-2a88c58b-199a-40be-b4ef-923a8b95257c" x1="7562.33" y1="24.34" x2="7545.31" y2="66.04" gradientTransform="translate(7582.05) rotate(-180) scale(1 -1)" xlink:href="#uuid-1d71c911-dcf3-42b9-bdd3-af443c8fde2c"/>
    <linearGradient id="uuid-30d356ee-777d-4924-bfd9-4f2d734e52ce" x1="7546.65" y1="30.38" x2="7549.48" y2="30.38" gradientTransform="translate(7577.14 -16.38) rotate(179.78) scale(1 -1)" xlink:href="#uuid-1d71c911-dcf3-42b9-bdd3-af443c8fde2c"/>
    <linearGradient id="uuid-4c29a56f-8736-4c9c-83af-d062f05136e7" x1="7549.59" y1="39.13" x2="7550.04" y2="39.13" gradientTransform="translate(7577.14 -16.38) rotate(179.78) scale(1 -1)" xlink:href="#uuid-1d71c911-dcf3-42b9-bdd3-af443c8fde2c"/>
    <linearGradient id="uuid-b313d31f-1586-482d-a8fc-f6228e0488e7" x1="7550.07" y1="44.18" x2="7550.82" y2="44.18" gradientTransform="translate(7577.14 -16.38) rotate(179.78) scale(1 -1)" xlink:href="#uuid-1d71c911-dcf3-42b9-bdd3-af443c8fde2c"/>
    <linearGradient id="uuid-367a3a96-3ced-438a-9914-e1e4516f3741" x1="6344.1" y1="-1239.86" x2="6354.27" y2="-1252.78" gradientTransform="translate(5947.8 -2514.56) rotate(145.56) scale(1 -1)" xlink:href="#uuid-1d71c911-dcf3-42b9-bdd3-af443c8fde2c"/>
    <linearGradient id="uuid-b047147c-fa0b-4e5e-8925-3e3a6d5282c5" x1="7573.05" y1="48.52" x2="7583.7" y2="45.68" gradientTransform="translate(7582.05) rotate(-180) scale(1 -1)" xlink:href="#uuid-16f9920c-1f68-4919-940e-b2de193233b3"/>
    <linearGradient id="uuid-babdfcdf-eeda-4c84-a4f2-5b6b40653d91" x1="7581.83" y1="33.72" x2="7570.68" y2="39.75" xlink:href="#uuid-0439d945-01de-4bb0-8b55-6a7e3dfe1edf"/>
    <linearGradient id="uuid-0d3f7160-5cd8-4abb-b3db-859dca8353de" x1="7561.54" y1="29.84" x2="7569.2" y2="28.95" gradientTransform="translate(7577.14 -16.38) rotate(179.78) scale(1 -1)" xlink:href="#uuid-1d71c911-dcf3-42b9-bdd3-af443c8fde2c"/>
    <linearGradient id="uuid-504b2a88-4f0a-415f-9652-50b124945e72" x1="7561.33" y1="27.99" x2="7568.97" y2="27.1" gradientTransform="translate(7577.14 -16.38) rotate(179.78) scale(1 -1)" xlink:href="#uuid-1d71c911-dcf3-42b9-bdd3-af443c8fde2c"/>
    <linearGradient id="uuid-9cda30a0-2a86-4d1e-b6cc-082d2320acf8" x1="7555.3" y1="30.39" x2="7570.37" y2="30.39" gradientTransform="translate(7582.05) rotate(-180) scale(1 -1)" xlink:href="#uuid-1d71c911-dcf3-42b9-bdd3-af443c8fde2c"/>
    <linearGradient id="uuid-0b1effc6-c5a0-474b-b057-1612fa933d96" x1="7543.88" y1="32.06" x2="7550.03" y2="32.06" gradientTransform="translate(7582.05) rotate(-180) scale(1 -1)" xlink:href="#uuid-1d71c911-dcf3-42b9-bdd3-af443c8fde2c"/>
    <linearGradient id="uuid-4033e04b-c3b4-4fb2-8bcd-b0e5189aeb8f" x1="7537.1" y1="12.3" x2="7533.35" y2="19.27" xlink:href="#uuid-e379caaa-61d8-4ef7-a7d9-ab350689446b"/>
    <linearGradient id="uuid-35721d8f-adef-4905-b95e-d82181cf4478" x1="7536.26" y1="11.9" x2="7532.6" y2="18.7" xlink:href="#uuid-0439d945-01de-4bb0-8b55-6a7e3dfe1edf"/>
    <linearGradient id="uuid-5451a6a8-8cdb-40dd-b4d6-7a14784532e1" x1="7535" y1="18.77" x2="7536.95" y2="9.66" xlink:href="#uuid-0439d945-01de-4bb0-8b55-6a7e3dfe1edf"/>
    <linearGradient id="uuid-581712c7-503a-4b35-ac53-fc3d41924ea4" x1="7534.69" y1="15.82" x2="7536.05" y2="14.6" gradientTransform="translate(7582.05) rotate(-180) scale(1 -1)" xlink:href="#uuid-1d71c911-dcf3-42b9-bdd3-af443c8fde2c"/>
    <linearGradient id="uuid-7d30cb7c-cec8-49ae-aae2-2d6b4e841b3c" x1="7533.87" y1="21.62" x2="7544.95" y2="21.62" gradientTransform="translate(7582.05) rotate(-180) scale(1 -1)" xlink:href="#uuid-1d71c911-dcf3-42b9-bdd3-af443c8fde2c"/>
    <linearGradient id="uuid-1d2b508f-9ca4-4a72-bcc4-2ddf83b8d375" x1="7533.87" y1="21.62" x2="7544.95" y2="21.62" gradientTransform="translate(7582.05) rotate(-180) scale(1 -1)" xlink:href="#uuid-1d71c911-dcf3-42b9-bdd3-af443c8fde2c"/>
    <linearGradient id="uuid-99de4fd5-9344-4207-8dbd-50ae73b9e014" x1="7533.87" y1="19.82" x2="7544.95" y2="19.82" xlink:href="#uuid-e379caaa-61d8-4ef7-a7d9-ab350689446b"/>
    <linearGradient id="uuid-aacd338a-68e6-45d6-bdc5-d58dbe66f1e8" x1="7536.41" y1="36.29" x2="7535.56" y2="33.46" gradientTransform="translate(7581.24 5.29) rotate(-179.9) scale(1 -1)" xlink:href="#uuid-e379caaa-61d8-4ef7-a7d9-ab350689446b"/>
    <linearGradient id="uuid-cb745e43-dc22-401f-929a-f684bdd746cf" x1="7533.87" y1="22.04" x2="7544.95" y2="22.04" xlink:href="#uuid-0439d945-01de-4bb0-8b55-6a7e3dfe1edf"/>
    <linearGradient id="uuid-b0c422b1-eb91-422d-89a6-0eb49dd7d34e" x1="7540.8" y1="17.09" x2="7539.88" y2="23.05" xlink:href="#uuid-0439d945-01de-4bb0-8b55-6a7e3dfe1edf"/>
    <linearGradient id="uuid-de8bca6b-163d-4969-8a8e-eab7aa234ca1" x1="7546.29" y1="14.32" x2="7541.8" y2="19.51" xlink:href="#uuid-0439d945-01de-4bb0-8b55-6a7e3dfe1edf"/>
    <linearGradient id="uuid-8cd2f7d0-08ba-42e0-ae5e-b55e4fa24e01" x1="7540.73" y1="19.84" x2="7541.13" y2="21.29" gradientTransform="translate(7582.05) rotate(-180) scale(1 -1)" gradientUnits="userSpaceOnUse">
      <stop offset=".08" stop-color="#261e1c"/>
      <stop offset=".25" stop-color="#3f3734"/>
      <stop offset=".62" stop-color="#827971"/>
      <stop offset="1" stop-color="#cec5b8"/>
    </linearGradient>
    <linearGradient id="uuid-dadfb05e-2b16-4cb9-9977-7b61beedd09e" x1="7540.78" y1="19.94" x2="7540.31" y2="18.34" xlink:href="#uuid-8cd2f7d0-08ba-42e0-ae5e-b55e4fa24e01"/>
    <linearGradient id="uuid-f2e661da-ae23-45e9-8e58-5609001788e0" x1="7535.42" y1="27.46" x2="7535.51" y2="28.56" xlink:href="#uuid-0439d945-01de-4bb0-8b55-6a7e3dfe1edf"/>
    <linearGradient id="uuid-bb25eea9-06ab-4eb4-a72e-6206263a716b" x1="7537.11" y1="12.29" x2="7533.33" y2="19.3" xlink:href="#uuid-e379caaa-61d8-4ef7-a7d9-ab350689446b"/>
    <linearGradient id="uuid-3eefc527-9c09-41d4-9985-7597efe365cd" x1="7537.32" y1="12.38" x2="7533.51" y2="19.47" xlink:href="#uuid-e379caaa-61d8-4ef7-a7d9-ab350689446b"/>
    <linearGradient id="uuid-93fb8583-fc03-43fe-8fd7-badbdfcd8c5b" x1="7541.61" y1="8.71" x2="7535.36" y2="3.42" xlink:href="#uuid-0439d945-01de-4bb0-8b55-6a7e3dfe1edf"/>
    <linearGradient id="uuid-530b749f-12df-41c8-b2b7-5c679aa558cd" x1="7541.62" y1="8.72" x2="7535.35" y2="3.41" xlink:href="#uuid-0439d945-01de-4bb0-8b55-6a7e3dfe1edf"/>
    <linearGradient id="uuid-15b977e0-87fd-49a3-9721-ebc4273c926c" x1="7535.84" y1="13.12" x2="7544.87" y2="21.54" xlink:href="#uuid-0439d945-01de-4bb0-8b55-6a7e3dfe1edf"/>
    <linearGradient id="uuid-fddcc9f5-2bca-4b50-9536-a513c69ef496" x1="7536.01" y1="12.79" x2="7545.23" y2="21.4" xlink:href="#uuid-0439d945-01de-4bb0-8b55-6a7e3dfe1edf"/>
    <linearGradient id="uuid-56a67e49-43f0-4d11-8da2-62399c7c5c9f" x1="7536.36" y1="12.46" x2="7545.36" y2="20.86" xlink:href="#uuid-0439d945-01de-4bb0-8b55-6a7e3dfe1edf"/>
    <linearGradient id="uuid-380a7031-8455-4b77-adff-0f6c6edf0c4c" x1="7536.93" y1="11.75" x2="7545.99" y2="20.22" xlink:href="#uuid-0439d945-01de-4bb0-8b55-6a7e3dfe1edf"/>
    <linearGradient id="uuid-c5668936-264d-484b-b180-137c2e107ab5" x1="7537.64" y1="10.91" x2="7546.72" y2="19.39" xlink:href="#uuid-0439d945-01de-4bb0-8b55-6a7e3dfe1edf"/>
    <linearGradient id="uuid-84a3a2b4-9765-4667-b454-d77830c24bdd" x1="7538.86" y1="9.55" x2="7548.05" y2="18.13" xlink:href="#uuid-0439d945-01de-4bb0-8b55-6a7e3dfe1edf"/>
    <linearGradient id="uuid-a43673b4-a18a-46e3-a677-b66472105215" x1="7540.33" y1="7.9" x2="7549.5" y2="16.46" xlink:href="#uuid-0439d945-01de-4bb0-8b55-6a7e3dfe1edf"/>
    <linearGradient id="uuid-30d842fc-9fc7-4a22-b19c-23c1d94bba26" x1="7541.54" y1="6.55" x2="7550.72" y2="15.12" xlink:href="#uuid-0439d945-01de-4bb0-8b55-6a7e3dfe1edf"/>
    <linearGradient id="uuid-c1175312-b4d0-436c-bc6b-d96cfda4dc16" x1="7539.96" y1="20.73" x2="7538.32" y2="24.38" xlink:href="#uuid-0439d945-01de-4bb0-8b55-6a7e3dfe1edf"/>
    <linearGradient id="uuid-8fe007e7-6dec-48fc-822d-d035cd580762" x1="7533.87" y1="26.8" x2="7544.95" y2="26.8" xlink:href="#uuid-e379caaa-61d8-4ef7-a7d9-ab350689446b"/>
    <linearGradient id="uuid-ad162ca9-a88a-470f-94e4-b2aef4f61013" x1="7533.87" y1="21.63" x2="7544.95" y2="21.63" gradientTransform="translate(7582.05) rotate(-180) scale(1 -1)" xlink:href="#uuid-1d71c911-dcf3-42b9-bdd3-af443c8fde2c"/>
    <linearGradient id="uuid-fc3b94be-3801-4cde-8b18-df22610561a6" x1="7533.87" y1="16.31" x2="7544.95" y2="16.31" xlink:href="#uuid-e379caaa-61d8-4ef7-a7d9-ab350689446b"/>
    <linearGradient id="uuid-f2ffde10-3317-4d4b-b8ba-d410c2012f5c" x1="7533.87" y1="20.07" x2="7544.95" y2="20.07" gradientTransform="translate(7582.05) rotate(-180) scale(1 -1)" xlink:href="#uuid-1d71c911-dcf3-42b9-bdd3-af443c8fde2c"/>
    <linearGradient id="uuid-7a0f0347-026a-4c1b-841d-5f09b6971de8" x1="7541.5" y1="7.04" x2="7565.02" y2="13.2" xlink:href="#uuid-0439d945-01de-4bb0-8b55-6a7e3dfe1edf"/>
    <linearGradient id="uuid-2e497ea3-f30d-4048-b78e-a915b61f7e6a" x1="7540.79" y1="9.76" x2="7564.3" y2="15.92" xlink:href="#uuid-0439d945-01de-4bb0-8b55-6a7e3dfe1edf"/>
    <linearGradient id="uuid-d825b277-9681-4c03-b79c-e6b4d276ad21" x1="7542.88" y1="15.99" x2="7548.5" y2="22.01" xlink:href="#uuid-0439d945-01de-4bb0-8b55-6a7e3dfe1edf"/>
    <linearGradient id="uuid-c1e17f1f-2845-490d-8d77-6f0c65732744" x1="7544.38" y1="14.5" x2="7550.01" y2="20.53" xlink:href="#uuid-0439d945-01de-4bb0-8b55-6a7e3dfe1edf"/>
    <linearGradient id="uuid-c0a03f3d-fbbf-4d5d-acc9-443c70ed91c5" x1="7545.89" y1="12.99" x2="7551.5" y2="19" xlink:href="#uuid-0439d945-01de-4bb0-8b55-6a7e3dfe1edf"/>
    <linearGradient id="uuid-3537effb-b1f8-4b55-aa8e-216b7af4bad5" x1="7547.3" y1="11.63" x2="7552.94" y2="17.67" xlink:href="#uuid-0439d945-01de-4bb0-8b55-6a7e3dfe1edf"/>
    <linearGradient id="uuid-8ab5fa74-9986-48d6-abfc-74d9afe511e8" x1="7548.76" y1="10.22" x2="7554.42" y2="16.29" xlink:href="#uuid-0439d945-01de-4bb0-8b55-6a7e3dfe1edf"/>
    <linearGradient id="uuid-09283a5c-9042-4c4b-bbcc-2fadb4a82c52" x1="7550.11" y1="8.94" x2="7555.79" y2="15.02" xlink:href="#uuid-0439d945-01de-4bb0-8b55-6a7e3dfe1edf"/>
    <linearGradient id="uuid-adb73486-3da8-452e-8790-72bf3265df43" x1="7551.34" y1="7.75" x2="7557.03" y2="13.84" xlink:href="#uuid-0439d945-01de-4bb0-8b55-6a7e3dfe1edf"/>
    <linearGradient id="uuid-a5691b4b-a05d-4f8d-af8d-77c32fb87b5d" x1="7552.3" y1="6.82" x2="7558" y2="12.94" xlink:href="#uuid-0439d945-01de-4bb0-8b55-6a7e3dfe1edf"/>
    <linearGradient id="uuid-998c9a7e-34a4-47a4-b567-90da4172ce54" x1="7552.59" y1="13.65" x2="7596.52" y2="60.74" xlink:href="#uuid-0439d945-01de-4bb0-8b55-6a7e3dfe1edf"/>
    <linearGradient id="uuid-d7f3e993-3671-4ffd-bac3-791dca7b72af" x1="7547.89" y1="15.77" x2="7543.45" y2="20.91" xlink:href="#uuid-0439d945-01de-4bb0-8b55-6a7e3dfe1edf"/>
    <linearGradient id="uuid-2fb5d894-077c-42f5-9386-dbc9ef2f2298" x1="7545.07" y1="13.22" x2="7549.38" y2="19.94" xlink:href="#uuid-e379caaa-61d8-4ef7-a7d9-ab350689446b"/>
    <linearGradient id="uuid-35639c60-5a1e-4e57-86d8-d44cf28826f1" x1="7548.13" y1="14.28" x2="7550.35" y2="12.25" xlink:href="#uuid-0439d945-01de-4bb0-8b55-6a7e3dfe1edf"/>
    <linearGradient id="uuid-faf80775-2787-4430-b8a6-7ab3a6da0d4a" x1="7545.07" y1="13.22" x2="7549.38" y2="19.94" xlink:href="#uuid-e379caaa-61d8-4ef7-a7d9-ab350689446b"/>
    <linearGradient id="uuid-d49fa9c5-3235-4877-8bc2-475502d5f536" x1="7543.64" y1="14.31" x2="7547.82" y2="20.85" xlink:href="#uuid-e379caaa-61d8-4ef7-a7d9-ab350689446b"/>
    <linearGradient id="uuid-143ec970-d955-47d2-8a2c-bb2fbee1de35" x1="7533.88" y1="21.64" x2="7544.95" y2="21.64" gradientTransform="translate(7582.05) rotate(-180) scale(1 -1)" xlink:href="#uuid-1d71c911-dcf3-42b9-bdd3-af443c8fde2c"/>
    <linearGradient id="uuid-b0acaec9-2d32-4ffa-8f92-0cc07476b175" x1="7533.87" y1="18.9" x2="7544.95" y2="18.9" gradientTransform="translate(7582.05) rotate(-180) scale(1 -1)" xlink:href="#uuid-1d71c911-dcf3-42b9-bdd3-af443c8fde2c"/>
    <linearGradient id="uuid-3adf7e9e-930e-45d4-ada3-5b8b07d3e060" x1="7533.87" y1="22.86" x2="7544.95" y2="22.86" gradientTransform="translate(7582.05) rotate(-180) scale(1 -1)" xlink:href="#uuid-1d71c911-dcf3-42b9-bdd3-af443c8fde2c"/>
    <linearGradient id="uuid-fd8c5942-aa8c-40d9-b894-efb1aaadaa0b" x1="7547.6" y1="14.31" x2="7618.4" y2="80.43" xlink:href="#uuid-0439d945-01de-4bb0-8b55-6a7e3dfe1edf"/>
  </defs>
  <g class="uuid-67e681f4-89d2-4a1f-a19f-2fbe3e7e7b48">
    <g id="uuid-eecbd639-aed0-4ff9-a9f6-536c2a491619" data-name="Layer 2">
      <g id="uuid-25747682-d5a5-4907-915c-20875357ac23" data-name="Layer 1">
        <g>
          <g>
            <g>
              <g>
                <path class="uuid-565059f5-7c6b-451f-aa86-3514f5aa8846" d="M29.24,59.31s-.84-.04-1.47-.02c0,0-.39,1.93,.48,2.74l1.52-.95-.52-1.77Z"/>
                <path class="uuid-13e9b8bb-3ca2-4203-ac83-605a1da7e689" d="M28.99,60.97c-.39-.37-.95-.84-1.27-1.35,.02-.2,.05-.33,.05-.33,.63-.02,1.47,.02,1.47,.02l.52,1.77-.5,.32c0-.16-.14-.3-.27-.43Z"/>
                <path class="uuid-803f8a1c-bb57-4354-b140-0019130add99" d="M29.4,59.12c.05,0,.06-.06,.04-.09-.05-.06-.1-.11-.15-.16,.42-.05,.86-.14,1.24-.3,.14-.06,.25-.14,.35-.24,0,0,.02,.02,.02,.03,.02-.04,.03-.08,.05-.11,.12-.14,.21-.31,.29-.49,.65-1.35,1.26-2.73,1.89-4.09,.16-.36,.33-.71,.5-1.07,.14-.31,.35-.63,.44-.97,.07-.29,.03-.6,.16-.87,.09-.19,.13-.33,.1-.54-.06-.48-.33-.94-.58-1.34-.15-.24-.31-.48-.48-.72-.34-.68-.68-1.29-.79-1.47-.78-1.27-5.45-7.11-2.84-9.03,1.76-1.3,3.44,.09,3.99,2.24,.26,1.03,1.37,6.62,1.82,7.81,.22,.58,.36,1.23,.62,1.78,.25,.53,.41,.86,.22,1.47-.15,.48-.44,.89-.77,1.21-.02,.02-.03,.03-.05,.05-.95,.84-1.4,2.3-2.05,3.5-.27,.68-.54,1.36-.85,2.02-.31,.66-.65,1.26-1.05,1.8-.11,.07-.3,.6-.42,.64-.42,.16-1.56,1.27-1.83,1.23-.26-.29-.63-1.58-.52-2.35,.22,.04,.44,.06,.66,.07Z"/>
                <path class="uuid-d7156ff1-6ea4-4db8-9cc6-33d5ff87dbd0" d="M29.48,58.84c.36-.05,.72-.14,1.04-.27,.14-.06,.25-.14,.35-.24,0,0,.02,.02,.02,.03,.02-.04,.03-.08,.05-.11,.12-.14,.21-.31,.29-.49,.09-.18,.17-.37,.26-.55,0,.55-.1,1.14-.36,1.56-.39,.63-1.29,.67-1.65,.07Z"/>
                <path class="uuid-d4085b93-d165-47b4-bfe7-35d895861539" d="M32.7,39.95c-.29,.3-.59,.58-.83,.93-.25,.37-.43,.77-.55,1.21-.02,.06,.06,.09,.1,.04,.07-.1,.15-.2,.23-.3-.08,.19-.14,.39-.15,.6,0,.05,.06,.07,.09,.04,.11-.1,.22-.2,.33-.31-.45,1.17,.12,2.35,.69,3.39,.7,1.27,1.3,2.6,1.81,3.97,.02,.04,.06,.05,.09,.02,.15-.12,.31-.23,.48-.32-.45,.97-.31,2.04-.34,3.1-.07-.12-.13-.26-.19-.39-.02-.05-.09-.06-.1,0-.16,.75-.62,1.36-.93,2.05-.34,.74-.66,1.48-1.02,2.21-.31,.63-.48,1.36-.86,1.95-.39,.6-1.05,.57-1.61,.87-.04,.02-.03,.07,0,.1,.12,.09,.26,.15,.41,.19-.39,.16-.82,.19-1.22,.36-.14,.06-.25,.16-.35,.28-.05-.32-.07-.63-.03-.89,.22,.04,.44,.06,.66,.07,.05,0,.06-.06,.04-.09-.05-.06-.1-.11-.15-.16,.42-.05,.86-.14,1.24-.3,.14-.06,.25-.14,.35-.24,0,0,.02,.02,.02,.03,.02-.04,.03-.08,.05-.11,.12-.14,.21-.31,.29-.49,.65-1.35,1.26-2.73,1.89-4.09,.16-.36,.33-.71,.5-1.07,.14-.31,.35-.63,.44-.97,.07-.29,.03-.6,.16-.87,.09-.19,.13-.33,.1-.54-.06-.48-.33-.94-.58-1.34-.15-.24-.31-.48-.48-.72-.34-.68-.68-1.29-.79-1.47-.78-1.27-5.45-7.11-2.84-9.03,1.55-1.15,3.04-.2,3.74,1.5-.02,.02-.03,.04-.05,.06-.21,.24-.41,.5-.63,.73Z"/>
                <path class="uuid-e18a87a8-539a-4e6a-bbd8-06da107ada44" d="M29.63,37.66c1.76-1.3,3.44,.09,3.99,2.24,.12,.47,.42,1.92,.76,3.46-.23,.19-.48,.34-.74,.47-.35,.17-.74,.29-1.03,.6-.38,.4-.46,1.03-.56,1.64-1.36-1.97-4.72-6.71-2.42-8.41Z"/>
              </g>
              <path class="uuid-af97a412-d946-403e-8756-aa55d7af67cd" d="M33.52,42.95c-.06-.58-.37-2.95-.48-3.54-.08-.41-.17-.81-.32-1.19,0,0,0,0,0,0,.57,.49,1.21,3.98,1.38,4.74,.29,1.31,.52,2.65,.91,3.93,.2,.66,.43,1.33,.67,1.98,.17,.45,.47,.81,.56,1.3,.12,.71-.32,1.45-.81,1.81,.33-.45,.56-.99,.61-1.57,.06-.65-.26-.37-.41-.88-.14-.49-.57-1.23-.73-1.71-.15-.46-.32-.9-.47-1.36-.16-.48-.3-.96-.45-1.45-.08-.3-.15-.61-.23-.91-.09-.38-.17-.77-.25-1.15Z"/>
            </g>
            <path class="uuid-7c1b6d02-e782-4d2a-b140-20f88ffae85e" d="M1.12,37.1c-.05,.13-.09,.25-.13,.38-.02,.07-.16-.02-.14-.08,.12-.51,.25-1.02,.42-1.52,.04-.59,.12-1.18,.31-1.75,.25-.77,.68-1.49,1.15-2.16,.34-.49,.66-.99,1.14-1.37,.48-.39,1.06-.62,1.61-.91,0,.08-.01,.15-.03,.23-.08,.33-.18,.65-.32,.96-.29,.63-.68,1.22-1,1.84-.19,.37-.37,.75-.54,1.14-.29,.63-.55,1.21-.52,1.91,.01,.31,.03,.64,.19,.91,.04,.07,0,.13-.09,.1-.16-.05-.3-.17-.42-.32,0,0,0,0,0,0,0,.51,.08,1.01,.11,1.52,0,.07-.11,0-.12-.03,0,0,0-.01,0-.02,0,0-.01,0-.02-.01-.12-.2-.19-.41-.26-.63,0,.13,.01,.25,.03,.38,.12,.36,.29,.71,.41,1.08,.04,.11-.12,.06-.16,.02-.23-.22-.42-.47-.58-.75,.01,.27,.05,.54,.11,.81,.02,.16,.05,.32,.07,.48-.05,.01-.15-.03-.17-.07-.11-.19-.2-.39-.27-.6,.04,.34,.11,.68,.21,1.03,0,.13,0,.25,0,.38-.06,0-.13-.05-.16-.09-.16-.25-.28-.52-.36-.8,0,.04-.02,.09-.03,.13-.04,.13-.12,.42-.09,.59-.12-.29-.2-.6-.25-.93,0-.23-.01-.46-.02-.69-.04,.19-.07,.38-.1,.58,0,.06-.12,0-.12-.05,.03-.56,.06-1.12,.17-1.68Z"/>
            <path class="uuid-46ac34b4-c3cf-4274-bf87-3d1a387ca0cb" d="M2.74,36.45s0,0,0,0c0,.33,.04,.66,.07,.99-.04-.3-.1-.6-.17-.9-.12-.53-.25-1.06-.25-1.61,0-.55,.06-1.71,.03-1.66-.44,.56-.75,1.13-1.05,1.77,.05-.31,.12-.61,.22-.91,.25-.77,.68-1.49,1.15-2.16,.34-.49,.66-.99,1.14-1.37,.48-.39,1.06-.62,1.61-.91,0,.08-.01,.15-.03,.23-.08,.33-.18,.65-.32,.96-.29,.63-.68,1.22-1,1.84-.19,.37-.37,.75-.54,1.14-.29,.63-.55,1.21-.52,1.91,.01,.31,.03,.64,.19,.91,.04,.07,0,.13-.09,.1-.16-.05-.3-.17-.42-.32Z"/>
            <g>
              <path class="uuid-565059f5-7c6b-451f-aa86-3514f5aa8846" d="M17.52,63.87s.83,.84,1.19,1.89c0,0-1.4,.47-2.43-.32v-1.26s1.24-.31,1.24-.31Z"/>
              <path class="uuid-13e9b8bb-3ca2-4203-ac83-605a1da7e689" d="M17.52,63.87s.27,.28,.57,.71c-.29,.22-.77,.09-.99,.46-.13,.23-.11,.5-.07,.77-.26-.07-.52-.18-.76-.37v-1.26s1.24-.31,1.24-.31Z"/>
              <path class="uuid-638e2304-7785-4e13-83ef-b9b16fce3415" d="M3.9,34.75c-.2-1.35-.02-2.88,.6-4.09,.34-.66,.82-1.2,1.39-1.58,1.32-.34,2.75-.32,3.86,0,5.14,1.47,9.81,12.9,3.55,24.05-.2,.36,3.06,6.77,3.55,7.69,.18,.34,.62,1.49,1.07,2.31,.06,.26,.1,.53,.11,.81,0,.15,0,.3,.01,.44-.49,.37-1.31,.18-1.88-.1l-.1-1.79c.1-.35-.71-.91-.78-1.27-.09-.49-.18-.55-.41-.89-.28-.41-.09-.13-.39-.53-2-2.69-2.51-3.13-4.22-6.03-.66-1.12,.86-3.29,1.44-4.08,.87-1.17-1.13-5.12-1.69-6.28-1.09-2.22-3.13-4.08-4.92-5.77-.55-.89-1.04-1.83-1.2-2.9Z"/>
              <path class="uuid-fa8479fc-4a29-4d00-8a46-b0df1d2de265" d="M4.5,30.66c.34-.66,.82-1.2,1.39-1.58,1.32-.34,2.75-.32,3.86,0,3.73,1.06,7.21,7.39,6.44,15.05-.19-.49-.54-.93-.92-1.25-.05-.04-.11,0-.09,.07,.09,.2,.16,.41,.23,.61-.38-.49-1.01-.82-1.58-.84-.05,0-.07,.06-.04,.1,.13,.15,.26,.3,.38,.46-.4-.23-.84-.25-1.31-.21-.31,.03-.5,.11-.53,.46-.14,1.58,.22,3.1,.32,4.67,0,.05,.06,.08,.09,.04,.14-.14,.85-.04,1.02-.13-.53,.6-3.42,3.87-2.11,6.76,.49,1.08,1.39,1.91,2.07,2.86,.39,.55,.75,1.14,1.18,1.66,.12,.14,.25,.29,.34,.47,.09,.17,.08,.32,.07,.51-.01,.19-.02,.44,.13,.59,.17,.17,.38,.18,.59,.27,.11,.05,.03,.33,.04,.42,0,.15,.02,.29,.04,.43,.07,.39,.14,.77,.16,1.17,.02,.28,.04,.57,.12,.84,.01,.04,.08,.06,.1,.01,.09-.23,.15-.48,.19-.72,.05,.3,.19,.56,.52,.7,.24,.1,.52,.2,.81,.25,0,.02,0,.03,0,.05-.49,.37-1.31,.18-1.88-.1l-.1-1.79c.1-.35-.71-.91-.78-1.27-.09-.49-.18-.55-.41-.89-.28-.41-.09-.13-.39-.53-2-2.69-2.51-3.13-4.22-6.03-.66-1.12,.86-3.29,1.44-4.08,.87-1.17-1.13-5.12-1.69-6.28-1.09-2.22-3.13-4.08-4.92-5.77-.55-.89-1.04-1.83-1.2-2.9-.2-1.35-.02-2.88,.6-4.09Z"/>
              <path class="uuid-d7156ff1-6ea4-4db8-9cc6-33d5ff87dbd0" d="M14.65,59.45c.58,.18,1.12,.66,1.48,1.14,.23,.3,.42,.65,.34,1.05-.07,.35-.21,.67-.42,.95v-.1c.09-.35-.72-.91-.78-1.27-.05-.26-.09-.4-.16-.52-.1-.43-.27-.85-.46-1.25Z"/>
              <path class="uuid-e8eef71b-20a8-4818-8257-b2736ef986be" d="M4.5,30.66c.34-.66,.82-1.2,1.39-1.58,1.32-.34,2.75-.32,3.86,0,3.56,1.02,6.9,6.84,6.52,14.03-.81,.48-1.8,.53-2.59,1.06-.58,.39-.93,1.02-1.16,1.68-.25,.74-.39,1.63-.65,2.43-.26-1.66-1.45-4.01-1.86-4.86-1.09-2.22-3.13-4.08-4.92-5.77-.55-.89-1.04-1.83-1.2-2.9-.2-1.35-.02-2.88,.6-4.09Z"/>
              <path class="uuid-52aa308f-d2aa-4ada-a898-0e561e810370" d="M12.55,53.29c.16-.54,.27-.89,.52-1.38,.63-1.26,1.2-2.54,1.63-3.89,.23-.59,.43-1.19,.62-1.79,.24-.74,.46-1.49,.58-2.26,.05-.33,.09-.68,.16-1.01-.15,3.21-1.03,6.71-2.98,10.17-.16,.28,1.74,4.15,2.85,6.33-.4-.68-.81-1.34-1.24-2-.66-1.02-2.26-3.77-2.14-4.16Z"/>
            </g>
            <path class="uuid-d0c15706-2448-4c41-a2db-00e6d69b7601" d="M3.18,30.86c.88-1.33,2.31-2.24,3.87-2.45,3.04-.13,4.09,.42,6.36,.49,2.58,.07,5.14-.24,7.73-.08,1.54,.1,3.07,.26,4.6,.43,1.17,.14,2.79-.45,4-.53,2.28-1.11,6.14-6.89,6.58-7.82,.31-.66,.39-1.49,.94-2,.58-.53,1.42-.2,1.96,.2,.53,.39,1.12,.7,1.59,1.16,0,0,.02,0,.03,0,.04-.01,.09,.07,.06,.09,.04,.04,.08,.08,.12,.13,.04,.03,.08,.06,.12,.1,.67,.67,.4,.7,.78,1.59,.04,.09-2.18,5.26-3.05,6.56-.88,1.3-2.42,2.88-2.96,4.38-.52,1.47-.79,3.04-1.36,4.49-.11,.27-.23,.54-.37,.8-.4,.5-.83,.97-1.32,1.39-.87,.75-1.76,1.16-2.87,1.31-2.65,.34-5.18,1.32-7.84,1.62-2.5,.27-5.01,.11-7.5-.07-3.18-.23-7.39-.24-9.43-3.31-.92-1.37-1.88-2.78-2.41-4.35-.36-1.06-.37-2.09,.03-3.14,.12-.32,.24-.65,.37-.98Z"/>
            <path class="uuid-24d817ed-1a81-4df8-ac37-e6940f96410f" d="M3.18,30.86c.88-1.33,2.31-2.24,3.87-2.45,3.04-.13,4.09,.42,6.36,.49,2.58,.07,5.14-.24,7.73-.08,1.54,.1,3.07,.26,4.6,.43,1.17,.14,2.79-.45,4-.53,2.28-1.11,6.14-6.89,6.58-7.82,.31-.66,.39-1.49,.94-2,.58-.53,1.42-.2,1.96,.2,.53,.39,1.12,.7,1.59,1.16,0,0,.02,0,.03,0,.04-.01,.09,.07,.06,.09,.04,.04,.08,.08,.12,.13,.04,.03,.08,.06,.12,.1,.67,.67,.4,.7,.78,1.59,.04,.09-2.18,5.26-3.05,6.56-.88,1.3-2.42,2.88-2.96,4.38-.52,1.47-.79,3.04-1.36,4.49-.11,.27-.23,.54-.37,.8-.4,.5-.83,.97-1.32,1.39-.87,.75-1.76,1.16-2.87,1.31-2.65,.34-5.18,1.32-7.84,1.62-2.5,.27-5.01,.11-7.5-.07-3.18-.23-7.39-.24-9.43-3.31-.92-1.37-1.88-2.78-2.41-4.35-.36-1.06-.37-2.09,.03-3.14,.12-.32,.24-.65,.37-.98Z"/>
            <path class="uuid-31fba4a8-2fba-4db8-952d-7f1ebe937679" d="M8.73,39.17c2.26,.68,4.59,1.1,6.94,1.26,3.42,.24,6.91,.18,10.25-.68,1.22-.31,2.45-.7,3.62-1.21,.51-.22,1.27-.56,1.64-1.1,.84-.6,1.48-1.5,2.02-2.4,1.39-2.3,1.89-5.18,3.72-7.18,.04-.04,.08-.08,.12-.13,.04-.05-.03-.13-.07-.08-.03,.04-.07,.07-.1,.11-.16,.16-.34,.27-.56,.31,.19-.36,.42-.69,.7-.98,.05-.04,.09-.09,.14-.14,.05-.05-.03-.12-.08-.08-.05,.05-.1,.09-.14,.14-.17,.16-.36,.3-.58,.37,.18-.47,.47-.92,.83-1.26,.14-.11,.28-.23,.42-.33,.06-.04,0-.13-.05-.1-.17,.1-.32,.22-.47,.36-.19,.15-.38,.28-.62,.3,.38-.58,.84-1.12,1.2-1.72,.37-.61,.56-1.28,.77-1.97,.34-1.11,.7-2.25,1.25-3.27,.39,.26,.78,.51,1.12,.83,0,0,.02,0,.03,0,.04-.01,.09,.07,.06,.09,.04,.04,.08,.08,.12,.13,.04,.03,.08,.06,.12,.1,.67,.67,.4,.7,.78,1.59,.04,.09-2.18,5.26-3.05,6.56-.88,1.3-2.42,2.88-2.96,4.38-.52,1.47-.79,3.04-1.36,4.49-.11,.27-.23,.54-.37,.8-.4,.5-.83,.97-1.32,1.39-.87,.75-1.76,1.16-2.87,1.31-2.65,.34-5.18,1.32-7.84,1.62-2.5,.27-5.01,.11-7.5-.07-3.18-.23-7.39-.24-9.43-3.31-.07-.11-.15-.22-.23-.34,.72-.06,1.44-.2,2.14-.38,.54,.21,1.08,.39,1.62,.55Z"/>
            <path class="uuid-a54c6f51-a557-4717-99f7-ae06fe5b2e6b" d="M2.79,34.98c.53,1.56,1.49,2.97,2.41,4.35,2.05,3.07,6.25,3.08,9.43,3.31,2.5,.18,5.01,.35,7.5,.07,2.66-.29,5.19-1.27,7.84-1.62,1.11-.14,2.01-.55,2.87-1.31,.49-.43,.93-.89,1.32-1.39,.14-.26,.26-.53,.37-.8,.57-1.46,.84-3.02,1.36-4.49,.53-1.5,2.08-3.08,2.96-4.38,.88-1.3,3.09-6.47,3.05-6.56-.38-.89-.11-.92-.78-1.59-.04-.04-.08-.07-.12-.1-.04-.04-.08-.09-.12-.13,.04-.03-.02-.11-.06-.09,0,0-.02,0-.03,0-.47-.46-1.06-.77-1.59-1.16-.55-.4-1.38-.73-1.96-.2-.55,.5-.63,1.34-.94,2-.44,.93-4.3,6.71-6.58,7.82-1.21,.09-2.83,.67-4,.53-1.53-.18-3.06-.33-4.6-.43-2.59-.16-5.15,.15-7.73,.08-2.27-.07-3.31-.61-6.36-.49-1.55,.21-2.98,1.12-3.87,2.45-.12,.33-.24,.66-.37,.98-.4,1.05-.39,2.08-.03,3.14Zm6.92-5.83c.71,.03,1.42,.16,2.13,.2,1.47,.09,2.91,.04,4.37-.19,.64-.1,8.26,1.04,8.62,1.16,1.3,.42,2.77,.71,3.99-.08,.05-.03,.11,.05,.07,.09-.39,.39-.91,.64-1.25,1.08,1.36-.25,2.67-1.19,3.53-2.28,.03-.04,.11,0,.09,.06-.21,.64-.49,1.33-.34,2.01,.17-.39,.18-.85,.33-1.25,.19-.51,.45-.97,.68-1.46,.03-.06,.11-.02,.1,.04-.11,.48-.17,.95-.17,1.43,.22-1.3,.78-2.44,1.62-3.46,.55-.68,1.19-1.27,1.78-1.91,.33-.37,.66-.76,.91-1.2,.23-.42,.37-.88,.61-1.3,.03-.05,.08-.03,.1,.01,.08,.21,.13,.44,.16,.67,.1,.32,.16,.64,.18,.98,.03,.43-.04,.86,.03,1.28,.17-.43,.17-.93,.18-1.39,0-.07,.09-.08,.11-.02,.21,.66,.28,1.33,.33,2.02,.11-.43,.13-.87,.15-1.31,0-.06,.07-.08,.1-.03,.3,.58,.4,1.26,.5,1.91,.1,.65,.13,1.28-.17,1.88-.29,.59-.73,1.05-1.19,1.49-.11,.12-.22,.23-.33,.35-.97,1.02-1.37,2.45-1.77,3.79-.02,.06-.11,.05-.11-.02-.01-.43,.01-.86,.03-1.29-.22,1.13-.34,2.28-.62,3.39-.32,1.26-.87,2.54-1.99,3.23-.05,.03-.1-.03-.08-.08,.03-.05,.05-.11,.08-.16-.3,.31-.63,.58-.96,.81-.04,.03-.09-.02-.08-.07,.32-1.57,.05-3.91-1.58-4.58-.98-.4-2.27-.1-3.1,.52-.99,.73-1.23,2-1.29,3.19,0,.05-.06,.08-.09,.04-.39-.5-.42-1.28-.36-1.95-.19,.65-.2,1.36-.11,2.03,.08,.63,.12,1.27-.41,1.7-.45,.36-1.02,.48-1.56,.62-.84,.22-1.67,.44-2.52,.57-.67,.11-1.35,.15-2.03,.18-.57,.03-1.15,.03-1.72-.04-.89-.11-2.3-.57-2.14-1.78,.12-.91,.46-1.79,.68-2.68,.07-.29,.13-.58,.17-.87-.14,.37-.66,1.03-.66,.98-.01-.42,.1-.84,.15-1.25,.04-.34,.02-.68-.03-1.02-.03,.39-.36,1.15-.36,1.1-.07-1.27-.3-2.55-1-3.6,.18,.48,.19,1.58,.18,1.52-.34-1.2-1.23-2.17-2.15-2.93-.95-.78-2.31-2.15-1.77-2.12Z"/>
            <g>
              <g>
                <path class="uuid-565059f5-7c6b-451f-aa86-3514f5aa8846" d="M26.02,64.37c.44-.11,.95-.18,1.42-.11l.84,1.87c-1.08,.78-3.26-.16-3.26-.16,.04-.41,.11-.88,.16-1.22,.27-.16,.54-.31,.84-.38Z"/>
                <path class="uuid-13e9b8bb-3ca2-4203-ac83-605a1da7e689" d="M26.02,64.37c.44-.11,.95-.18,1.42-.11l.18,.4s-.05-.01-.08,0c-.28,.03-1.47,.76-1.84,.97-.19,.11-.33,.27-.48,.42-.12-.05-.2-.08-.2-.08,.04-.41,.11-.88,.16-1.22,.27-.16,.54-.31,.84-.38Z"/>
                <path class="uuid-dd65e0bd-82d4-4dd9-a8d8-be2b60cfc05f" d="M27.65,35.13c2.59-.82,3.36,.31,3.48,2.85,.06,1.21-3.19,10.6-3.41,11.94-.11,.68,.31,1.87-.09,2.47-.26,.38-.95,9.43-.94,9.94,.02,1.13,.83,1.7,.84,2.01-.66-.06-1.91,.55-2.56,.7-.21-.71,.94-.96,.31-1.35-1.3,.39-.8,.26-.1-1.74,.02-.22,.73-4.77,.87-8.71,.07-2.13,.32-3.13,.38-3.64,.16-2.79-2.59-13.25,1.23-14.46Z"/>
                <path class="uuid-0997e33e-a56b-4c34-bc8d-01742e2039ca" d="M25.17,61.95c.02-.22,.73-4.77,.87-8.71,.07-2.13,.32-3.13,.38-3.64,.16-2.79-2.59-13.25,1.23-14.46,1.78-.57,2.7-.2,3.15,.9-.42-.6-1-1.02-1.71-.67-1.13,.56-1.98,11.25-2.14,13.12,0,.06,.08,.08,.1,.03,.15-.27,.36-.46,.58-.64-.43,.69-.65,1.47-.7,2.3-.04,.65,0,1.31,.03,1.96-.12-.26-.24-.52-.38-.77-.03-.05-.1-.03-.1,.03-.13,2.12-.26,4.25-.44,6.37-.05,.53-.09,1.06-.1,1.59,0,.51,0,1.03-.11,1.53-.1,.45-.28,.85-.5,1.25-.18,.33-.36,.66-.45,1.03-.01,.05,.04,.09,.08,.07,.24-.17,.47-.36,.69-.56-.08,.13-.16,.27-.22,.41-.02,.04,.03,.08,.07,.07,.28-.1,.55-.18,.84-.22-.42,.39-.56,.86-.62,1.46,0,.05,.05,.07,.08,.05,.46-.26,1.05-.3,1.57-.13-.69,.04-1.79,.57-2.39,.7-.21-.71,.94-.96,.31-1.35-1.3,.39-.8,.26-.1-1.74Z"/>
                <path class="uuid-18ab584a-9fd1-4035-8bed-9989068db40d" d="M27.35,35.56c-.42,.58-.61,1.31-.76,2.01-.37,1.66-.36,3.37-.27,5.06,.05,.9,.11,1.79,.17,2.69,.06,.88,.08,1.77,.2,2.64,.05,.38,.15,.82,.01,1.19-.08,.22-.19,.42-.3,.63,.01-.07,.02-.13,.02-.19,.16-2.79-2.59-13.25,1.23-14.46,.06-.02,.11-.03,.16-.05-.17,.13-.33,.29-.46,.48Z"/>
                <path class="uuid-d7156ff1-6ea4-4db8-9cc6-33d5ff87dbd0" d="M25.83,61.99c-.09,.52-.42,.92-.79,1.26-.17,.16-.36,.31-.56,.45,.06-.24,.35-.77,.7-1.75,0-.09,.12-.81,.26-1.9,.04,.1,.08,.21,.12,.31,.18,.5,.38,1.09,.28,1.63Z"/>
              </g>
              <path class="uuid-c2c22619-9503-47e7-b485-ea3a086619bd" d="M28.05,47.13c.1-.5,.14-1.03,.26-1.52,.24-1.02,.57-2.01,.84-3.02,.25-.95,.48-1.91,.76-2.86,.16-.57,.29-1.14,.32-1.73,.02-.42,.15-.85,.13-1.27,0-.02,0-.03,.02-.03h.04s.08,.08,.04,.09c.06,0,.14,1.03,.14,1.16,0,.51-.04,1-.14,1.49-.2,1.02-.54,2.03-.81,3.04-.28,1.02-.61,2.01-.91,3.03-.15,.51-.33,1.02-.46,1.53-.14,.53-.21,1.08-.34,1.62-.02,.08-.13-.02-.12-.08,.08-.48,.16-.96,.25-1.44Z"/>
              <path class="uuid-caee9d2a-730f-44be-ada1-57938864e39b" d="M27.35,51.33c0-.26,0-.57,.08-.82,.01-.04,.07,.02,.07,.04,.02,.36,.18,.7,.2,1.07,.02,.3-.17,.51-.34,.74-.04,.06-.11-.04-.11-.09,0-.32,.1-.63,.1-.95Z"/>
              <path class="uuid-a6e3e1bf-629a-4862-82b6-b59e78efd07e" d="M26.63,58.09c.03-.52-.03-1.05,0-1.57,.06-1.1,.28-2.16,.49-3.23,0-.05,.07,0,.07,.04,.14,1.05-.11,2.13-.26,3.16-.15,1.06-.25,2.12-.35,3.19,0,.05-.08-.01-.08-.05,.02-.52,.09-1.03,.12-1.55Z"/>
            </g>
            <g>
              <g>
                <path class="uuid-565059f5-7c6b-451f-aa86-3514f5aa8846" d="M1.94,63.72s.96,.99,1.16,2.1c0,0-1.86,.69-2.71-.29l.26-1.23,1.29-.58Z"/>
                <path class="uuid-13e9b8bb-3ca2-4203-ac83-605a1da7e689" d="M2.04,64.79c-.16,.02-1.14,.09-1.29,.07-.02,0-.12-.03-.21-.05l.11-.5,1.29-.58s.96,.99,1.16,2.1c0,0-.03,0-.07,.02-.15-.45-.65-1.1-.98-1.06Z"/>
                <path class="uuid-b1e67681-3d4c-4785-b0e8-3e2fd66bf4e5" d="M2.62,64.64c-.23-.12-2.92,.28-2.39-.31,.55-.6,.8-2.71,.74-2.79-.21-.25-.32-1.09-.25-1.21,.8-2.07-1.42-11.33-.49-11.57,1.38-.35,3.85-2.57,3.9-3.87,.12-3.02-1.49-10.03-1.52-10.54-.11-1.98,.82-4.2,2.96-4.67,2.29-.51,5.11,1.23,6.39,3.06,3.16,4.49,1.02,9.76-2.21,13.4-2.02,2.27-5.01,2.84-7.17,5.18-.98,1.06,.28,10.87,.12,11.91-.03,.21,.04,.9-.08,1.41Z"/>
                <path class="uuid-16902628-23e2-402f-bf3d-cfe1fbcd42f1" d="M.97,61.54c-.21-.25-.32-1.09-.25-1.21,.8-2.07-1.42-11.33-.49-11.57,1.38-.35,3.85-2.57,3.9-3.87,.12-3.02-1.49-10.03-1.52-10.54-.11-1.98,.82-4.2,2.96-4.67,.61-.13,1.26-.11,1.9,.03-.98,.05-1.91,.47-2.55,1.41-.03,.05,.03,.1,.08,.08,.09-.05,.19-.1,.29-.14-.19,.17-.33,.38-.4,.65-.01,.04,.03,.09,.07,.07,.15-.06,.3-.13,.45-.2-.5,.47-.68,1.22-.72,1.91-.1,1.42,.11,2.89,.31,4.29,.25,1.77,.56,3.57,.42,5.37-.12,1.57-.67,3.3-1.95,4.24-.35,.25-.72,.45-1.07,.7-.17,.12-.34,.24-.48,.39-.07,.08-.11,.2-.14,.23-.04,.04,0,.11,.05,.1,.41-.1,.81-.1,1.22-.07-.72,.36-1.67,.42-2.03,1.25-.26,.59-.18,1.3-.08,1.92,.13,.83,.25,1.64,.29,2.48,.05,.91,.09,1.83,.13,2.74,.02,.44,.05,.87,.07,1.31,.03,.44,.06,.91-.05,1.34-.07,.29-.25,.56-.26,.87,0,.32,.11,.58,.23,.87,.32,.76-.27,1.65-.48,2.38-.01,.05,.04,.09,.08,.06,.25-.18,.41-.45,.57-.72-.04,.25-.09,.49-.07,.74,0,.05,.08,.09,.1,.03,.1-.23,.2-.46,.35-.66,.07,.46,.34,.98,.72,1.2,0,.02,0,.05-.01,.07-.23-.12-2.92,.28-2.39-.31,.55-.6,.8-2.71,.74-2.79Z"/>
                <path class="uuid-9ef49a75-8b1d-47af-9527-c78db7718a15" d="M3.75,30.75c-.22,.39-.38,.81-.47,1.26-.16,.84-.11,1.71,.11,2.53,.27,1.03,.62,2.03,.81,3.09,.18,1.05,.27,2.13,.13,3.19-.16-.63-.37-1.25-.65-1.84-.03-.05-.1-.02-.1,.03,0,.16,0,.31,0,.48-.43-2.52-.94-4.85-.95-5.13-.07-1.28,.29-2.66,1.14-3.6Z"/>
                <path class="uuid-d7156ff1-6ea4-4db8-9cc6-33d5ff87dbd0" d="M1.69,60.25c.13,.39,.31,.91,.18,1.33-.15,.49-.61,.76-1.02,1.03,.11-.56,.15-1.03,.12-1.07-.21-.25-.32-1.09-.25-1.21,.05-.12,.08-.26,.11-.43,.19-.25,.35-.53,.48-.83,.09,.4,.25,.77,.38,1.16Z"/>
              </g>
              <path class="uuid-0d38bce6-e8df-4988-9c0d-4e807c723b54" d="M2.16,51.31c.61-1,1.41-1.73,2.46-2.2,.94-.42,1.84-.87,2.7-1.44,.88-.57,1.68-1.24,2.41-2.02,.67-.73,1.37-1.49,1.86-2.38,1.02-1.87,1.52-4.32,1.29-6.46-.18-1.64-.81-3.06-1.71-4.33-.18-.3-.39-.57-.62-.81-.06-.08-.13-.15-.19-.23-.03-.03-.05-.03-.07-.03-.22-.2-.44-.38-.69-.55-.16-.11-.18,.11-.1,.21,.64,.8,.84,1.77,1.06,2.77,.23,1.03,.41,2.12,.33,3.18-.14,1.96-.89,3.86-1.91,5.49-1.07,1.72-2.57,3.07-3.97,4.47-1.25,1.25-2.38,2.47-2.98,4.21-.02,.06,.08,.2,.13,.12Z"/>
              <path class="uuid-41f08678-1779-40d8-856c-0f368fa6bce5" d="M8.63,46.22c1.88-2.27,3.54-5.06,3.55-8.16,0-2.32-.68-4.67-1.86-6.64,0,0,.02,.01,.03,.02,.06,.07,.13,.15,.19,.23,.23,.24,.45,.51,.62,.81,.9,1.27,1.53,2.69,1.71,4.33,.23,2.15-.26,4.6-1.29,6.46-.49,.89-1.19,1.65-1.86,2.38-.72,.78-1.52,1.44-2.4,2.01,.45-.46,.89-.94,1.3-1.44Z"/>
            </g>
            <path class="uuid-1116be81-ac86-48a9-bd41-9abb56f8d62a" d="M25.7,31.12c-.75-.1-1.49-.23-2.23-.35-.73-.12-1.46-.23-2.2-.24-.74-.01-1.47,.07-2.2,.15-1.47,.17-2.96,.26-4.44,.12-.71-.06-1.47-.13-2.14-.4-.28-.12-.55-.26-.8-.43,1.16-.04,2.3-.25,3.45-.31,1.37-.06,2.77,0,4.14,.13,.67,.06,1.33,.13,1.99,.27,.65,.14,1.28,.35,1.93,.47,1.18,.21,2.36,.42,3.55,.54-.33,.07-.67,.1-1.04,.05Z"/>
            <path class="uuid-649403b1-aeba-4f97-8a4a-a88e7e4a8994" d="M33.35,35.85c.47-1.28,.59-2.65,.76-3.99,.05-.38,.18-.65,.46-.9,.21-.19,.43-.36,.63-.56,.47-.44,.97-.85,1.4-1.33,.38-.42,.7-.86,.86-1.42,.1-.34,.15-.69,.19-1.04,0,0,0,0,0,0,.15,.21,.12,.45,.12,.68,.11-.37,.11-.78,.18-1.15,0,0,0-.01,0-.02,.1,.2,.16,.42,.19,.65,0,.56-.07,1.17-.31,1.61-.05,.08-.15-.03-.17-.09-.04-.12-.05-.24-.06-.37-.05,.19-.11,.38-.2,.58-.22,.49-.55,.89-.85,1.32-.61,.86-1.2,1.64-1.61,2.63-.41,.99-.29,2.06-.59,3.07-.05,.15-.1,.32-.15,.49-.15,.22-.31,.43-.46,.65-.23,.32-.46,.65-.72,.95,0-.03-.01-.06,0-.08,.16-.4,.34-.81,.47-1.22-.35,.64-.78,1.22-1.38,1.66-.03,.03-.08,.01-.12-.02,.55-.63,1.04-1.31,1.33-2.11Z"/>
          </g>
          <g>
            <path class="uuid-10a88191-5058-4771-a46d-2bf0355d597d" d="M43.26,16.57c.22,.51,.44,.91,1.01,1,.81,.13,1.5,.69,2.32,.28,.62-.31,1.11-1.04,1.44-1.65,.39-.72,.71-1.5,.87-2.31,.04-.22,.43-1.35,.07-1.48-.17-.07-.82,.82-1.87,1.15-.8,.25-1.53,.53-2.15,1.14-.31,.31-.59,.65-.87,.99-.24,.28-.51,.53-.76,.8h-.01s-.06,.05-.05,.09Z"/>
            <path class="uuid-290440ac-c803-4118-8fe2-b4294a104add" d="M48.53,14.38c-.18-.57-.75-.27-1.12-.12-.75,.31-2.02,1.26-2.85,.85,.12-.14,.25-.28,.39-.42,.62-.61,1.35-.89,2.15-1.14,1.05-.33,1.69-1.21,1.87-1.15,.36,.13-.03,1.26-.07,1.48-.06,.33-.16,.66-.27,.98-.01-.17-.04-.33-.09-.49Z"/>
            <path class="uuid-47f95eac-70b5-4910-a2e0-d73cc61f2f20" d="M43.31,16.48h.01c.25-.27,.52-.52,.76-.8,.29-.34,.56-.68,.87-.99,.62-.61,1.35-.89,2.15-1.14,1.05-.33,1.69-1.21,1.87-1.15,.02,0,.04,.02,.05,.03-.06,.37-.21,.72-.42,1.02-.24,.33-.56,.48-.88,.7-.29,.19-.47,.44-.59,.77-.15,.41-1.14,1.83-1.63,1.86-.33,.02-.67,0-.98,.14-.25,.11-.48,.28-.64,.5-.29-.18-.45-.49-.61-.85-.02-.04,0-.09,.05-.09Z"/>
            <path class="uuid-0d1861ce-6306-4131-83e8-bc7de7516839" d="M48.13,13.28c-.29,.29-.64,.48-.95,.75-.31,.27-.48,.59-.68,.94-.18,.31-.37,.65-.69,.82-.32,.17-.68,.17-1.03,.23-.31,.05-.63,.11-.93,.22-.21,.08-.41,.18-.59,.31-.01-.04,0-.09,.05-.08h.01c.25-.27,.52-.52,.76-.8,.29-.34,.56-.68,.87-.99,.62-.61,1.35-.89,2.15-1.14,.72-.23,1.25-.72,1.57-.98-.15,.26-.33,.5-.54,.71Z"/>
            <path class="uuid-f56295da-2105-4160-af02-b9b1f7c37837" d="M38.45,16.33c1.04-.87,2.73-1.13,4-.83,.8,.19,1.38,.65,1.83,1.27,.36,.32,.7,.69,.87,1.14,.28,.74,.23,1.65,.17,2.43-.04,.54,2.77,5.28,2.85,5.93,.06,.53-.66,1.37-1.08,1.51-.56,.19-1.14,.06-1.63-.26-.49-.32-.87-.83-1.31-1.22-.62-.54-1.37-.53-2.11-.74-1.27-.35-2.47-1.19-3.41-2.13-1.75-1.76-2.24-5.38-.18-7.1Z"/>
            <path class="uuid-b47ea5e0-a65f-4e4b-8639-18f2902bc770" d="M38.45,16.33c1.04-.87,2.73-1.13,4-.83,.8,.19,1.38,.65,1.83,1.27,.36,.32,.7,.69,.87,1.14,.28,.74,.23,1.65,.17,2.43-.04,.54,2.77,5.28,2.85,5.93,.06,.53-.66,1.37-1.08,1.51-.56,.19-1.14,.06-1.63-.26-.49-.32-.87-.83-1.31-1.22-.62-.54-1.37-.53-2.11-.74-1.27-.35-2.47-1.19-3.41-2.13-1.75-1.76-2.24-5.38-.18-7.1Z"/>
            <path class="uuid-19657c94-abad-4529-8aa0-7c882ee045d1" d="M40.66,18.6c.06,.02,.09-.07,.04-.1-.13-.09-.27-.18-.41-.25,.93,.09,1.77,.58,2.16,1.52,.17,.4,.3,.9,.53,1.32-.13-.07-.27-.13-.42-.15-.45-.07-.72,.26-1.13,.38-.9,.26-1.57-.33-2.03-1.06,.05,.02,.1,.04,.14,.06,.05,.02,.12-.04,.07-.09-.22-.2-.46-.41-.62-.67-.23-.37-.12-.64,.26-.82,.04-.02,.03-.1-.01-.1-.08-.02-.16-.03-.24-.05,.55-.13,1.11-.17,1.66,.02Z"/>
            <path class="uuid-1ec6fe3e-31c4-45d3-ab4b-91554f968dfc" d="M42.8,24.83s0-.01,0-.02c.17,.26,.37,.55,.65,.66,.22,.09,.45,.1,.67,.15,.25,.06,.44,.17,.63,.35,.48,.45,.9,.97,1.61,.69,.03-.01,.05-.05,.03-.08-.17-.27-.4-.48-.61-.71,.54,.07,.93,.6,1.5,.52,.22-.03,.41-.14,.6-.23,.09-.04,.17-.05,.24-.04,.02,.07,.04,.13,.04,.17,.06,.53-.67,1.37-1.08,1.5-.57,.19-1.14,.06-1.63-.27-.49-.32-.86-.83-1.3-1.22-.24-.21-.5-.34-.78-.43-.26-.3-.44-.64-.58-1.04Z"/>
            <path class="uuid-eec1209d-9c08-4fbe-959e-4f2c6995ed68" d="M44.56,20.66c-.35-.81-.73-1.61-.98-2.46,.3,.33,.52,.72,.74,1.12,.25,.46,.51,.9,.79,1.33,.32,.48,.65,.95,.97,1.43,.47,.92,1.08,2.03,1.51,2.88-.21,.25-.32,.59-.4,.91-.4-.38-.99-.45-1.47-.69-.32-.16-.62-.4-.62-.81,0-.41,.12-.8,.15-1.21,.03-.45-.09-.87-.23-1.29-.14-.41-.3-.82-.47-1.21Z"/>
            <path class="uuid-d61bc433-deb7-442f-ae82-2336a49c112a" d="M43.61,17.09c-.58-.12-1.08-.6-1.47-1.03-.04-.05-.1,.01-.08,.06,.16,.33,.33,.66,.41,1.02-.31-.36-.64-.7-.99-1.03-.03-.03-.1,0-.08,.05,.23,.66,.01,1.46-.78,1.46-.64,0-1.23-.4-1.78-.7-.21-.11-.43-.23-.65-.33,.08-.09,.17-.17,.27-.25,1.04-.87,2.73-1.13,4-.83,.73,.17,1.28,.57,1.71,1.12-.04,.31-.18,.55-.56,.47Z"/>
            <path class="uuid-f768b43a-2453-437f-a073-cde35431f1ae" d="M38.31,18.52s-.09-.03-.13-.04c-.14-.3-.2-.68-.28-.95-.14-.46-.39-.82-.86-.76,.08-.11,.19-.19,.28-.29,.03-.03,0-.08-.04-.07-.14,.02-.28,.08-.42,.07,.09-.1,.21-.16,.32-.24,.03-.02,.03-.07-.01-.08-.15-.03-.29-.03-.44,0,.11-.14,.26-.25,.45-.16,.03,.02,.09-.02,.06-.06-.06-.08-.12-.16-.18-.24,.09,.07,.17,.15,.26,.22,.03,.03,.08,0,.07-.04-.25-.97-.84-1.8-1.64-2.35-.43-.29-.89-.51-1.36-.72,.11,.03,.23,.07,.34,.11,.84,.29,1.63,.78,2.24,1.45,.31,.34,.55,.74,.75,1.16,.21,.44,.54,1.35,.81,1.76,.14,.22,.47,1.39-.21,1.23Z"/>
            <path class="uuid-df4fbd12-eb29-4ec5-ab7d-6f448bc576e5" d="M43.05,25.17c.14,.33,.72,.51,1.01,.67,.27,.15,.38,.35,.56,.62,.33,.49,.72,.79,1.26,1.03,.15,.07,.32,.11,.49,.13,.19-.15,.38-.2,.54-.42,.16-.22,.3-.7,.22-.97,0,0,0-.02,0-.03,0,0,.01,0,.02,0,.02,0,.03,.02,.03,.04-.02,.09,.02,.26,.01,.35,0,.18-.06,.35-.13,.52-.1,.27-.28,.43-.52,.53,.28,.01,.57-.04,.81-.16,.01,0,.04,.03,.02,.04-.63,.57-1.8,.07-2.34-.44-.17-.16-.3-.43-.43-.62-.23-.32-.55-.49-.88-.69-.3-.18-.64-.24-.76-.61-.02-.07,.06-.03,.07,0Z"/>
            <g>
              <g>
                <path class="uuid-84e0bc42-379f-4286-86b8-047d41973897" d="M40.24,19.42c.21-.02,.41-.09,.62-.1,.63-.03,1.23,.27,1.53,.9,.03,.06,.17,.52,.21,.53-.12-.03-.34-.39-.35-.38-.37,.15-.81,.3-1.24,.15-.41-.15-.61-.38-.69-.82-.06-.02-.44-.19-.44-.23,.04-.02,.31-.04,.36-.05Z"/>
                <g>
                  <path class="uuid-81c4ddec-f1c6-471e-90c1-aa7c95477b9b" d="M40.5,19.71s.28-.25,.91-.14c.37,.07,.63,.27,.74,.45,0,.21-.17,.34-.37,.41-.25,.06-.56,.09-.82-.03-.42-.18-.53-.55-.45-.69Z"/>
                  <path class="uuid-520aaba1-7344-4b61-aed5-4e009d240286" d="M40.64,19.65c.13-.07,.39-.16,.82-.08,.24,.04,.43,.14,.57,.25-.04,.74-1.48,.58-1.38-.18Z"/>
                  <path class="uuid-df4fbd12-eb29-4ec5-ab7d-6f448bc576e5" d="M42.12,19.96s.03,.04,.04,.06c0,.21-.17,.34-.37,.41-.25,.06-.56,.09-.82-.03-.09-.04-.16-.09-.22-.14,.45,.32,1.25,.27,1.38-.3Z"/>
                  <path class="uuid-cc6fcbac-bee7-45d7-b812-570d8557abe3" d="M40.5,19.71s.28-.25,.91-.14c.37,.07,.63,.27,.74,.45,0,.03,0,.07-.01,.1-.14-.09-.38-.13-.45-.16-.39-.11-.8-.16-1.21-.14,0-.04,0-.08,.02-.11Z"/>
                  <path class="uuid-8076662f-346b-4e5a-a4b9-3110b68e9675" d="M41.64,19.85s.02-.08,.02-.12c.11,.05,.22,.11,.31,.18,0,.05-.02,.09-.04,.14-.09-.07-.19-.15-.29-.21Z"/>
                </g>
              </g>
              <path class="uuid-714c4f03-fb1b-4704-8354-af775001e6d5" d="M40.2,19.87c.08-.08,.16-.16,.26-.22-.07,.03-.15,.06-.22,.08-.01,0-.03-.02-.02-.03,.32-.2,.67-.31,1.04-.25,0,0,0,0,0,0,0,0,0,0,0,0,.04,0,.08,.02,.13,.03,.03,0,.07,.02,.1,.03,.16,.03,.31,.08,.44,.19,.17,.13,.32,.33,.38,.54,0,.01,0,0-.01,0-.04-.07-.09-.14-.13-.21-.02-.02-.04-.04-.06-.06-.05-.03-.11-.05-.17-.07,0,0-.01-.02,0-.01,.04,0,.08,.02,.12,.03-.01-.01-.03-.03-.04-.04-.07-.03-.15-.06-.22-.06,0,0-.01-.01,0-.01,.06,0,.11,0,.17,.03,0,0,.01,0,.02,0-.02-.02-.04-.04-.07-.05-.07-.01-.14-.02-.21,0,0,0-.02-.01,0-.02,.05-.02,.1-.03,.15-.02,0,0,0,0,.01,0,0,0-.02-.01-.02-.02-.09,0-.18,0-.27,.05,0,0-.02,0,0-.01,.07-.05,.15-.07,.23-.07-.02,0-.03-.02-.05-.03-.09,.02-.16,.06-.23,.13,0,0-.02,0-.01-.02,.05-.06,.12-.11,.19-.14,0,0,0,0,0,0-.14,.02-.28,.11-.38,.2,0,0-.02,0-.01-.01,.06-.07,.14-.13,.23-.17,.01,0,.03-.01,.04-.02-.05,.02-.1,.03-.15,.06-.09,.05-.17,.11-.26,.17,0,0-.02-.01-.01-.02,.1-.09,.23-.2,.37-.25-.06,.02-.12,.04-.18,.06-.11,.05-.2,.12-.3,.17,0,0-.02-.02-.01-.02,.14-.08,.26-.18,.41-.23-.14,.02-.28,.08-.4,.14,0,0-.02-.02-.01-.02,.1-.05,.19-.11,.3-.13,.02,0,.05-.01,.08-.02-.11,.02-.23,.03-.34,.08-.13,.05-.24,.16-.36,.24,0,0-.03-.01-.02-.02,.12-.11,.24-.2,.38-.27-.08,.03-.15,.05-.22,.1,0,0-.01,0,0-.01,.06-.06,.14-.1,.22-.13,0,0-.01-.01,0-.02,0,0,0,0,0,0-.05,.02-.1,.04-.15,.07-.11,.06-.2,.14-.31,.22,0,0-.02-.01-.02-.02,.12-.12,.26-.23,.41-.3,0,0,0,0-.01,0,0,0,0,0,0,0-.19,.06-.36,.16-.52,.29,0,0-.03-.02-.02-.02,.08-.08,.19-.17,.3-.23-.01,0-.02,0-.04,.01-.07,.04-.16,.07-.23,.12-.09,.05-.17,.12-.24,.19,0,0-.02-.01-.01-.02Z"/>
            </g>
            <path class="uuid-4eeeebaf-c06b-4f81-916e-9fd943a9ded0" d="M45.6,25.43s.04,.06,.04,.08c0,.11,.05,.18,.11,.22,.23-.12,.57,.01,.77,.11,.26,.12,.47,.29,.78,.21,.2-.05,.3-.04,.5,0,0,0,0,0,.01,0,0,0,0-.01,0-.02,0-.1-.09-.2-.15-.27-.01-.02,0-.04,.02-.02,.07,.06,.22,.19,.27,.31,0,.01,0,.02,0,.03-.05,.18-.23,.22-.38,.29-.1,.04-.17,.11-.24,.18-.01,0-.03,0-.04,.01-.01,0-.03,0-.04,0h0s-.03,0-.05,0c-.05,0-.09,0-.15-.02-.11-.03-.21-.1-.29-.18-.22-.14-.43-.3-.69-.38-.08,0-.16-.01-.23-.05-.11-.05-.24-.16-.29-.27,0-.09,.02-.17,.07-.25Z"/>
            <path class="uuid-64b104ce-aec2-4ba0-ba5b-248118bbe2d6" d="M44.93,16.98c.22-.13,.43-.12,.64-.08,.1,0,.21-.03,.31-.04,.23-.01,.47,.05,.66-.12,.27-.24,.49-.76,.56-1.12,0-.05,.07,.01,.07,.04-.04,.39-.22,.84-.46,1.14-.12,.16-.22,.21-.41,.21-.08,0-.16,0-.25-.01,.14,.03,.29,.04,.44,0,.67-.14,1.17-1.14,1.45-1.71,.01-.03,.06,.02,.05,.05-.27,.65-.62,1.24-1.14,1.71-.6,.53-1.23-.2-1.87-.01-.03,0-.07-.05-.04-.07Z"/>
            <path class="uuid-bd2a387a-06d5-4cd9-823b-66071421fece" d="M43.31,16.48h.01c.25-.27,.52-.52,.76-.8,.29-.34,.56-.68,.87-.99,.62-.61,1.35-.89,2.15-1.14,1.05-.33,1.69-1.21,1.87-1.15,.36,.13-.03,1.26-.07,1.48-.01,.05-.02,.11-.04,.16,.01-.14,.02-.29,.02-.43,0-.05-.05-.07-.09-.04-.27,.24-.46,.6-.77,.79-.22,.14-.47,.28-.63,.5-.22,.3-.35,.63-.5,.97-.16,.35-.41,.62-.65,.91-.03,.03-.01,.09,.04,.09,.55-.01,.91-.6,1.1-1.11,.06,.54-.4,1.08-.83,1.33-.35,.2-.93,.08-1.14,.49-.1,.19,.15,.34,.39,.44-.5-.06-.99-.33-1.53-.42-.57-.09-.78-.49-1.01-1-.02-.04,0-.09,.05-.09Z"/>
            <path class="uuid-3610ee73-f870-4334-b8c2-e2429c189290" d="M43.31,16.48h.01c.25-.27,.52-.52,.76-.8,.29-.34,.56-.68,.87-.99,.62-.61,1.35-.89,2.15-1.14,.68-.21,1.18-.66,1.51-.93-.17,.3-.39,.57-.69,.76-.4,.25-.85,.4-1.28,.59-.82,.37-1.49,.98-1.91,1.81-.02,.04,.01,.09,.06,.08,.43-.12,.87-.18,1.24-.47,.21-.16,.37-.36,.53-.58-.22,.5-.46,.95-.95,1.27-.25,.17-.53,.28-.78,.45-.16,.11-.29,.25-.34,.46-.04,.17-.05,.39-.04,.61-.06-.01-.13-.03-.19-.04-.57-.09-.78-.49-1.01-1-.02-.04,0-.09,.05-.09Z"/>
            <g>
              <path class="uuid-a8444d3d-22f9-4496-b678-0c6d9b6de5f2" d="M38.3,3.87c-.05-.17-.1-.34-.15-.51-.18-.72-.3-1.45-.41-2.19-.04-.25-.07-.49-.08-.74,0-.15,.03-.45,.15-.42,.32,.68,.55,1.43,.86,2.12,.41,.92,.92,1.79,1.62,2.49,1.26,1.28,3.13,1.54,4.51,2.63,1.41,1.11,1.27,2.96,.86,4.56-.23,.92-.39,1.9-.74,2.77-.19,.48-.88,2.2-1.26,2.36-.57,.23-1.36-.64-1.44-1.11-.08-.48,.91-2.47,1.1-3.04,.43-1.27,1.29-3.03,.3-4.26-.22-.28-.55-.54-.87-.69-.5-.24-1-.46-1.49-.72-.85-.44-1.74-1.07-2.31-1.88-.29-.41-.44-.92-.66-1.37Z"/>
              <path class="uuid-3eeffac2-8972-4534-8655-14a94d3c4cf4" d="M44.04,16.1c.08-.4-.21-.6-.45-.84,.18,.05,.34,.13,.42,.31,.02,.04,.09,.03,.1-.01,.07-.35,.29-.61,.48-.9,.12-.18,.27-.42,.25-.65-.03-.35-.31-.52-.57-.7,.25,.05,.47,.16,.66,.34,.03,.02,.09,.02,.09-.03,.06-.43,.49-.95,.35-1.39-.09-.29-.31-.47-.53-.65,.23,.09,.43,.25,.58,.44,.04,.04,.09,0,.09-.04,0,0,0-.01,0-.02,0,0,0,0,0,0,.07-.08,.06-.26,.08-.36,.04-.18,.09-.35,.12-.53,.04-.23,.1-.5,.03-.73-.07-.23-.23-.36-.42-.47,.14,.04,.27,.1,.4,.18,.03,.02,.07,0,.08-.03,.13-.63-.15-1.4-.48-1.93-.21-.33-.57-.23-.9-.18,.15-.11,.3-.2,.46-.29,.04-.02,.03-.08,0-.1-.42-.26-.8-.61-1.26-.8-.38-.15-.72-.1-1.09,.02,.08-.13,.17-.25,.28-.35,.03-.03,.01-.08-.02-.1-.36-.12-.65-.4-1-.52-.28-.09-.54-.03-.81,0,.08-.06,.15-.12,.24-.17,.03-.02,.04-.08,0-.1-.96-.52-1.79-1.49-2.35-2.44-.52-.9-.97-1.98-1.1-3.04,0,0,.01,0,.02,0,.32,.68,.55,1.43,.86,2.12,.41,.92,.92,1.79,1.62,2.49,1.26,1.28,3.13,1.54,4.51,2.63,1.41,1.11,1.27,2.96,.86,4.56-.23,.92-.39,1.9-.74,2.77-.19,.48-.88,2.2-1.26,2.36-.04,.02-.08,.03-.12,.03,.24-.23,.44-.57,.5-.86Z"/>
              <path class="uuid-3a890ae8-ec7a-4c2c-8681-cd735cdd0153" d="M43.93,7.87s0-.06,.02-.03c.34,.36,.46,.84,.48,1.34,0,.25,0,.53-.09,.76-.15,.41-.26,.85-.43,1.25-.01,.03-.07-.02-.06-.05,.26-.97,.79-2.38,.09-3.28Z"/>
              <g>
                <path class="uuid-7d4b4764-d7e6-4db3-887f-3b3721675a01" d="M42.67,15.21c.36-.29,.97-.11,1.33,.11,.18,.12,.61,.53,.33,.76-.05,.04-.11-.04-.12-.09,0,0,0,0,0,0-.08-.72-.98-.59-1.47-.66-.03,0-.1-.08-.06-.11Z"/>
                <path class="uuid-5f088c6a-2849-41ac-aa30-502f1e4e424f" d="M45.05,13.71s.01,.01,0,.01c0,0-.01-.01,0-.01Z"/>
                <path class="uuid-210a8dda-ebab-478c-81f7-99e9ebdbbeb4" d="M43.63,13.24c.36-.22,.8,0,1.12,.2,.18,.11,.49,.42,.39,.67-.02,.07-.11-.02-.13-.05-.04-.06-.06-.14-.09-.2-.08-.15-.25-.23-.39-.3-.24-.12-.55-.13-.81-.16-.04,0-.14-.11-.08-.15Z"/>
                <path class="uuid-9e52105d-6077-446a-9b27-f68af6e05114" d="M44.04,11.65c.27-.37,.77-.21,1.12-.05,.26,.12,.6,.49,.45,.82-.04,.08-.13-.03-.14-.07-.04-.12-.05-.27-.14-.36-.1-.11-.26-.15-.39-.19-.13-.04-.28-.06-.42-.07-.14,0-.25,.05-.39,.05-.04,0-.11-.08-.08-.12Z"/>
                <path class="uuid-896bee24-8016-4193-a1ba-114c2ad5feb8" d="M44.46,9.88c.2-.36,.65-.29,.97-.16,.23,.09,.65,.43,.52,.74,0,.02,0,.03-.01,.04,0,0,0,0,0,0-.05,.03-.11-.04-.12-.09-.08-.52-.88-.57-1.25-.41-.05,.02-.12-.08-.1-.13Z"/>
                <path class="uuid-6044cf43-6686-4366-9e24-81d56596cd8f" d="M44.2,8.01c.09-.37,.46-.41,.78-.43,.32-.02,.44,.16,.58,.43,0,.01,.01,.05-.01,.04-.03,0-.07-.02-.09-.04-.11-.11-.2-.16-.35-.15-.29,.03-.52,.16-.79,.28-.05,.02-.13-.08-.12-.13Z"/>
                <path class="uuid-4435e007-201c-4fc7-9b5b-d88611e2a9c1" d="M42.41,6.8c.08-.33,.31-.46,.63-.46,.23,0,.45,.04,.63,.21,.02,0,.04,.03,.04,.04,0,0,0,0,0,.01,0,.02,0,.05-.03,.04-.17-.08-.4-.02-.58,0-.23,.02-.38,.2-.59,.28-.05,.02-.12-.07-.11-.12Z"/>
                <path class="uuid-a2429ff1-33a3-4346-8be5-133e6ff013d6" d="M40.76,5.87c.16-.37,.89-.41,1.16-.19,.02,.01,.02,.05,0,.04-.16-.04-.42,.02-.58,.07-.17,.05-.28,.19-.43,.25-.07,.03-.17-.11-.14-.18Z"/>
              </g>
            </g>
            <path class="uuid-74b20d40-0d0d-4f3a-ac93-efd607d8a9c1" d="M41.33,20.91c.29-.11,.58-.11,.84-.04,.29,0,.54,.1,.79,.4,.52,.62,.82,1.33,1.2,2.04,.02,.03,.01,.08-.03,.06-.16-.04-.24-.14-.35-.28-.24-.3-.46-.63-.69-.94-.3-.41-.67-.62-1.12-.8-.2-.08-.45-.11-.62-.25-.04-.04-.1-.16-.02-.19Z"/>
            <path class="uuid-ad2f5adc-aa7e-4e9a-b924-fe5770109a10" d="M47.48,27c.04-.07,.07-.17,.14-.22,.15-.09,.31-.19,.43-.33,.05-.06,.09-.13,.12-.2,0,0,0,.02,0,.02,.03,.28-.16,.66-.41,.96-.15,.05-.31,.09-.47,.12,.07-.12,.13-.23,.2-.35Z"/>
            <path class="uuid-02af6373-5fed-487d-9729-d0cd9cb203e7" d="M38.45,16.33c.7-.59,1.7-.9,2.67-.94,.15,.32,.26,.66,.25,1-.03,.78-.81,1.28-1.5,1.24-.26-.02-.47-.17-.73-.2-.14-.02-.23,0-.3,.15-.08,.18,.04,.4,.03,.58,0,.47-.42,.73-.79,.46-.02-.02-.06,0-.08,.02-.39,.74-.12,1.81,.2,2.53,.02,.05,.09,.03,.1-.01,.03-.13,.05-.26,.07-.39-.01,.57,.07,1.18,.51,1.4,.03,.02,.07,0,.08-.03,0-.01,0-.03,.01-.04,.15,.41,.39,.79,.62,1.02,.03,.03,.1,.01,.09-.04-.03-.28-.08-.57-.07-.85,.07,.41,.18,.8,.35,1.19,.03,.06,.11,.02,.1-.04-.03-.12-.04-.23-.03-.35,.1,.53,.34,1.02,.76,1.39,.59,.52,1.34,.78,2.09,.89,.04,0,.08-.02,.07-.07-.02-.06-.04-.11-.05-.17,.19,.25,.47,.4,.76,.53,.27,.12,.52,.24,.74,.45,.22,.21,.42,.44,.64,.65,.3,.27,.82,.76,1.26,.65,.38-.09,.52-.5,.56-.87,0-.03-.02-.05-.04-.05-.38-.15-.91-.16-1.19-.51-.31-.4,.02-.8,.39-.99-.06,.15-.1,.32-.03,.43,.14,.23,.59,.36,.83,.42,.23,.05,.53,.12,.75,0,.22-.13-.05-.42-.12-.54-.52-.94-.96-1.93-1.43-2.89-.2-.41-.42-.84-.53-1.29-.02-.07-.03-.15-.04-.22,.51,1.21,2.27,4.28,2.64,5.25-.04,.2-.15,.37-.36,.52-.09,.06-.22,.11-.27,.21-.11,.21-.22,.41-.34,.62-.03,.05,.02,.09,.06,.08,.14-.02,.28-.05,.42-.09-.18,.19-.37,.33-.53,.38-.56,.19-1.14,.06-1.63-.26-.49-.32-.87-.83-1.31-1.22-.62-.54-1.37-.53-2.11-.74-1.27-.35-2.47-1.19-3.41-2.13-1.75-1.76-2.24-5.38-.18-7.1Z"/>
            <path class="uuid-1a5d938a-4b44-4685-9263-91f1227313e3" d="M43.97,17.04c-.35,.21-.66,.23-1.02,0-.29-.18-.57-.43-.77-.73-.18-.27-.35-.59-.31-.92,.2,.02,.4,.05,.59,.09,.8,.19,1.38,.65,1.83,1.27,.05,.05,.11,.1,.16,.15-.14-.03-.29,.01-.47,.12Z"/>
            <path class="uuid-fb0c31b6-6908-4e5c-aa78-7450fbbd2939" d="M40.72,19.04c.47-.03,.98,.05,1.35,.38,.48,.42,.65,1.05,.73,1.68-.1-.13-.22-.26-.35-.35-.39-.27-.72-.08-1.13,.03-.32,.09-.66,.05-.89-.24-.16-.21-.22-.46-.37-.67-.19-.26-.44-.43-.72-.54,.18-.04,.35-.11,.53-.15,.28-.07,.58-.12,.86-.14Z"/>
            <g>
              <path class="uuid-bb9731d5-36db-4cf1-9512-0c7459d7f350" d="M29.12,6.6c1.06,.67,2.38,.83,3.55,1.28,1.12,.42,3.82,1.04,4.93,5.18,.17,.64,.33,1.27,.45,1.92,.09,.47,.14,.98,.34,1.42,.39,.86,1.41,.98,2.25,.75,.58-.16,.45-.86,.25-1.44-.23-1.5-1.03-3-1.79-4.29-.83-1.39-1.82-2.74-3.22-3.63-1.61-1.02-3.62-1.03-5.35-1.78-.88-.38-1.93-.94-2.4-1.81-.48-.88-.86-2.44-.72-3.43,.15-1.06-.55,.3-.59,.44-.63,1.9,.67,4.33,2.32,5.38Z"/>
              <path class="uuid-97dccc7b-8d15-42e0-a82f-29fa3ac56bad" d="M40.63,15.37c-.11-.28-.3-.44-.52-.53,.13-.01,.24-.04,.32-.14,.14-.19-.13-.61-.22-.77-.16-.3-.23-.77-.51-.99-.21-.17-.5-.22-.77-.22,.21-.03,.47-.02,.52-.2,.06-.2-.2-.48-.31-.62-.11-.15-.21-.28-.3-.45-.1-.19-.19-.42-.35-.56-.28-.25-.6-.29-.94-.33,.2-.06,.4-.06,.61-.05,.04,0,.06-.04,.05-.07-.09-.37-.44-.7-.69-.96-.29-.31-.55-.43-.93-.47,.09-.07,.18-.13,.27-.19,.03-.02,.04-.06,.01-.09-.25-.25-.54-.43-.81-.64-.12-.1-.26-.16-.4-.22-.13-.13-.35-.22-.48-.2-.03-.01-.05,0-.06,.01-.18,.05-.29,.2-.37,.37,.01-.17,.06-.34,.12-.51,0-.03,0-.05-.03-.06-.36-.26-1.45-.66-1.84-.24,.02-.1,.05-.19,.09-.29,.01-.04,0-.07-.03-.08-.68-.27-1.41-.34-2.08-.62-.36-.15-.71-.32-1.05-.51-.05-.03-.13-.07-.22-.12,.27,.14,.54,.27,.79,.38,1.73,.75,3.74,.75,5.35,1.78,1.41,.9,2.4,2.24,3.22,3.63,.76,1.28,1.56,2.79,1.79,4.29,.17,.47,.29,1.03,0,1.3,.02-.22,0-.44-.03-.66-.05-.32-.09-.68-.22-.98Z"/>
              <path class="uuid-7d3cf360-aa3b-41ff-b063-29bd49047176" d="M38.86,15.17c.44-.25,.83-.4,1.33-.33,.3,.04,.55,.12,.67,.43,0,.02,.01,.07-.01,.09,0,0-.01,0-.02,.01-.01,0-.03,0-.04,0-.56-.34-1.22-.19-1.83-.04-.05,.01-.16-.11-.1-.15Z"/>
              <path class="uuid-3d655435-6ce1-4282-b586-c8330c38e767" d="M37.98,12.95c.51-.45,1.1-.66,1.75-.38,.17,.08,.52,.39,.32,.58-.03,.03-.08-.01-.1-.05-.34-.67-1.39-.19-1.9-.03-.05,.01-.12-.08-.08-.12Z"/>
              <path class="uuid-aabbba95-be65-4a8f-9eb8-4ee072125a5b" d="M37.12,10.74c.3-.28,.73-.37,1.11-.25,.29,.09,.75,.3,.74,.69,0,.05-.06,0-.08,0-.47-.55-1.06-.38-1.65-.22-.08,.02-.2-.14-.13-.2Z"/>
              <path class="uuid-2738d72f-72bb-44b7-8a5f-937c0ae05278" d="M36.11,9.31c.25-.41,.56-.6,1.04-.45,.14,.04,.65,.32,.52,.55,0,0,0,0,0,0-.02,.03-.06-.01-.06-.03-.09-.23-.52-.25-.7-.22-.24,.04-.45,.23-.66,.33-.06,.03-.17-.11-.13-.17Z"/>
              <path class="uuid-1686d6d7-785b-4fb5-b951-fb514ad15783" d="M34.64,8.08c.11-.31,.41-.55,.74-.53,.27,.01,.61,.12,.74,.39,0,0,0,.02,.01,.02,0,0,0,0,0,.01,0,.02-.02,.03-.03,.02-.44-.33-.95-.06-1.29,.27-.07,.07-.18-.1-.16-.17Z"/>
              <path class="uuid-fcd7c604-06e4-4113-90c3-2bb38a0b8ee1" d="M33.39,6.95c.27-.12,.52,.02,.77,.08,.02,0,.05,.06,.02,.06-.21,.02-.38,0-.59,.09-.24,.1-.4,.33-.58,.51-.06,.06-.17-.08-.16-.15,.07-.28,.27-.48,.52-.59Z"/>
              <path class="uuid-619dad56-cf21-4e87-a901-5a923121b737" d="M31.16,6.93c.1-.24,.28-.4,.51-.48,.11-.04,.25-.03,.36,0,.05,.02,.1,.05,.14,.06,.01,0,.03,.02,.03,.03,0,0,0,.02,0,.03,0,0-.02,.01-.03,0-.15-.05-.39,.09-.5,.18-.14,.1-.22,.25-.35,.36-.08,.07-.2-.11-.17-.19Z"/>
              <path class="uuid-0091f1cf-7845-48c8-915e-aaae7b26d354" d="M30.06,6.31c.04-.12,.13-.19,.24-.24,.11-.05,.21-.09,.32-.02,.01,0,.04,.06,0,.06-.09,0-.17,.09-.24,.15-.07,.06-.12,.12-.17,.2-.05,.1-.19-.07-.16-.15Z"/>
            </g>
            <path class="uuid-8b5eaddd-6b35-4f30-9474-f71356b5c17f" d="M26.8,1.22c.03-.09,.31-.65,.48-.8-.23,.6-.38,1.23-.3,1.88,.09,.73,.34,1.44,.71,2.06,.36,.6,.8,1.19,1.37,1.58,.21,.14,.46,.31,.72,.28,.17-.02,.32-.09,.48-.16-.05,.07-.1,.14-.14,.23-.03,.06,.04,.12,.09,.07,.07-.07,.15-.13,.24-.18-.17,.24-.26,.51,.12,.64,.16,.05,.38,.2,.55,.12,.17-.08,.3-.21,.44-.32-.08,.1-.14,.21-.13,.34,.02,.2,.31,.28,.46,.32,.26,.08,.56,.2,.83,.16,.15-.02,.26-.13,.38-.22,.16-.12,.31-.21,.49-.24-.18,.17-.48,.48-.29,.55,.05,.02,.13-.01,.18-.04,0,.2,.25,.29,.4,.34,.18,.07,.42,.23,.61,.11,.18-.12,.33-.25,.54-.31,.07-.02,.13-.03,.2-.04-.08,.06-.15,.14-.2,.23-.03,.05,.02,.09,.06,.08,.25-.05,.49-.13,.73-.13-.13,.02-.25,.07-.35,.15-.14,.13-.22,.35-.08,.52,.09,.11,.21,.18,.32,.26,.12,.09,.24,.22,.38,.25,.34,.08,.64-.2,.96-.17-.27,.05-.53,.2-.63,.46-.02,.04,.03,.08,.07,.07,.25-.06,.6-.23,.89-.2-.25,0-.5,.04-.68,.24-.02,.02-.02,.05,0,.07,.14,.22,.35,.37,.5,.59,.08,.12,.17,.3,.3,.38,.09,.06,.19,.08,.29,.09-.12,.04-.23,.11-.31,.21-.03,.03-.01,.1,.04,.1,.2-.02,.39-.03,.59-.02-.15,.02-.3,.07-.42,.16-.21,.16,0,.44,.1,.59,.12,.16,.25,.31,.38,.46,.1,.12,.18,.26,.3,.37,.09,.08,.22,.08,.33,.07,.1-.01,.19-.03,.28-.05-.19,.06-.37,.14-.53,.25-.04,.03-.03,.09,.01,.1,.16,.04,.32,.08,.48,.12-.12,.05-.23,.11-.24,.27,0,.32,.34,.65,.48,.91,.1,.19,.12,.37,.18,.57,.03,.09,.07,.2,.16,.24,.07,.03,.14,.05,.21,.07-.24,.03-.48,.08-.71,.21-.04,.02-.03,.1,.01,.1,.22,.04,.44,.05,.66,.07-.12,.02-.23,.07-.26,.16-.06,.15,0,.31,.06,.45,.09,.19,.14,.4,.24,.59,.21,.39,.65,.6,1.04,.53-.06,.05-.13,.08-.21,.11-.84,.23-1.86,.11-2.25-.75-.2-.44-.25-.96-.34-1.42-.12-.65-.28-1.28-.45-1.92-1.11-4.14-3.82-4.75-4.93-5.18-1.17-.44-2.49-.61-3.55-1.28-1.65-1.05-2.95-3.48-2.32-5.38Z"/>
            <path class="uuid-db98c72b-8281-4042-ae05-2f768698e3f4" d="M33.24,16.02c.46,.48,1.08,1.03,1.73,1.18,.5,.11,1,.16,1.5,.28,.21,.05,.6,.15,.83,.34,0,0-.02,0-.03,0-.59-.15-1.21-.08-1.81-.18-1.01-.18-1.92-.79-2.46-1.71-.1-.16-.18-.34-.25-.51,.15,.22,.32,.43,.5,.62Z"/>
            <path class="uuid-fafc2b4d-1612-4113-b21c-238ddda8034e" d="M38.31,18.52c-.43-.1-.61-.6-1.04-.7-.59-.15-1.21-.08-1.81-.18-1.01-.18-1.92-.79-2.46-1.71-.32-.55-.52-1.18-.67-1.8-.08-.34-.08-1.42,.06-1.53,.05-.04,.1-.07,.16-.09,.27,.01,.54,.05,.78,.09,.48,.06,.94,.18,1.4,.34,.84,.29,1.63,.78,2.24,1.45,.31,.34,.55,.74,.75,1.16,.21,.44,.54,1.35,.81,1.76,.14,.22,.47,1.39-.21,1.23Z"/>
            <path class="uuid-d68f43b6-d683-4841-a1e5-e4212bda6241" d="M32.39,12.59s.1-.07,.16-.09c.27,.01,.54,.05,.78,.09,.48,.06,.94,.18,1.4,.34,.53,.18,1.04,.45,1.5,.79-.05-.03-.1-.06-.15-.09-.28-.15-.57-.3-.89-.35-.04,0-.08,.04-.04,.07,.14,.12,.28,.22,.41,.35-.4-.21-.82-.38-1.26-.43-.32-.03-.78-.04-.96,.3-.25,.45-.06,1.03,.09,1.53-.08-.16-.17-.32-.26-.47-.02-.04-.08-.02-.08,.02,0,.21,.06,.41,.13,.61-.05-.08-.1-.16-.16-.23-.02-.03-.07,0-.07,.03,.01,.49,.19,.97,.41,1.41-.15-.17-.28-.35-.4-.55-.32-.55-.52-1.18-.67-1.8-.08-.34-.08-1.42,.06-1.53Z"/>
            <g class="uuid-13112260-abfc-47e7-93b0-422894a18913">
              <path class="uuid-64b104ce-aec2-4ba0-ba5b-248118bbe2d6" d="M34.69,13.67s-.03-.05,0-.05c.6,.11,1.44,.57,1.82,1.07,.16,.21,.22,.39,.22,.66,0,.49-.07,.93,.04,1.41,0,.03-.03,0-.03,0-.08-.19-.18-.39-.16-.61,0-.1,.02-.2,.03-.3-.13-.17-.25-.31-.44-.44-.3-.19-.61-.3-.95-.38-.02,0-.06-.07-.02-.07,.37,.01,.66,.13,.99,.32,.25,.14,.34,.26,.44,.46,.02-.19,.02-.37,0-.56-.09-.8-1.35-1.2-1.92-1.51Z"/>
              <path class="uuid-64b104ce-aec2-4ba0-ba5b-248118bbe2d6" d="M33.95,15.57c.42,.44,.92,.86,1.47,1.09,.53,.22,1.08,.41,1.61,.63,.03,.01,.06,.09,0,.08-.62-.16-1.27-.35-1.86-.62-.5-.24-.9-.72-1.26-1.13-.02-.02,0-.06,.02-.03Z"/>
              <path class="uuid-64b104ce-aec2-4ba0-ba5b-248118bbe2d6" d="M36.98,16.95c.11,.05,.23,.07,.34,.12,.07,.04,.17,.05,.22,.12,.06,.07,.07,.14,.07,.23,0,.11,.02,.21,.02,.32,0,.07-.09-.01-.1-.04-.03-.08-.06-.15-.08-.23,0-.01-.01-.18,0-.18-.08-.02-.16-.1-.23-.13-.08-.04-.16-.09-.24-.14-.02-.01-.04-.08,0-.06Z"/>
            </g>
            <path class="uuid-2cb323f4-7afd-4bb6-b0c1-f903f8c68a04" d="M32.33,14.12c.15,.62,.35,1.25,.67,1.8,.54,.92,1.45,1.54,2.46,1.71,.6,.11,1.22,.03,1.81,.18,.43,.11,.61,.61,1.04,.7,.68,.16,.35-1.02,.21-1.23-.02-.02-.03-.05-.05-.08,.09,.27,.15,.55,.14,.83,0,.04-.06,.08-.09,.04-.18-.24-.32-.52-.48-.78-.1-.16-.21-.3-.34-.43-.07-.07-.17-.14-.2-.24-.04-.11-.04-.19-.02-.31,.04-.22,.06-.38,0-.61-.08-.4-.29-.78-.47-1.14-.06-.12-.13-.24-.21-.35-.59-.59-1.31-1.02-2.08-1.29-.46-.16-.92-.28-1.4-.34-.25-.03-.52-.07-.78-.09-.06,.03-.11,.06-.16,.09-.14,.11-.14,1.19-.06,1.53Zm1.49-.2c.02-.18,.06-.35,.24-.4,.32-.1,.82,.18,1.09,.41,.3,.12,.59,.26,.86,.48,.36,.29,.62,.63,.63,1.12,0,.06-.07,.07-.09,.03-.32-.44-.92-.76-1.44-.57,.33,.22,.74,.28,1.06,.54,.42,.34,.23,.96,.59,1.33,.04,.04,0,.1-.05,.09-.62-.14-1.24-.32-1.8-.65-.53-.32-.87-.78-1.01-1.4-.07-.31-.1-.64-.07-.96Z"/>
            <path class="uuid-7b955e3c-aa33-4666-8908-eb55a4b03ea7" d="M35.85,17.28s.03-.08,0-.1c-.49-.34-1.04-.63-1.44-1.07,.23,.17,.47,.32,.73,.43,.32,.15,.66,.27,.98,.4,.31,.12,.55,.16,.86,.08,.47-.13,.58,.16,.7,.56,.07,.23,.16,.43,.3,.62,.19,.25,.4,.38,.59,.28-.06,.05-.15,.06-.28,.03-.43-.1-.61-.6-1.04-.7-.59-.15-1.21-.08-1.81-.18-.27-.05-.53-.13-.78-.23,.39,.07,.8,.04,1.17-.12Z"/>
            <path class="uuid-82198c09-e60c-48e5-b4ce-547aecf6f3f1" d="M48.17,26.3c-.08-.25-.23-.5-.38-.74-.26-.41-.45-.84-.67-1.27-.23-.45-.48-.89-.73-1.32-.26-.45-.51-.91-.77-1.36-.28-.46-.5-.87-.49-1.43,0-.41,.01-.82-.09-1.23-.08-.28-.19-.55-.32-.8,.16,.16,.28,.35,.37,.57,.03,.06,.11,.01,.1-.04-.08-.64-.34-1.19-.68-1.69,.27,.27,.52,.58,.65,.93,.28,.74,.23,1.65,.17,2.43-.04,.54,2.77,5.28,2.85,5.93,0,0,0,.02,0,.02Z"/>
            <path class="uuid-4dd44add-67d8-4d51-9015-9960b15d2e61" d="M42.64,18.96s.1-.02,.08-.06c-.07-.18-.16-.34-.26-.49,.29,.23,.45,.57,.57,.94,.02,.06,.12,.05,.11-.02,0,0,0-.01,0-.02h0c-.03-.25-.07-.5-.09-.76,.18,.35,.25,.75,.27,1.15-.03,.16-.07,.31-.11,.47-.33-.58-.69-1.13-1.23-1.55-.6-.47-1.3-.68-1.95-1.01,.52,.09,1.06,.24,1.51,.49,.4,.23,.72,.58,1.09,.85Z"/>
            <path class="uuid-f8500874-cb33-4fd4-bf5c-3344e82eb62c" d="M40.96,22.47c-.32,.55-.23,1.05-.02,1.58-.4-.52-.77-1.24-.11-1.66,.06-.04,0-.13-.06-.1-.12,.06-.24,.11-.35,.18,.08-.26,.34-.46,.59-.49,0,0,.01,0,.02,0,.06-.01,.05-.12-.01-.11,0,0,0,0-.01,0h0c-.17,.03-.35,.04-.52,.05,.34-.19,.71-.22,1.09-.24-.26,.2-.48,.56-.62,.79Z"/>
            <path class="uuid-6da5e9b6-1cb9-411f-b6de-5cc9b8d2c5d7" d="M37.76,.02c.14,1.44,.64,2.94,1.34,4.19,.33,.59,.73,1.15,1.18,1.65,.12,.12,.26,0,.36-.09,.2-.17,.47-.24,.74-.24-.12,.04-.23,.09-.33,.17-.05,.04,0,.13,.06,.1,.18-.1,.44-.19,.68-.19,.02,0,.05,.02,.07,.03-.27,.17-.63,.22-.73,.6-.08,.32,.14,.44,.37,.59,.24,.16,.47,.34,.71,.08,.16-.17,.28-.35,.49-.44,.13-.06,.26-.1,.39-.11-.13,.05-.25,.13-.34,.25-.03,.03-.01,.1,.04,.1,.14-.02,.28-.06,.42-.08-.28,.11-.55,.29-.49,.59,.04,.22,.39,.41,.54,.53,.11,.09,.25,.19,.34,.31,.11,.14,.19,.29,.29,.44,.03,.05,.1,.03,.1-.03,.03-.37-.15-.65-.35-.93,.16,.11,.29,.25,.42,.4,.02,.02,.06,.02,.08,0,.21-.25,.46-.31,.73-.31-.14,.07-.25,.17-.36,.3-.03,.04,0,.12,.05,.1,.21-.08,.46-.14,.68-.07-.22,.01-.47,.04-.58,.23-.12,.18-.07,.4-.03,.6,.04,.2,.03,.6,.25,.7,.22,.09,.43,.15,.62,.24-.22-.09-.45-.13-.67,0-.04,.02-.03,.09,.01,.11,.3,.07,.79,.09,.92,.42-.21-.13-.48-.3-.71-.24-.25,.07-.31,.29-.32,.54,0,.18,0,.36-.06,.54-.03,.11-.05,.17,.03,.26,.1,.1,.32,.13,.44,.2,.1,.06,.19,.12,.26,.2-.22-.17-.48-.28-.75-.24-.05,0-.08,.08-.03,.11,.19,.1,.39,.15,.55,.31,.12,.12,.22,.25,.26,.41-.03-.05-.07-.09-.11-.13-.08-.08-.18-.17-.28-.22-.14-.07-.31-.14-.47-.11-.42,.06-.49,.73-.56,1.08,0,.03,0,.06,.04,.07,.34,.07,.74,.16,.94,.46-.27-.19-.65-.25-.96-.17-.06,.02-.05,.11,.01,.11,.22,.01,.38,.14,.53,.29-.19-.07-.4-.12-.56,.01-.2,.16-.29,.44-.37,.69-.04,.13-.26,.47-.16,.61,.07,.09,.21,.11,.3,.16,.13,.08,.26,.16,.34,.28-.26-.15-.52-.28-.79-.07-.1,.08-.14,.22-.18,.35-.05,.16-.13,.37-.11,.54,.03,.33,.32,.61,.63,.65,0,0,0,0,0,0-.57,.23-1.36-.64-1.44-1.11-.08-.48,.91-2.47,1.1-3.04,.16-.48,.38-1.02,.54-1.58-.01-.01-.03-.03-.02-.05,.05-.2,.12-.43,.18-.66,.12-.71,.06-1.4-.4-1.98-.22-.28-.55-.54-.87-.69-.5-.24-1-.46-1.49-.72-.85-.44-1.74-1.07-2.31-1.88-.29-.41-.44-.92-.66-1.37-.05-.17-.1-.34-.15-.51-.18-.72-.3-1.45-.41-2.19-.04-.25-.07-.49-.08-.74,0-.12,.02-.34,.09-.4Z"/>
          </g>
        </g>
      </g>
    </g>
  </g>
</svg>