<?xml version="1.0" encoding="UTF-8"?>
<svg id="uuid-4dd5184a-9d2c-4942-8a9d-39d37d800373" data-name="Layer 2" xmlns="http://www.w3.org/2000/svg" viewBox="0 0 389.37 450.67">
  <defs>
    <style>
      .uuid-94eb4349-f2cb-4c41-843a-3cb416712be8 {
        fill: #cc506a;
      }

      .uuid-729990a7-da23-4652-9b36-2d00e7f9d55c {
        opacity: .7;
      }

      .uuid-c60e8695-fea1-4ec8-b55d-183b62fceacc {
        fill: #f2618d;
      }

      .uuid-43fc1ef7-ea3e-468d-b902-1b4583c93cb0 {
        opacity: .5;
      }

      .uuid-5626c0b6-f2b0-4a70-a90d-c700644b5e99 {
        fill: #d1607d;
      }

      .uuid-f58abb93-91af-4a19-b4e6-d1d517d2a473 {
        fill: #ff8aa0;
      }

      .uuid-6dc79a1f-94b1-4653-9b16-58132e0c672c {
        fill: #fff9ee;
      }

      .uuid-3a8f1c80-a740-4293-b2a4-43176bfbf9be {
        fill: #b2465d;
      }

      .uuid-051ab18f-bebe-40b1-a108-85bf367e7cf1 {
        fill: #77203f;
      }

      .uuid-f5dcc536-9c74-4563-a27b-a5f07f166a7e {
        fill: #b23b5b;
      }

      .uuid-6a29b341-affc-449a-9292-da6e8e6864d7 {
        fill: #a03552;
      }

      .uuid-8fde39f8-1578-4851-b634-2eff1999d1a1 {
        fill: #bc4a68;
      }

      .uuid-b0d5abae-a8c1-4eda-99e5-69d315731a29 {
        fill: #bf3d63;
      }

      .uuid-274561ff-ec13-4131-b378-97df507f7ccf {
        opacity: .75;
      }

      .uuid-3f23213d-1f40-436f-9dd5-dc11e7067d53 {
        fill: #bc3f66;
      }

      .uuid-0b943a1d-de9c-434d-8940-a1a47f4c5e5b {
        fill: #120438;
      }

      .uuid-8bc20c4a-2a3c-4aab-8444-3f275c6ac0de {
        fill: #963251;
      }

      .uuid-9188eb1d-75a4-4f54-80ce-fda651c87373 {
        fill: #ef7b94;
      }

      .uuid-2c904f25-4df7-420b-83cc-f1c4e526fcbe {
        fill: #bc506c;
      }

      .uuid-022c397b-bc7b-44b3-8b89-31093b432f26 {
        fill: #8c2d4f;
      }

      .uuid-794c2ade-4734-448f-b2ec-d1bc1324ef5f {
        fill: #c64e6a;
      }

      .uuid-08675b9a-83e8-49ab-af17-0c6b90a57439 {
        fill: #d65473;
      }

      .uuid-a343b8b7-c5b5-4950-9efb-cf25e55c0369 {
        fill: #c65367;
      }

      .uuid-223131ae-e1fb-47ea-977e-3e53e7ed7def {
        fill: #d65b7b;
      }
    </style>
  </defs>
  <g id="uuid-32079d1c-9c37-48ec-9785-bc5154ec2cef" data-name="OBJECTS">
    <g>
      <g>
        <g>
          <path class="uuid-6a29b341-affc-449a-9292-da6e8e6864d7" d="M226.74,317.27c-.98,.33-1.91,.88-2.76,1.67-2.3,2.16-2.51,5.68-2.4,8.83,.14,4.1,.56,8.24,1.97,12.1,1.23,3.37,4.08,9.92,3.96,14.69,4.61-11.88,1.29-25.07-.77-37.29Z"/>
          <path class="uuid-6a29b341-affc-449a-9292-da6e8e6864d7" d="M190.76,371.19c5.58,2.01,13.17,4.55,19.09,2.78,7.35-2.2,11.62-8.28,15.25-14.5-1,.57-2.35,.86-4.15,.77-13.02-.66-21.46-7.49-29.46-16.78-3.89-4.51-7.57-9.58-8.44-15.46-2.09-14.23,10.59-24.13,18.1-34.33,7.57-10.26,15.15-20.56,23.73-30.02,8.31-9.17,18.64-17.25,23.57-28.76,3.37-7.88,6.71-15.69,9.01-23.97,4.05-14.58,6.91-37.44-12.81-41.45-1.87-.38-8.96-1.2-6.29,2.71,1.11,1.63,7.16,1.52,9.04,3.05,9.41,7.67,8.56,22.04,6.42,32.69-2.79,13.83-9.39,22.9-19.27,32.89-10.86,10.97-23.23,20.28-34.83,30.45-5.69,4.99-10.59,8.97-17.06,12.85-19.74,11.83-29.28,33.35-22,54.03,.08,.17,.16,.33,.25,.5,6.86,13.31,14.99,27.21,29.85,32.56Z"/>
          <path class="uuid-8fde39f8-1578-4851-b634-2eff1999d1a1" d="M242.27,323.24c-3.37-3.44-10.2-7.77-15.53-5.96,2.06,12.22,5.37,25.41,.77,37.29-.06,2.15-.72,3.93-2.41,4.9-3.63,6.22-7.89,12.3-15.25,14.5-5.92,1.77-13.52-.77-19.09-2.78-14.85-5.34-22.99-19.25-29.85-32.56-.09-.17-.17-.33-.25-.5,1.14,3.24,2.68,6.45,4.66,9.6,14.93,23.68,36.93,39.8,65.5,41.36,9.41,.51,18.69-2.23,24.63-9.87,6.95-8.92,7.17-21.68,3.14-32.22-3.45-9.01-9.61-16.9-16.33-23.77Z"/>
        </g>
        <g>
          <path class="uuid-2c904f25-4df7-420b-83cc-f1c4e526fcbe" d="M165.16,326.83c.66,2.14,1.15,3.82,1.84,5.94-1.85-1.25-2.62-3.87-1.84-5.94h0Z"/>
          <path class="uuid-2c904f25-4df7-420b-83cc-f1c4e526fcbe" d="M166.54,338.72c1.41,1.09,2.29,2.15,3.23,3.66-1.74-.35-3.06-1.91-3.23-3.66h0Z"/>
          <path class="uuid-2c904f25-4df7-420b-83cc-f1c4e526fcbe" d="M171.61,306.71c-1.01-2.21,.12-4.88,1.84-6.4-.52,2.32-1.42,4.06-1.84,6.4h0Z"/>
          <path class="uuid-2c904f25-4df7-420b-83cc-f1c4e526fcbe" d="M244.41,235.38c.43-2.52,1.81-4.7,3.69-6.4-.72,2.46-2.02,4.48-3.69,6.4h0Z"/>
          <path class="uuid-2c904f25-4df7-420b-83cc-f1c4e526fcbe" d="M254.55,178.22c1.23,.22,1.93,1.62,1.38,2.74-.87-.91-1.16-1.51-1.38-2.74h0Z"/>
          <path class="uuid-2c904f25-4df7-420b-83cc-f1c4e526fcbe" d="M174.84,329.58c.91,1.27,1.29,2.2,1.84,3.66-1.53-.38-2.36-2.21-1.84-3.66h0Z"/>
        </g>
        <g>
          <path class="uuid-3a8f1c80-a740-4293-b2a4-43176bfbf9be" d="M235.21,355.37c-3.43,1.78-.03,8.06,2.29,4.39,1.03-1.64,.37-5.77-2.29-4.39Z"/>
          <path class="uuid-3a8f1c80-a740-4293-b2a4-43176bfbf9be" d="M255.25,363.33c.32,.96,.26,2.22-.23,3.13-.25,.47-.73,.87-1.27,.87-.34,0-.67-.16-.94-.36-1.16-.85-2.32-3.6-1.52-4.96,1.24-2.13,3.45-.21,3.97,1.33Z"/>
          <path class="uuid-3a8f1c80-a740-4293-b2a4-43176bfbf9be" d="M246.71,379.42c.92-2.09-1.42-5.81-2.86-2.98-1.01,1.98,1.31,6.58,2.86,2.98Z"/>
          <path class="uuid-3a8f1c80-a740-4293-b2a4-43176bfbf9be" d="M229.66,370.73c1.79-1.42,.48-3.51-1.2-1.8-1.43,1.45,.09,3.03,1.2,1.8Z"/>
          <path class="uuid-3a8f1c80-a740-4293-b2a4-43176bfbf9be" d="M227.35,386.26c3.55,.34,5.05-2.84,.85-2.79-2.66,.03-4.43,2.71-.85,2.79Z"/>
          <path class="uuid-3a8f1c80-a740-4293-b2a4-43176bfbf9be" d="M247.27,337.73c1.57,.72,1.5-1.82,1.17-2.51-.36-.74-2.06-3.12-2.83-3.39-1.5-.52-2.3,1.14-1.86,2.47,.4,1.22,1.83,3.1,3.52,3.43Z"/>
        </g>
      </g>
      <g>
        <path class="uuid-f58abb93-91af-4a19-b4e6-d1d517d2a473" d="M357.15,153.76c-.55-6.02-3.1-8.81-5.88-14.27-.9-1.76-3.77-3.6-6.08-5.38,.71,.92,1.39,1.87,2.21,2.67,1.07,1.05,2.1,2.17,2.8,3.51,2.62,5.05,4.85,11.16,5.63,16.8,.6,4.31,.3,8.85-1.66,12.81-1.42,2.87-3.37,5.37-5.7,7.56,.37-.25,.73-.49,1.1-.76,8.76-6.23,8.27-15.44,7.58-22.96Z"/>
        <path class="uuid-f58abb93-91af-4a19-b4e6-d1d517d2a473" d="M279.43,223.49c-4.24,9.7-.68,24.81,4.5,32.81,4.66,7.19,9.39,14.46,15.77,20.2,2.19,1.97,4.56,3.56,6.91,5.18-1.41-1.45-2.8-2.86-4.15-4.23-9.89-10.03-18.67-23.73-20.73-37.95-2.27-15.65,8.84-23.57,21.86-30.37,.27-.14,.56-.28,.84-.43-9.93,1.93-20.21,3.85-25,14.8Z"/>
        <g>
          <path class="uuid-022c397b-bc7b-44b3-8b89-31093b432f26" d="M358.88,147.95c-.73-1.62-1.45-3.32-2.33-4.87-2.54-4.49-5.8-9.34-10.56-11.78-.94-.48-2.16-.92-2.96-.24-.26,.4,.14,.89,.5,1.21,.62,.55,1.15,1.19,1.65,1.84,2.31,1.78,5.18,3.62,6.08,5.38,2.78,5.46,5.33,8.24,5.88,14.27,.69,7.52,1.18,16.73-7.58,22.96-.37,.26-.73,.51-1.1,.76-8.98,8.5-23.55,12.42-34.74,14.9-16.59,3.67-34.53,7.73-45.37,22.01-4.35,5.72-7.68,10.37-8.28,17.84-1.35,16.69,6.24,31.59,17.21,43.68,11.57,12.77,23.09,25.53,31.4,40.8,3.24,5.96,5.99,14.7,3,20.65-1.34,2.65-2.62,5.68-4.15,8.23-4.47,7.43-16.54,12.61-25.39,11.97-9.6-.7-15.71-12.34-19.05-19.96-6.69-15.25-14.99-30.76-29.01-39.88-2.51-1.63-5.54-3.09-8.42-2.24-3.6,1.06-5.31,5.43-4.72,9.11,.53,3.34-.11,6.21,1.32,9.03,4.68-1.68,9.2,.36,13.12,2.98,5.76,3.85,11.47,7.65,16.49,12.52,7.61,7.38,11.05,20.31,18.57,27.78,5.05,5.02,10.05,8.5,15.55,13.03,1.9,1.56,7.2,.37,9.52,1.55,.48,.08,.96,.13,1.46,.16,3.87,.21,7.7-1.04,11.55-1.36,11.01-.92,18.26-8.57,22.56-18.37,.9-2.04,1.62-4.1,2.27-6.18,1.09-4.8,1.55-9.9,1.36-15.24-.69-19.14-15.22-35.6-28.1-48.82-2.35-1.62-4.72-3.21-6.91-5.18-6.38-5.73-11.12-13.01-15.77-20.2-5.18-8-8.75-23.11-4.5-32.81,4.79-10.94,15.08-12.87,25-14.8,17.4-8.84,48.46-17.36,54.87-37.19,1.42-4.4,1.65-8.7,2-13.31,.27-3.57-.97-7.04-2.42-10.25Z"/>
          <path class="uuid-5626c0b6-f2b0-4a70-a90d-c700644b5e99" d="M331.08,351.91c-4.3,9.8-11.56,17.45-22.56,18.37-6.39,.53-12.18,2-18.33-.72-4.09-1.81-7.62-4.66-10.92-7.67-10.82-9.87-16.95-22.64-27.4-32.77-5.02-4.87-10.73-8.68-16.49-12.52-3.93-2.62-8.44-4.66-13.12-2.98,.15,.29,.31,.58,.5,.86,12.64,18.97,22.57,43.35,40.43,58.54,11.75,10,33.14,10.35,46.19,3.65,1.51-.77,2.92-1.63,4.29-2.51,10.49-6.76,17.01-16.66,19.69-28.43-.65,2.07-1.38,4.14-2.27,6.18Zm-33.62,20.48c-.32-.13-.63-.27-.94-.42,.31,.14,.63,.28,.94,.42Zm.97,.39c-.3-.11-.6-.23-.9-.35,.3,.12,.6,.24,.9,.35Zm4.25,1.15c.34,.05,.68,.1,1.02,.13-.34-.03-.68-.08-1.02-.13Zm-4.12-1.1c.28,.1,.56,.2,.85,.29-.28-.09-.57-.19-.85-.29Zm1.03,.35c.26,.08,.53,.16,.79,.23-.26-.07-.53-.15-.79-.23Zm1.03,.3c.25,.07,.5,.13,.75,.18-.25-.06-.5-.12-.75-.18Zm1.03,.25c.25,.05,.5,.1,.75,.14-.25-.04-.5-.09-.75-.14Z"/>
        </g>
        <g>
          <path class="uuid-b0d5abae-a8c1-4eda-99e5-69d315731a29" d="M269.75,242.24c2.1,2.61,2.45,6.11,4.61,8.69-3.17-1.57-3.81-5.57-4.61-8.69h0Z"/>
          <path class="uuid-b0d5abae-a8c1-4eda-99e5-69d315731a29" d="M272.98,253.67c.85,.05,1.2,.56,.92,1.37-.85-.05-1.2-.57-.92-1.37h0Z"/>
          <path class="uuid-b0d5abae-a8c1-4eda-99e5-69d315731a29" d="M311.68,293c3.48,2.46,6.54,5.49,8.75,9.15-3.26-2.75-6.22-5.7-8.75-9.15h0Z"/>
          <path class="uuid-b0d5abae-a8c1-4eda-99e5-69d315731a29" d="M322.74,356.56c2.09-4.43,3.16-9.2,5.99-13.26-1.56,4.6-2.71,9.53-5.99,13.26h0Z"/>
          <path class="uuid-b0d5abae-a8c1-4eda-99e5-69d315731a29" d="M325.5,340.1c.68,2.01,1.24,5.12-.92,6.4,.93-2.11,.17-4.21,.92-6.4h0Z"/>
          <path class="uuid-b0d5abae-a8c1-4eda-99e5-69d315731a29" d="M292.33,286.59c1.77,1.25,3.11,2.67,4.15,4.57-1.97-.88-3.48-2.51-4.15-4.57h0Z"/>
          <path class="uuid-b0d5abae-a8c1-4eda-99e5-69d315731a29" d="M312.6,199.71c2.17-.75,4.17-.83,6.45-.91-1.83,1.41-4.3,1.55-6.45,.91h0Z"/>
          <path class="uuid-b0d5abae-a8c1-4eda-99e5-69d315731a29" d="M318.13,196.05c1.74-.89,3.19-1.28,5.07-1.83-1.01,1.69-3.22,2.35-5.07,1.83h0Z"/>
          <path class="uuid-b0d5abae-a8c1-4eda-99e5-69d315731a29" d="M350.38,182.34c.22-1.32,1.03-2.3,2.3-2.74-.25,1.37-1.01,2.26-2.3,2.74h0Z"/>
          <path class="uuid-b0d5abae-a8c1-4eda-99e5-69d315731a29" d="M265.6,227.61c.26,2.4-.2,4.57-.92,6.86-.66-2.33-.16-4.74,.92-6.86h0Z"/>
          <path class="uuid-b0d5abae-a8c1-4eda-99e5-69d315731a29" d="M293.25,360.22c2.88-.57,5.44-.65,8.29-1.37-2.2,2-5.55,2.2-8.29,1.37h0Z"/>
          <path class="uuid-3a8f1c80-a740-4293-b2a4-43176bfbf9be" d="M283.79,365.34c6.25,5.85,17.37,5.79,25.4,4.7,1.1-.16,2.7-.47,3.78-.69-8.46,3.27-23,3.71-29.19-4.01h0Z"/>
          <path class="uuid-b0d5abae-a8c1-4eda-99e5-69d315731a29" d="M318.13,321.8c1.13,1.6,1.57,3.61,.92,5.49-.74-1.83-1.12-3.51-.92-5.49h0Z"/>
          <path class="uuid-b0d5abae-a8c1-4eda-99e5-69d315731a29" d="M280.81,209.32c1.01-1.49,2.38-2.4,4.15-2.74-.97,1.47-2.41,2.42-4.15,2.74h0Z"/>
        </g>
        <g>
          <path class="uuid-051ab18f-bebe-40b1-a108-85bf367e7cf1" d="M313.52,367.53c1.09-1.78,2.72-2.85,4.61-3.66-.98,1.85-2.68,2.96-4.61,3.66h0Z"/>
          <path class="uuid-051ab18f-bebe-40b1-a108-85bf367e7cf1" d="M325.96,317.69c.95,.84,1.29,1.98,.92,3.2-.97-.88-1.27-1.94-.92-3.2h0Z"/>
          <path class="uuid-051ab18f-bebe-40b1-a108-85bf367e7cf1" d="M320.43,312.66c1.3,.63,2.12,1.77,2.3,3.2-1.34-.68-2.08-1.72-2.3-3.2h0Z"/>
          <path class="uuid-051ab18f-bebe-40b1-a108-85bf367e7cf1" d="M278.5,263.73c1.63,.36,2.88,1.28,3.69,2.74-1.63-.35-2.88-1.29-3.69-2.74h0Z"/>
          <path class="uuid-051ab18f-bebe-40b1-a108-85bf367e7cf1" d="M271.13,218.46c.8-2.17,2.69-3.45,4.61-4.57-.95,2.11-2.77,3.3-4.61,4.57h0Z"/>
          <path class="uuid-051ab18f-bebe-40b1-a108-85bf367e7cf1" d="M333.79,189.65c1.71-1.36,3.47-2.07,5.53-2.74-1.24,1.8-3.39,2.7-5.53,2.74h0Z"/>
          <path class="uuid-051ab18f-bebe-40b1-a108-85bf367e7cf1" d="M359.6,154.44c.66,1.84,.44,3.77-.46,5.49-.47-1.9-.25-3.68,.46-5.49h0Z"/>
        </g>
        <g>
          <path class="uuid-3a8f1c80-a740-4293-b2a4-43176bfbf9be" d="M250.57,349c-.31-.42-1.44-.42-1.17,1.04,.17,.92,1.73,2.52,2.56,2.97,3.16,1.76,1.27-3.35-1.38-4.01Z"/>
          <path class="uuid-3a8f1c80-a740-4293-b2a4-43176bfbf9be" d="M260.44,368.76c1.03-.03,2.84,1.55,2.96,2.54-1.47,.64-3.46-1.52-2.96-2.54Z"/>
          <path class="uuid-3a8f1c80-a740-4293-b2a4-43176bfbf9be" d="M305.05,376.33c.36-.78,3.33-2.31,3.6-1.05,.25,1.2-3.28,1.91-3.6,1.05Z"/>
          <path class="uuid-3a8f1c80-a740-4293-b2a4-43176bfbf9be" d="M317.92,369.65c.63-.77,1.48-1.27,2.41-1.47,.67,1.22-1.12,2.23-1.99,2.81-.61,.4-3.33,1.43-.41-1.34Z"/>
        </g>
        <g>
          <path class="uuid-3a8f1c80-a740-4293-b2a4-43176bfbf9be" d="M276.61,368.31c1.27,.11,2.12,.74,2.54,1.93-1.24-.08-2.15-.76-2.54-1.93h0Z"/>
          <path class="uuid-3a8f1c80-a740-4293-b2a4-43176bfbf9be" d="M280.05,374.85c.57-.47,.93-.3,.9,.45-.57,.47-.92,.29-.9-.45h0Z"/>
          <path class="uuid-3a8f1c80-a740-4293-b2a4-43176bfbf9be" d="M233.05,322.26c.78-.08,1.07,.32,.75,1.04-.78,.08-1.07-.33-.75-1.04h0Z"/>
          <path class="uuid-3a8f1c80-a740-4293-b2a4-43176bfbf9be" d="M238.14,335.33c1.71,1.49,2.77,3.34,3.44,5.5-1.81-1.37-2.91-3.31-3.44-5.5h0Z"/>
        </g>
      </g>
      <path class="uuid-8bc20c4a-2a3c-4aab-8444-3f275c6ac0de" d="M353.44,290.09c-3.36-6.69-8.11-12.58-12.54-18.62-12.96-17.66-24.63-36.93-28.59-58.61-1.94-10.65-1.51-21.67-1.03-32.42,.53-11.78,2.97-23.6,8.34-34.21,4.13-8.17,7.09-17.08,12.71-24.31,5.41-6.97,9.46-14.92,11.44-23.61,1.9-8.33,1.41-17.33-2.72-24.68-6.02-10.74-15.62-17.08-27.79-19.09-12.05-1.99-21.67,1.17-32.18,7.21-11.94,6.86-19.75,16.77-28,27.14-4.73,5.94-9.92,14.11-11.14,21.57-.59,3.59-1.54,20.95-1.31,27.1,2.27-2.75,4.63-6.08,6.94-9.7,5.69-8.94,11.01-19.69,13.49-28.04,1.08-3.64,1.96-7.38,3.53-10.81,.43-.94,.9-1.86,1.45-2.75,2.29-3.67,6.55-9.55,10.18-12.15,9.68-6.93,18.83-13.37,34.84-11.53v-.09c3.47,.81,6.88,1.79,9.9,3.52,5.79,3.3,10.22,9.46,12.75,15.51,6.82,16.3-6.52,31.79-14.02,45.5-3.98,7.27-7.96,14.56-10.94,22.27-12.43,32.21-6.76,69.31,7.76,99.9,8.37,17.62,21.88,29.97,30.45,47.37,7.17,14.57,5.76,36.45,1.42,51.99-5.07,18.13-27.28,28.23-46.25,24.65-12.35-2.33-23.18-10.27-31.94-19.47-10.11-10.61-17.24-22.66-25.79-34.3-2.59-3.53-6.44-6.72-10.98-6.57-1.37,3.57,.22,7.43,1.93,10.77,13.01,25.51,38.52,54.05,69.63,57.62,20.11,2.31,41.33-7.3,49.78-25.1,9.3-19.59,8.15-47.21-1.31-66.05Z"/>
      <g>
        <g>
          <path class="uuid-794c2ade-4734-448f-b2ec-d1bc1324ef5f" d="M263.3,361.93c5.75,13.13,19.86,38.98,37.97,31.08,10.82-4.72,8.48-16.45,8.2-26.23-.4-13.8-1.94-27.78-7.23-40.66-5.9-14.39-16.74-27.43-9.17-43.24,1.33-2.78,3.13-5.41,5.62-7.25,1.74-1.29,3.76-2.16,5.56-3.36,3.65-2.45,6.86-7.75,9.18-13,1.69-4.85,2.97-9.48,2.19-14.78-1.94-13.25-11.56-25.43-21.35-33.89-6.9-5.96-15.39-11.63-20.39-19.37-5.35-8.28-5.6-19.54-.62-28.04,1.42-2.42,3.3-4.93,2.92-7.7-1.26-.83-2.77,.64-3.52,1.94-3.26,5.62-5.8,11.76-6.45,18.22-1.12,11.19,5.08,20.1,12.31,27.99,8.53,9.31,15.22,17.96,20.47,29.63,2.5,5.57,4.07,11.77,2.99,17.77-3.07,17.09-22.84,27.37-21.31,45.74,1.38,16.67,8.71,32.5,11.15,49.04,1.62,10.97,8.49,34.28-10.99,31.57-10.65-1.48-16.52-12.71-19.78-21.67-5.47-15.04-8.37-31.34-17.5-44.51-1.99-2.87-4.08-5.69-7.92-5.02,16.01,10.49,20.56,39.52,27.68,55.78Z"/>
          <path class="uuid-5626c0b6-f2b0-4a70-a90d-c700644b5e99" d="M312.6,261.56c.28-.78,.56-1.54,.82-2.31-2.31,5.25-5.53,10.55-9.18,13-1.8,1.21-3.82,2.07-5.56,3.36-2.49,1.84-4.28,4.47-5.62,7.25-7.58,15.81,3.26,28.85,9.17,43.24,5.29,12.89,6.83,26.86,7.23,40.66,.28,9.78,2.62,21.51-8.2,26.23-18.12,7.91-32.23-17.94-37.97-31.08-7.12-16.26-11.67-45.29-27.68-55.78-.24,.04-.49,.09-.74,.16-2.88,.79-4.91,3.37-6.17,6.06-2.53,5.4-2.74,11.65-1.68,17.51,1.06,5.86,3.3,11.44,5.54,16.97,4.32,10.7,8,21.73,13.56,31.9,3.57,6.54,7.69,12.17,12.54,16.62,8.18,7.51,18.44,11.64,31.62,11.02,20.41-.96,25.14-29.42,23.61-45.27-1.82-18.89-10.78-36.55-13.94-55.23-1.5-8.86,.73-16.35,5.34-24.15,3.63-6.14,4.84-13.38,7.31-20.19Z"/>
        </g>
        <g>
          <path class="uuid-f5dcc536-9c74-4563-a27b-a5f07f166a7e" d="M287.72,283.39c-.08-2.32,1.58-4.78,3.92-5.23-1.61,1.73-2.59,3.29-3.92,5.23h0Z"/>
          <path class="uuid-f5dcc536-9c74-4563-a27b-a5f07f166a7e" d="M290.02,276.99c1.12-1.39,2.19-2.24,3.69-3.2-.33,1.75-1.93,3.07-3.69,3.2h0Z"/>
          <path class="uuid-f5dcc536-9c74-4563-a27b-a5f07f166a7e" d="M306.15,232.18c.96,.58,1.32,1.16,1.38,2.29-1.1-.19-1.72-1.22-1.38-2.29h0Z"/>
          <path class="uuid-f5dcc536-9c74-4563-a27b-a5f07f166a7e" d="M295.09,220.29c1.77,.11,3.33,1.46,3.69,3.2-1.52-.94-2.54-1.83-3.69-3.2h0Z"/>
          <path class="uuid-f5dcc536-9c74-4563-a27b-a5f07f166a7e" d="M279.43,200.17c1.16,.22,1.87,1.11,1.84,2.29-1.12-.41-1.67-1.12-1.84-2.29h0Z"/>
          <path class="uuid-f5dcc536-9c74-4563-a27b-a5f07f166a7e" d="M302.46,359.3c1.09,2.2,2.65,5.56,.92,7.77,.32-2.66-1.17-5.1-.92-7.77h0Z"/>
        </g>
        <g>
          <path class="uuid-5626c0b6-f2b0-4a70-a90d-c700644b5e99" d="M309.37,251.84c.5,1.47,.16,3-.92,4.12-.23-1.54,.06-2.82,.92-4.12h0Z"/>
          <path class="uuid-5626c0b6-f2b0-4a70-a90d-c700644b5e99" d="M306.61,243.15c1.12,1.33,1.58,2.84,1.38,4.57-1.11-1.3-1.58-2.88-1.38-4.57h0Z"/>
          <path class="uuid-5626c0b6-f2b0-4a70-a90d-c700644b5e99" d="M296.01,323.63c1.66,1.99,2.99,4.24,3.23,6.86-1.52-2.11-2.8-4.26-3.23-6.86h0Z"/>
          <path class="uuid-5626c0b6-f2b0-4a70-a90d-c700644b5e99" d="M297.4,332.78c.88,2.19,1.6,4.51,.92,6.86-.7-2.27-1.4-4.47-.92-6.86h0Z"/>
          <path class="uuid-5626c0b6-f2b0-4a70-a90d-c700644b5e99" d="M268.83,184.17c.85,.05,1.2,.56,.92,1.37-.85-.05-1.2-.57-.92-1.37h0Z"/>
        </g>
        <g class="uuid-274561ff-ec13-4131-b378-97df507f7ccf">
          <path class="uuid-3a8f1c80-a740-4293-b2a4-43176bfbf9be" d="M264.9,386.8c-.07,.19-.2,.39-.38,.59-1.23,1.35-2.99,.11-4.01-.91-.79-.79-1.7-1.95-1.78-3.1-.05-.66,.32-1.36,.87-1.69,.41-.25,.91-.29,1.41,.04,.41,.27,.69,.69,.98,1.08,.86,1.13,3.52,2.42,2.91,3.98Z"/>
          <path class="uuid-3a8f1c80-a740-4293-b2a4-43176bfbf9be" d="M242.02,349.76c.12,1.14,.7,2.23,1.58,2.97,.46,.38,1.15,.67,1.63,.31,1.98-1.47-1.64-6.78-3.09-4.25-.15,.26-.16,.58-.13,.89,0,.03,0,.05,0,.08Z"/>
          <path class="uuid-3a8f1c80-a740-4293-b2a4-43176bfbf9be" d="M240.48,366.75c-.33,.53,.29,1.99,.54,2.49,.39,.79,2.07,2.88,3.03,1.91,.94-.94,.02-3.16-.69-3.89-.49-.51-1.19-.9-1.91-.89-.52,0-.83,.15-.97,.37Z"/>
          <path class="uuid-3a8f1c80-a740-4293-b2a4-43176bfbf9be" d="M243.42,361.15c.18,.52,.48,.98,.87,1.15,.39,.17,.92,.06,1.12-.31,.16-.3,.08-.66-.02-.98-.11-.34-.24-.66-.4-.98-.16-.33-.36-.66-.68-.84-1.11-.64-1.3,.82-.9,1.97Z"/>
          <path class="uuid-3a8f1c80-a740-4293-b2a4-43176bfbf9be" d="M282.12,402.41c.26,.15,.54,.29,.82,.41,.56,.25,1.16,.47,1.77,.47s1.26-.26,1.58-.79c1.06-1.8-4.28-3.71-5.48-2.73-.3,.24-.3,.7-.17,1.06,.24,.7,.82,1.21,1.49,1.59Z"/>
          <path class="uuid-3a8f1c80-a740-4293-b2a4-43176bfbf9be" d="M293.76,285.78c-.13,.09-.25,.2-.36,.31-1.26,1.28-1.97,3.75-1.06,5.43,.84,1.55,2.3-.13,2.39-1.2,.11-1.27,.45-2.5,.54-3.78,.02-.23,.02-.47-.09-.67-.17-.3-.57-.41-.91-.33-.18,.04-.35,.13-.5,.24Z"/>
          <path class="uuid-3a8f1c80-a740-4293-b2a4-43176bfbf9be" d="M304.09,276.36c-.5,.67-.82,1.45-.7,2.16,.13,.79,.97,1.13,1.64,.75,.95-.53,1.35-1.64,1.66-2.61,.27-.86,.85-2.46-.78-1.8-.62,.25-1.32,.82-1.82,1.5Z"/>
          <path class="uuid-3a8f1c80-a740-4293-b2a4-43176bfbf9be" d="M313.41,362.27c0-.91-.09-1.75-.28-2.63-.12-.57-.95-2.21-.59-2.74,.84-1.2,1.29,1.63,1.38,2.1,.27,1.39,.35,2.08-.52,3.28Z"/>
          <path class="uuid-3a8f1c80-a740-4293-b2a4-43176bfbf9be" d="M304.51,324.63c-.09,.09,.63,3.85,1.56,4.02,.45-.81-.09-4.72-1.56-4.02Z"/>
          <path class="uuid-3a8f1c80-a740-4293-b2a4-43176bfbf9be" d="M310.3,350.1c-.26,.54-.16,3.47,.89,2.87,.68-.39-.26-3.17-.89-2.87Z"/>
          <path class="uuid-3a8f1c80-a740-4293-b2a4-43176bfbf9be" d="M271.68,386.19c.41,.43,2.26,2.53,1.65,3.32-.54,.71-1.68-.27-2.1-.58-.6-.44-1.34-1.12-1.37-1.95-.02-.64,.58-1.38,1.82-.79Z"/>
          <path class="uuid-3a8f1c80-a740-4293-b2a4-43176bfbf9be" d="M260.07,395.88c-.23,.04-.42-.02-.66,.03,.03,1.51,3.89,4.12,5.41,4.28,.81-2.37-3.83-4.55-4.75-4.32Z"/>
        </g>
        <g class="uuid-274561ff-ec13-4131-b378-97df507f7ccf">
          <path class="uuid-3a8f1c80-a740-4293-b2a4-43176bfbf9be" d="M295.09,305.8c.59,1.99,1.56,3.41,1.84,5.49-1.49-1.32-2.68-3.5-1.84-5.49h0Z"/>
          <path class="uuid-3a8f1c80-a740-4293-b2a4-43176bfbf9be" d="M255.01,365.25c1.51,1.56,2.2,3.42,2.76,5.49-1.73-1.32-2.51-3.38-2.76-5.49h0Z"/>
          <path class="uuid-3a8f1c80-a740-4293-b2a4-43176bfbf9be" d="M255.01,371.65c1.34,1,2.16,2.45,2.3,4.12-1.38-1.05-2.12-2.39-2.3-4.12h0Z"/>
          <path class="uuid-3a8f1c80-a740-4293-b2a4-43176bfbf9be" d="M237.5,330.04c1.84,2,2.61,4.65,2.76,7.32-1.48-2.27-2.16-4.7-2.76-7.32h0Z"/>
          <path class="uuid-3a8f1c80-a740-4293-b2a4-43176bfbf9be" d="M270.67,398.63c1.96,.24,3.75,1.4,4.61,3.2-1.83-.8-3.26-1.72-4.61-3.2h0Z"/>
          <path class="uuid-3a8f1c80-a740-4293-b2a4-43176bfbf9be" d="M298.32,289.8c-.24-1.75,.45-3.48,1.84-4.57-.19,1.77-.75,3.17-1.84,4.57h0Z"/>
        </g>
      </g>
      <g>
        <g>
          <path class="uuid-6a29b341-affc-449a-9292-da6e8e6864d7" d="M160.2,355.59c2.86,3.75,5.17,8.43,9.16,11.14,3.11,2.12,8.06,1.7,11.67,1.71,3.42,0,4.29-1.51,6.86-3.43,2.47-1.84,5.75-3.17,7.3-6,1.75-3.21,1.96-7.77,2.37-11.34,.31-2.73,.83-5.43,1.13-8.16,.3-2.73,1.17-5.23,1.6-7.94,.64-4.13,.64-8.42,.52-12.59-.1-3.69-.18-7.37-.18-11.07,0-1.12,.04-2.26,.06-3.4-2.09,2.51-2.5,6.79-2.54,10.33-.13,11.64-1.78,23.26-4.91,34.48-1.46,5.23-3.65,10.88-8.52,13.35-2.94,1.49-6.41,1.54-9.67,1.06-11.41-1.69-20.2-14.35-25.33-23.87-.07-.14-.14-.28-.21-.41,.6,1.4,1.23,2.78,1.88,4.13,2.23,4.64,5.73,7.98,8.8,12.01Z"/>
          <path class="uuid-5626c0b6-f2b0-4a70-a90d-c700644b5e99" d="M221.73,323.2c-.89-5.12-.39-10.88-4.51-14.23-3.2-2.6-9.3-7.55-13.6-6.37-1.23,.34-2.18,1.01-2.92,1.91-.02,1.14-.06,2.28-.06,3.4,0,3.7,.08,7.38,.18,11.07,.12,4.17,.12,8.46-.52,12.59-.42,2.71-1.29,5.21-1.6,7.94-.3,2.73-.82,5.43-1.13,8.16-.41,3.58-.62,8.13-2.37,11.34-1.55,2.83-4.83,4.16-7.3,6-2.58,1.92-3.44,3.44-6.86,3.43-3.61,0-8.56,.41-11.67-1.71-3.99-2.71-6.3-7.4-9.16-11.14-3.07-4.03-6.57-7.37-8.8-12.01-.65-1.35-1.28-2.73-1.88-4.13-3.02-5.75-4.99-12.54-6.05-18.92-2.17-13.06,6.58-26.81,10.88-38.55,3.66-9.97,10.15-19.32,11.75-29.97,0-.21-.01-.42-.02-.63-.67-12.28-8.05-25.33-21.92-25.15-6.86,.09-12.57,2.78-19.19,4.01-.62,.12-1.3,.26-2.01,.41,.55,0,1.1,0,1.65,.03,5.7,.2,11.71-.76,17.29,.75,7.71,2.09,8.51,7.46,9.61,14.46,2.05,13.03-6.31,25.73-11.93,36.83-7.56,14.92-12.18,32.46-11.34,49.22,.81,16.21,10.07,31.62,20.42,43.74,13.36,15.66,31.8,24.87,50.85,13.65,13.83-8.15,20.67-27.1,23.35-42.05,1.45-8.08,.27-16.03-1.13-24.08Z"/>
          <path class="uuid-6a29b341-affc-449a-9292-da6e8e6864d7" d="M144.16,226.23c13.87-.18,21.26,12.87,21.92,25.15,.01,.21,.01,.42,.02,.63,.09-.63,.18-1.26,.24-1.9,1.13-12.31-6.93-27.4-19.35-31.13-9.74-2.93-21.85,2.57-31.17,5.13-10.69,2.93-20.93,2.67-29.12-5.66-5.2-5.29-6.75-11.37-8.13-18.34-1.38-6.99,1.64-13.41,4.48-19.59-2.66-.48-5.34,1.18-6.84,3.4-3.22,4.75-3.17,13.56-2.68,19.08,.7,7.88,4.61,14.88,10.39,20.23,1.74,1.62,3.65,3.08,5.72,4.32,11.27,6.77,21.36,3.04,33.33,3.09,.71-.15,1.38-.29,2.01-.41,6.61-1.24,12.32-3.92,19.19-4.01Z"/>
        </g>
        <g class="uuid-274561ff-ec13-4131-b378-97df507f7ccf">
          <path class="uuid-3a8f1c80-a740-4293-b2a4-43176bfbf9be" d="M141.43,330.29c2.73-2.72-2.41-7.7-3.51-3.5-.49,1.87,1.4,5.61,3.51,3.5Z"/>
          <path class="uuid-3a8f1c80-a740-4293-b2a4-43176bfbf9be" d="M134.56,309.42c-.26,1.23-.03,2.54,1.11,2.73,2.78,.46,3.37-6.34,.29-4.98-.65,.29-1.19,1.25-1.4,2.25Z"/>
          <path class="uuid-3a8f1c80-a740-4293-b2a4-43176bfbf9be" d="M146.7,354.05c-.6-.82-.92-2.04-.73-3.05,.1-.53,.44-1.05,.95-1.21,.33-.1,.68-.05,1.01,.06,1.36,.46,3.3,2.74,2.95,4.28-.54,2.4-3.22,1.23-4.19-.09Z"/>
          <path class="uuid-3a8f1c80-a740-4293-b2a4-43176bfbf9be" d="M133.94,335.01c-.24,2.27,3.11,5.11,3.63,1.99,.36-2.19-3.24-5.89-3.63-1.99Z"/>
          <path class="uuid-3a8f1c80-a740-4293-b2a4-43176bfbf9be" d="M148.98,273.28c-1.28,1.89,.61,3.49,1.69,1.36,.92-1.81-1.01-2.86-1.69-1.36Z"/>
          <path class="uuid-3a8f1c80-a740-4293-b2a4-43176bfbf9be" d="M157.1,240.35c.98-.06,2.36,1.07,1.9,2.19-.71,1.75-3.1-.63-1.9-2.19Z"/>
          <path class="uuid-3a8f1c80-a740-4293-b2a4-43176bfbf9be" d="M186.81,373.08c-3.49,.74-3.96,4.22,.04,2.91,2.53-.83,3.41-3.9-.04-2.91Z"/>
          <path class="uuid-3a8f1c80-a740-4293-b2a4-43176bfbf9be" d="M161.24,381.14c-1.72-.22-.88,2.18-.35,2.74,.56,.6,2.91,2.36,3.72,2.39,1.59,.05,1.85-1.77,1.03-2.91-.75-1.05-2.68-2.41-4.4-2.22Z"/>
        </g>
        <g>
          <path class="uuid-2c904f25-4df7-420b-83cc-f1c4e526fcbe" d="M137.4,221.32c.74-.8,1.76-.88,2.59-.17-.87,.67-1.65,.73-2.59,.17h0Z"/>
          <path class="uuid-2c904f25-4df7-420b-83cc-f1c4e526fcbe" d="M142.58,222.18c1.6-.69,3.45-.58,4.84,.51-1.74,.25-3.21,.18-4.84-.51h0Z"/>
          <path class="uuid-2c904f25-4df7-420b-83cc-f1c4e526fcbe" d="M83.49,219.43c1.29,.73,1.72,1.59,2.59,2.74-1.51,.14-2.56-1.35-2.59-2.74h0Z"/>
          <path class="uuid-2c904f25-4df7-420b-83cc-f1c4e526fcbe" d="M94.38,226.98c1.59-.28,2.86,.32,4.15,1.2-1.55,.48-2.98-.18-4.15-1.2h0Z"/>
          <path class="uuid-2c904f25-4df7-420b-83cc-f1c4e526fcbe" d="M77.27,188.05c.61,.39,.54,.73-.17,.86-.61-.39-.54-.73,.17-.86h0Z"/>
          <path class="uuid-2c904f25-4df7-420b-83cc-f1c4e526fcbe" d="M125.48,225.43c1.16-1.01,2.64-1.56,4.15-1.03-1.31,.84-2.58,1.33-4.15,1.03h0Z"/>
          <path class="uuid-2c904f25-4df7-420b-83cc-f1c4e526fcbe" d="M191.65,359.7c-.27-1.19,.41-1.98,1.38-2.57,.27,1.2-.42,1.97-1.38,2.57h0Z"/>
          <path class="uuid-2c904f25-4df7-420b-83cc-f1c4e526fcbe" d="M194.59,353.18c-.7-.85-.57-1.8,.17-2.57,.63,.9,.5,1.74-.17,2.57h0Z"/>
        </g>
        <g>
          <g>
            <path class="uuid-3a8f1c80-a740-4293-b2a4-43176bfbf9be" d="M148.11,229.38c1.09-.27,1.89,.05,2.42,1.03-1.04,.29-1.93-.07-2.42-1.03h0Z"/>
            <path class="uuid-3a8f1c80-a740-4293-b2a4-43176bfbf9be" d="M148.28,232.47c1.17,.02,1.9,.5,2.42,1.54-1.15,.18-2.08-.43-2.42-1.54h0Z"/>
            <path class="uuid-3a8f1c80-a740-4293-b2a4-43176bfbf9be" d="M159.51,262.47c.44,1.23,.13,2.27-.69,3.26-.55-1.19-.2-2.35,.69-3.26h0Z"/>
            <path class="uuid-3a8f1c80-a740-4293-b2a4-43176bfbf9be" d="M177.48,385.42c.83-.68,1.62-.9,2.59-.34-.71,.8-1.71,1.03-2.59,.34h0Z"/>
            <path class="uuid-3a8f1c80-a740-4293-b2a4-43176bfbf9be" d="M170.23,381.31c.39-.61,.73-.55,.86,.17-.39,.61-.73,.54-.86-.17h0Z"/>
            <path class="uuid-3a8f1c80-a740-4293-b2a4-43176bfbf9be" d="M143.1,288.88c.53,.53,.4,.93-.35,1.03-.54-.53-.4-.93,.35-1.03h0Z"/>
          </g>
          <path class="uuid-3a8f1c80-a740-4293-b2a4-43176bfbf9be" d="M208.24,370.68c-.13,1.71-.79,3.01-1.9,4.29-.21-1.7,.57-3.25,1.9-4.29h0Z"/>
          <path class="uuid-3a8f1c80-a740-4293-b2a4-43176bfbf9be" d="M140.54,339.68c.17,.23,.35,.46,.52,.69,.05,.07,.15,.1,.23,.12,.12,.03,.26,.04,.38,.03l.12-.02c.06-.01,.12-.03,.18-.07,.05-.04,.1-.09,.05-.15-.17-.23-.35-.46-.52-.69-.05-.07-.15-.1-.23-.12-.12-.03-.26-.04-.38-.03l-.12,.02c-.06,.01-.12,.03-.18,.07-.05,.04-.1,.09-.05,.15h0Z"/>
        </g>
      </g>
      <g>
        <path class="uuid-f58abb93-91af-4a19-b4e6-d1d517d2a473" d="M75.45,93.13c-.95,.09-2.46,.37-4.26,.77,3.91,.08,7.82,.86,11.71,1.43,8.94,1.31,21.37,1.21,32.26,.04-4.42-.17-10.84-.9-21.48-2.64-6.21-1.02-12.06-.16-18.24,.4Z"/>
        <path class="uuid-8bc20c4a-2a3c-4aab-8444-3f275c6ac0de" d="M214.2,338.79c-.23-8.9-2.05-18.28-7.91-24.8-.86,12.37-.27,24.84-1.77,37.14-1.5,12.3-5.37,24.79-13.72,33.67-12.84,13.65-36.28,18.26-50.92,6.72-8.7-6.86-14.35-15.76-18.97-26.02-6.49-14.42-8.26-38.97-9.92-54.79-2.48-23.62-11.91-47.91-26.6-67.47-14.04-18.71-24.65-27.78-45.83-37.39-11.75-5.33-24.55-12.97-28.43-26.2C.23,145.92,23.26,112.02,52.1,97.65c4.03-2.01,11.42-3.2,15.87-3.64,1.07-.11,2.15-.13,3.22-.11,1.79-.4,3.31-.68,4.26-.77,6.17-.56,12.03-1.42,18.24-.4,10.64,1.74,17.05,2.47,21.48,2.64,4.41-.47,8.58-1.11,12.15-1.9-5.69-2.7-22.43-8.98-26.07-9.95-7.55-2.01-17.5-.96-25.15,.62-13.35,2.75-24.61,7.2-36.28,14.49C13.8,114.88-3.02,141.41,.45,173.26c1.62,14.81,8.64,23.24,21.58,30.93,8.63,5.13,16.79,8.63,25.13,14.24,13.42,9.02,22.95,17.33,32.72,30.44,5.69,7.64,11.4,20.05,14.94,28.97,9.25,23.32,10.14,45.01,13.55,67.12,3.41,22.11,11.82,45.79,30.95,56.23,17.12,9.35,39.48,4.91,53.97-8.37,14.48-13.29,21.42-34.01,20.91-54.04Z"/>
      </g>
      <path class="uuid-b0d5abae-a8c1-4eda-99e5-69d315731a29" d="M294.75,342.58c.13,0,.42-.04,.36-.22s-.48-.18-.6-.18c-.13,0-.42,.04-.36,.22s.48,.18,.6,.18h0Z"/>
      <g>
        <g>
          <path class="uuid-794c2ade-4734-448f-b2ec-d1bc1324ef5f" d="M88.24,365.69c13.5,3.36,25.56-.37,38.91,.01,14.96,.43,26.86,17.57,32.48,29.49,6.54,13.87,13.21,30.79,29.03,36.04,8.89,2.95,23.85,2.14,30.41-5.62,3.65-4.32,4.13-10.17,3.12-16.03,.06,1.01,.09,2,.06,2.95-.42,11.73-11.14,19.12-22.53,16.41-7.58-1.81-17.38-8.23-22.44-14.07-7.87-9.08-13.82-20.33-20.02-30.53-5.42-8.93-14.46-17.96-24.11-22.34-9.26-4.2-23.09-1.39-32.66,.08-5.07,.78-10.35,1.48-15.26,0-5.55-1.69-9.71-7.01-11.85-12.86,1.7,7.51,8.38,14.87,14.87,16.48Z"/>
          <g>
            <path class="uuid-794c2ade-4734-448f-b2ec-d1bc1324ef5f" d="M198.79,351.98c-1.59-8.36-1.4-17.94-1.38-26.52,.01-6.45,2.29-11.82,4.12-17.67-.44,.04-.89,.12-1.32,.26-2.16,.68-3.76,2.49-4.97,4.39-4.44,7.02-3.69,16.44-4.53,24.38-1.77,16.74,10.47,35.79,21.3,47.64,1.52,1.66,2.92,3.66,4.18,5.85-1.66-4.1-3.67-8.64-4.93-10.86-6.02-10.54-10.63-17.77-12.47-27.46Z"/>
            <path class="uuid-9188eb1d-75a4-4f54-80ce-fda651c87373" d="M231.58,378.75c-7.23-11.36-15.17-22.99-16.69-36.34-1.2-10.57,1.38-22.69-5.55-30.81-1.94-2.28-4.9-4.05-7.81-3.81-1.83,5.85-4.11,11.22-4.12,17.67-.02,8.58-.21,18.16,1.38,26.52,1.84,9.69,6.45,16.92,12.47,27.46,1.26,2.21,3.28,6.76,4.93,10.86,3.32,5.78,5.59,12.97,5.99,19.27,1.02,5.86,.53,11.72-3.12,16.03-6.56,7.76-21.52,8.57-30.41,5.62-15.81-5.25-22.49-22.16-29.03-36.04-5.62-11.92-17.52-29.06-32.48-29.49-13.35-.38-25.41,3.34-38.91-.01-6.48-1.61-13.16-8.98-14.87-16.48-1.3-3.55-1.85-7.3-1.5-10.55,.35-3.24,.72-6.51,1.79-9.58,1.07-3.08,2.93-5.99,5.69-7.74,3.23-2.05,11.62-4.4,14.99-2.22,1.66,1.08,3.36,2.52,5.33,2.3,.66-1.73-1.17-3.34-2.76-4.31-8.18-5-16.16-6.12-23.41,1.76-8.64,9.39-10.21,23.77-6.76,35.63,3.09,10.63,11.04,17.89,21.72,20.73,6.49,1.73,13.25,2.08,19.92,2.5,8.31,.52,18.91-2.47,26.02,3.64,8.09,6.95,13.62,15.28,18.88,24.56,7.2,12.68,14.37,29.1,27.08,37.51,11.06,7.32,27.34,10.21,42.76,3.31,12.06-5.4,20.94-17.53,21.78-30.64,.86-13.41-6.1-25.99-13.32-37.35Z"/>
          </g>
        </g>
        <g>
          <path class="uuid-5626c0b6-f2b0-4a70-a90d-c700644b5e99" d="M149.2,393.14c1.38,.11,3.57,2.23,2.14,3.69-.33,.34-.9,.34-1.32,.13-.72-.36-1.69-1.69-1.78-2.5-.12-1.01,.34-1.37,.96-1.32Z"/>
          <path class="uuid-5626c0b6-f2b0-4a70-a90d-c700644b5e99" d="M67.77,338.07c-.3,1.04,.38,3.38,1.32,1.66,.78-1.42-1.51-2.64-1.32-1.66Z"/>
          <path class="uuid-5626c0b6-f2b0-4a70-a90d-c700644b5e99" d="M122.13,368.27c-2.22,.12-1.83,2.37,.22,2.11,2.81-.35,.83-2.56-.22-2.11Z"/>
          <path class="uuid-5626c0b6-f2b0-4a70-a90d-c700644b5e99" d="M147.71,386.1c-.06,.23-.05,.56,.09,1,.27,.91,1.87,3.11,2.81,1.65,1.17-1.8-2.49-4.11-2.89-2.65Z"/>
          <path class="uuid-5626c0b6-f2b0-4a70-a90d-c700644b5e99" d="M104.37,373.86c-1.86-.13-.17,1.68,1.36,1.4,2.65-.48,.92-2.33-1.36-1.4Z"/>
          <path class="uuid-5626c0b6-f2b0-4a70-a90d-c700644b5e99" d="M178.43,430.25c-2.51-1.7-1.57,2.35,.26,3.22,3.42,1.61,2.14-3.36-.26-3.22Z"/>
          <path class="uuid-5626c0b6-f2b0-4a70-a90d-c700644b5e99" d="M184.41,441.6c1.56-.2,2.92,1.41,.81,1.75-1.16,.19-4.39-2.02-.81-1.75Z"/>
          <path class="uuid-5626c0b6-f2b0-4a70-a90d-c700644b5e99" d="M233.49,392.54c.44,1.89,3.24,3.4,2.82,.44-.33-2.37-3.97-3.28-2.82-.44Z"/>
          <path class="uuid-5626c0b6-f2b0-4a70-a90d-c700644b5e99" d="M202.71,350.46c-.38,1.03,.29,4.04,1.84,2.71,1.41-1.21-1.22-5.41-1.84-2.71Z"/>
          <path class="uuid-5626c0b6-f2b0-4a70-a90d-c700644b5e99" d="M204.64,342.61c-1.35,1.4,1.13,5.92,2.64,3.84,1.25-1.73-.86-5.72-2.64-3.84Z"/>
          <path class="uuid-5626c0b6-f2b0-4a70-a90d-c700644b5e99" d="M225.75,424.14c-2.6,2.04-.78,5.27,1.66,2.54,1.98-2.22,.28-4.52-1.66-2.54Z"/>
          <path class="uuid-5626c0b6-f2b0-4a70-a90d-c700644b5e99" d="M232.79,422.22c.25,.71,.41,1.9-.36,2.45-1.56,1.11-1.46-1.45,.36-2.45Z"/>
          <path class="uuid-5626c0b6-f2b0-4a70-a90d-c700644b5e99" d="M225.22,389.75c1.13-.12,2.73,1.28,1.32,1.93-1.33,.61-2.81-1.13-1.32-1.93Z"/>
          <path class="uuid-5626c0b6-f2b0-4a70-a90d-c700644b5e99" d="M215.55,444.92c-.86-.17-2.46,.72-1.25,1.41,1.19,.67,3.81-2.06,1.25-1.41Z"/>
          <path class="uuid-5626c0b6-f2b0-4a70-a90d-c700644b5e99" d="M89.76,316.42c.54-.11,1.11,0,1.56,.25-.44,.64-1.49,.49-2.3,.39-.17-.5,.09-.57,.74-.64Z"/>
        </g>
        <g>
          <path class="uuid-5626c0b6-f2b0-4a70-a90d-c700644b5e99" d="M82.73,367.05c1.17-.12,2.13,.3,2.64,1.4-1.18,.1-2.11-.31-2.64-1.4h0Z"/>
          <path class="uuid-5626c0b6-f2b0-4a70-a90d-c700644b5e99" d="M78.33,364.43c1.29,.47,1.81,1.39,2.29,2.62-1.37-.16-2.11-1.34-2.29-2.62h0Z"/>
          <path class="uuid-5626c0b6-f2b0-4a70-a90d-c700644b5e99" d="M78.15,318.16c.53-1.09,1.31-1.41,2.46-1.57-.22,1.2-1.33,1.72-2.46,1.57h0Z"/>
          <path class="uuid-5626c0b6-f2b0-4a70-a90d-c700644b5e99" d="M85.37,316.77c.59-.73,1.24-.81,1.94-.17-.52,.72-1.31,.81-1.94,.17h0Z"/>
          <path class="uuid-5626c0b6-f2b0-4a70-a90d-c700644b5e99" d="M214.85,436.71c-.09-.71,.19-.85,.7-.35,.09,.71-.19,.85-.7,.35h0Z"/>
          <path class="uuid-5626c0b6-f2b0-4a70-a90d-c700644b5e99" d="M220.12,437.41c-.21-.75,.13-1.09,.88-.87,.21,.75-.13,1.08-.88,.87h0Z"/>
          <path class="uuid-5626c0b6-f2b0-4a70-a90d-c700644b5e99" d="M237.89,407.21c.73,.35,.8,.88,.18,1.4-.73-.35-.79-.88-.18-1.4h0Z"/>
          <path class="uuid-5626c0b6-f2b0-4a70-a90d-c700644b5e99" d="M232.09,437.41c.14-1.66,.9-2.91,2.11-4.02,.05,1.66-.79,3.06-2.11,4.02h0Z"/>
          <path class="uuid-5626c0b6-f2b0-4a70-a90d-c700644b5e99" d="M226.63,381.19c.98,.72,1.51,1.78,1.06,2.97-.88-.85-1.35-1.73-1.06-2.97h0Z"/>
          <path class="uuid-5626c0b6-f2b0-4a70-a90d-c700644b5e99" d="M226.81,405.11c.73,.35,.8,.88,.18,1.4-.73-.35-.79-.88-.18-1.4h0Z"/>
          <path class="uuid-5626c0b6-f2b0-4a70-a90d-c700644b5e99" d="M156.79,397.43c1.26,1.14,1.93,2.66,1.94,4.36-1.28-1.18-1.91-2.62-1.94-4.36h0Z"/>
          <path class="uuid-5626c0b6-f2b0-4a70-a90d-c700644b5e99" d="M137.44,377.35c1.83-.06,3.22,1.28,4.05,2.79-1.75-.47-2.77-1.58-4.05-2.79h0Z"/>
          <path class="uuid-5626c0b6-f2b0-4a70-a90d-c700644b5e99" d="M92.93,370.72c.97-.64,1.77-.66,2.81-.17-.77,.87-1.94,.9-2.81,.17h0Z"/>
        </g>
      </g>
      <g>
        <g>
          <g>
            <path class="uuid-f58abb93-91af-4a19-b4e6-d1d517d2a473" d="M167.93,374.83c-1.75,.3-3.48-.56-5.25-.7-3.72-.3-7.45,2.55-10.96,1.29-3.55-1.28-6.07-4.27-9.38-5.57-.89-.35-1.87-.37-2.81-.52-6.12-1.01-11.86-10.51-12.81-16.12-.52-3.06,.08-6.32-1.09-9.19-1.73-4.24-4.37-7.44-4.14-12.29,.15-3.29,1.36-6.36,1.43-9.72,.22-10.67-.36-21.11,1.22-31.74,1.87-12.61,2.81-25.02,.75-37.7-1.67-10.3-5.2-20.66-12.41-28.25-4.29-4.52-9.79-7.89-15.77-9.69-4.75-1.43-9.74-1.87-14.69-2.08-5.45-.24-11.12-.17-16.05,2.16-4.28,2.03-7.6,5.59-10.81,9.06-1.82,1.98-3.65,3.95-5.47,5.93-4.22,4.57-6.37,7.52-8.02,13.5-2.43,8.82-.23,23.23,5.08,31.19-1.66-3.1-3-6.3-3.76-9.3-1.48-5.9-.63-9.41,.65-15.35,1.83-8.49,4.81-18.11,11.62-23.57,2.86-2.3,7.25-4.92,10.71-6.17,6.11-2.21,9.41-2.52,15.9-2.92,7.28-.44,18.05,2.98,24.67,7.49,2.52,1.72,4.88,3.88,6.72,6.31,1.72,2.27,3.87,4.68,4.89,7.35,1.34,3.53,2.04,7.62,2.96,11.3,1.07,4.29,1.95,8.63,2.33,13.04,2.17,25.13-11.84,50-7.65,74.87,1.25,7.41,2.79,14.73,6.17,21.45,3.81,7.58,11.61,13.67,19.38,17.2,7.91,3.59,18.08,5,26.37,2.07,4.29-1.52,10.51-3.8,13.86-6.92,1.57-1.46,3.03-2.91,4.42-4.38-4.27,3.14-9.13,5.31-15.07,6.62-1.09,.24-1.9,1.22-3,1.41Z"/>
            <path class="uuid-08675b9a-83e8-49ab-af17-0c6b90a57439" d="M227.75,337.61c1.57-.14,3.15-.73,4.18-1.91,1.45-1.67,1.5-4.08,1.47-6.28-.01-1.23-.03-2.46-.04-3.7,0-.68-.01-1.38,.23-2.01,.79-2.07,2.77-1.83,4.09-.53,1.88,1.85,4.37,3.53,6.99,3.08,3.22-.55,4.99-3.94,6.27-6.93,1.09-2.55,2.19-5.13,2.71-7.85,1.05-5.48-.93-11.69-3.24-16.62-.95-2.04-1.96-4.08-2.39-6.28-.31-1.58-.31-3.19-.31-4.8,0-2.07,0-4.14,0-6.22,0-8.7-.04-17.63-3.16-25.76-.1-.27-.23-.56-.48-.7-.28-.16-.62-.09-.93-.02-9.38,2.06-18.85,3.3-27.71,7.02-12.69,5.33-25.8,9.64-39.18,12.88-.43,10.56,4.92,19.91,7.43,29.83,2.53,10.02,1.79,20.58-.99,30.47-.61,2.18-1.11,4.42-2.05,6.48-1.45,3.19-3.13,7.89-5.11,10.79-4.32,6.34-11.42,10.52-19.52,10.8-2.97,.1-6.43-1.3-9.2-2.41-7.97-3.19-12.05-11.37-14.15-19.16-2.75-10.2-2.93-20.83-.85-31.13,2.88-14.27,6.51-29.11,6.4-43.67-.07-9.7-3.1-20.71-7.26-29.49-6.37-13.47-19.6-24.1-34.38-26.58-10.28-1.72-19.53-.86-29.37,2.4-4.44,1.47-12.06,6.36-15.52,9.55-3.76,3.47-6.99,7.69-9.72,11.99-4.67,7.36-6.41,17.32-5.52,25.96,.76,7.41,2.94,12.84,7.01,19.1,4.07,6.26,8.61,12.3,11.42,19.2,.5,1.24,1.83,2.78,2.85,1.9,.24-.2,.37-.49,.47-.79,1.26-3.68-1.4-8-3.95-10.95-2.63-3.05-5.32-6.91-7.47-10.93-5.31-7.97-7.51-22.38-5.08-31.19,1.65-5.98,3.8-8.93,8.02-13.5,1.82-1.98,3.65-3.95,5.47-5.93,3.21-3.47,6.52-7.03,10.81-9.06,4.92-2.33,10.6-2.4,16.05-2.16,4.96,.22,9.94,.66,14.69,2.08,5.98,1.8,11.48,5.18,15.77,9.69,7.21,7.59,10.74,17.96,12.41,28.25,2.06,12.69,1.12,25.1-.75,37.7-1.58,10.63-1,21.07-1.22,31.74-.07,3.37-1.28,6.44-1.43,9.72-.23,4.85,2.41,8.05,4.14,12.29,1.17,2.87,.57,6.14,1.09,9.19,.95,5.61,6.69,15.11,12.81,16.12,.94,.16,1.92,.17,2.81,.52,3.31,1.31,5.83,4.29,9.38,5.57,3.5,1.27,7.24-1.59,10.96-1.29,1.77,.14,3.5,1,5.25,.7,1.1-.19,1.91-1.17,3-1.41,5.94-1.31,10.8-3.48,15.07-6.62,5.59-5.92,9.82-12.12,13.31-20.02,1.51-3.42,2.78-6.58,3.76-10.18,.42-1.55,1.26-3.91,1.51-5.49,.2-1.29,.61-4.75,1.76-5.49,.33-.21,.61-.21,.85-.04,2.72,1.98,.52,26.16,13.4,16.39,1.15-.87,2.17-1.88,3.29-2.78,1.11-.89,2.47-1.47,3.87-1.6Z"/>
          </g>
          <g>
            <path class="uuid-c60e8695-fea1-4ec8-b55d-183b62fceacc" d="M134.29,357.47c2.64,4.93,7.68,7.64,12.35,10.43-5.17-1.42-11.02-4.86-12.35-10.43h0Z"/>
            <path class="uuid-c60e8695-fea1-4ec8-b55d-183b62fceacc" d="M176.92,360.43c2.37-2.42,3.89-5.13,5.85-7.88-.62,3.25-2.66,6.63-5.85,7.88h0Z"/>
            <path class="uuid-c60e8695-fea1-4ec8-b55d-183b62fceacc" d="M189.87,349.03c.25-1.79,1.16-3.18,2.51-4.35-.12,1.81-1.09,3.27-2.51,4.35h0Z"/>
            <path class="uuid-c60e8695-fea1-4ec8-b55d-183b62fceacc" d="M195.72,329.34c.62,.75,.54,1.66-.21,2.28-.61-.86-.54-1.55,.21-2.28h0Z"/>
            <path class="uuid-c60e8695-fea1-4ec8-b55d-183b62fceacc" d="M189.04,313.38c1.11-.4,2.26-.21,2.92,.83-1.17,.25-2.12,.1-2.92-.83h0Z"/>
            <path class="uuid-c60e8695-fea1-4ec8-b55d-183b62fceacc" d="M188.41,309.65c1.58,.07,2.83,.54,3.97,1.66-1.56,.2-3.04-.38-3.97-1.66h0Z"/>
            <path class="uuid-c60e8695-fea1-4ec8-b55d-183b62fceacc" d="M126.38,324.16c.75,.62,.88,1.21,.42,2.07-.86-.45-1.03-1.32-.42-2.07h0Z"/>
            <path class="uuid-c60e8695-fea1-4ec8-b55d-183b62fceacc" d="M132.22,264.87c.72,.09,.8,.41,.21,.83-.72-.08-.8-.41-.21-.83h0Z"/>
            <path class="uuid-c60e8695-fea1-4ec8-b55d-183b62fceacc" d="M133.48,255.75c1.09,1.09,1.52,2.72,.84,4.15-.71-1.39-1.04-2.58-.84-4.15h0Z"/>
            <path class="uuid-c60e8695-fea1-4ec8-b55d-183b62fceacc" d="M113.63,219.68c1.07,.24,1.68,.76,1.88,1.87-1.09-.05-1.86-.75-1.88-1.87h0Z"/>
            <path class="uuid-c60e8695-fea1-4ec8-b55d-183b62fceacc" d="M118.23,221.13c1.58,.66,3.02,1.93,3.13,3.73-1.34-1.13-2.49-2.06-3.13-3.73h0Z"/>
            <path class="uuid-c60e8695-fea1-4ec8-b55d-183b62fceacc" d="M43.45,232.95c.16-1.18,.56-1.97,1.67-2.49,.11,1.17-.48,2.22-1.67,2.49h0Z"/>
          </g>
          <g>
            <path class="uuid-a343b8b7-c5b5-4950-9efb-cf25e55c0369" d="M120.93,346.95c.83,1,1.1,1.91,.92,3.2-1.09-.71-1.46-2.02-.92-3.2h0Z"/>
            <path class="uuid-a343b8b7-c5b5-4950-9efb-cf25e55c0369" d="M121.39,341.01c.96,1.03,1.29,2.3,.92,3.66-.97-1.05-1.28-2.28-.92-3.66h0Z"/>
            <path class="uuid-a343b8b7-c5b5-4950-9efb-cf25e55c0369" d="M119.08,305.8c.41,1.77,.25,3.36-.46,5.03-.67-1.68-.48-3.49,.46-5.03h0Z"/>
            <path class="uuid-a343b8b7-c5b5-4950-9efb-cf25e55c0369" d="M141.66,373.93c1.49-.36,3.08,.42,3.69,1.83-1.51-.33-2.51-.83-3.69-1.83h0Z"/>
          </g>
          <g>
            <path class="uuid-b0d5abae-a8c1-4eda-99e5-69d315731a29" d="M129.22,296.2c.66,2.31,.28,4.61-.46,6.86-.63-2.32-.25-4.6,.46-6.86h0Z"/>
            <path class="uuid-b0d5abae-a8c1-4eda-99e5-69d315731a29" d="M129.68,247.27c.74-.03,.93,.33,.46,.91-.75,.03-.92-.33-.46-.91h0Z"/>
            <path class="uuid-b0d5abae-a8c1-4eda-99e5-69d315731a29" d="M128.76,238.58c1.33,1.93,2.31,4.02,2.3,6.4-1.31-1.95-2.27-4.02-2.3-6.4h0Z"/>
            <path class="uuid-b0d5abae-a8c1-4eda-99e5-69d315731a29" d="M90.98,208.4c1.51-.83,3.53-.43,4.61,.91-1.74-.08-2.97-.33-4.61-.91h0Z"/>
            <path class="uuid-b0d5abae-a8c1-4eda-99e5-69d315731a29" d="M37.99,249.56c-.86-.94-.7-2.57,.46-3.2,.12,1.29,.08,2.01-.46,3.2h0Z"/>
            <path class="uuid-b0d5abae-a8c1-4eda-99e5-69d315731a29" d="M194.19,337.35c-.08-2.44,.38-4.86,1.84-6.86-.15,2.44-.58,4.73-1.84,6.86h0Z"/>
            <path class="uuid-b0d5abae-a8c1-4eda-99e5-69d315731a29" d="M189.12,315.4c1.06-.68,2.17-.69,3.23,0-1.06,.69-2.17,.68-3.23,0h0Z"/>
            <path class="uuid-b0d5abae-a8c1-4eda-99e5-69d315731a29" d="M182.67,285.68c1.22,1.95,2.05,3.75,2.76,5.94-1.84-1.36-2.89-3.66-2.76-5.94h0Z"/>
            <path class="uuid-b0d5abae-a8c1-4eda-99e5-69d315731a29" d="M182.21,291.62c2.17,.43,3.79,2.45,4.15,4.57-1.63-1.48-2.7-2.92-4.15-4.57h0Z"/>
            <path class="uuid-b0d5abae-a8c1-4eda-99e5-69d315731a29" d="M242.57,257.79c.71,1.52,.86,2.95,.46,4.57-.96-1.36-1.13-3.05-.46-4.57h0Z"/>
            <path class="uuid-b0d5abae-a8c1-4eda-99e5-69d315731a29" d="M244.41,264.19c.68,2.43,.69,4.89,0,7.32-.69-2.43-.68-4.89,0-7.32h0Z"/>
            <path class="uuid-b0d5abae-a8c1-4eda-99e5-69d315731a29" d="M161.93,368.9c3.03,.1,5.71-.94,8.75-.91-2.64,1.32-5.96,2.41-8.75,.91h0Z"/>
            <path class="uuid-b0d5abae-a8c1-4eda-99e5-69d315731a29" d="M183.59,359.76c-.2-1.18,.65-2.24,1.84-2.29-.33,1.16-.79,1.71-1.84,2.29h0Z"/>
          </g>
        </g>
        <g>
          <g>
            <path class="uuid-f58abb93-91af-4a19-b4e6-d1d517d2a473" d="M24.54,287.89c.3-.17,.6-.31,.92-.35,6.83-1.05,11.32,5.67,13.04,11.86-.17-2.5-.45-4.97-1.11-7.34-1.92-6.85-8.45-7.58-12.84-4.16Z"/>
            <path class="uuid-08675b9a-83e8-49ab-af17-0c6b90a57439" d="M232.3,323.21c-1.63-4.66-4.88-8.95-9.45-10.89-3.33-1.41-9.22-1.67-11.95,1.24-1.88,2-.41,4.33-1.22,6.51-1.5-.59-2.61-1.71-4.43-1.59-.38,.02-.78,.1-1.09,.32-.59,.42-.73,1.24-.65,1.96,.34,3.11,3.15,5.36,3.91,8.37,.6,2.37,.64,4.9,1.05,7.3,1.87,10.89,.52,27.97-5.3,37.5-8.48,13.88-18.74,23.34-33.52,29.84-17.33,7.62-40.03,6.67-58.4,3.77-7.77-1.22-15.65-5.75-22.78-9.04-17.03-7.85-28.5-24.26-36.22-41.24-1.84-4.04-2.36-7.52-3.55-11.79-4.12-14.84-3.57-31.09-6.45-46.12-1.13-5.9-1.91-11.62-7.8-14.64-3.88-1.99-10.54-2.19-13.89,1-1.15,1.1-4.42,6.43-2.11,7.66,1.82,.96,3.65-4.05,6.08-5.47,4.4-3.42,10.93-2.68,12.84,4.16,.66,2.37,.94,4.85,1.11,7.34,.47,1.69,.73,3.35,.78,4.79,.52,17.07-.18,29.62,2.86,46.43,3.04,16.81,9.18,36.02,21.43,48.01,6.1,5.97,13.35,12.34,21.08,16.12,34.02,16.64,76.8,17.38,110.16-1.86,4.88-2.82,9.16-6.22,13.45-9.83,4.66-3.92,8.28-8.93,11.36-14.17,9.08-15.42,13.85-33.22,14.36-51.07,.14-4.93-.05-9.96-1.68-14.62Z"/>
          </g>
          <g>
            <path class="uuid-b0d5abae-a8c1-4eda-99e5-69d315731a29" d="M94.66,410.97c1.41,.38,2.37,.7,3.46,1.71-1.39,.37-2.99-.3-3.46-1.71h0Z"/>
            <path class="uuid-b0d5abae-a8c1-4eda-99e5-69d315731a29" d="M100.19,410.97c1.85-.13,3.8-.02,5.18,1.37-1.88-.09-3.65-.16-5.18-1.37h0Z"/>
            <path class="uuid-b0d5abae-a8c1-4eda-99e5-69d315731a29" d="M192.11,405.49c.14-.98,.74-1.46,1.73-1.37-.13,.98-.74,1.46-1.73,1.37h0Z"/>
            <path class="uuid-b0d5abae-a8c1-4eda-99e5-69d315731a29" d="M199.02,402.06c.16-1.23,.87-2.06,2.07-2.4-.16,1.24-.88,2.06-2.07,2.4h0Z"/>
            <path class="uuid-b0d5abae-a8c1-4eda-99e5-69d315731a29" d="M220.45,338.95c.68,2.02,1.09,4.11,.35,6.17-.63-2.04-1.03-4.09-.35-6.17h0Z"/>
            <path class="uuid-b0d5abae-a8c1-4eda-99e5-69d315731a29" d="M223.21,330.72c.53,1.89,1.38,3.48,1.04,5.49-.55-.84-.92-1.66-1.19-2.59-.23-.91-.33-1.99,.15-2.9h0Z"/>
            <path class="uuid-b0d5abae-a8c1-4eda-99e5-69d315731a29" d="M219.07,323.52c2.16-.67,4.36-1.06,6.57-.34-2.17,.66-4.36,1.04-6.57,.34h0Z"/>
            <path class="uuid-b0d5abae-a8c1-4eda-99e5-69d315731a29" d="M225.29,326.61c2.15-.35,4.58,.73,5.53,2.74-1.98-1-3.59-1.68-5.53-2.74h0Z"/>
            <path class="uuid-b0d5abae-a8c1-4eda-99e5-69d315731a29" d="M220.45,377.02c-.03,3.55-1.45,7.23-4.15,9.6,1.58-3.23,2.74-6.3,4.15-9.6h0Z"/>
            <path class="uuid-b0d5abae-a8c1-4eda-99e5-69d315731a29" d="M58.38,380.45c1.6,.66,2.93,1.99,3.11,3.77-1.39-1.08-2.46-2.11-3.11-3.77h0Z"/>
            <path class="uuid-b0d5abae-a8c1-4eda-99e5-69d315731a29" d="M60.8,385.94c1.48,.9,2.69,2.04,3.11,3.77-1.5-.87-2.71-2.03-3.11-3.77h0Z"/>
            <path class="uuid-b0d5abae-a8c1-4eda-99e5-69d315731a29" d="M45.94,350.96c.87,.45,1.12,1.17,.69,2.06-.88-.45-1.11-1.17-.69-2.06h0Z"/>
            <path class="uuid-b0d5abae-a8c1-4eda-99e5-69d315731a29" d="M42.48,321.12c.68,.11,.68,.24,0,.34-.68-.11-.68-.24,0-.34h0Z"/>
            <path class="uuid-b0d5abae-a8c1-4eda-99e5-69d315731a29" d="M21.06,288.54c.71-1.31,1.96-2.07,3.46-2.06-.87,1.22-1.97,1.87-3.46,2.06h0Z"/>
            <path class="uuid-b0d5abae-a8c1-4eda-99e5-69d315731a29" d="M146.5,422.63c2.24-.66,4.29-.14,6.57,0-2.02,1.23-4.46,.72-6.57,0h0Z"/>
            <path class="uuid-b0d5abae-a8c1-4eda-99e5-69d315731a29" d="M153.41,421.26c4.64-1.76,8.95-4.06,13.82-5.14-4.33,2.35-8.83,4.72-13.82,5.14h0Z"/>
            <path class="uuid-b0d5abae-a8c1-4eda-99e5-69d315731a29" d="M213.88,361.93c.1,2.18-.07,4.36-1.38,6.17-.02-2.18,.15-4.3,1.38-6.17h0Z"/>
          </g>
          <g>
            <path class="uuid-c60e8695-fea1-4ec8-b55d-183b62fceacc" d="M79,399.54c1.73-.45,3.66,.3,4.61,1.83-1.77-.38-3.06-.89-4.61-1.83h0Z"/>
            <path class="uuid-c60e8695-fea1-4ec8-b55d-183b62fceacc" d="M79.92,402.28c1.83-.11,3.59,.76,4.61,2.29-1.81-.39-3.2-1.09-4.61-2.29h0Z"/>
            <path class="uuid-c60e8695-fea1-4ec8-b55d-183b62fceacc" d="M43.06,333.69c.68,2.28,.69,4.58,0,6.86-.69-2.28-.68-4.58,0-6.86h0Z"/>
            <path class="uuid-c60e8695-fea1-4ec8-b55d-183b62fceacc" d="M138.44,416c2.02-.73,3.85-.94,5.99-.91-1.7,1.3-3.98,1.57-5.99,.91h0Z"/>
            <path class="uuid-c60e8695-fea1-4ec8-b55d-183b62fceacc" d="M179.9,412.8c.78-1.43,2.08-2.41,3.69-2.74-.84,1.48-2.03,2.36-3.69,2.74h0Z"/>
            <path class="uuid-c60e8695-fea1-4ec8-b55d-183b62fceacc" d="M220.45,319.98c1.6-.72,3.77-.86,5.07,.46-1.82,0-3.33,.21-5.07-.46h0Z"/>
            <path class="uuid-c60e8695-fea1-4ec8-b55d-183b62fceacc" d="M218.61,362.96c.37,1.61,.05,3.24-.92,4.57-.36-1.69-.06-3.16,.92-4.57h0Z"/>
            <path class="uuid-c60e8695-fea1-4ec8-b55d-183b62fceacc" d="M217.22,354.73c.56,1.85,.43,4-.92,5.49,.04-1.97,.1-3.66,.92-5.49h0Z"/>
            <path class="uuid-c60e8695-fea1-4ec8-b55d-183b62fceacc" d="M190.5,397.71c.62-2.22,2.29-3.78,4.15-5.03-.81,2.15-2.4,3.6-4.15,5.03h0Z"/>
            <path class="uuid-c60e8695-fea1-4ec8-b55d-183b62fceacc" d="M216.3,390.4c.3-2.6,1.49-4.92,3.23-6.86-.51,2.57-1.65,4.78-3.23,6.86h0Z"/>
            <path class="uuid-c60e8695-fea1-4ec8-b55d-183b62fceacc" d="M229.2,349.7c.85,2.44,.21,4.92-.46,7.32-.71-2.48-.07-4.87,.46-7.32h0Z"/>
          </g>
        </g>
        <g>
          <g>
            <path class="uuid-f58abb93-91af-4a19-b4e6-d1d517d2a473" d="M300.41,404.01c-12.4-5.56-18.58-14.63-26.57-24.84-9.94-12.7-16.07-30.05-27.61-41.78,3.18,6.28,6.01,12.76,9.35,18.96,4.31,7.99,9.46,15.49,14.61,22.97,2.9,4.22,5.81,8.45,9.2,12.3,9.74,11.05,23.42,18.62,38.02,21.02,6.47,1.06,13.25,1.12,19.45-1,4.97-1.7,14.03-5.25,18.35-8.23,7.94-5.48,11.56-8.18,17.13-16.02,1.06-1.49,2.08-3.23,3.07-5.11-1.9,2.3-3.92,4.55-5.97,6.87-17.77,20.06-44.38,25.91-69.02,14.87Z"/>
            <path class="uuid-08675b9a-83e8-49ab-af17-0c6b90a57439" d="M378.7,257.9c-6.34-15.88-10-21.14-18.61-35.92-.73-1.25-1.38-2.79-1.88-4.48-1.18-2.21-2.26-4.46-2.95-6.82-2.01-6.82,3.16-10.86,8.71-10.25,2.82-.06,7.04,3.24,8.07,1.47,1.31-2.25-4.3-5.07-5.86-5.4-4.54-.96-10.1,2.69-12.33,6.41-3.4,5.65-1.02,10.92,1.15,16.52,4.13,10.66,8.51,18.24,11.67,29.04,3.29,11.23,7.08,17.75,8.51,29.31,3.12,25.27,2.32,45.01-1.68,62.83-3.92,17.47-9.46,35.97-26.91,43.68-7.37,3.26-15.67,6.22-23.66,4.33-8.19-1.94-15.78-6.13-22.12-11.58-10.62-9.12-15.47-19.84-20.94-32.04-5.29-11.78-12.11-23.58-19.08-34.46-3.47-5.42-7.14-11-12.32-14.97-6.95-5.33-12.09-5.89-20.15-2.79-3.15,1.21-6.61,2.83-7.74,5.99-1.66,4.64,2.57,9.09,6.18,12.46,1.57,1.46,3.1,2.97,4.57,4.53,3.03,3.2,5.84,6.61,8.32,10.25,2.47,3.63,4.59,7.46,6.57,11.37,11.54,11.74,17.67,29.09,27.61,41.78,8,10.21,14.17,19.28,26.57,24.84,24.63,11.04,51.25,5.18,69.02-14.87,2.05-2.32,4.07-4.57,5.97-6.87,3.02-5.8,5.62-12.96,7.2-18.33,9.75-33.03,9.42-72.69-3.89-106.03Z"/>
            <path class="uuid-f58abb93-91af-4a19-b4e6-d1d517d2a473" d="M363.96,200.43c-.35,0-.67,.06-.97,.18-6.36,2.68-6.61,10.74-4.78,16.89-1.18-2.21-2.26-4.46-2.95-6.82-2.01-6.82,3.16-10.86,8.71-10.25Z"/>
          </g>
          <g>
            <path class="uuid-b0d5abae-a8c1-4eda-99e5-69d315731a29" d="M384.35,296.79c.33,1.75-.04,3.19-.64,4.83-.79-1.6-.37-3.43,.64-4.83h0Z"/>
            <path class="uuid-b0d5abae-a8c1-4eda-99e5-69d315731a29" d="M379.26,265.22c.83,.53,1.01,1.27,.51,2.11-.83-.52-1-1.27-.51-2.11h0Z"/>
            <path class="uuid-b0d5abae-a8c1-4eda-99e5-69d315731a29" d="M366.36,238.05c.63-.27,.7-.16,.18,.29-.63,.27-.7,.16-.18-.29h0Z"/>
            <path class="uuid-b0d5abae-a8c1-4eda-99e5-69d315731a29" d="M367.26,199.16c-1.37,.62-2.65,.64-4.03,.06,1.27-.79,2.74-.81,4.03-.06h0Z"/>
            <path class="uuid-b0d5abae-a8c1-4eda-99e5-69d315731a29" d="M239.12,304.72c1.29-3.29,6.93-3.95,9.97-3.28-2.68,.56-5.25,.95-7.78,1.88-.8,.33-1.59,.69-2.2,1.39h0Z"/>
            <path class="uuid-b0d5abae-a8c1-4eda-99e5-69d315731a29" d="M245.64,305.75c.85-1.76,3.26-2.48,4.99-1.64-1.83,.63-3.16,.97-4.99,1.64h0Z"/>
            <path class="uuid-b0d5abae-a8c1-4eda-99e5-69d315731a29" d="M280.67,364.79c2.26,2.26,4.15,4.87,5.05,7.97-2.1-2.42-3.92-4.95-5.05-7.97h0Z"/>
            <path class="uuid-b0d5abae-a8c1-4eda-99e5-69d315731a29" d="M283.54,375.16c3.14,1.59,5.91,3.76,8.19,6.43-3.17-1.61-5.88-3.74-8.19-6.43h0Z"/>
            <path class="uuid-b0d5abae-a8c1-4eda-99e5-69d315731a29" d="M377.98,346.78c.38,3.14,.08,6.37-1.35,9.23,.08-3.18,.35-6.2,1.35-9.23h0Z"/>
            <path class="uuid-b0d5abae-a8c1-4eda-99e5-69d315731a29" d="M378.96,356.34c-.05,1.78-1,3.37-2.54,4.26,.44-1.73,1.23-3.04,2.54-4.26h0Z"/>
            <path class="uuid-b0d5abae-a8c1-4eda-99e5-69d315731a29" d="M370.26,246.9c1.24,2.05,1.84,4.38,1.75,6.78-1.26-2.11-1.82-4.32-1.75-6.78h0Z"/>
            <path class="uuid-b0d5abae-a8c1-4eda-99e5-69d315731a29" d="M305.86,395.5c3.55,1.89,7.2,2.81,10.85,4.46-3.93-.26-8.14-1.44-10.85-4.46h0Z"/>
            <path class="uuid-b0d5abae-a8c1-4eda-99e5-69d315731a29" d="M329,405.25c8,1.27,14.5-3.64,21.13-7.3,3.42-1.79,7.12-3.03,10.01-5.39,1.4-1.19,2.36-2.88,3.39-4.49,1.04-1.59,2.22-3.28,4-4.11-1.65,1.03-2.67,2.7-3.58,4.36-.94,1.65-1.83,3.42-3.29,4.81-2.94,2.62-6.7,3.84-10.06,5.7-6.55,3.54-13.71,8.54-21.59,6.41h0Z"/>
            <path class="uuid-b0d5abae-a8c1-4eda-99e5-69d315731a29" d="M362.81,381.93c1.41-3.38,4.06-5.99,6.94-8.15-1.89,3.13-4.4,5.56-6.94,8.15h0Z"/>
            <path class="uuid-b0d5abae-a8c1-4eda-99e5-69d315731a29" d="M266.42,331.66c1.6,1.24,1.92,3.09,2.57,4.9-1.76-.96-2.21-3.06-2.57-4.9h0Z"/>
            <path class="uuid-b0d5abae-a8c1-4eda-99e5-69d315731a29" d="M253.21,326.41c1.6,1,2.55,2.3,3.44,3.94-1.8-.58-2.97-2.16-3.44-3.94h0Z"/>
          </g>
          <g>
            <path class="uuid-c60e8695-fea1-4ec8-b55d-183b62fceacc" d="M372.54,249.04c1.79,1.57,3.02,3.53,3.64,5.83-1.79-1.57-3.01-3.53-3.64-5.83h0Z"/>
            <path class="uuid-c60e8695-fea1-4ec8-b55d-183b62fceacc" d="M238.05,302.03c1.45-1.67,3.66-2.51,5.86-2.6-1.75,1.41-3.69,2.11-5.86,2.6h0Z"/>
            <path class="uuid-c60e8695-fea1-4ec8-b55d-183b62fceacc" d="M256.3,332.2c2.01,1.47,3.92,3.6,4.03,6.2-1.25-1.83-3.22-4.09-4.03-6.2h0Z"/>
            <path class="uuid-c60e8695-fea1-4ec8-b55d-183b62fceacc" d="M265.38,338.12c1,.81,1.38,1.89,1.09,3.15-1.01-.81-1.38-1.89-1.09-3.15h0Z"/>
            <path class="uuid-c60e8695-fea1-4ec8-b55d-183b62fceacc" d="M335.51,397.58c1.3-1.44,3.01-2.33,4.94-2.55-1.34,1.47-2.97,2.3-4.94,2.55h0Z"/>
            <path class="uuid-c60e8695-fea1-4ec8-b55d-183b62fceacc" d="M341.46,396.81c2.25-2.52,4.91-4.5,7.99-5.92-2.24,2.52-4.93,4.5-7.99,5.92h0Z"/>
            <path class="uuid-c60e8695-fea1-4ec8-b55d-183b62fceacc" d="M370.87,377.38c.4-2.54,1.73-4.63,3.33-6.59-.36,2.55-1.7,4.66-3.33,6.59h0Z"/>
            <path class="uuid-c60e8695-fea1-4ec8-b55d-183b62fceacc" d="M382.09,320.46c.58,.98,.47,1.94-.31,2.76-.58-.98-.47-1.94,.31-2.76h0Z"/>
            <path class="uuid-c60e8695-fea1-4ec8-b55d-183b62fceacc" d="M384.15,324.47c.84,2.55,.7,5.66-.96,7.84,.34-2.71,.4-5.15,.96-7.84h0Z"/>
            <path class="uuid-c60e8695-fea1-4ec8-b55d-183b62fceacc" d="M268.6,354.9c2.05,.69,3.24,2.8,3.49,4.85-1.54-1.48-2.33-3.07-3.49-4.85h0Z"/>
            <path class="uuid-c60e8695-fea1-4ec8-b55d-183b62fceacc" d="M301.08,383.85c2.04,1.27,3.57,2.66,5.31,4.3-2.37-.38-4.34-2.14-5.31-4.3h0Z"/>
          </g>
        </g>
        <g>
          <path class="uuid-b0d5abae-a8c1-4eda-99e5-69d315731a29" d="M207.55,330.95c-.87-3.83-4.59-13.49-9.68-11.89,.6-.42,1.37-.61,2.14-.57,4.8,.76,7.77,8.11,7.54,12.46h0Z"/>
          <path class="uuid-b0d5abae-a8c1-4eda-99e5-69d315731a29" d="M196.03,306.71c.8,2.19,2.11,3.38,3.69,5.03-2.25-.27-4.42-2.71-3.69-5.03h0Z"/>
          <path class="uuid-b0d5abae-a8c1-4eda-99e5-69d315731a29" d="M195.11,310.37c1.64,2.22,2.97,4.26,5.53,5.49-2.95,.27-5.31-2.77-5.53-5.49h0Z"/>
          <path class="uuid-b0d5abae-a8c1-4eda-99e5-69d315731a29" d="M195.11,293.91c.41-2.58,2.47-4.97,5.07-5.49-1.94,1.81-3.34,3.48-5.07,5.49h0Z"/>
          <path class="uuid-b0d5abae-a8c1-4eda-99e5-69d315731a29" d="M232.43,325.01c.02-2.98,3.84-4.76,6.02-2.47,1.46,1.51,1.82,3.49,2.67,5.25,1.46,2.86,3.15,5.59,4.68,8.43,1.23,2.28,2.4,4.61,3.21,7.07-2.37-4.62-5.38-8.79-7.88-13.34-1.38-2.12-1.74-4.94-3.25-6.89-1.71-2.07-5.11-.61-5.46,1.94h0Z"/>
          <path class="uuid-b0d5abae-a8c1-4eda-99e5-69d315731a29" d="M183.59,368.9c9.85-7.87,15.15-19.76,18.42-31.63,.58-1.48,1.36-2.78,1.75-4.3,.34-2.03,.78-4.12,1.65-6.01,.21-.41,.41-1.16,1-1.07-.58-.03-.68,.71-.86,1.13-.74,1.97-.96,4.01-1.24,6.08-.32,1.54-1.08,2.99-1.58,4.43-2.9,12.02-8.53,24.33-19.15,31.37h0Z"/>
          <path class="uuid-b0d5abae-a8c1-4eda-99e5-69d315731a29" d="M241.64,273.79c1.26,6.61,3.38,13.01,5.99,19.21-2.07-2.72-3.37-5.93-4.43-9.16-.98-3.24-1.78-6.64-1.56-10.05h0Z"/>
          <path class="uuid-b0d5abae-a8c1-4eda-99e5-69d315731a29" d="M190.96,292.54c-.45-1.68,.59-3.67,2.3-4.12-.78,1.57-1.32,2.66-2.3,4.12h0Z"/>
        </g>
        <g>
          <path class="uuid-6dc79a1f-94b1-4653-9b16-58132e0c672c" d="M200.67,292.11c.14-.03,.27-.06,.42-.08,8.38-1.33,11.03,11.48,5.67,16.02-9.14,7.73-15.41-13.81-6.09-15.94Z"/>
          <g>
            <path class="uuid-0b943a1d-de9c-434d-8940-a1a47f4c5e5b" d="M201.15,293.99c.11-.02,.21-.05,.33-.06,6.55-1.04,8.63,8.98,4.44,12.53-7.14,6.05-12.05-10.8-4.76-12.46Z"/>
            <path class="uuid-6dc79a1f-94b1-4653-9b16-58132e0c672c" d="M197.44,298.46c.3,1.4,1.69,2.3,3.1,2s2.31-1.67,2.02-3.08c-.3-1.4-1.69-2.3-3.1-2-1.41,.3-2.31,1.67-2.02,3.08Z"/>
          </g>
        </g>
      </g>
      <g>
        <path class="uuid-08675b9a-83e8-49ab-af17-0c6b90a57439" d="M149.13,.43c-.01-.35,.38-.55,.66-.35,.67,.48,1.69,.61,2.34,1.57,2.48,3.66,4.49,9.29,7.44,12.61,3.4,3.83,7.33,6.04,12.17,7.69,2.99,1.02,6.64,2.03,8.35,4.89,1.99,3.34,.81,7.36,.63,10.98-.21,4.02-.05,5.87,2.43,8.7,2.91,3.32,6.5,13.22,.54,15.66-4.34-5.65-9.64-10.82-13.58-16.75-3.71-5.59-7.03-11.83-9.84-17.91-3.89-8.4-10.68-16.74-11.13-27.1Z"/>
        <g>
          <path class="uuid-94eb4349-f2cb-4c41-843a-3cb416712be8" d="M239.35,259.69c6.73,3.4,11.67,8.76,17.72,12.74,.78-2.16,3.63-6.88,3.16-9.27-.48-2.49-3.09-3.52-4.87-5.32-3.88-3.92-7.19-8.5-10.84-12.67-.85,4.33-4.24,9.49-5.18,14.52Z"/>
          <g>
            <path class="uuid-b0d5abae-a8c1-4eda-99e5-69d315731a29" d="M243.21,261.26c3.77,2.86,7.71,5.74,11.05,9.11-4.2-2.3-8.21-5.23-11.05-9.11h0Z"/>
            <path class="uuid-b0d5abae-a8c1-4eda-99e5-69d315731a29" d="M251.48,260.65c.89-.06,1.47,.52,1.26,1.41-.89-.08-1.32-.5-1.26-1.41h0Z"/>
            <path class="uuid-b0d5abae-a8c1-4eda-99e5-69d315731a29" d="M254.08,261.18c.73-.19,1.03,.14,.75,.85-.74,.19-1.03-.14-.75-.85h0Z"/>
          </g>
        </g>
        <g>
          <path class="uuid-223131ae-e1fb-47ea-977e-3e53e7ed7def" d="M146.73,67.1c-1.4,14.54-3.23,29.06-3.23,43.67,0,13.64-1.38,27.05,1.38,40.46,4.68,22.7,8.77,45.45,13.48,68.17,2.71,13.07,5.12,25.96,8.56,38.73,1.3,4.84,1.97,10.59-1.38,14.33-.86,.96-1.95,1.73-2.75,2.75-.8,1.02-1.26,2.46-.67,3.6,2.26,4.36,8.54-.1,12.27,1.61,.76,.35,1.47,.81,2.28,1.03,1.05,.28,2.15,.13,3.24,.07,4.12-.24,8.47,1.08,12.56,1.66,11.6,1.64,26.67-1.8,36.59-8.57,4.55-3.11,7.58-7.81,11.76-11.32,3.26-2.73,8.76-4.84,10.53-8.86,.56-1.28,.84-2.76,1.88-3.71,.63-.58,1.51-.91,1.95-1.65,.75-1.28-.35-2.95-1.73-3.53s-2.93-.47-4.4-.76c-6.86-1.35-9.31-8.02-10.47-13.96-2.55-13.09-5.1-26.18-7.66-39.26-2.02-10.36-1.91-21.34-4.38-31.47-4.58-18.79-10.04-37.86-19.94-54.64-9.46-16.03-18.57-33.17-25.45-50.44-5.35-13.44-12.34-27.19-21.98-38.11-1.2-1.36-4.75-6.94-6.92-6.59-1.58,.25-2.69,5.12-3.09,6.39-3.35,10.66-3.45,21.64-2.42,50.39Z"/>
          <g>
            <g class="uuid-729990a7-da23-4652-9b36-2d00e7f9d55c">
              <path class="uuid-3f23213d-1f40-436f-9dd5-dc11e7067d53" d="M169.77,266.47c5.93-3.11,12.79-4.02,19.42-3.61,7.86,.38,15.64,2.11,23.41,.97,5.28-1.08,9.46-4.68,13.07-8.54,4.51-4.79,8.34-10.38,13.67-14.42-5.06,4.36-8.67,9.99-13.1,14.94-3.82,4.34-8.76,8.46-14.71,9.16-7.5,.8-15.02-.82-22.39-1.34-6.58-.58-13.29,.14-19.37,2.85h0Z"/>
            </g>
            <g class="uuid-729990a7-da23-4652-9b36-2d00e7f9d55c">
              <path class="uuid-3f23213d-1f40-436f-9dd5-dc11e7067d53" d="M162.39,52.93c2.45,17.01,4.99,34.04,5.89,51.23,.45,8.58,.68,17.18,1.86,25.67,1.06,8.53,3.61,16.73,6.59,24.76,4.42,12.08,9.76,23.87,13.99,36.05,4.34,12.14,8.39,24.39,12.06,36.75,2.41,8.25,4.63,16.56,6.61,24.92-2.14-8.32-4.51-16.58-7.08-24.78-5.14-16.38-10.72-32.66-16.97-48.64-3.18-7.97-6.58-15.87-9.56-23.96-2.97-8.08-5.52-16.4-6.55-24.98-1.14-8.56-1.39-17.17-1.72-25.75-.75-17.16-3.03-34.22-5.12-51.27h0Z"/>
            </g>
            <g class="uuid-729990a7-da23-4652-9b36-2d00e7f9d55c">
              <path class="uuid-3f23213d-1f40-436f-9dd5-dc11e7067d53" d="M174.84,132.49c6.29,16.83,11.87,34.9,19.16,51.32,3.63,8.34,7.73,16.65,9.74,25.65,2.11,8.91,3.54,17.94,5.66,26.83-2.47-8.8-4.11-17.82-6.35-26.66-2.22-8.85-6.21-17.08-9.96-25.42-7.14-16.25-12.79-34.8-18.25-51.72h0Z"/>
            </g>
            <g class="uuid-729990a7-da23-4652-9b36-2d00e7f9d55c">
              <path class="uuid-3f23213d-1f40-436f-9dd5-dc11e7067d53" d="M196.03,102.31c3.76,6.24,4.94,13.56,6.45,20.58-2.85-6.67-3.95-13.79-6.45-20.58h0Z"/>
            </g>
            <g class="uuid-729990a7-da23-4652-9b36-2d00e7f9d55c">
              <path class="uuid-3f23213d-1f40-436f-9dd5-dc11e7067d53" d="M172.07,114.2c.52,1.89,.7,3.53,.46,5.49-1.11-1.6-1.32-3.73-.46-5.49h0Z"/>
            </g>
            <g class="uuid-729990a7-da23-4652-9b36-2d00e7f9d55c">
              <path class="uuid-3f23213d-1f40-436f-9dd5-dc11e7067d53" d="M167.46,74.42c.41,3.51,1.6,8.37,.92,11.89-.71-3.93-1.86-7.9-.92-11.89h0Z"/>
            </g>
            <g class="uuid-729990a7-da23-4652-9b36-2d00e7f9d55c">
              <path class="uuid-3f23213d-1f40-436f-9dd5-dc11e7067d53" d="M224.6,235.38c1.44,1.44,2.23,3.08,2.76,5.03-1.67-1.16-2.58-3.03-2.76-5.03h0Z"/>
            </g>
            <g class="uuid-729990a7-da23-4652-9b36-2d00e7f9d55c">
              <path class="uuid-3f23213d-1f40-436f-9dd5-dc11e7067d53" d="M229.2,238.12c.83,1.25,1.16,2.18,1.38,3.66-1.36-.62-1.97-2.3-1.38-3.66h0Z"/>
            </g>
            <g class="uuid-729990a7-da23-4652-9b36-2d00e7f9d55c">
              <path class="uuid-3f23213d-1f40-436f-9dd5-dc11e7067d53" d="M187.74,267.85c2.41-.45,4.82,.15,6.91,1.37-2.45,.11-4.65-.46-6.91-1.37h0Z"/>
            </g>
            <g class="uuid-729990a7-da23-4652-9b36-2d00e7f9d55c">
              <path class="uuid-3f23213d-1f40-436f-9dd5-dc11e7067d53" d="M175.3,250.93c1.8,1.51,2.55,3.49,3.69,5.49-2.14-1.02-3.1-3.32-3.69-5.49h0Z"/>
            </g>
            <g class="uuid-729990a7-da23-4652-9b36-2d00e7f9d55c">
              <path class="uuid-3f23213d-1f40-436f-9dd5-dc11e7067d53" d="M150.88,84.94c.68,2.74,.69,5.5,0,8.23-.69-2.74-.68-5.49,0-8.23h0Z"/>
            </g>
            <g class="uuid-729990a7-da23-4652-9b36-2d00e7f9d55c">
              <path class="uuid-3f23213d-1f40-436f-9dd5-dc11e7067d53" d="M147.19,93.17c1.43,2.12,2.08,4.82,1.38,7.32-.7-2.49-1.26-4.73-1.38-7.32h0Z"/>
            </g>
            <g class="uuid-729990a7-da23-4652-9b36-2d00e7f9d55c">
              <path class="uuid-3f23213d-1f40-436f-9dd5-dc11e7067d53" d="M160.55,29.15c1.67,.76,3.04,2.23,3.23,4.12-1.41-1.22-2.52-2.36-3.23-4.12h0Z"/>
            </g>
            <g class="uuid-729990a7-da23-4652-9b36-2d00e7f9d55c">
              <path class="uuid-3f23213d-1f40-436f-9dd5-dc11e7067d53" d="M213.08,185.08c.18,1.46,.96,2.54,.92,4.12-1.17-.69-2.17-3.16-.92-4.12h0Z"/>
            </g>
            <g class="uuid-729990a7-da23-4652-9b36-2d00e7f9d55c">
              <path class="uuid-3f23213d-1f40-436f-9dd5-dc11e7067d53" d="M185.89,187.37c1.92,1.17,2.97,3.3,3.23,5.49-1.54-1.64-2.36-3.43-3.23-5.49h0Z"/>
            </g>
            <g class="uuid-729990a7-da23-4652-9b36-2d00e7f9d55c">
              <path class="uuid-3f23213d-1f40-436f-9dd5-dc11e7067d53" d="M203.4,113.75c3.1,9.13,4.43,18.8,5.53,28.35-2.19-8.07-3.98-20.03-5.53-28.35h0Z"/>
            </g>
            <g class="uuid-729990a7-da23-4652-9b36-2d00e7f9d55c">
              <path class="uuid-3f23213d-1f40-436f-9dd5-dc11e7067d53" d="M166.08,200.63c1.9,5.71,3.33,14.18,4.61,20.12-2.77-6.36-3.85-13.27-4.61-20.12h0Z"/>
            </g>
            <g class="uuid-729990a7-da23-4652-9b36-2d00e7f9d55c">
              <path class="uuid-3f23213d-1f40-436f-9dd5-dc11e7067d53" d="M172.99,209.77c1.75,5.51,3.71,11.07,3.69,16.92-1.2-4.98-3.41-11.82-3.69-16.92h0Z"/>
            </g>
            <g class="uuid-729990a7-da23-4652-9b36-2d00e7f9d55c">
              <path class="uuid-3f23213d-1f40-436f-9dd5-dc11e7067d53" d="M236.6,250.9c1.54-3.05,4.14-5.33,5.6-8.42-.12,3.55-3.03,6.3-5.6,8.42h0Z"/>
            </g>
            <g class="uuid-43fc1ef7-ea3e-468d-b902-1b4583c93cb0">
              <path class="uuid-f58abb93-91af-4a19-b4e6-d1d517d2a473" d="M170.62,280.13c.97-.15,1.97-.25,2.96-.06,1,.19,1.82,.82,2.73,1.13,1.87,.61,3.9-.11,5.84,.09,3.99,.18,7.82,1.34,11.71,1.66,11.64,.94,23.69-1.92,33.7-7.93,5.12-2.95,8.46-8.14,12.97-11.91,1.52-1.32,3.28-2.26,4.8-3.47,3.17-2.34,5.63-5.47,7.83-8.72-2,3.38-4.39,6.63-7.51,9.13-1.54,1.28-3.27,2.26-4.7,3.56-4.43,3.92-7.67,9.12-12.91,12.19-10.13,6.22-22.44,9.08-34.27,7.91-3.97-.43-7.75-1.66-11.66-1.94-1.96-.27-3.99,.38-5.91-.33-.94-.36-1.73-1.01-2.68-1.23-.95-.24-1.95-.19-2.93-.09h0Z"/>
              <path class="uuid-f58abb93-91af-4a19-b4e6-d1d517d2a473" d="M219.07,178.22c1.01,1.15,1.19,2.77,.46,4.12-.66-1.4-.79-2.61-.46-4.12h0Z"/>
              <path class="uuid-f58abb93-91af-4a19-b4e6-d1d517d2a473" d="M223.67,183.71c1.1,1.28,1.59,2.89,1.38,4.57-1.13-1.34-1.57-2.83-1.38-4.57h0Z"/>
              <path class="uuid-f58abb93-91af-4a19-b4e6-d1d517d2a473" d="M211.23,266.93c3.85-.6,7.06-1.65,10.14-4.12-1.96,3.48-6.36,5-10.14,4.12h0Z"/>
              <path class="uuid-f58abb93-91af-4a19-b4e6-d1d517d2a473" d="M211.7,253.21c-3.87-17.97-8.62-35.81-14.22-53.32-3.62-10.45-8.69-20.28-12.44-30.71-3.5-10.49-7.87-20.67-11.01-31.28-2.11-7.08-3.5-14.42-3.67-21.82-.14-3.71,.22-7.39,.07-11.05-.22-7.35-1.68-14.61-2.58-21.91,1.06,7.28,2.68,14.5,3.07,21.89,.11,7.38-.24,14.71,1.32,21.96,2.7,14.46,9.05,27.91,13.74,41.87,3.68,10.39,8.73,20.31,12.31,30.77,5.51,17.58,9.94,35.51,13.4,53.6h0Z"/>
              <path class="uuid-f58abb93-91af-4a19-b4e6-d1d517d2a473" d="M212.16,131.12c.83,.95,.99,2.05,.46,3.2-.83-.95-.99-2.05-.46-3.2h0Z"/>
              <path class="uuid-f58abb93-91af-4a19-b4e6-d1d517d2a473" d="M157.33,160.84c1.82,2.72,2.51,5.92,2.76,9.15-1.59-2.86-2.24-5.95-2.76-9.15h0Z"/>
              <path class="uuid-f58abb93-91af-4a19-b4e6-d1d517d2a473" d="M156.87,171.82c1.24,1.65,2.3,3.36,2.3,5.49-1.28-1.61-2.35-3.36-2.3-5.49h0Z"/>
              <path class="uuid-f58abb93-91af-4a19-b4e6-d1d517d2a473" d="M176.68,242.24c1.72,2.82,2.8,5.86,3.23,9.15-1.72-2.8-2.8-5.89-3.23-9.15h0Z"/>
              <path class="uuid-f58abb93-91af-4a19-b4e6-d1d517d2a473" d="M171.61,50.64c1.8,1.55,2.65,3.69,3.23,5.94-1.78-1.58-2.61-3.7-3.23-5.94h0Z"/>
              <path class="uuid-f58abb93-91af-4a19-b4e6-d1d517d2a473" d="M177.14,54.3c1.26,.98,1.95,2.11,2.3,3.66-1.44-.68-2.28-2.08-2.3-3.66h0Z"/>
              <path class="uuid-f58abb93-91af-4a19-b4e6-d1d517d2a473" d="M174.37,275.62c1.21-.47,2.45-.13,3.23,.91-1.28,.25-2.26-.04-3.23-.91h0Z"/>
            </g>
          </g>
        </g>
        <g>
          <path class="uuid-08675b9a-83e8-49ab-af17-0c6b90a57439" d="M149.19,.19c-2.37,3.13-2.24,9.48-4.61,13.9-2.36,4.39-6.41,7.39-9.37,11.35-3.31,4.43-8.38,11-4.91,16.28,2.22,3.37,5.29,5.7,6.99,9.38,1.64,3.55,3.07,6.89,5.47,10.02,2.29,2.98,5.12,6.21,8.75,7.52,.1-8.93,.2-17.97-.49-26.91-.71-9.22,.86-19.33,.94-28.56,.04-5.13-1.33-9.18-2.78-12.97Z"/>
          <path class="uuid-3f23213d-1f40-436f-9dd5-dc11e7067d53" d="M151.81,10.4c.2,2.44-.42,4.86-.63,7.25-.41,4.83,.47,9.67,.43,14.53,.08,7.28-.74,14.57-.49,21.83,.04,2.43,.27,4.81,.61,7.22,.26,2.41,.58,5.11-.72,7.3-.97-.18-1.75-.82-2.31-1.55,.6,.67,1.41,1.21,2.27,1.34,1.52-4.14-.7-9.58-.7-14.27-.36-7.32,.36-14.57,.43-21.87,.06-4.85-.6-9.73,0-14.59,.37-2.42,1.08-4.75,1.09-7.2h0Z"/>
          <path class="uuid-3f23213d-1f40-436f-9dd5-dc11e7067d53" d="M162.91,21.75c1.1,2.42,3.44,4.06,4.7,6.4,0,0,1.42,2.23,1.42,2.23,1.68,2.65,4.02,6.37,5.51,9.08,3.34,6.21,7.13,12.4,8.46,19.41-1.09-3.34-2.45-6.61-4.18-9.67-3.02-5.48-7.3-13.1-10.44-18.41,0,0-1.31-2.31-1.31-2.31-1.15-2.41-3.33-4.16-4.16-6.73h0Z"/>
          <path class="uuid-3f23213d-1f40-436f-9dd5-dc11e7067d53" d="M153.28,10.73c2.99,1.11,4.7,4.17,5.88,6.97-2.38-2.07-3.71-4.71-5.88-6.97h0Z"/>
          <path class="uuid-3f23213d-1f40-436f-9dd5-dc11e7067d53" d="M150.5,2.62c1.14,1.08,1.2,2.61,.82,4.05-.99-1.22-.99-2.56-.82-4.05h0Z"/>
          <path class="uuid-3f23213d-1f40-436f-9dd5-dc11e7067d53" d="M131.71,35.53c-1.01,6.51,6.29,9.39,8.97,14.52,2.14,3.91,3.15,8.29,6.02,11.79,.83,1.22,1.71,2.42,2.49,3.69-1.89-2.28-3.93-4.43-5.53-7-1.6-2.53-2.29-5.46-3.85-7.98-2.53-4.8-10.02-8.67-8.1-15.02h0Z"/>
          <path class="uuid-3f23213d-1f40-436f-9dd5-dc11e7067d53" d="M143.8,19.16c1.4-3.22,2.5-6.27,4.08-9.4-.22,3.46-1.54,6.98-4.08,9.4h0Z"/>
          <path class="uuid-3f23213d-1f40-436f-9dd5-dc11e7067d53" d="M173.21,35.69c-.23-1.05,.15-1.85,1.14-2.27,.23,1.05-.16,1.84-1.14,2.27h0Z"/>
          <path class="uuid-3f23213d-1f40-436f-9dd5-dc11e7067d53" d="M174.68,38.29c0-.94,.75-1.48,1.63-1.13-.29,.9-.68,1.2-1.63,1.13h0Z"/>
          <path class="uuid-3f23213d-1f40-436f-9dd5-dc11e7067d53" d="M144.94,41.21c1.4-.58,2.79-.47,4.08,.32-1.4,.58-2.79,.46-4.08-.32h0Z"/>
          <path class="uuid-3f23213d-1f40-436f-9dd5-dc11e7067d53" d="M142.66,25.97c2.24-.23,4.85,.14,6.37,1.95-1.94-.52-4.61-.89-6.37-1.95h0Z"/>
          <path class="uuid-3f23213d-1f40-436f-9dd5-dc11e7067d53" d="M146.25,24.35c1.37-.26,2.3,.41,3.27,1.3-1.26,.47-2.47-.3-3.27-1.3h0Z"/>
        </g>
      </g>
    </g>
  </g>
</svg>